<svg width="72" height="72" viewBox="0 0 72 72" fill="none" xmlns="http://www.w3.org/2000/svg">
  <circle cx="36" cy="36" r="36" fill="white"/>
  <path d="M30.5532 32.6594C32.6341 30.5582 32.6341 27.163 30.5532 25.0758C28.4307 23.0442 25.1152 23.0442 22.9927 25.0758C22.0077 26.1194 21.4806 27.4831 21.5222 28.9163C21.5638 30.3495 22.1465 31.6853 23.1869 32.6594C24.2135 33.6473 25.5452 34.1343 26.8631 34.1343C28.1949 34.1343 29.5128 33.6334 30.5532 32.6594ZM26.7799 30.9061C26.225 30.9061 25.6978 30.6835 25.3094 30.2938C24.9071 29.9042 24.6851 29.3755 24.6851 28.8189C24.6851 28.2623 24.8932 27.7335 25.2955 27.33C25.7117 26.9265 26.2389 26.7177 26.7799 26.7177C27.307 26.7177 27.8481 26.9265 28.2504 27.33C29.0689 28.151 29.0689 29.4729 28.2643 30.2938C27.8619 30.6835 27.3348 30.9061 26.7799 30.9061Z" fill="#CC1543"/>
  <path d="M55.266 19.7471C50.5904 15.0571 43.112 14.751 38.0617 18.9677C38.8248 19.7888 39.4492 20.6934 39.9487 21.6397C43.7225 18.2997 49.3833 18.4528 52.9629 22.0572C56.6674 25.7869 56.6674 31.8407 52.9629 35.5564L45.9424 42.5982L36.4939 52.0894L29.0711 44.644L35.8141 37.8805C40.795 32.8844 40.795 24.7431 35.8141 19.7471C30.8332 14.751 22.7166 14.751 17.7357 19.7471C12.7548 24.7431 12.7548 32.8844 17.7357 37.8805L21.8286 41.9581C22.5085 42.5426 23.5352 42.4591 24.1318 41.7772C24.659 41.1648 24.659 40.2602 24.1179 39.634L20.0527 35.5564C18.249 33.7472 17.264 31.3536 17.264 28.7929C17.264 26.2462 18.2629 23.8386 20.0527 22.0433C21.8564 20.2481 24.2428 19.2461 26.7818 19.2461C29.3208 19.2461 31.7211 20.2481 33.5109 22.0433C37.2154 25.7591 37.2154 31.8267 33.5109 35.5425L25.6164 43.4611C25.2279 43.8507 25.0614 44.4074 25.1724 44.9362C25.1863 45.0197 25.214 45.1032 25.2418 45.1589L25.2556 45.2146C25.3389 45.4233 25.4638 45.6182 25.6164 45.7712L35.2869 55.4712L35.3424 55.5268C35.6337 55.8191 36.0222 55.9861 36.4384 56H36.4939C36.5078 56 36.5078 56 36.5217 56H36.5494C36.9657 55.9861 37.3541 55.8191 37.6733 55.4851L48.3982 44.7136L55.2522 37.8387C60.247 32.8844 60.247 24.7571 55.266 19.7471Z" fill="#CC1543"/>
</svg>
