<svg width="48" height="48" viewBox="0 0 48 48" fill="none" xmlns="http://www.w3.org/2000/svg">
<path d="M26.1113 25.0234C27.5526 23.8232 29.3469 23.1577 31.1594 23.1577C32.557 23.1577 33.9509 23.5504 35.1847 24.296C37.6378 25.7726 39.1591 28.3947 39.1591 31.1515C39.1591 35.483 35.4941 39.1453 31.1594 39.1453C29.0667 39.1453 26.9994 38.2543 25.4744 36.6941L25.4489 36.6686C23.9713 35.1484 23.1597 33.1881 23.1597 31.1515C23.1597 28.813 24.2333 26.5799 26.1113 25.0234Z" fill="#D6B294"/>
<path d="M30.5301 25.8822C30.763 25.8822 30.9523 25.693 30.9523 25.46C30.9523 25.2271 30.763 25.0378 30.5301 25.0378C30.2972 25.0378 30.1079 25.2271 30.1079 25.46C30.1079 25.6893 30.2972 25.8822 30.5301 25.8822Z" fill="black" fill-opacity="0.87"/>
<path d="M30.5301 28.4099C30.763 28.4099 30.9523 28.2207 30.9523 27.9877C30.9523 27.7548 30.763 27.5656 30.5301 27.5656C30.2972 27.5656 30.1079 27.7548 30.1079 27.9877C30.1079 28.2207 30.2972 28.4099 30.5301 28.4099Z" fill="black" fill-opacity="0.87"/>
<path d="M27.993 26.2927C27.7564 26.2927 27.5708 26.4856 27.5708 26.7221C27.5708 26.9587 27.7637 27.1443 27.993 27.1443C28.2296 27.1443 28.4152 26.9514 28.4152 26.7221C28.4152 26.4856 28.2296 26.2927 27.993 26.2927Z" fill="black" fill-opacity="0.87"/>
<path d="M32.9538 15.7021L33.9074 12.3598C34.0239 11.7888 34.0093 11.236 33.8783 10.6832C33.5726 9.44666 32.579 8.45015 31.3524 8.13011C30.246 7.84643 29.0886 8.07192 28.2006 8.75565C27.3125 9.44302 26.8066 10.4795 26.8066 11.596C26.8066 11.8434 26.8321 12.087 26.8794 12.3307L27.8439 15.7203L27.9531 16.2512C27.9968 16.5822 27.9931 16.9022 27.9422 17.2259C27.8912 17.506 27.8148 17.7787 27.702 18.0333L26.2607 20.8919C25.9695 21.3756 25.7148 21.8557 25.4964 22.3357L25.3181 22.7285L24.8704 21.8411C24.7539 21.572 24.6702 21.2992 24.6229 21.0228C24.5428 20.5246 24.572 20.019 24.7103 19.5462C24.7212 19.5135 24.7539 19.3789 24.9578 18.6734C25.2416 17.6696 25.6784 16.153 25.6784 16.153C25.7948 15.5857 25.7876 15.0365 25.6493 14.4801C25.3435 13.2435 24.3536 12.247 23.1234 11.927C22.0097 11.6361 20.8633 11.8688 19.9752 12.5525C19.0872 13.2399 18.5813 14.2764 18.5813 15.3929C18.5813 15.6402 18.6067 15.8839 18.6541 16.1276L19.6185 19.5171L19.7277 20.0481C19.7714 20.3791 19.7678 20.7028 19.7132 21.0228C19.6695 21.2992 19.5894 21.5683 19.473 21.8302L19.018 22.7212L18.8397 22.3284C18.6213 21.852 18.3665 21.3683 18.0863 20.9028L16.6414 18.0369C16.5249 17.7751 16.4412 17.4987 16.3939 17.2186C16.3102 16.7277 16.3429 16.2185 16.4812 15.7421L17.4457 12.3525C17.5622 11.7815 17.5476 11.2287 17.4166 10.6759C17.1109 9.44666 16.1173 8.44288 14.8908 8.12283C13.7734 7.83189 12.6306 8.06465 11.7389 8.74838C10.8581 9.43211 10.3522 10.465 10.3522 11.5815C10.3522 11.8288 10.3777 12.0725 10.425 12.3161L11.3895 15.7057L11.4987 16.2367C11.5424 16.5676 11.5387 16.8877 11.4878 17.2114C11.4368 17.4878 11.3604 17.7569 11.2476 18.0188L9.76628 20.8773C8.19036 23.4777 7.6699 26.0744 8.20128 28.6202C8.54703 30.2823 9.34773 31.908 10.5815 33.45L10.6507 33.5373C10.9746 33.941 11.4587 34.1737 11.9718 34.1737H15.8589C16.1064 34.1737 16.3866 34.0937 16.6705 33.941L16.8707 33.8319L16.9544 34.0501C17.3839 35.1411 18.0171 36.2213 18.847 37.2505L18.9161 37.3378C19.24 37.7415 19.7241 37.9743 20.2373 37.9743H24.0879C24.4264 37.9743 24.7576 37.8761 25.0342 37.6833L25.1688 37.596L25.2926 37.7051C26.934 39.1817 29.0158 40 31.1486 40C33.4634 40 35.6689 39.0653 37.3686 37.3705C39.0683 35.6721 40 33.4682 40 31.1551C40 28.2275 38.4204 25.3834 35.8764 23.7323L35.8182 23.6923L35.7927 23.6232C35.5015 22.714 35.0793 21.7975 34.537 20.9064L33.0958 18.0406C32.9793 17.7787 32.8956 17.506 32.8483 17.2223C32.7646 16.7313 32.7973 16.2221 32.9356 15.7457L32.9538 15.7021ZM27.7165 12.1452C27.6765 11.9597 27.6583 11.7743 27.6583 11.5924C27.6583 10.7377 28.0477 9.94854 28.721 9.42847C29.4016 8.9084 30.2788 8.73019 31.1377 8.95204C32.0549 9.18844 32.8228 9.96673 33.0485 10.8869C33.1504 11.3051 33.1649 11.7233 33.0812 12.1307L32.4552 14.3346H28.3389L27.7165 12.1452ZM32.2186 15.1856L32.1313 15.502C32.0221 15.8803 31.9639 16.2694 31.9639 16.6586V16.8659H28.8448V16.6586C28.8448 16.4731 28.8302 16.2912 28.8048 16.1203L28.5864 15.182H32.215V15.1856H32.2186ZM25.8858 23.6523C26.1515 22.8813 26.5264 22.0957 26.9923 21.3247L27.1706 21.4338L27.0032 21.3101L28.4663 18.4115C28.55 18.2261 28.6191 18.0479 28.6665 17.866L28.7101 17.7169H32.084L32.1277 17.866C32.1823 18.0479 32.2441 18.2188 32.3242 18.3934L33.7909 21.2956C34.0603 21.7465 34.2932 22.1757 34.4897 22.6048L34.7081 23.0667L34.2313 22.8849C31.5635 21.8557 28.5718 22.2412 26.1988 23.8887L25.6784 24.2487L25.8858 23.6523ZM26.1115 25.0234C27.5527 23.8232 29.347 23.1577 31.1595 23.1577C32.5571 23.1577 33.9511 23.5504 35.1849 24.296C37.6379 25.7726 39.1593 28.3947 39.1593 31.1515C39.1593 35.483 35.4942 39.1453 31.1595 39.1453C29.0668 39.1453 26.9995 38.2543 25.4746 36.6941L25.4491 36.6686C23.9714 35.1484 23.1598 33.1881 23.1598 31.1515C23.1598 28.813 24.2335 26.58 26.1115 25.0234ZM19.4839 15.9421C19.4438 15.7494 19.4293 15.5675 19.4293 15.3893C19.4293 14.5346 19.8187 13.7454 20.492 13.2254C21.1653 12.7053 22.0425 12.5271 22.9087 12.7489C23.8259 12.989 24.5938 13.7636 24.8195 14.6837C24.9214 15.102 24.9359 15.5202 24.8522 15.9276C24.7976 16.1094 24.5137 17.1132 24.2662 17.9788L24.2226 18.1315H20.1026L19.4839 15.9421ZM23.9824 18.9789L23.895 19.2953C23.7822 19.6735 23.7276 20.0627 23.7239 20.4555V20.6628H20.6049V20.4555C20.6049 20.2773 20.5903 20.0954 20.5648 19.9208L20.3464 18.9825H23.9824V18.9789ZM20.23 22.2048C20.3101 22.0266 20.3792 21.852 20.4302 21.6593L20.4738 21.5102H23.8513L23.895 21.6593C23.9496 21.8375 24.0115 22.012 24.0915 22.1866L25.3035 24.5869L25.1907 24.6888C23.36 26.3836 22.3082 28.733 22.3082 31.1442C22.3082 33.1663 23.047 35.1557 24.3863 36.7559L24.6047 37.0105L24.2844 37.0905C24.2262 37.1051 24.1607 37.1123 24.0988 37.1123H20.2445C19.9898 37.1123 19.7532 36.9959 19.5858 36.7923L19.5166 36.7086C18.5667 35.523 17.8898 34.2828 17.5076 33.0208C16.7178 30.4423 17.14 27.7801 18.7596 25.1107L20.23 22.2048ZM11.2476 12.1452C11.2075 11.9597 11.1893 11.7743 11.1893 11.5924C11.1893 10.7377 11.5788 9.94854 12.2521 9.42847C12.9254 8.9084 13.8098 8.73019 14.6688 8.95204C15.5859 9.18844 16.3539 9.96673 16.5795 10.8869C16.6814 11.3051 16.696 11.7233 16.6123 12.1307L15.9863 14.3346H11.8663L11.2476 12.1452ZM15.7497 15.1856L15.6623 15.502C15.5532 15.8803 15.4949 16.2694 15.4949 16.6586V16.8659H12.3758V16.6586C12.3758 16.4731 12.3613 16.2912 12.3358 16.1203L12.1174 15.182H15.7461V15.1856H15.7497ZM10.4906 21.321L11.9973 18.4115C12.0847 18.2188 12.1502 18.0406 12.2048 17.866L12.2485 17.7169H15.6223L15.666 17.866C15.7206 18.0479 15.7825 18.2188 15.8625 18.3934L17.3256 21.2956C17.817 22.1066 18.1918 22.8994 18.4575 23.6814L18.4866 23.765L18.0244 24.6851C16.3684 27.4201 15.8807 30.1586 16.565 32.8354L16.5977 32.9627L16.4958 33.0463C16.3247 33.1809 16.0481 33.3154 15.8589 33.3154H11.9755C11.7207 33.3154 11.4769 33.1991 11.3204 32.999L11.2512 32.9154C9.22399 30.3914 7.45153 26.3326 10.4906 21.321Z" fill="black" fill-opacity="0.87"/>
<path d="M36.4114 32.639C35.7453 34.9011 33.4852 36.6141 31.1595 36.6141C30.9229 36.6141 30.7373 36.8069 30.7373 37.036C30.7373 37.2687 30.9302 37.4579 31.1595 37.4579C33.8491 37.4579 36.4587 35.483 37.2266 32.8754C37.2594 32.7663 37.2448 32.6499 37.1902 32.5517C37.1356 32.4535 37.0483 32.3808 36.9391 32.3444C36.8991 32.3335 36.859 32.3262 36.8226 32.3262C36.637 32.3335 36.466 32.4499 36.4114 32.639Z" fill="black" fill-opacity="0.87"/>
<path d="M32.2187 15.1857L32.1313 15.5021C32.0222 15.8803 31.9639 16.2695 31.9639 16.6586V16.8659H28.8448V16.6586C28.8448 16.4732 28.8303 16.2913 28.8048 16.1204L28.5864 15.1821H32.2151V15.1857H32.2187Z" fill="#CC1543"/>
<path d="M23.9821 18.9789L23.8948 19.2953C23.7819 19.6735 23.7273 20.0627 23.7237 20.4555V20.6628H20.6046V20.4555C20.6046 20.2772 20.59 20.0954 20.5646 19.9172L20.3462 18.9789H23.9821Z" fill="#D6B294"/>
<path d="M15.7495 15.1857L15.6621 15.5021C15.5529 15.8803 15.4947 16.2695 15.4947 16.6586V16.8659H12.3756V16.6586C12.3756 16.4732 12.361 16.2913 12.3356 16.1204L12.1172 15.1821H15.7458V15.1857H15.7495Z" fill="#CC1543"/>
<path d="M24.2264 18.1352L24.2701 17.9824C24.5176 17.1169 24.8014 16.1131 24.856 15.9312C24.9397 15.5239 24.9252 15.1057 24.8233 14.6874C24.5976 13.7673 23.8297 12.9926 22.9125 12.7526C22.0463 12.5308 21.1692 12.709 20.4959 13.229C19.8225 13.7491 19.4331 14.5383 19.4331 15.393C19.4331 15.5712 19.4477 15.753 19.4877 15.9458L20.1101 18.1352H24.2264Z" fill="white"/>
<path d="M15.9898 14.3352L16.6158 12.1313C16.6995 11.724 16.6849 11.3057 16.583 10.8875C16.3574 9.96737 15.5894 9.18908 14.6723 8.95268C13.8097 8.73083 12.9289 8.90904 12.2556 9.42911C11.5823 9.94918 11.1929 10.7384 11.1929 11.593C11.1929 11.7749 11.2111 11.9567 11.2511 12.1459L11.8735 14.3352H15.9898Z" fill="white"/>
<path d="M26.9921 21.3211C26.5226 22.0921 26.1514 22.8777 25.8857 23.6487L25.6782 24.2451L26.1987 23.8851C28.5717 22.2376 31.5634 21.8521 34.2312 22.8813L34.7079 23.0632L34.4896 22.6013C34.293 22.1721 34.0601 21.7466 33.7908 21.292L32.324 18.3898C32.244 18.2188 32.1821 18.0443 32.1275 17.8624L32.0838 17.7133H28.71L28.6663 17.8624C28.6153 18.0443 28.5498 18.2225 28.4661 18.408L27.003 21.3065" fill="white"/>
<path d="M32.459 14.3352L33.085 12.1313C33.1687 11.724 33.1542 11.3057 33.0523 10.8875C32.8266 9.96737 32.0587 9.18908 31.1415 8.95268C30.2789 8.73083 29.4018 8.90904 28.7249 9.42911C28.0515 9.94918 27.6621 10.7384 27.6621 11.593C27.6621 11.7749 27.6803 11.9567 27.7203 12.1459L28.3427 14.3352H32.459Z" fill="white"/>
<path d="M22.3156 31.1478C22.3156 28.7366 23.3637 26.3835 25.1981 24.6924L25.3109 24.5905L24.0989 22.1902C24.0189 22.0193 23.957 21.8411 23.9024 21.6628L23.8587 21.5137H20.4812L20.4375 21.6628C20.383 21.8556 20.3138 22.0302 20.2374 22.2084L18.7634 25.1179C17.1438 27.7837 16.7252 30.4495 17.5113 33.0281C17.8971 34.2864 18.5705 35.5266 19.5204 36.7159L19.5895 36.7995C19.757 36.9995 19.9935 37.1195 20.2483 37.1195H24.0989C24.1644 37.1195 24.2263 37.1159 24.2845 37.1014L24.6085 37.0213L24.3901 36.7668C23.0544 35.1556 22.3156 33.1699 22.3156 31.1478Z" fill="white"/>
<path d="M18.4863 23.7686L18.4572 23.685C18.1915 22.9031 17.8166 22.1102 17.3253 21.2992L15.8622 18.397C15.7821 18.226 15.7203 18.0515 15.6657 17.8696L15.622 17.7205H12.2481L12.2045 17.8696C12.1499 18.0478 12.088 18.2224 11.997 18.4152L10.4902 21.3247C7.45121 26.3363 9.22367 30.395 11.2545 32.9263L11.3237 33.0099C11.4802 33.2063 11.724 33.3263 11.9788 33.3263H15.8658C16.0515 33.3263 16.3281 33.1881 16.5028 33.0572L16.6047 32.9736L16.5719 32.8463C15.8804 30.1623 16.3681 27.4237 18.0241 24.6888L18.4863 23.7686Z" fill="white"/>
</svg>
