<svg width="48" height="48" viewBox="0 0 48 48" fill="none" xmlns="http://www.w3.org/2000/svg">
<path d="M34.3298 18.1296C34.301 17.9904 34.2914 17.8512 34.253 17.7168C34.1858 17.4816 34.0802 17.2608 33.9842 17.0352C33.9314 16.9104 33.8978 16.776 33.8354 16.656C33.6674 16.3344 33.4658 16.0272 33.2354 15.7344C33.2258 15.7248 33.221 15.7104 33.2114 15.696C33.2066 15.6912 33.2066 15.6864 33.2018 15.6816C33.1874 15.6672 33.1682 15.6432 33.149 15.6144C32.1794 14.3184 30.6386 13.5456 29.0258 13.5456C29.0162 13.5456 29.0114 13.5456 29.0018 13.5456C29.0018 13.5456 29.0018 13.5456 28.997 13.5456C28.9922 13.5456 28.997 13.5456 28.997 13.5456C28.9538 13.5456 28.9154 13.5552 28.877 13.5552C28.5986 13.56 28.325 13.5792 28.0658 13.6224C27.8834 13.6512 27.7106 13.704 27.533 13.7472C27.4226 13.776 27.3074 13.7952 27.2018 13.8288C26.9954 13.8912 26.8034 13.9728 26.6066 14.0496C26.5442 14.0736 26.477 14.0976 26.4146 14.1216C26.2082 14.2128 26.0162 14.3136 25.829 14.4144C25.7954 14.4336 25.757 14.448 25.7282 14.4672C25.5314 14.5776 25.3538 14.688 25.1858 14.7984C25.1714 14.808 25.157 14.8176 25.1426 14.8272C24.5378 15.2304 24.1394 15.5952 24.0482 15.6816C23.9666 15.7632 23.8658 15.7968 23.765 15.7968C23.6642 15.7968 23.5586 15.7584 23.4818 15.6816C23.3906 15.5952 22.9922 15.2304 22.3874 14.8272C22.373 14.8176 22.3586 14.808 22.3442 14.7984C22.1762 14.688 21.9986 14.5776 21.8018 14.4672C21.7682 14.448 21.7346 14.4336 21.701 14.4144C21.5138 14.3136 21.3218 14.2176 21.1154 14.1216C21.053 14.0928 20.9906 14.0736 20.9282 14.0496C20.7362 13.9728 20.5442 13.8912 20.333 13.8288C20.2274 13.7952 20.1122 13.776 20.0018 13.7472C19.829 13.704 19.6562 13.6512 19.4738 13.6224C19.2098 13.5792 18.941 13.56 18.6626 13.5552C18.6194 13.5552 18.581 13.5456 18.5426 13.5456C18.5426 13.5456 18.5426 13.5456 18.5378 13.5456C18.5282 13.5456 18.5234 13.5456 18.5138 13.5456C16.901 13.5456 15.3602 14.3184 14.3906 15.6144C14.3666 15.648 14.3522 15.6672 14.3378 15.6816C14.333 15.6864 14.333 15.6912 14.3282 15.696C14.3186 15.7056 14.3138 15.72 14.3042 15.7344C14.0738 16.0224 13.8722 16.3296 13.7042 16.656C13.6418 16.776 13.6082 16.9104 13.5506 17.0352C13.4546 17.2608 13.349 17.4816 13.2818 17.7168C13.2434 17.8512 13.2338 17.9952 13.205 18.1296C13.157 18.3648 13.0994 18.5952 13.0802 18.8352C13.0658 19.0032 13.0898 19.176 13.0946 19.3488C13.0994 19.5504 13.085 19.7568 13.109 19.9584C13.109 19.968 13.1138 19.9776 13.1138 19.9872C13.1138 19.992 13.1138 19.9968 13.1138 20.0016C13.1474 20.4 13.2194 20.832 13.3394 21.3024C13.349 21.3312 13.349 21.3648 13.3538 21.3936L13.3922 21.5328H13.4018C13.4738 21.792 13.5554 22.056 13.6562 22.3344H13.6418L13.7426 22.5888C13.7714 22.6656 13.8146 22.7424 13.8482 22.8192C13.9586 23.0832 14.0834 23.352 14.2226 23.6304C14.3138 23.8176 14.4146 24.0048 14.5202 24.1968C14.6546 24.4368 14.7938 24.6768 14.9522 24.9264C15.0722 25.1184 15.1922 25.3056 15.3218 25.4976C15.4514 25.6896 15.6002 25.8912 15.749 26.0928C15.9938 26.424 16.2482 26.7552 16.5266 27.0912C16.6514 27.2448 16.781 27.3984 16.9154 27.5568C17.117 27.792 17.3186 28.0224 17.5394 28.2576C17.6834 28.4112 17.837 28.5696 17.9858 28.728C18.365 29.1216 18.7682 29.52 19.1906 29.9232C19.3874 30.1104 19.5842 30.2976 19.7954 30.4848C20.0402 30.7056 20.2946 30.9264 20.549 31.152C20.789 31.3584 21.0338 31.5696 21.2882 31.776C21.5426 31.9872 21.797 32.1984 22.061 32.4096C22.3826 32.664 22.7234 32.928 23.069 33.1872C23.2706 33.3408 23.4578 33.4944 23.669 33.648L23.7794 33.7296H23.7842L23.8946 33.648C24.1058 33.4944 24.2882 33.3408 24.4946 33.1872C24.8354 32.928 25.181 32.664 25.5026 32.4096C25.7666 32.1984 26.021 31.9872 26.2754 31.776C26.5298 31.5648 26.7794 31.3584 27.0146 31.152C27.2738 30.9312 27.5234 30.7056 27.7682 30.4848C27.9794 30.2928 28.1762 30.1056 28.373 29.9184C28.7954 29.52 29.1938 29.1216 29.573 28.728C29.7266 28.5696 29.8802 28.4112 30.0242 28.2576C30.2402 28.0224 30.4466 27.7872 30.6482 27.5568C30.7826 27.3984 30.9122 27.2448 31.037 27.0912C31.3106 26.7552 31.5698 26.424 31.8146 26.0928C31.9634 25.8912 32.1074 25.6944 32.2418 25.4976C32.3714 25.3056 32.4962 25.1136 32.6114 24.9264C32.7698 24.6768 32.909 24.432 33.0434 24.1968C33.149 24.0096 33.2498 23.8176 33.341 23.6304C33.4802 23.352 33.605 23.0832 33.7154 22.8192C33.7442 22.7424 33.7922 22.6656 33.821 22.5936L33.9218 22.3392H33.9074C34.0082 22.0608 34.0898 21.7968 34.1618 21.5376H34.1714L34.2098 21.3984C34.2194 21.3696 34.2194 21.336 34.2242 21.3072C34.3394 20.8416 34.4162 20.4048 34.4498 20.0064C34.4498 20.0016 34.4498 19.9968 34.4498 19.992C34.4498 19.9824 34.4546 19.9728 34.4546 19.9632C34.4786 19.7616 34.4642 19.56 34.469 19.3536C34.4738 19.1808 34.493 19.0128 34.4834 18.84C34.4354 18.5952 34.3778 18.3648 34.3298 18.1296Z" fill="#CC1543"/>
<path d="M3.6001 21.816C3.6001 22.0896 3.8209 22.3152 4.0945 22.3152H8.9425V21.3216H4.0945C3.8209 21.3168 3.6001 21.5424 3.6001 21.816Z" fill="black" fill-opacity="0.87"/>
<path d="M44.2895 21.1632C43.9343 20.1504 42.8207 19.6128 41.8079 19.9728C41.2511 20.1696 40.8191 20.6064 40.6223 21.1632L40.5695 21.3168H38.8415H38.5391H37.6991L37.7615 21.0336C37.8815 20.5104 37.9679 19.9728 38.0159 19.4352C38.2655 17.2704 37.6223 15.0672 36.2447 13.392C34.8431 11.5152 32.6207 10.4016 30.2927 10.4016C30.2879 10.4016 30.2879 10.4016 30.2831 10.4016C27.9551 10.4928 25.6991 11.3808 23.9231 12.9072L23.7743 13.0368L23.6255 12.9072C21.8495 11.3808 19.5887 10.4928 17.2559 10.4016H17.2511C14.9279 10.4016 12.7055 11.5152 11.3087 13.3872C9.92634 15.0768 9.28314 17.2752 9.53274 19.4352C9.96474 24.9696 14.6591 31.0464 23.4863 37.5072C23.6639 37.6368 23.8991 37.6368 24.0719 37.5072C31.2863 32.2224 35.7599 27.168 37.3727 22.4736L37.4255 22.32H38.5439H38.8463H40.5743L40.6271 22.4736C40.7999 22.9632 41.1551 23.3616 41.6207 23.5824C42.0911 23.808 42.6191 23.8368 43.1087 23.664C43.5983 23.4912 43.9919 23.136 44.2175 22.6656C44.4335 22.1856 44.4623 21.6576 44.2895 21.1632ZM37.0223 19.3632C36.9743 19.968 36.8687 20.568 36.7199 21.144L36.6767 21.3168H30.5855L27.8255 16.4688C27.6911 16.2288 27.3887 16.1424 27.1487 16.2816C27.0479 16.3344 26.9711 16.4256 26.9327 16.5312L23.1023 26.1456L20.6159 18.0288C20.5775 17.904 20.4911 17.7984 20.3759 17.736C20.2559 17.6736 20.1215 17.664 19.9967 17.7024C19.8815 17.736 19.7807 17.8128 19.7183 17.9184L17.6879 21.3168H13.3343L13.6367 22.3104H17.9663C18.1391 22.3104 18.3023 22.2192 18.3887 22.0704L19.9919 19.3872L22.5647 27.7824C22.6271 27.9792 22.8095 28.1184 23.0207 28.128C23.2463 28.128 23.4239 28.0032 23.5007 27.816L27.4703 17.856L29.8607 22.056C29.9471 22.2144 30.1151 22.3104 30.2879 22.3104H36.3551L36.2303 22.6272C34.5455 26.928 30.3983 31.5552 23.8943 36.384L23.7599 36.4848L23.6255 36.384C13.3295 28.7328 10.8143 22.9344 10.5167 19.4208C10.2623 17.5248 10.8095 15.5712 12.0191 14.0736C12.0575 14.0352 12.0767 14.0064 12.0911 13.9824C13.3199 12.3552 15.2495 11.3952 17.2607 11.3952C20.5679 11.3952 23.1311 13.7808 23.4095 14.0496C23.6159 14.2512 23.9327 14.2416 24.1151 14.0544L24.1871 13.9872C24.6479 13.56 27.1343 11.3952 30.2735 11.3952C30.2831 11.3952 30.2927 11.3952 30.3023 11.3952C32.3087 11.3952 34.2239 12.3552 35.4335 13.968C35.4623 14.0064 35.4815 14.0304 35.5007 14.0544C36.7151 15.5472 37.2623 17.4768 37.0223 19.3632ZM42.4415 22.776C41.9135 22.776 41.4863 22.3488 41.4863 21.816C41.4863 21.2832 41.9135 20.856 42.4415 20.856C42.9695 20.856 43.3967 21.288 43.3967 21.816C43.3967 22.344 42.9695 22.776 42.4415 22.776Z" fill="black" fill-opacity="0.87"/>
</svg>
