<svg width="48" height="48" viewBox="0 0 48 48" fill="none" xmlns="http://www.w3.org/2000/svg">
<path d="M25.8915 12.8881C25.9683 12.9937 26.0787 13.0609 26.2035 13.0801C28.0755 13.3729 29.8131 14.0401 31.2243 15.0049C32.5971 15.9409 33.6051 17.1169 34.1427 18.4081C34.2387 18.6433 34.5075 18.7681 34.7667 18.6625C34.8819 18.6145 34.9731 18.5185 35.0211 18.4033C35.0691 18.2833 35.0691 18.1537 35.0163 18.0337C34.4067 16.5745 33.2787 15.2497 31.7571 14.2081C30.2259 13.1617 28.3539 12.4417 26.3475 12.1297C26.3235 12.1249 26.2995 12.1249 26.2755 12.1249C26.0451 12.1249 25.8387 12.2977 25.8051 12.5329C25.7859 12.6577 25.8147 12.7825 25.8915 12.8881Z" fill="black" fill-opacity="0.87"/>
<path d="M15.2733 17.424C15.3453 17.5968 15.5277 17.7216 15.7149 17.7216C15.7197 17.7216 15.7293 17.7216 15.7341 17.7216C15.9261 17.712 16.1037 17.5728 16.1661 17.3856C16.2237 17.1984 16.1565 16.9728 16.0029 16.8576C15.8397 16.7328 15.5997 16.7328 15.4365 16.848C15.2637 16.9728 15.1917 17.2224 15.2733 17.424Z" fill="black" fill-opacity="0.87"/>
<path d="M18.1634 14.7218C17.9906 14.8514 17.9234 15.0962 18.0002 15.2978C18.077 15.4802 18.269 15.605 18.4706 15.5954C18.6626 15.581 18.8354 15.4466 18.893 15.2594C18.9506 15.0722 18.8834 14.8514 18.7298 14.7314C18.5714 14.6018 18.3218 14.6018 18.1634 14.7218Z" fill="black" fill-opacity="0.87"/>
<path d="M21.0962 16.848C20.9234 16.9728 20.8514 17.2224 20.933 17.424C21.005 17.5968 21.1922 17.7216 21.3794 17.7216C21.3842 17.7216 21.3938 17.7216 21.3986 17.7216C21.5858 17.712 21.7682 17.5728 21.8258 17.3856C21.8834 17.1984 21.8162 16.9728 21.6626 16.8576C21.4946 16.7328 21.2546 16.7328 21.0962 16.848Z" fill="black" fill-opacity="0.87"/>
<path d="M14.7073 38.4H33.2929C35.4241 38.4 37.1617 36.648 37.1617 34.488V32.64L37.1953 32.6112C37.7233 32.184 38.0161 31.5792 38.0161 30.9072C38.0161 30.4848 37.9009 30.0816 37.6801 29.7408L37.6417 29.6832L37.6897 29.6304C38.1505 29.1168 38.4049 28.4496 38.4049 27.7536V27.6384C38.4049 26.4528 37.6609 25.3872 36.5521 24.9936L36.4897 24.9744V23.4144L36.5473 23.3904C36.7249 23.3232 36.8881 23.2368 37.0417 23.136C37.6609 22.7184 38.0161 22.0512 38.0161 21.3168C38.0161 20.856 37.8769 20.4192 37.6177 20.0544L37.5889 20.0112L37.6081 19.9632C37.7425 19.6464 37.7761 19.296 37.7137 18.9552C37.2337 16.3584 35.5825 13.9824 33.0673 12.2592C30.5473 10.5456 27.3265 9.60004 24.0001 9.60004C20.6689 9.60004 17.4529 10.5456 14.9425 12.264C12.4273 13.9824 10.7761 16.3632 10.2961 18.96C10.2145 19.3872 10.2961 19.8288 10.5169 20.1984L10.5457 20.2416L10.5217 20.2848C10.3489 20.6016 10.2673 20.9472 10.2673 21.3168C10.2673 22.056 10.6225 22.7184 11.2417 23.1408C11.3089 23.184 11.3809 23.2272 11.4721 23.2752L11.5201 23.2992V24.9744L11.4577 24.9936C10.3441 25.392 9.6001 26.4528 9.6001 27.6384V27.7536C9.6001 28.5264 9.9217 29.2752 10.4833 29.8032L10.5313 29.8512L10.4977 29.9136C10.3393 30.216 10.2577 30.5616 10.2577 30.9072C10.2577 31.4544 10.4497 31.9584 10.8097 32.3616L10.8337 32.3856V34.4832C10.8385 36.648 12.5761 38.4 14.7073 38.4ZM36.2065 34.488C36.2065 36.1152 34.8961 37.4352 33.2881 37.4352H14.7073C13.0993 37.4352 11.7889 36.1152 11.7889 34.488V33.0096L11.9041 33.0432C12.3553 33.1728 12.8353 33.1584 13.2961 33.0096C13.3009 33.0048 13.3153 33 13.3345 33C13.3681 32.9856 13.4065 32.9712 13.4497 32.9568C13.6657 32.8704 13.8961 32.8272 14.1553 32.8272C14.8369 32.8272 15.1633 33.0624 15.5425 33.3312C15.9649 33.6336 16.4977 34.0128 17.4817 34.0128C18.4657 34.0128 18.9937 33.6336 19.4209 33.3312C19.8001 33.0576 20.1265 32.8272 20.8081 32.8272C21.4897 32.8272 21.8161 33.0624 22.1953 33.3312C22.6225 33.6336 23.1505 34.0128 24.1345 34.0128C25.1185 34.0128 25.6465 33.6336 26.0737 33.3312C26.4529 33.0624 26.7793 32.8272 27.4609 32.8272C28.1425 32.8272 28.4689 33.0624 28.8481 33.3312C29.2753 33.6384 29.8033 34.0128 30.7873 34.0128C31.7713 34.0128 32.2993 33.6336 32.7265 33.3312C33.1057 33.0624 33.4321 32.8272 34.1137 32.8272C34.3009 32.8272 34.4785 32.8512 34.6369 32.8944C34.7185 32.9184 34.7953 32.9472 34.8721 32.976C34.9441 33.0048 35.0209 33.0336 35.0929 33.0528C35.4145 33.144 35.7601 33.1632 36.1009 33.1104L36.2065 33.0912V34.488ZM36.1201 32.112C35.8177 32.2032 35.4865 32.184 35.1841 32.0592C34.8529 31.9248 34.5025 31.8576 34.1137 31.8576C33.1297 31.8576 32.6017 32.2368 32.1745 32.5392C31.7953 32.808 31.4641 33.0432 30.7873 33.0432C30.1057 33.0432 29.7793 32.808 29.4001 32.5392C28.9777 32.2368 28.4449 31.8576 27.4609 31.8576C26.4769 31.8576 25.9489 32.2368 25.5265 32.5392C25.1425 32.8128 24.8113 33.048 24.1345 33.048C23.4529 33.048 23.1265 32.8128 22.7473 32.544C22.3249 32.2416 21.7921 31.8624 20.8081 31.8624C19.8241 31.8624 19.2961 32.2416 18.8689 32.544C18.4897 32.8176 18.1633 33.048 17.4817 33.048C16.8049 33.048 16.4785 32.8176 16.0993 32.5488C15.6625 32.2416 15.1345 31.8624 14.1553 31.8624C13.7665 31.8624 13.4161 31.9296 13.0849 32.064C12.6817 32.2272 12.2257 32.2032 11.8609 31.992C11.5153 31.7952 11.2801 31.4688 11.2225 31.0944C11.2033 30.9792 11.2033 30.8592 11.2177 30.7488C11.2705 30.4416 11.3137 30.4176 11.3377 30.4032L11.3761 30.384L11.4193 30.3984C11.7217 30.5088 12.0385 30.5664 12.3649 30.5664H22.8289L22.8577 30.5904L23.9089 31.6512C24.0913 31.8384 24.3985 31.8336 24.5809 31.6512L25.6657 30.5616H35.6209C35.9281 30.5616 36.2353 30.5088 36.5329 30.4032C36.5953 30.384 36.6529 30.36 36.7105 30.3312C36.7393 30.312 36.7729 30.2928 36.8161 30.2928C36.8161 30.2928 36.8209 30.2928 36.8257 30.2928C36.9073 30.2976 36.9361 30.3744 36.9505 30.408C37.0177 30.5664 37.0561 30.7248 37.0561 30.888C37.0705 31.4448 36.6865 31.9488 36.1201 32.112ZM12.4657 24.8352V23.5392H12.5569C12.5905 23.5392 12.6289 23.5392 12.6625 23.5344C12.9169 23.52 13.1809 23.4624 13.4881 23.3424C13.7473 23.2416 14.0545 23.208 14.3953 23.2368C14.9185 23.2848 15.2113 23.4912 15.5473 23.7312C15.9697 24.0336 16.5025 24.4128 17.4865 24.4128C18.4705 24.4128 18.9985 24.0336 19.4257 23.7312C19.8097 23.4576 20.1361 23.2272 20.8129 23.2272C21.4945 23.2272 21.8161 23.4576 22.1953 23.7312C22.6273 24.0384 23.1553 24.4176 24.1393 24.4176C25.1233 24.4176 25.6513 24.0384 26.0785 23.736C26.4577 23.4624 26.7841 23.232 27.4657 23.232C28.1473 23.232 28.4737 23.4672 28.8529 23.736C29.2801 24.0432 29.8081 24.4176 30.7921 24.4176C31.7761 24.4176 32.3041 24.0384 32.7313 23.736C33.1105 23.4672 33.4369 23.232 34.1185 23.232C34.3681 23.232 34.6081 23.2752 34.8241 23.3616C35.0353 23.448 35.2465 23.5008 35.4529 23.5248L35.5345 23.5344V24.8352H12.4657ZM18.8881 26.568L17.5441 27.9216L17.4817 27.8592L15.4417 25.8H18.1249L18.8881 26.568ZM29.0641 25.8L28.9105 25.9536L25.1569 29.7072V29.76H25.1041L24.2497 30.624L23.3665 29.736L19.4689 25.8H29.0641ZM37.4497 27.6384V27.7536C37.4497 28.3488 37.1617 28.9104 36.6769 29.2608C36.3745 29.4768 36.0001 29.5968 35.6305 29.5968H26.6305L30.4225 25.8H35.6257C36.6289 25.8 37.4497 26.6256 37.4497 27.6384ZM15.4753 13.0608C17.8321 11.448 20.8609 10.5648 24.0001 10.5648C27.1393 10.5648 30.1681 11.4528 32.5249 13.0608C34.8337 14.64 36.3409 16.7952 36.7729 19.1328C36.8161 19.3632 36.7537 19.6032 36.6001 19.7856C36.4465 19.9728 36.2257 20.0784 35.9953 20.0784H12.0097C11.7745 20.0784 11.5537 19.9728 11.4049 19.7856C11.2513 19.5984 11.1889 19.3632 11.2321 19.1328C11.6641 16.7952 13.1713 14.64 15.4753 13.0608ZM11.2129 21.3168C11.2129 21.2064 11.2273 21.096 11.2561 20.9856L11.2849 20.8896L11.3761 20.9232C11.5729 21 11.7937 21.0432 12.0097 21.0432H35.9953C36.2977 21.0432 36.5905 20.9664 36.8497 20.8176L36.9361 20.7648L36.9745 20.8608C37.0321 21.0048 37.0609 21.1536 37.0609 21.312C37.0609 21.7248 36.8593 22.0944 36.5089 22.3344C36.1633 22.5744 35.7073 22.6368 35.2945 22.5024C35.2273 22.4832 35.1649 22.4592 35.0977 22.4352C34.9777 22.392 34.8625 22.3488 34.7377 22.3248C34.5409 22.2816 34.3345 22.2624 34.1185 22.2624C33.1345 22.2624 32.6065 22.6416 32.1793 22.944C31.8001 23.2128 31.4689 23.448 30.7921 23.448C30.1105 23.448 29.7841 23.2128 29.4049 22.944C28.9825 22.6416 28.4497 22.2624 27.4657 22.2624C26.4817 22.2624 25.9537 22.6416 25.5313 22.944C25.1473 23.2176 24.8161 23.4528 24.1393 23.4528C23.4577 23.4528 23.1313 23.2176 22.7521 22.9488C22.3297 22.6464 21.7969 22.2672 20.8129 22.2672C19.8289 22.2672 19.3009 22.6464 18.8737 22.9488C18.4945 23.2224 18.1681 23.4528 17.4865 23.4528C16.8049 23.4528 16.4785 23.2176 16.0993 22.9488C15.6721 22.6416 15.1441 22.2672 14.1601 22.2672C13.7713 22.2672 13.4209 22.3344 13.0897 22.4688C12.6577 22.6512 12.1489 22.5984 11.7649 22.3392C11.4145 22.0992 11.2129 21.7296 11.2129 21.3168ZM10.5505 27.7584V27.6432C10.5505 26.6304 11.3665 25.8048 12.3745 25.8048H14.0977L14.1265 25.8288L17.2129 28.9488C17.3953 29.1312 17.7121 29.1264 17.8849 28.9488L19.5649 27.2544L19.6273 27.3168L21.8881 29.6016H12.3745C12.0577 29.6016 11.7457 29.5152 11.4721 29.3616C10.9057 29.0256 10.5505 28.416 10.5505 27.7584Z" fill="black" fill-opacity="0.87"/>
<path d="M22.3771 15.2929C22.4491 15.4657 22.6315 15.5905 22.8187 15.5905C22.8235 15.5905 22.8331 15.5905 22.8379 15.5905C23.0251 15.5809 23.2075 15.4417 23.2651 15.2545C23.3227 15.0673 23.2555 14.8465 23.1019 14.7265C22.9483 14.6065 22.7035 14.6017 22.5355 14.7169C22.3723 14.8417 22.2955 15.0961 22.3771 15.2929Z" fill="black" fill-opacity="0.87"/>
<path d="M24.9359 17.8176C25.0079 17.9904 25.1903 18.1152 25.3775 18.1152C25.3823 18.1152 25.3919 18.1152 25.3967 18.1152C25.5887 18.1056 25.7663 17.9664 25.8287 17.784C25.8863 17.5968 25.8191 17.3712 25.6655 17.256C25.5023 17.1312 25.2671 17.1264 25.0991 17.2464C24.9215 17.3664 24.8495 17.6112 24.9359 17.8176Z" fill="black" fill-opacity="0.87"/>
<path d="M23.7168 11.7552C23.52 11.7552 23.3424 11.8848 23.2752 12.0672C23.1984 12.2688 23.2752 12.5136 23.4576 12.6384C23.6304 12.7536 23.8656 12.7392 24.024 12.6096C24.1776 12.48 24.24 12.2544 24.168 12.0672C24.096 11.8848 23.9136 11.7552 23.7168 11.7552Z" fill="black" fill-opacity="0.87"/>
<path d="M36.1197 32.1121C35.8173 32.2033 35.4861 32.1841 35.1837 32.0593C34.8525 31.9249 34.5021 31.8577 34.1133 31.8577C33.1293 31.8577 32.6013 32.2369 32.1741 32.5393C31.7949 32.8081 31.4637 33.0433 30.7869 33.0433C30.1053 33.0433 29.7789 32.8081 29.3997 32.5393C28.9773 32.2369 28.4445 31.8577 27.4605 31.8577C26.4765 31.8577 25.9485 32.2369 25.5261 32.5393C25.1421 32.8129 24.8109 33.0481 24.1341 33.0481C23.4525 33.0481 23.1261 32.8129 22.7469 32.5441C22.3245 32.2417 21.7917 31.8625 20.8077 31.8625C19.8237 31.8625 19.2957 32.2417 18.8685 32.5441C18.4893 32.8177 18.1629 33.0481 17.4813 33.0481C16.8045 33.0481 16.4781 32.8177 16.0989 32.5489C15.6621 32.2417 15.1341 31.8625 14.1549 31.8625C13.7661 31.8625 13.4157 31.9297 13.0845 32.0641C12.6813 32.2273 12.2253 32.2033 11.8605 31.9921C11.5149 31.7953 11.2797 31.4689 11.2221 31.0945C11.2029 30.9793 11.2029 30.8593 11.2173 30.7489C11.2701 30.4417 11.3133 30.4177 11.3373 30.4033L11.3757 30.3841L11.4189 30.3985C11.7213 30.5089 12.0381 30.5665 12.3645 30.5665H22.8285L22.8573 30.5905L23.9085 31.6513C24.0909 31.8385 24.3981 31.8337 24.5805 31.6513L25.6653 30.5617H35.6205C35.9277 30.5617 36.2349 30.5089 36.5325 30.4033C36.5949 30.3841 36.6525 30.3601 36.7101 30.3313C36.7389 30.3121 36.7725 30.2929 36.8157 30.2929C36.8157 30.2929 36.8205 30.2929 36.8253 30.2929C36.9069 30.2977 36.9357 30.3745 36.9501 30.4081C37.0173 30.5665 37.0557 30.7249 37.0557 30.8881C37.0701 31.4449 36.6861 31.9489 36.1197 32.1121Z" fill="#CC1543"/>
<path d="M12.4658 24.8353V23.5393H12.557C12.5906 23.5393 12.629 23.5393 12.6626 23.5345C12.917 23.5201 13.181 23.4625 13.4882 23.3425C13.7474 23.2417 14.0546 23.2081 14.3954 23.2369C14.9186 23.2849 15.2114 23.4913 15.5474 23.7313C15.9698 24.0337 16.5026 24.4129 17.4866 24.4129C18.4706 24.4129 18.9986 24.0337 19.4258 23.7313C19.8098 23.4577 20.1362 23.2273 20.813 23.2273C21.4946 23.2273 21.8162 23.4577 22.1954 23.7313C22.6274 24.0385 23.1554 24.4177 24.1394 24.4177C25.1234 24.4177 25.6514 24.0385 26.0786 23.7361C26.4578 23.4625 26.7842 23.2321 27.4658 23.2321C28.1474 23.2321 28.4738 23.4673 28.853 23.7361C29.2802 24.0433 29.8082 24.4177 30.7922 24.4177C31.7762 24.4177 32.3042 24.0385 32.7314 23.7361C33.1106 23.4673 33.437 23.2321 34.1186 23.2321C34.3682 23.2321 34.6082 23.2753 34.8242 23.3617C35.0354 23.4481 35.2466 23.5009 35.453 23.5249L35.5346 23.5345V24.8353H12.4658Z" fill="#CC1543"/>
<path d="M37.4496 27.6384V27.7536C37.4496 28.3488 37.1616 28.9104 36.6768 29.2608C36.3744 29.4768 36 29.5968 35.6304 29.5968H26.6304L30.4224 25.8H35.6256C36.6288 25.8 37.4496 26.6256 37.4496 27.6384Z" fill="#D6B294"/>
<path d="M10.5503 27.7591V27.6439C10.5503 26.6311 11.3663 25.8055 12.3743 25.8055H14.0975L14.1263 25.8295L17.2127 28.9495C17.3951 29.1319 17.7119 29.1271 17.8847 28.9495L19.5647 27.2551L19.6271 27.3175L21.8879 29.6023H12.3743C12.0575 29.6023 11.7455 29.5159 11.4719 29.3623C10.9055 29.0263 10.5503 28.4167 10.5503 27.7591Z" fill="#D6B294"/>
</svg>
