<svg width="48" height="48" viewBox="0 0 48 48" fill="none" xmlns="http://www.w3.org/2000/svg">
<path d="M16.3902 42.617C16.2661 42.617 16.1834 42.5757 16.0593 42.5343C15.7697 42.3688 15.6869 41.9965 15.8524 41.7069L23.3323 27.1194H17.8755C17.6272 27.1194 17.4204 26.9953 17.3376 26.7884C17.2135 26.5816 17.2549 26.3333 17.379 26.1679L29.7779 8.10934C29.9434 7.86111 30.2744 7.77837 30.564 7.90248C30.8536 8.02659 30.9777 8.35756 30.8536 8.64716L26.3483 21.0875H31.1846C31.4328 21.0875 31.6397 21.2116 31.7224 21.4184C31.8051 21.6253 31.8051 21.8735 31.681 22.0804L16.8867 42.3688C16.7626 42.5343 16.5971 42.617 16.3902 42.617Z" fill="#D6B294"/>
<path d="M23.7747 12.1638C16.2245 12.1638 10.1016 18.2867 10.1016 25.8369C10.1016 33.3872 16.2245 39.5101 23.7747 39.5101C31.325 39.5101 37.4479 33.3872 37.4479 25.8369C37.4479 18.2867 31.325 12.1638 23.7747 12.1638ZM23.7747 35.5923C18.3882 35.5923 14.0194 31.2235 14.0194 25.8369C14.0194 20.4504 18.3882 16.0816 23.7747 16.0816C29.1613 16.0816 33.5301 20.4504 33.5301 25.8369C33.5301 31.2235 29.1613 35.5923 23.7747 35.5923Z" fill="white"/>
<path d="M20.3368 17.1489C20.432 17.1117 20.5064 17.0414 20.5437 16.9462C20.585 16.8511 20.585 16.7518 20.5478 16.6566C20.5106 16.5615 20.4402 16.487 20.3451 16.4498C20.2954 16.4291 20.2458 16.4167 20.1961 16.4167C20.1465 16.4167 20.101 16.4249 20.0555 16.4456C16.1831 17.9764 13.6802 21.6543 13.6802 25.8203C13.6802 31.3806 18.202 35.9025 23.7623 35.9066C29.3226 35.9066 33.8445 31.3848 33.8445 25.8245C33.861 21.6501 31.3581 17.9681 27.4733 16.4415C27.3782 16.4043 27.2747 16.4043 27.1837 16.4456C27.0886 16.487 27.0182 16.5573 26.981 16.6525C26.9438 16.7476 26.9438 16.8469 26.9851 16.9421C27.0224 17.0331 27.0968 17.1076 27.192 17.1448C28.2635 17.5668 29.2357 18.1791 30.0838 18.9569L30.2659 19.1223L28.7393 20.6489C28.611 20.7855 28.611 21.013 28.7476 21.1578C28.8882 21.3109 29.1282 21.3192 29.2812 21.1744L30.7872 19.6684L30.9526 19.8712C32.2682 21.4722 33.0171 23.4911 33.0626 25.5638L33.0667 25.8079H31.1554C30.9485 25.8079 30.7789 25.9775 30.7789 26.1844C30.7789 26.3913 30.9485 26.5609 31.1554 26.5609H33.0584L33.0295 26.8215C32.8185 28.8032 31.9621 30.698 30.6093 32.1584L30.4438 32.3404L29.2606 31.1572C29.1282 31.0331 28.9048 31.0331 28.76 31.1696C28.6069 31.3103 28.5986 31.5503 28.7393 31.7033L29.9018 32.8659L29.6991 33.0313C28.1849 34.2807 26.3439 35.0089 24.3829 35.133L24.1305 35.1495V33.5816C24.1305 33.3747 23.9609 33.2051 23.7541 33.2051C23.5472 33.2051 23.3776 33.3747 23.3776 33.5816V35.1289L23.1252 35.1123C21.1642 34.9882 19.3232 34.2601 17.809 33.0107L17.6063 32.8452L18.773 31.6785C18.9012 31.542 18.9012 31.3144 18.7688 31.1696C18.6985 31.0952 18.6075 31.0538 18.5082 31.0497C18.4048 31.0455 18.3096 31.0828 18.2351 31.1489L17.0602 32.3239L16.8947 32.1419C15.5419 30.6815 14.6855 28.7825 14.4745 26.805L14.4455 26.5443H16.3486C16.5555 26.5443 16.7251 26.3747 16.7251 26.1679C16.7251 25.961 16.5555 25.7914 16.3486 25.7914H14.4373L14.4455 25.5473C14.4993 23.4829 15.2564 21.4681 16.5762 19.8794L16.7416 19.6809L18.2682 21.195C18.3675 21.2902 18.442 21.315 18.5661 21.3233C18.6654 21.3192 18.7606 21.2778 18.8309 21.2033C18.9012 21.1288 18.9343 21.0337 18.9302 20.9344C18.926 20.8351 18.8847 20.74 18.8102 20.6696L17.2753 19.1389L17.4574 18.9693C18.3013 18.1874 19.2694 17.5751 20.3368 17.1489Z" fill="black" fill-opacity="0.87"/>
<path d="M30.1934 19.1241L30.0502 18.9939L30.0501 18.9937C29.2064 18.22 28.2394 17.611 27.1737 17.1913C27.066 17.1492 26.9815 17.0649 26.9391 16.9615C26.939 16.9614 26.9389 16.9612 26.9389 16.961L26.9851 16.9421C26.9438 16.8469 26.9438 16.7476 26.981 16.6525C27.0182 16.5573 27.0886 16.487 27.1837 16.4456L30.1934 19.1241ZM30.1934 19.1241L28.7039 20.6136L28.7039 20.6136L28.7028 20.6147C28.5559 20.7711 28.5572 21.0285 28.711 21.1919C28.8707 21.3655 29.1426 21.3744 29.3156 21.2107L29.3156 21.2107L29.3166 21.2097L30.7834 19.7429M30.1934 19.1241L30.7834 19.7429M33.0126 25.5647L33.0126 25.5649L33.0159 25.7579H31.1554C30.9209 25.7579 30.7289 25.9499 30.7289 26.1844C30.7289 26.4189 30.9209 26.6109 31.1554 26.6109H33.0026L32.9798 26.816L32.9798 26.8162C32.7699 28.7873 31.918 30.672 30.5726 32.1244L30.5723 32.1248L30.4421 32.268L29.2959 31.1219L29.2959 31.1219L29.2948 31.1207C29.1421 30.9777 28.8889 30.9796 28.7259 31.133C28.5524 31.2927 28.5435 31.5642 28.7025 31.7372L28.7024 31.7372L28.7039 31.7387L29.8274 32.8621L29.6675 32.9926L29.6673 32.9928C28.1612 34.2355 26.3302 34.9596 24.3797 35.0831L24.3796 35.0831L24.1805 35.0962V33.5816C24.1805 33.3471 23.9885 33.1551 23.7541 33.1551C23.5196 33.1551 23.3276 33.3471 23.3276 33.5816V35.0755L23.1285 35.0624L23.1284 35.0624C21.1779 34.939 19.3469 34.2148 17.8408 32.9721L17.8406 32.9719L17.6808 32.8414L18.8083 31.7139L18.8083 31.7139L18.8094 31.7127C18.9563 31.5563 18.955 31.2992 18.8057 31.1359L18.8052 31.1353C18.726 31.0515 18.6228 31.0044 18.5103 30.9997L18.5102 30.9997C18.393 30.995 18.2854 31.0374 18.2019 31.1116L18.2019 31.1115L18.1998 31.1136L17.0619 32.2515L16.9317 32.1082L16.9314 32.1079C15.586 30.6555 14.7341 28.7666 14.5242 26.7997L14.5242 26.7995L14.5014 26.5943H16.3486C16.5831 26.5943 16.7751 26.4023 16.7751 26.1679C16.7751 25.9334 16.5831 25.7414 16.3486 25.7414H14.489L14.4955 25.549L14.4955 25.5486C14.549 23.4954 15.3021 21.4914 16.6146 19.9114L16.7451 19.7548L18.233 21.2305L18.233 21.2305L18.2336 21.2311C18.2863 21.2816 18.3349 21.3158 18.3889 21.338C18.4425 21.3601 18.4983 21.3689 18.5628 21.3732L18.5628 21.3735L18.5682 21.3732C18.68 21.3686 18.7876 21.3219 18.8672 21.2376C18.9473 21.1529 18.9848 21.0444 18.9801 20.9323C18.9755 20.8207 18.929 20.7133 18.845 20.6337L17.3474 19.1401L17.4913 19.0059C17.4914 19.0059 17.4914 19.0059 17.4914 19.0059C18.3308 18.2282 19.2936 17.6193 20.3552 17.1954C20.4619 17.1536 20.5471 17.0739 20.5899 16.9653C20.6364 16.8578 20.6361 16.7451 20.5944 16.6384C20.5525 16.5315 20.4727 16.4462 20.3638 16.4034C20.3101 16.3811 20.254 16.3667 20.1961 16.3667C20.1409 16.3667 20.0885 16.3759 20.036 16.3996C16.1452 17.9381 13.6302 21.6341 13.6302 25.8203C13.6302 31.4082 18.1744 35.9525 23.7623 35.9566H23.7623C29.3502 35.9566 33.8944 31.4125 33.8945 25.8247C33.9111 21.6297 31.3955 17.9291 27.4916 16.395L27.4915 16.3949C27.3851 16.3533 27.2677 16.3527 27.1634 16.3999L30.9526 19.8712C32.2682 21.4722 33.0171 23.4911 33.0626 25.5638L33.0126 25.5647ZM33.0126 25.5647C32.9673 23.5033 32.2225 21.4953 30.914 19.9029L30.9139 19.9028L30.7834 19.7429M33.0126 25.5647L30.7834 19.7429" stroke="black" stroke-opacity="0.87" stroke-width="0.1"/>
<path d="M23.7627 17.1738C23.9696 17.1738 24.1392 17.0041 24.1392 16.7973V16.3877C24.1392 16.1809 23.9696 16.0112 23.7627 16.0112C23.5559 16.0112 23.3862 16.1809 23.3862 16.3877V16.7973C23.3862 17.0083 23.5559 17.1738 23.7627 17.1738Z" fill="black" fill-opacity="0.87"/>
<path d="M23.7627 17.2238C23.9972 17.2238 24.1892 17.0318 24.1892 16.7973V16.3877C24.1892 16.1532 23.9972 15.9612 23.7627 15.9612C23.5282 15.9612 23.3362 16.1532 23.3362 16.3877V16.7973C23.3362 17.0362 23.5286 17.2238 23.7627 17.2238Z" stroke="black" stroke-opacity="0.87" stroke-width="0.1"/>
<path d="M21.8968 26.6685C22.1243 27.5125 22.898 28.0917 23.7626 28.0917H23.7667C24.8258 28.0917 25.6864 27.2312 25.6905 26.172C25.6905 25.3322 25.1527 24.5958 24.3542 24.3393L24.1887 24.2855V19.4492C24.1887 19.2424 24.0191 19.0728 23.8123 19.0728C23.6054 19.0728 23.4358 19.2424 23.4358 19.4492V24.2648L23.262 24.3103C22.2319 24.5875 21.6196 25.6466 21.8968 26.6685ZM23.7212 24.9971H23.804C24.4825 25.0302 24.9706 25.5763 24.9376 26.2134C24.9045 26.8299 24.3956 27.3056 23.7833 27.3056C23.7626 27.3056 23.7419 27.3056 23.7212 27.3015C23.4151 27.2849 23.1296 27.1484 22.9228 26.9209C22.7159 26.6933 22.6125 26.3955 22.629 26.0852C22.6621 25.4977 23.1296 25.0261 23.7212 24.9971Z" fill="black" fill-opacity="0.87"/>
<path d="M25.7405 26.1722V26.172C25.7405 25.3105 25.1886 24.5548 24.3695 24.2917L24.2387 24.2492V19.4492C24.2387 19.2148 24.0467 19.0228 23.8123 19.0228C23.5778 19.0228 23.3858 19.2148 23.3858 19.4492V24.2262L23.2493 24.262L23.249 24.2621C22.1925 24.5464 21.564 25.6327 21.8485 26.6815C22.082 27.5477 22.8757 28.1417 23.7626 28.1417H23.7667C24.8535 28.1417 25.7363 27.2588 25.7405 26.1722ZM23.731 27.2525L23.7311 27.2519L23.7239 27.2516C23.431 27.2357 23.1579 27.1051 22.9598 26.8872C22.7622 26.6699 22.6631 26.3852 22.679 26.0879C22.7106 25.5261 23.1573 25.0754 23.7225 25.0471H23.8028C24.4538 25.0795 24.9192 25.6025 24.8876 26.2108C24.856 26.8004 24.3693 27.2556 23.7833 27.2556C23.7618 27.2556 23.7461 27.2555 23.731 27.2525Z" stroke="black" stroke-opacity="0.87" stroke-width="0.1"/>
<path d="M23.7209 24.9971H23.8036C24.4821 25.0302 24.9703 25.5763 24.9372 26.2134C24.9041 26.8298 24.3952 27.3056 23.7829 27.3056C23.7622 27.3056 23.7416 27.3056 23.7209 27.3014C23.4147 27.2849 23.1293 27.1484 22.9224 26.9208C22.7155 26.6933 22.6121 26.3954 22.6287 26.0851C22.6618 25.4977 23.1293 25.026 23.7209 24.9971Z" fill="white"/>
<path d="M35.2387 17.3724L35.2139 17.3434L34.9574 17.0331L37.1583 14.828C37.7748 14.2075 37.7748 13.2021 37.1583 12.5816C36.5419 11.961 35.5366 11.9569 34.916 12.5692L32.744 14.7412L32.5785 14.6129C30.6548 13.0987 28.3545 12.1058 25.9343 11.7376L25.7316 11.7086V9.15191H27.2292C27.4361 9.15191 27.6057 8.98229 27.6057 8.77543V7.24884C27.6057 6.21869 26.77 5.383 25.7399 5.383H21.8634C20.8333 5.383 19.9976 6.21869 19.9976 7.24884V8.7713C19.9976 8.97815 20.1672 9.14777 20.374 9.14777H21.7889V11.7252L21.5862 11.7542C19.1701 12.1224 16.8782 13.1194 14.9586 14.6377L14.7931 14.7701L12.6211 12.5692C12.3108 12.2589 11.9054 12.1058 11.4958 12.1058C11.0862 12.1058 10.6808 12.2589 10.3705 12.5692C10.0685 12.8712 9.90299 13.2683 9.90299 13.6945C9.90299 14.1206 10.0685 14.5178 10.3705 14.8198L12.5673 17.0166L12.4432 17.1821C10.1388 20.2063 9.15004 23.9504 9.6589 27.7193C10.1678 31.4882 12.1164 34.8351 15.1406 37.1395C18.1648 39.4439 21.9048 40.4368 25.6778 39.9238C29.4467 39.4149 32.7937 37.4663 35.098 34.4421C38.9207 29.4238 38.9662 22.4362 35.2387 17.3724ZM35.429 13.136C35.5821 12.9787 35.7931 12.8877 36.0123 12.8877C36.244 12.8753 36.4426 12.9705 36.604 13.1277C36.7694 13.2932 36.8605 13.5042 36.8605 13.7276C36.8605 13.951 36.7736 14.162 36.6164 14.3192L34.4816 16.4539L34.3865 16.3464L34.3161 16.2636C34.2996 16.2429 34.283 16.2264 34.2623 16.2057C34.192 16.1271 34.1217 16.0526 34.0514 15.9782C33.8693 15.7878 33.6873 15.6017 33.5053 15.4196L33.3356 15.2542L35.429 13.136ZM20.7588 8.39482V7.24884C20.7588 6.63654 21.2552 6.14009 21.8675 6.14009H25.744C25.7482 6.14009 25.7564 6.14009 25.7606 6.14009C26.046 6.14009 26.3232 6.25179 26.5301 6.45451C26.7411 6.66137 26.861 6.93855 26.8652 7.23642V8.39895H20.7588V8.39482ZM24.9704 9.15191V11.6176L24.7139 11.5969C24.0809 11.539 23.4396 11.539 22.8108 11.5969L22.5543 11.6176V9.15191H24.9704ZM10.9083 14.2861C10.6022 13.9592 10.6063 13.4545 10.9083 13.136L10.9125 13.1318C11.0655 12.9746 11.2724 12.8919 11.4875 12.8877C11.7109 12.8919 11.9136 12.9787 12.0667 13.136L14.189 15.2624L14.0112 15.4279C13.7422 15.6803 13.4816 15.9492 13.2375 16.2305L13.0679 16.4208L12.861 16.2678L10.9083 14.2861ZM32.2889 36.2955C29.8894 38.2441 26.8693 39.3156 23.7789 39.3156C23.7706 39.3156 23.7665 39.3156 23.7623 39.3156C16.3238 39.3156 10.2795 33.263 10.2795 25.8245C10.2795 22.701 11.3758 19.6561 13.3616 17.2483C13.8664 16.6401 14.429 16.0816 15.033 15.5769C17.0685 13.831 19.559 12.7471 22.2275 12.4409C23.2535 12.3251 24.2919 12.3251 25.3179 12.4409C27.9532 12.7388 30.419 13.7979 32.4503 15.5065C32.4917 15.5479 32.5041 15.5644 32.5206 15.5769C33.1246 16.0816 33.6873 16.6401 34.192 17.2483L34.3823 17.4758L34.614 17.7737C36.6867 20.5083 37.5638 23.7808 37.208 27.2146C36.8315 30.7973 35.0898 34.0243 32.2889 36.2955Z" fill="black" fill-opacity="0.87"/>
<path d="M32.2574 36.2567L32.2574 36.2567C35.0479 33.9938 36.7831 30.779 37.1582 27.2094C37.5128 23.7879 36.639 20.5282 34.5743 17.804C34.5742 17.804 34.5742 17.8039 34.5742 17.8039L34.3434 17.5072L34.1537 17.2803L34.1535 17.2802C33.6511 16.6748 33.091 16.1187 32.4895 15.616C32.478 15.6072 32.4685 15.5975 32.4586 15.587C32.4565 15.5848 32.4543 15.5825 32.452 15.5801C32.4428 15.5705 32.4318 15.5588 32.4164 15.5434C30.393 13.8419 27.9371 12.7873 25.3123 12.4906C24.29 12.3752 23.2554 12.3752 22.2331 12.4906C19.5745 12.7956 17.0934 13.8755 15.0656 15.6148L15.0651 15.6152C14.4633 16.1181 13.9029 16.6744 13.4002 17.2801L32.2574 36.2567ZM32.2574 36.2567C29.8668 38.1981 26.8578 39.2656 23.7789 39.2656M32.2574 36.2567L23.7789 39.2656M23.7789 39.2656H23.7788M23.7789 39.2656H23.7788M23.7788 39.2656H23.7788M23.7788 39.2656H23.7788M23.7788 39.2656H23.7787M23.7788 39.2656H23.7787M23.7787 39.2656H23.7787M23.7787 39.2656H23.7787M23.7787 39.2656H23.7786M23.7787 39.2656H23.7786M23.7786 39.2656H23.7786M23.7786 39.2656H23.7786M23.7786 39.2656H23.7786M23.7786 39.2656H23.7786M23.7786 39.2656H23.7785M23.7786 39.2656H23.7785M23.7785 39.2656H23.7785M23.7785 39.2656H23.7785M23.7785 39.2656H23.7784M23.7785 39.2656H23.7784M23.7784 39.2656H23.7784M23.7784 39.2656H23.7784M23.7784 39.2656H23.7783M23.7784 39.2656H23.7783M23.7783 39.2656H23.7783M23.7783 39.2656H23.7783M23.7783 39.2656H23.7782M23.7783 39.2656H23.7782M23.7782 39.2656H23.7782M23.7782 39.2656H23.7782M23.7782 39.2656H23.7781M23.7782 39.2656H23.7781M23.7781 39.2656H23.7781M23.7781 39.2656H23.7781M23.7781 39.2656H23.778M23.7781 39.2656H23.778M23.778 39.2656H23.778M23.778 39.2656H23.778M23.778 39.2656H23.7779M23.778 39.2656H23.7779M23.7779 39.2656H23.7779M23.7779 39.2656H23.7779M23.7779 39.2656H23.7778M23.7779 39.2656H23.7778M23.7778 39.2656H23.7778M23.7778 39.2656H23.7778M23.7778 39.2656H23.7778M23.7778 39.2656H23.7778M23.7778 39.2656H23.7777M23.7778 39.2656H23.7777M23.7777 39.2656H23.7777M23.7777 39.2656H23.7777M23.7777 39.2656H23.7776M23.7777 39.2656H23.7776M23.7776 39.2656H23.7776M23.7776 39.2656H23.7776M23.7776 39.2656H23.7775M23.7776 39.2656H23.7775M23.7775 39.2656H23.7775M23.7775 39.2656H23.7775M23.7775 39.2656H23.7774M23.7775 39.2656H23.7774M23.7774 39.2656H23.7774M23.7774 39.2656H23.7774M23.7774 39.2656H23.7773M23.7774 39.2656H23.7773M23.7773 39.2656H23.7773M23.7773 39.2656H23.7773M23.7773 39.2656H23.7772M23.7773 39.2656H23.7772M23.7772 39.2656H23.7772M23.7772 39.2656H23.7772M23.7772 39.2656H23.7772M23.7772 39.2656H23.7772M23.7772 39.2656H23.7771M23.7772 39.2656H23.7771M23.7771 39.2656H23.7771M23.7771 39.2656H23.7771M23.7771 39.2656H23.777M23.7771 39.2656H23.777M23.777 39.2656H23.777M23.777 39.2656H23.777M23.777 39.2656H23.7769M23.777 39.2656H23.7769M23.7769 39.2656H23.7769M23.7769 39.2656H23.7769M23.7769 39.2656H23.7768M23.7769 39.2656H23.7768M23.7768 39.2656H23.7768M23.7768 39.2656H23.7768M23.7768 39.2656H23.7768M23.7768 39.2656H23.7768M23.7768 39.2656H23.7767M23.7768 39.2656H23.7767M23.7767 39.2656H23.7767M23.7767 39.2656H23.7767M23.7767 39.2656H23.7766M23.7767 39.2656H23.7766M23.7766 39.2656H23.7766M23.7766 39.2656H23.7766M23.7766 39.2656H23.7765M23.7766 39.2656H23.7765M23.7765 39.2656H23.7765M23.7765 39.2656H23.7765M23.7765 39.2656H23.7764M23.7765 39.2656H23.7764M23.7764 39.2656H23.7764M23.7764 39.2656H23.7764M23.7764 39.2656H23.7764M23.7764 39.2656H23.7764M23.7764 39.2656H23.7763M23.7764 39.2656H23.7763M23.7763 39.2656H23.7763M23.7763 39.2656H23.7763M23.7763 39.2656H23.7762M23.7763 39.2656H23.7762M23.7762 39.2656H23.7762M23.7762 39.2656H23.7762M23.7762 39.2656H23.7761M23.7762 39.2656H23.7761M23.7761 39.2656H23.7761M23.7761 39.2656H23.7761M23.7761 39.2656H23.7761M23.7761 39.2656H23.7761M23.7761 39.2656H23.776M23.7761 39.2656H23.776M23.776 39.2656H23.776M23.776 39.2656H23.776M23.776 39.2656H23.7759M23.776 39.2656H23.7759M23.7759 39.2656H23.7759M23.7759 39.2656H23.7759M23.7759 39.2656H23.7758M23.7759 39.2656H23.7758M23.7758 39.2656H23.7758M23.7758 39.2656H23.7758M23.7758 39.2656H23.7758M23.7758 39.2656H23.7758M23.7758 39.2656H23.7757M23.7758 39.2656H23.7757M23.7757 39.2656H23.7757M23.7757 39.2656H23.7757M23.7757 39.2656H23.7756M23.7757 39.2656H23.7756M23.7756 39.2656H23.7756M23.7756 39.2656H23.7756M23.7756 39.2656H23.7755M23.7756 39.2656H23.7755M23.7755 39.2656H23.7755M23.7755 39.2656H23.7755M23.7755 39.2656H23.7755M23.7755 39.2656H23.7755M23.7755 39.2656H23.7754M23.7755 39.2656H23.7754M23.7754 39.2656H23.7754M23.7754 39.2656H23.7754M23.7754 39.2656H23.7753M23.7754 39.2656H23.7753M23.7753 39.2656H23.7753M23.7753 39.2656H23.7753M23.7753 39.2656H23.7753M23.7753 39.2656H23.7753M23.7753 39.2656H23.7752M23.7753 39.2656H23.7752M23.7752 39.2656H23.7752M23.7752 39.2656H23.7752M23.7752 39.2656H23.7751M23.7752 39.2656H23.7751M23.7751 39.2656H23.7751M23.7751 39.2656H23.7751M23.7751 39.2656H23.775M23.7751 39.2656H23.775M23.775 39.2656H23.775M23.775 39.2656H23.775M23.775 39.2656H23.775M23.775 39.2656H23.775M23.775 39.2656H23.7749M23.775 39.2656H23.7749M23.7749 39.2656H23.7749M23.7749 39.2656H23.7749M23.7749 39.2656H23.7748M23.7749 39.2656H23.7748M23.7748 39.2656H23.7748M23.7748 39.2656H23.7748M23.7748 39.2656H23.7748M23.7748 39.2656H23.7748M23.7748 39.2656H23.7747M23.7748 39.2656H23.7747M23.7747 39.2656H23.7747M23.7747 39.2656H23.7747M23.7747 39.2656H23.7746M23.7747 39.2656H23.7746M23.7746 39.2656H23.7746M23.7746 39.2656H23.7746M23.7746 39.2656H23.7746M23.7746 39.2656H23.7746M23.7746 39.2656H23.7745M23.7746 39.2656H23.7745M23.7745 39.2656H23.7745M23.7745 39.2656H23.7745M23.7745 39.2656H23.7744M23.7745 39.2656H23.7744M23.7744 39.2656H23.7744M23.7744 39.2656H23.7744M23.7744 39.2656H23.7744M23.7744 39.2656H23.7744M23.7744 39.2656H23.7743M23.7744 39.2656H23.7743M23.7743 39.2656H23.7743M23.7743 39.2656H23.7743M23.7743 39.2656H23.7742M23.7743 39.2656H23.7742M23.7742 39.2656H23.7742M23.7742 39.2656H23.7742M23.7742 39.2656H23.7742M23.7742 39.2656H23.7742M23.7742 39.2656H23.7741M23.7742 39.2656H23.7741M23.7741 39.2656H23.7741M23.7741 39.2656H23.7741M23.7741 39.2656H23.774M23.7741 39.2656H23.774M23.774 39.2656H23.774M23.774 39.2656H23.774M23.774 39.2656H23.774M23.774 39.2656H23.774M23.774 39.2656H23.7739M23.774 39.2656H23.7739M23.7739 39.2656H23.7739M23.7739 39.2656H23.7739M23.7739 39.2656H23.7739M23.7739 39.2656H23.7739M23.7739 39.2656H23.7738M23.7739 39.2656H23.7738M23.7738 39.2656H23.7738M23.7738 39.2656H23.7738M23.7738 39.2656H23.7737M23.7738 39.2656H23.7737M23.7737 39.2656H23.7737M23.7737 39.2656H23.7737M23.7737 39.2656H23.7737M23.7737 39.2656H23.7737M23.7737 39.2656H23.7736M23.7737 39.2656H23.7736M23.7736 39.2656H23.7736M23.7736 39.2656H23.7736M23.7736 39.2656H23.7735M23.7736 39.2656H23.7735M23.7735 39.2656H23.7735M23.7735 39.2656H23.7735M23.7735 39.2656H23.7735M23.7735 39.2656H23.7735M23.7735 39.2656H23.7734M23.7735 39.2656H23.7734M23.7734 39.2656H23.7734M23.7734 39.2656H23.7734M23.7734 39.2656H23.7734M23.7734 39.2656H23.7734M23.7734 39.2656H23.7733M23.7734 39.2656H23.7733M23.7733 39.2656H23.7733M23.7733 39.2656H23.7733M23.7733 39.2656H23.7732M23.7733 39.2656H23.7732M23.7732 39.2656H23.7732M23.7732 39.2656H23.7732M23.7732 39.2656H23.7732M23.7732 39.2656H23.7732M23.7732 39.2656H23.7731M23.7732 39.2656H23.7731M23.7731 39.2656H23.7731M23.7731 39.2656H23.7731M23.7731 39.2656H23.7731M23.7731 39.2656H23.7731M23.7731 39.2656H23.773M23.7731 39.2656H23.773M23.773 39.2656H23.773M23.773 39.2656H23.773M23.773 39.2656H23.7729M23.773 39.2656H23.7729M23.7729 39.2656H23.7729M23.7729 39.2656H23.7729M23.7729 39.2656H23.7729M23.7729 39.2656H23.7729M23.7729 39.2656H23.7728M23.7729 39.2656H23.7728M23.7728 39.2656H23.7728M23.7728 39.2656H23.7728M23.7728 39.2656H23.7728M23.7728 39.2656H23.7728M23.7728 39.2656H23.7727M23.7728 39.2656H23.7727M23.7727 39.2656H23.7727M23.7727 39.2656H23.7727M23.7727 39.2656H23.7726M23.7727 39.2656H23.7726M23.7726 39.2656H23.7726M23.7726 39.2656H23.7726M23.7726 39.2656H23.7726M23.7726 39.2656H23.7726M23.7726 39.2656H23.7725M23.7726 39.2656H23.7725M23.7725 39.2656H23.7725M23.7725 39.2656H23.7725M23.7725 39.2656H23.7725M23.7725 39.2656H23.7725M23.7725 39.2656H23.7724M23.7725 39.2656H23.7724M23.7724 39.2656H23.7724M23.7724 39.2656H23.7724M23.7724 39.2656H23.7724M23.7724 39.2656H23.7724M23.7724 39.2656H23.7723M23.7724 39.2656H23.7723M23.7723 39.2656H23.7723M23.7723 39.2656H23.7723M23.7723 39.2656H23.7723M23.7723 39.2656H23.7723M23.7723 39.2656H23.7722M23.7723 39.2656H23.7722M23.7722 39.2656H23.7722M23.7722 39.2656H23.7722M23.7722 39.2656H23.7721M23.7722 39.2656H23.7721M23.7721 39.2656H23.7721M23.7721 39.2656H23.7721M23.7721 39.2656H23.7721M23.7721 39.2656H23.7721M23.7721 39.2656H23.772M23.7721 39.2656H23.772M23.772 39.2656H23.772M23.772 39.2656H23.772M23.772 39.2656H23.772M23.772 39.2656H23.772M23.772 39.2656H23.7719M23.772 39.2656H23.7719M23.7719 39.2656H23.7719M23.7719 39.2656H23.7719M23.7719 39.2656H23.7719M23.7719 39.2656H23.7719M23.7719 39.2656H23.7718M23.7719 39.2656H23.7718M23.7718 39.2656H23.7718M23.7718 39.2656H23.7718M23.7718 39.2656H23.7718M23.7718 39.2656H23.7718M23.7718 39.2656H23.7717M23.7718 39.2656H23.7717M23.7717 39.2656H23.7717M23.7717 39.2656H23.7717M23.7717 39.2656H23.7717M23.7717 39.2656H23.7717M23.7717 39.2656H23.7716M23.7717 39.2656H23.7716M23.7716 39.2656H23.7716M23.7716 39.2656H23.7716M23.7716 39.2656H23.7715M23.7716 39.2656H23.7715M23.7715 39.2656H23.7715M23.7715 39.2656H23.7715M23.7715 39.2656H23.7715M23.7715 39.2656H23.7715M23.7715 39.2656H23.7714M23.7715 39.2656H23.7714M23.7714 39.2656H23.7714M23.7714 39.2656H23.7714M23.7714 39.2656H23.7714M23.7714 39.2656H23.7714M23.7714 39.2656H23.7713M23.7714 39.2656H23.7713M23.7713 39.2656H23.7713M23.7713 39.2656H23.7713M23.7713 39.2656H23.7713M23.7713 39.2656H23.7713M23.7713 39.2656H23.7712M23.7713 39.2656H23.7712M23.7712 39.2656H23.7712M23.7712 39.2656H23.7712M23.7712 39.2656H23.7712M23.7712 39.2656H23.7712M23.7712 39.2656H23.7711M23.7712 39.2656H23.7711M23.7711 39.2656H23.7711M23.7711 39.2656H23.7711M23.7711 39.2656H23.7711M23.7711 39.2656H23.7711M23.7711 39.2656H23.771M23.7711 39.2656H23.771M23.771 39.2656H23.771M23.771 39.2656H23.771M23.771 39.2656H23.771M23.771 39.2656H23.771M23.771 39.2656H23.7709M23.771 39.2656H23.7709M23.7709 39.2656H23.7709M23.7709 39.2656H23.7709M23.7709 39.2656H23.7709M23.7709 39.2656H23.7709M23.7709 39.2656H23.7708M23.7709 39.2656H23.7708M23.7708 39.2656H23.7708M23.7708 39.2656H23.7708M23.7708 39.2656H23.7708M23.7708 39.2656H23.7708M23.7708 39.2656H23.7707M23.7708 39.2656H23.7707M23.7707 39.2656H23.7707M23.7707 39.2656H23.7707M23.7707 39.2656H23.7707M23.7707 39.2656H23.7707M23.7707 39.2656H23.7706M23.7707 39.2656H23.7706M23.7706 39.2656H23.7706M23.7706 39.2656H23.7706M23.7706 39.2656H23.7706M23.7706 39.2656H23.7706M23.7706 39.2656H23.7705M23.7706 39.2656H23.7705M23.7705 39.2656H23.7705M23.7705 39.2656H23.7705M23.7705 39.2656H23.7705M23.7705 39.2656H23.7705M23.7705 39.2656H23.7704M23.7705 39.2656H23.7704M23.7704 39.2656H23.7704M23.7704 39.2656H23.7704M23.7704 39.2656H23.7704M23.7704 39.2656H23.7704M23.7704 39.2656H23.7703M23.7704 39.2656H23.7703M23.7703 39.2656H23.7703M23.7703 39.2656H23.7703M23.7703 39.2656H23.7703M23.7703 39.2656H23.7703M23.7703 39.2656H23.7702M23.7703 39.2656H23.7702M23.7702 39.2656H23.7702M23.7702 39.2656H23.7702M23.7702 39.2656H23.7702M23.7702 39.2656H23.7702M23.7702 39.2656H23.7702M23.7702 39.2656H23.7702M23.7702 39.2656H23.7701M23.7702 39.2656H23.7701M23.7701 39.2656H23.7701M23.7701 39.2656H23.7701M23.7701 39.2656H23.7701M23.7701 39.2656H23.7701M23.7701 39.2656H23.77M23.7701 39.2656H23.77M23.77 39.2656H23.77M23.77 39.2656H23.77M23.77 39.2656H23.77M23.77 39.2656H23.77M23.77 39.2656H23.7699M23.77 39.2656H23.7699M23.7699 39.2656H23.7699M23.7699 39.2656H23.7699M23.7699 39.2656H23.7699M23.7699 39.2656H23.7699M23.7699 39.2656H23.7698M23.7699 39.2656H23.7698M23.7698 39.2656H23.7698M23.7698 39.2656H23.7698M23.7698 39.2656H23.7698M23.7698 39.2656H23.7698M23.7698 39.2656H23.7697M23.7698 39.2656H23.7697M23.7697 39.2656H23.7697M23.7697 39.2656H23.7697M23.7697 39.2656H23.7697M23.7697 39.2656H23.7697M23.7697 39.2656H23.7696M23.7697 39.2656H23.7696M23.7696 39.2656H23.7696M23.7696 39.2656H23.7696M23.7696 39.2656H23.7696M23.7696 39.2656H23.7696M23.7696 39.2656H23.7696M23.7696 39.2656H23.7696M23.7696 39.2656H23.7695M23.7696 39.2656H23.7695M23.7695 39.2656H23.7695M23.7695 39.2656H23.7695M23.7695 39.2656H23.7695M23.7695 39.2656H23.7695M23.7695 39.2656H23.7694M23.7695 39.2656H23.7694M23.7694 39.2656H23.7694M23.7694 39.2656H23.7694M23.7694 39.2656H23.7694M23.7694 39.2656H23.7694M23.7694 39.2656H23.7693M23.7694 39.2656H23.7693M23.7693 39.2656H23.7693M23.7693 39.2656H23.7693M23.7693 39.2656H23.7693M23.7693 39.2656H23.7693M23.7693 39.2656H23.7692M23.7693 39.2656H23.7692M23.7692 39.2656H23.7692M23.7692 39.2656H23.7692M23.7692 39.2656H23.7692M23.7692 39.2656H23.7692M23.7692 39.2656H23.7692M23.7692 39.2656H23.7692M23.7692 39.2656H23.7691M23.7692 39.2656H23.7691M23.7691 39.2656H23.7691M23.7691 39.2656H23.7691M23.7691 39.2656H23.7691M23.7691 39.2656H23.7691M23.7691 39.2656H23.769M23.7691 39.2656H23.769M23.769 39.2656H23.769M23.769 39.2656H23.769M23.769 39.2656H23.769M23.769 39.2656H23.769M23.769 39.2656H23.7689M23.769 39.2656H23.7689M23.7689 39.2656H23.7689M23.7689 39.2656H23.7689M23.7689 39.2656H23.7689M23.7689 39.2656H23.7689M23.7689 39.2656H23.7689M23.7689 39.2656H23.7689M23.7689 39.2656H23.7688M23.7689 39.2656H23.7688M23.7688 39.2656H23.7688M23.7688 39.2656H23.7688M23.7688 39.2656H23.7688M23.7688 39.2656H23.7688M23.7688 39.2656H23.7687M23.7688 39.2656H23.7687M23.7687 39.2656H23.7687M23.7687 39.2656H23.7687M23.7687 39.2656H23.7687M23.7687 39.2656H23.7687M23.7687 39.2656H23.7686M23.7687 39.2656H23.7686M23.7686 39.2656H23.7686M23.7686 39.2656H23.7686M23.7686 39.2656H23.7686M23.7686 39.2656H23.7686M23.7686 39.2656H23.7686M23.7686 39.2656H23.7686M23.7686 39.2656H23.7685M23.7686 39.2656H23.7685M23.7685 39.2656H23.7685M23.7685 39.2656H23.7685M23.7685 39.2656H23.7685M23.7685 39.2656H23.7685M23.7685 39.2656H23.7684M23.7685 39.2656H23.7684M23.7684 39.2656H23.7684M23.7684 39.2656H23.7684M23.7684 39.2656H23.7683M23.7684 39.2656H23.7683M23.7683 39.2656H23.7683M23.7683 39.2656H23.7683M23.7683 39.2656H23.7683M23.7683 39.2656H23.7683M23.7683 39.2656H23.7682M23.7683 39.2656H23.7682M23.7682 39.2656H23.7682M23.7682 39.2656H23.7682M23.7682 39.2656H23.7681M23.7682 39.2656H23.7681M23.7681 39.2656H23.7681M23.7681 39.2656H23.7681M23.7681 39.2656H23.768M23.7681 39.2656H23.768M23.768 39.2656H23.7679M23.768 39.2656H23.7679M23.7679 39.2656H23.7679M23.7679 39.2656H23.7679M23.7679 39.2656H23.7678M23.7679 39.2656H23.7678M23.7678 39.2656H23.7678M23.7678 39.2656H23.7678M23.7678 39.2656H23.7677M23.7678 39.2656H23.7677M23.7677 39.2656H23.7677M23.7677 39.2656H23.7677M23.7677 39.2656H23.7676M23.7677 39.2656H23.7676M23.7676 39.2656H23.7675M23.7676 39.2656H23.7675M23.7675 39.2656H23.7675M23.7675 39.2656H23.7675M23.7675 39.2656H23.7674M23.7675 39.2656H23.7674M23.7674 39.2656H23.7674M23.7674 39.2656H23.7674M23.7674 39.2656H23.7673M23.7674 39.2656H23.7673M23.7673 39.2656H23.7673M23.7673 39.2656H23.7673M23.7673 39.2656H23.7672M23.7673 39.2656H23.7672M23.7672 39.2656H23.7672M23.7672 39.2656H23.7672M23.7672 39.2656H23.7671M23.7672 39.2656H23.7671M23.7671 39.2656H23.767M23.7671 39.2656H23.767M23.767 39.2656H23.767M23.767 39.2656H23.767M23.767 39.2656H23.7669M23.767 39.2656H23.7669M23.7669 39.2656H23.7669M23.7669 39.2656H23.7669M23.7669 39.2656H23.7668M23.7669 39.2656H23.7668M23.7668 39.2656H23.7668M23.7668 39.2656H23.7668M23.7668 39.2656H23.7667M23.7668 39.2656H23.7667M23.7667 39.2656H23.7667M23.7667 39.2656H23.7667M23.7667 39.2656H23.7666M23.7667 39.2656H23.7666M23.7666 39.2656H23.7666M23.7666 39.2656H23.7666M23.7666 39.2656H23.7665M23.7666 39.2656H23.7665M23.7665 39.2656H23.7665M23.7665 39.2656H23.7665M23.7665 39.2656H23.7664M23.7665 39.2656H23.7664M23.7664 39.2656H23.7663M23.7664 39.2656H23.7663M23.7663 39.2656H23.7663M23.7663 39.2656H23.7663M23.7663 39.2656H23.7662M23.7663 39.2656H23.7662M23.7662 39.2656H23.7662M23.7662 39.2656H23.7662M23.7662 39.2656H23.7661M23.7662 39.2656H23.7661M23.7661 39.2656H23.7661M23.7661 39.2656H23.7661M23.7661 39.2656H23.766M23.7661 39.2656H23.766M23.766 39.2656H23.766M23.766 39.2656H23.766M23.766 39.2656H23.7659M23.766 39.2656H23.7659M23.7659 39.2656H23.7659M23.7659 39.2656H23.7659M23.7659 39.2656H23.7658M23.7659 39.2656H23.7658M23.7658 39.2656H23.7658M23.7658 39.2656H23.7658M23.7658 39.2656H23.7657M23.7658 39.2656H23.7657M23.7657 39.2656H23.7657M23.7657 39.2656H23.7657M23.7657 39.2656H23.7656M23.7657 39.2656H23.7656M23.7656 39.2656H23.7656M23.7656 39.2656H23.7656M23.7656 39.2656H23.7655M23.7656 39.2656H23.7655M23.7655 39.2656H23.7655M23.7655 39.2656H23.7655M23.7655 39.2656H23.7654M23.7655 39.2656H23.7654M23.7654 39.2656H23.7654M23.7654 39.2656H23.7654M23.7654 39.2656H23.7653M23.7654 39.2656H23.7653M23.7653 39.2656H23.7653M23.7653 39.2656H23.7653M23.7653 39.2656H23.7652M23.7653 39.2656H23.7652M23.7652 39.2656H23.7651M23.7652 39.2656H23.7651M23.7651 39.2656H23.7651M23.7651 39.2656H23.7651M23.7651 39.2656H23.765M23.7651 39.2656H23.765M23.765 39.2656H23.765M23.765 39.2656H23.765M23.765 39.2656H23.7649M23.765 39.2656H23.7649M23.7649 39.2656H23.7649M23.7649 39.2656H23.7649M23.7649 39.2656H23.7648M23.7649 39.2656H23.7648M23.7648 39.2656H23.7648M23.7648 39.2656H23.7648M23.7648 39.2656H23.7647M23.7648 39.2656H23.7647M23.7647 39.2656H23.7647M23.7647 39.2656H23.7647M23.7647 39.2656H23.7646M23.7647 39.2656H23.7646M23.7646 39.2656H23.7646M23.7646 39.2656H23.7646M23.7646 39.2656H23.7645M23.7646 39.2656H23.7645M23.7645 39.2656H23.7645M23.7645 39.2656H23.7645M23.7645 39.2656H23.7644M23.7645 39.2656H23.7644M23.7644 39.2656H23.7644M23.7644 39.2656H23.7644M23.7644 39.2656H23.7643M23.7644 39.2656H23.7643M23.7643 39.2656H23.7643M23.7643 39.2656H23.7643M23.7643 39.2656H23.7642M23.7643 39.2656H23.7642M23.7642 39.2656H23.7642M23.7642 39.2656H23.7642M23.7642 39.2656H23.7641M23.7642 39.2656H23.7641M23.7641 39.2656H23.7641M23.7641 39.2656H23.7641M23.7641 39.2656H23.764M23.7641 39.2656H23.764M23.764 39.2656H23.764M23.764 39.2656H23.764M23.764 39.2656H23.7639M23.764 39.2656H23.7639M23.7639 39.2656H23.7639M23.7639 39.2656H23.7639M23.7639 39.2656H23.7639M23.7639 39.2656H23.7639M23.7639 39.2656H23.7638M23.7639 39.2656H23.7638M23.7638 39.2656H23.7638M23.7638 39.2656H23.7638M23.7638 39.2656H23.7637M23.7638 39.2656H23.7637M23.7637 39.2656H23.7637M23.7637 39.2656H23.7637M23.7637 39.2656H23.7636M23.7637 39.2656H23.7636M23.7636 39.2656H23.7636M23.7636 39.2656H23.7636M23.7636 39.2656H23.7635M23.7636 39.2656H23.7635M23.7635 39.2656H23.7635M23.7635 39.2656H23.7635M23.7635 39.2656H23.7634M23.7635 39.2656H23.7634M23.7634 39.2656H23.7634M23.7634 39.2656H23.7634M23.7634 39.2656H23.7633M23.7634 39.2656H23.7633M23.7633 39.2656H23.7633M23.7633 39.2656H23.7633M23.7633 39.2656H23.7632M23.7633 39.2656H23.7632M23.7632 39.2656H23.7632M23.7632 39.2656H23.7632M23.7632 39.2656H23.7631M23.7632 39.2656H23.7631M23.7631 39.2656H23.7631M23.7631 39.2656H23.7631M23.7631 39.2656H23.763M23.7631 39.2656H23.763M23.763 39.2656H23.763M23.763 39.2656H23.763M23.763 39.2656H23.7629M23.763 39.2656H23.7629M23.7629 39.2656H23.7629M23.7629 39.2656H23.7629M23.7629 39.2656H23.7628M23.7629 39.2656H23.7628M23.7628 39.2656H23.7628M23.7628 39.2656H23.7628M23.7628 39.2656H23.7627M23.7628 39.2656H23.7627M23.7627 39.2656H23.7627M23.7627 39.2656H23.7627M23.7627 39.2656H23.7626M23.7627 39.2656H23.7626M23.7626 39.2656H23.7626M23.7626 39.2656H23.7626M23.7626 39.2656H23.7625M23.7626 39.2656H23.7625M23.7625 39.2656H23.7625M23.7625 39.2656H23.7625M23.7625 39.2656H23.7624M23.7625 39.2656H23.7624M23.7624 39.2656H23.7624M23.7624 39.2656H23.7624M23.7624 39.2656H23.7623M23.7624 39.2656H23.7623M23.7623 39.2656C16.3515 39.2656 10.3295 33.2355 10.3295 25.8245M23.7623 39.2656L10.3295 25.8245M10.3295 25.8245C10.3295 22.7127 11.4217 19.679 13.4001 17.2802L10.3295 25.8245ZM35.279 17.3427L35.2791 17.3426L35.2767 17.3398L35.2524 17.3115L35.2518 17.3109L35.0249 17.0363L37.1937 14.8634L37.1938 14.8633C37.8296 14.2232 37.8296 13.1864 37.1938 12.5463C36.558 11.9062 35.5211 11.9019 34.8809 12.5336L34.8807 12.5338L32.7398 14.6746L32.6095 14.5736C32.6094 14.5736 32.6094 14.5735 32.6093 14.5735C30.6788 13.054 28.3705 12.0577 25.9418 11.6882L25.9414 11.6881L25.7816 11.6653V9.20191H27.2292C27.4637 9.20191 27.6557 9.0099 27.6557 8.77543V7.24884C27.6557 6.19108 26.7976 5.333 25.7399 5.333H21.8634C20.8056 5.333 19.9476 6.19108 19.9476 7.24884V8.7713C19.9476 9.00576 20.1396 9.19777 20.374 9.19777H21.7389V11.6818L21.5791 11.7047L21.5787 11.7047C19.154 12.0742 16.854 13.0748 14.9275 14.5985L14.9273 14.5987L14.797 14.7029L12.6567 12.534L12.6564 12.5338C12.3363 12.2137 11.9179 12.0558 11.4958 12.0558C11.0737 12.0558 10.6553 12.2137 10.3351 12.5338C10.0238 12.8451 9.85299 13.255 9.85299 13.6945C9.85299 14.1339 10.0238 14.5438 10.3351 14.8551L12.5013 17.0213L12.4034 17.1518C12.4034 17.1518 12.4034 17.1518 12.4033 17.1519C10.091 20.1866 9.09872 23.944 9.60935 27.726C10.12 31.5081 12.0755 34.8669 15.1103 37.1793C18.145 39.4917 21.8983 40.4881 25.6846 39.9733C29.4666 39.4627 32.8254 37.5072 35.1378 34.4724L35.098 34.4421L35.1378 34.4724C38.974 29.4364 39.0197 22.4244 35.279 17.3427ZM35.4646 13.1711L35.4648 13.1708C35.6087 13.0231 35.8069 12.9377 36.0123 12.9377V12.9378L36.015 12.9377C36.2298 12.9262 36.4153 13.0137 36.5688 13.1633C36.7254 13.32 36.8105 13.5184 36.8105 13.7276C36.8105 13.9378 36.7288 14.1361 36.581 14.2838L34.4838 16.381L34.4246 16.314L34.4239 16.3132L34.3552 16.2324C34.355 16.2322 34.3548 16.232 34.3547 16.2318C34.3366 16.2092 34.3185 16.1912 34.2987 16.1713C34.2282 16.0926 34.1578 16.018 34.0879 15.944L34.0877 15.9438L34.0875 15.9436C33.9052 15.753 33.7229 15.5666 33.5406 15.3843L33.5402 15.3839L33.4066 15.2535L35.4646 13.1711ZM34.0514 15.9782C33.8693 15.7878 33.6873 15.6017 33.5053 15.4196L34.0514 15.9782ZM12.0313 13.1713L14.1171 15.2611L13.9771 15.3913L13.9769 15.3915C13.707 15.6448 13.4452 15.9149 13.2 16.1975C13.1999 16.1976 13.1998 16.1977 13.1997 16.1978L13.0609 16.3535L12.8939 16.2299L10.9444 14.2514C10.6567 13.9439 10.661 13.4695 10.9446 13.1704L10.9478 13.1672L10.9478 13.1672L10.9483 13.1667C11.0913 13.0198 11.2849 12.9419 11.4875 12.9377C11.6977 12.9419 11.8874 13.0235 12.0309 13.1708L12.0309 13.1708L12.0313 13.1713ZM20.8088 8.34895V7.24884C20.8088 6.66416 21.2829 6.19009 21.8675 6.19009H25.744H25.744H25.7441H25.7441H25.7441H25.7441H25.7442H25.7442H25.7442H25.7442H25.7443H25.7443H25.7443H25.7443H25.7444H25.7444H25.7444H25.7444H25.7445H25.7445H25.7445H25.7445H25.7446H25.7446H25.7446H25.7447H25.7447H25.7447H25.7447H25.7448H25.7448H25.7448H25.7448H25.7449H25.7449H25.7449H25.7449H25.745H25.745H25.745H25.7451H25.7451H25.7451H25.7451H25.7452H25.7452H25.7452H25.7453H25.7453H25.7453H25.7453H25.7454H25.7454H25.7454H25.7455H25.7455H25.7455H25.7455H25.7456H25.7456H25.7456H25.7457H25.7457H25.7457H25.7457H25.7458H25.7458H25.7458H25.7459H25.7459H25.7459H25.746H25.746H25.746H25.746H25.7461H25.7461H25.7461H25.7462H25.7462H25.7462H25.7463H25.7463H25.7463H25.7464H25.7464H25.7464H25.7464H25.7465H25.7465H25.7465H25.7466H25.7466H25.7466H25.7467H25.7467H25.7467H25.7468H25.7468H25.7468H25.7469H25.7469H25.7469H25.747H25.747H25.747H25.747H25.7471H25.7471H25.7471H25.7472H25.7472H25.7472H25.7473H25.7473H25.7473H25.7474H25.7474H25.7474H25.7475H25.7475H25.7475H25.7476H25.7476H25.7476H25.7477H25.7477H25.7477H25.7478H25.7478H25.7478H25.7479H25.7479H25.7479H25.748H25.748H25.748H25.7481H25.7481H25.7481H25.7482H25.7482H25.7482H25.7483H25.7483H25.7483H25.7484H25.7484H25.7484H25.7485H25.7485H25.7485H25.7486H25.7486H25.7486H25.7487H25.7487H25.7488H25.7488H25.7488H25.7489H25.7489H25.7489H25.749H25.749H25.749H25.7491H25.7491H25.7491H25.7492H25.7492H25.7492H25.7493H25.7493H25.7493H25.7494H25.7494H25.7495H25.7495H25.7495H25.7496H25.7496H25.7496H25.7497H25.7497H25.7497H25.7498H25.7498H25.7498H25.7499H25.7499H25.7499H25.75H25.75H25.7501H25.7501H25.7501H25.7502H25.7502H25.7502H25.7503H25.7503H25.7503H25.7504H25.7504H25.7504H25.7505H25.7505H25.7506H25.7506H25.7506H25.7507H25.7507H25.7507H25.7508H25.7508H25.7508H25.7509H25.7509H25.7509H25.751H25.751H25.7511H25.7511H25.7511H25.7512H25.7512H25.7512H25.7513H25.7513H25.7513H25.7514H25.7514H25.7515H25.7515H25.7515H25.7516H25.7516H25.7516H25.7517H25.7517H25.7517H25.7518H25.7518H25.7519H25.7519H25.7519H25.752H25.752H25.752H25.7521H25.7521H25.7521H25.7522H25.7522H25.7523H25.7523H25.7523H25.7524H25.7524H25.7524H25.7525H25.7525H25.7525H25.7526H25.7526H25.7527H25.7527H25.7527H25.7528H25.7528H25.7528H25.7529H25.7529H25.7529H25.753H25.753H25.7531H25.7531H25.7531H25.7532H25.7532H25.7532H25.7533H25.7533H25.7533H25.7534H25.7534H25.7535H25.7535H25.7535H25.7536H25.7536H25.7536H25.7537H25.7537H25.7537H25.7538H25.7538H25.7539H25.7539H25.7539H25.754H25.754H25.754H25.7541H25.7541H25.7541H25.7542H25.7542H25.7542H25.7543H25.7543H25.7544H25.7544H25.7544H25.7545H25.7545H25.7545H25.7546H25.7546H25.7546H25.7547H25.7547H25.7547H25.7548H25.7548H25.7549H25.7549H25.7549H25.755H25.755H25.755H25.7551H25.7551H25.7551H25.7552H25.7552H25.7552H25.7553H25.7553H25.7553H25.7554H25.7554H25.7555H25.7555H25.7555H25.7556H25.7556H25.7556H25.7557H25.7557H25.7557H25.7558H25.7558H25.7558H25.7559H25.7559H25.7559H25.756H25.756H25.756H25.7561H25.7561H25.7561H25.7562H25.7562H25.7562H25.7563H25.7563H25.7563H25.7564H25.7564H25.7564H25.7565H25.7565H25.7565H25.7566H25.7566H25.7567H25.7567H25.7567H25.7568H25.7568H25.7568H25.7569H25.7569H25.7569H25.757H25.757H25.757H25.757H25.7571H25.7571H25.7571H25.7572H25.7572H25.7572H25.7573H25.7573H25.7573H25.7574H25.7574H25.7574H25.7575H25.7575H25.7575H25.7576H25.7576H25.7576H25.7577H25.7577H25.7577H25.7578H25.7578H25.7578H25.7579H25.7579H25.7579H25.758H25.758H25.758H25.758H25.7581H25.7581H25.7581H25.7582H25.7582H25.7582H25.7583H25.7583H25.7583H25.7584H25.7584H25.7584H25.7584H25.7585H25.7585H25.7585H25.7586H25.7586H25.7586H25.7587H25.7587H25.7587H25.7587H25.7588H25.7588H25.7588H25.7589H25.7589H25.7589H25.759H25.759H25.759H25.759H25.7591H25.7591H25.7591H25.7592H25.7592H25.7592H25.7592H25.7593H25.7593H25.7593H25.7594H25.7594H25.7594H25.7594H25.7595H25.7595H25.7595H25.7596H25.7596H25.7596H25.7596H25.7597H25.7597H25.7597H25.7597H25.7598H25.7598H25.7598H25.7599H25.7599H25.7599H25.7599H25.76H25.76H25.76H25.76H25.7601H25.7601H25.7601H25.7601H25.7602H25.7602H25.7602H25.7602H25.7603H25.7603H25.7603H25.7603H25.7604H25.7604H25.7604H25.7604H25.7605H25.7605H25.7605H25.7605H25.7606C26.033 6.19009 26.2976 6.29671 26.4951 6.49022C26.6966 6.68783 26.8112 6.95236 26.8152 7.23685V8.34895H20.8088ZM24.9204 9.20191V11.5634L24.7184 11.5472C24.7183 11.5471 24.7183 11.5471 24.7182 11.5471C24.0823 11.489 23.4382 11.489 22.8065 11.5471C22.8064 11.5471 22.8063 11.5471 22.8062 11.5472L22.6043 11.5634V9.20191H24.9204Z" stroke="black" stroke-opacity="0.87" stroke-width="0.1"/>
<path d="M20.7588 8.3948V7.24882C20.7588 6.63653 21.2552 6.14008 21.8675 6.14008H25.744C25.7482 6.14008 25.7564 6.14008 25.7606 6.14008C26.046 6.14008 26.3232 6.25178 26.5301 6.4545C26.7411 6.66135 26.861 6.93854 26.8652 7.23641V8.39894H20.7588V8.3948Z" fill="#CC1543"/>
</svg>
