<svg width="48" height="48" viewBox="0 0 48 48" fill="none" xmlns="http://www.w3.org/2000/svg">
<path d="M17.7837 6.91199H14.1998C13.6198 6.91199 13.1518 7.37999 13.1518 7.95999V11.54L13.0958 11.572L11.6597 12.448C11.1398 12.764 10.7398 13.252 10.5278 13.82L9.41175 16.8H9.21175C8.73175 16.8 8.34375 17.188 8.34375 17.668V18.64C8.34375 19.044 8.61975 19.392 9.01175 19.484L9.09575 19.504L9.09975 19.588L9.23575 25.064C9.23575 25.128 9.23975 25.192 9.24775 25.256L10.7197 39.98C10.7837 40.608 11.3078 41.084 11.9398 41.084H20.0437C20.6757 41.084 21.1997 40.608 21.2638 39.98L22.7358 25.256C22.7397 25.192 22.7437 25.124 22.7477 25.06L22.8878 19.496L22.9718 19.476C23.3638 19.38 23.6397 19.036 23.6397 18.632V17.66C23.6397 17.18 23.2517 16.792 22.7718 16.792H22.5717L22.5437 16.72L21.4557 13.816C21.2397 13.248 20.8397 12.76 20.3197 12.444L18.8278 11.536V7.95999C18.8278 7.37999 18.3597 6.91199 17.7837 6.91199ZM13.9358 7.95999C13.9358 7.81599 14.0558 7.69599 14.1998 7.69599H17.7837C17.9277 7.69599 18.0477 7.81199 18.0477 7.95999V11.368H13.9358V7.95999ZM21.9637 25.048C21.9637 25.092 21.9598 25.136 21.9557 25.18L20.4798 39.908C20.4598 40.136 20.2677 40.304 20.0437 40.304H11.9398C11.7118 40.304 11.5238 40.132 11.4998 39.908L10.0278 25.184C10.0197 25.14 10.0198 25.092 10.0198 25.044L9.87975 19.508H22.1037L21.9637 25.048ZM19.9117 13.116C20.2837 13.34 20.5677 13.688 20.7197 14.092L21.7318 16.796H13.9478C13.7318 16.796 13.5557 16.972 13.5557 17.188C13.5557 17.404 13.7318 17.58 13.9478 17.58H22.8558V18.72H9.12775V17.58H11.5998C11.8158 17.58 11.9918 17.404 11.9918 17.188C11.9918 16.972 11.8158 16.796 11.5998 16.796H10.2478L11.2598 14.092C11.4118 13.688 11.6958 13.34 12.0678 13.116L13.6518 12.152H18.3278L19.9117 13.116Z" fill="black" fill-opacity="0.87"/>
<path d="M39.5957 24.424C39.4877 24.18 39.2477 24.024 38.9797 24.024H28.9797L28.9637 23.932C28.7277 22.656 27.6197 21.732 26.3237 21.732C24.8436 21.732 23.6396 22.936 23.6396 24.416C23.6396 25.896 24.8436 27.1 26.3237 27.1C26.7437 27.1 27.1437 27.004 27.5157 26.82L27.5916 26.78L27.6476 26.844L32.1997 31.848C32.2437 31.896 32.2916 31.94 32.3517 31.976L32.4037 32.008V38.564L28.6557 40.14C28.4356 40.232 28.3156 40.456 28.3637 40.692C28.4117 40.924 28.6076 41.088 28.8477 41.088H36.7437C36.9797 41.088 37.1797 40.924 37.2277 40.692C37.2757 40.46 37.1557 40.232 36.9357 40.14L33.1877 38.564V32.008L33.2357 31.976C33.2956 31.936 33.3477 31.892 33.3877 31.848L39.4797 25.148C39.6597 24.952 39.7037 24.668 39.5957 24.424ZM26.8797 26.232C26.6997 26.288 26.5157 26.316 26.3237 26.316C25.2757 26.316 24.4236 25.464 24.4236 24.416C24.4236 23.368 25.2757 22.516 26.3237 22.516C27.1597 22.516 27.9076 23.076 28.1476 23.88L28.1916 24.024H26.6077C26.3436 24.024 26.0997 24.18 25.9957 24.424C25.9557 24.512 25.9356 24.608 25.9396 24.708C25.9396 24.868 26.0036 25.024 26.1116 25.148L27.0517 26.184L26.8797 26.232ZM35.2957 40.304H30.2957L32.7796 39.256L32.8437 39.272L35.2957 40.304ZM37.4917 26.168H31.9877C31.7717 26.168 31.5957 26.344 31.5957 26.56C31.5957 26.776 31.7717 26.952 31.9877 26.952H36.7757L32.7917 31.336L28.8077 26.952H29.6396C29.8556 26.952 30.0317 26.776 30.0317 26.56C30.0317 26.344 29.8556 26.168 29.6396 26.168H28.0957L26.8597 24.808H38.7277L37.4917 26.168Z" fill="black" fill-opacity="0.87"/>
<path d="M26.8798 26.232C26.6998 26.288 26.5158 26.316 26.3238 26.316C25.2758 26.316 24.4238 25.464 24.4238 24.416C24.4238 23.368 25.2758 22.516 26.3238 22.516C27.1598 22.516 27.9078 23.076 28.1478 23.88L28.1918 24.024H26.6078C26.3438 24.024 26.0998 24.18 25.9958 24.424C25.9558 24.512 25.9358 24.608 25.9398 24.708C25.9398 24.868 26.0038 25.024 26.1118 25.148L27.0518 26.184L26.8798 26.232Z" fill="#CC1543"/>
<path d="M19.9119 13.116C20.2839 13.34 20.5679 13.688 20.7199 14.092L21.7319 16.796H13.9479C13.7319 16.796 13.5559 16.972 13.5559 17.188C13.5559 17.404 13.7319 17.58 13.9479 17.58H22.8559V18.72H9.12793V17.58H11.5999C11.8159 17.58 11.9919 17.404 11.9919 17.188C11.9919 16.972 11.8159 16.796 11.5999 16.796H10.2479L11.2599 14.092C11.4119 13.688 11.6959 13.34 12.0679 13.116L13.6519 12.152H18.3279L19.9119 13.116Z" fill="#D6B294"/>
</svg>
