<svg width="48" height="48" viewBox="0 0 48 48" fill="none" xmlns="http://www.w3.org/2000/svg">
<path d="M16.6343 42C16.5143 42 16.4343 41.96 16.3143 41.92C16.0343 41.76 15.9543 41.4 16.1143 41.12L23.3463 27.016H18.0703C17.8303 27.016 17.6303 26.896 17.5503 26.696C17.4303 26.496 17.4703 26.256 17.5903 26.096L29.5783 8.63599C29.7383 8.39599 30.0583 8.31599 30.3383 8.43599C30.6183 8.55599 30.7383 8.87599 30.6183 9.15599L26.2623 21.184H30.9383C31.1783 21.184 31.3783 21.304 31.4583 21.504C31.5383 21.704 31.5383 21.944 31.4183 22.144L17.1143 41.76C16.9943 41.92 16.8343 42 16.6343 42Z" fill="#D6B294"/>
<path d="M23.7742 12.556C16.4742 12.556 10.5542 18.476 10.5542 25.776C10.5542 33.076 16.4742 38.996 23.7742 38.996C31.0742 38.996 36.9942 33.076 36.9942 25.776C36.9942 18.476 31.0742 12.556 23.7742 12.556ZM23.7742 35.208C18.5662 35.208 14.3422 30.984 14.3422 25.776C14.3422 20.568 18.5662 16.344 23.7742 16.344C28.9822 16.344 33.2062 20.568 33.2062 25.776C33.2062 30.984 28.9822 35.208 23.7742 35.208Z" fill="white"/>
<path d="M20.4502 17.376C20.5422 17.34 20.6142 17.272 20.6502 17.18C20.6902 17.088 20.6902 16.992 20.6542 16.9C20.6182 16.808 20.5502 16.736 20.4582 16.7C20.4102 16.68 20.3622 16.668 20.3142 16.668C20.2662 16.668 20.2222 16.676 20.1782 16.696C16.4342 18.176 14.0142 21.732 14.0142 25.76C14.0142 31.136 18.3862 35.508 23.7622 35.512C29.1382 35.512 33.5102 31.14 33.5102 25.764C33.5262 21.728 31.1062 18.168 27.3502 16.692C27.2582 16.656 27.1582 16.656 27.0702 16.696C26.9782 16.736 26.9102 16.804 26.8742 16.896C26.8382 16.988 26.8382 17.084 26.8782 17.176C26.9142 17.264 26.9862 17.336 27.0782 17.372C28.1142 17.78 29.0542 18.372 29.8742 19.124L30.0502 19.284L28.5742 20.76C28.4502 20.892 28.4502 21.112 28.5822 21.252C28.7182 21.4 28.9502 21.408 29.0982 21.268L30.5542 19.812L30.7142 20.008C31.9862 21.556 32.7102 23.508 32.7542 25.512L32.7582 25.748H30.9102C30.7102 25.748 30.5462 25.912 30.5462 26.112C30.5462 26.312 30.7102 26.476 30.9102 26.476H32.7502L32.7222 26.728C32.5182 28.644 31.6902 30.476 30.3822 31.888L30.2222 32.064L29.0782 30.92C28.9502 30.8 28.7342 30.8 28.5942 30.932C28.4462 31.068 28.4382 31.3 28.5742 31.448L29.6982 32.572L29.5022 32.732C28.0382 33.94 26.2582 34.644 24.3622 34.764L24.1182 34.78V33.264C24.1182 33.064 23.9542 32.9 23.7542 32.9C23.5542 32.9 23.3902 33.064 23.3902 33.264V34.76L23.1462 34.744C21.2502 34.624 19.4702 33.92 18.0062 32.712L17.8102 32.552L18.9382 31.424C19.0622 31.292 19.0622 31.072 18.9342 30.932C18.8662 30.86 18.7782 30.82 18.6822 30.816C18.5822 30.812 18.4902 30.848 18.4182 30.912L17.2822 32.048L17.1222 31.872C15.8142 30.46 14.9862 28.624 14.7822 26.712L14.7542 26.46H16.5942C16.7942 26.46 16.9582 26.296 16.9582 26.096C16.9582 25.896 16.7942 25.732 16.5942 25.732H14.7462L14.7542 25.496C14.8062 23.5 15.5382 21.552 16.8142 20.016L16.9742 19.824L18.4502 21.288C18.5462 21.38 18.6182 21.404 18.7382 21.412C18.8342 21.408 18.9262 21.368 18.9942 21.296C19.0622 21.224 19.0942 21.132 19.0902 21.036C19.0862 20.94 19.0462 20.848 18.9742 20.78L17.4902 19.3L17.6662 19.136C18.4822 18.38 19.4182 17.788 20.4502 17.376Z" fill="black" fill-opacity="0.87"/>
<path d="M23.7624 17.4C23.9624 17.4 24.1264 17.236 24.1264 17.036V16.64C24.1264 16.44 23.9624 16.276 23.7624 16.276C23.5624 16.276 23.3984 16.44 23.3984 16.64V17.036C23.3984 17.24 23.5624 17.4 23.7624 17.4Z" fill="black" fill-opacity="0.87"/>
<path d="M21.9585 26.58C22.1785 27.396 22.9265 27.956 23.7625 27.956H23.7665C24.7905 27.956 25.6225 27.124 25.6265 26.1C25.6265 25.288 25.1065 24.576 24.3345 24.328L24.1745 24.276V19.6C24.1745 19.4 24.0105 19.236 23.8105 19.236C23.6105 19.236 23.4465 19.4 23.4465 19.6V24.256L23.2785 24.3C22.2825 24.568 21.6905 25.592 21.9585 26.58ZM23.7225 24.964H23.8025C24.4585 24.996 24.9305 25.524 24.8985 26.14C24.8665 26.736 24.3745 27.196 23.7825 27.196C23.7625 27.196 23.7425 27.196 23.7225 27.192C23.4265 27.176 23.1505 27.044 22.9505 26.824C22.7505 26.604 22.6505 26.316 22.6665 26.016C22.6985 25.448 23.1505 24.992 23.7225 24.964Z" fill="black" fill-opacity="0.87"/>
<path d="M23.7222 24.964H23.8022C24.4582 24.996 24.9302 25.524 24.8982 26.14C24.8662 26.736 24.3742 27.196 23.7822 27.196C23.7622 27.196 23.7422 27.196 23.7222 27.192C23.4262 27.176 23.1502 27.044 22.9502 26.824C22.7502 26.604 22.6502 26.316 22.6662 26.016C22.6982 25.448 23.1502 24.992 23.7222 24.964Z" fill="white"/>
<path d="M34.8583 17.592L34.8343 17.564L34.5863 17.264L36.7143 15.132C37.3103 14.532 37.3103 13.56 36.7143 12.96C36.1183 12.36 35.1463 12.356 34.5463 12.948L32.4463 15.048L32.2863 14.924C30.4263 13.46 28.2023 12.5 25.8623 12.144L25.6663 12.116V9.644H27.1143C27.3143 9.644 27.4783 9.48 27.4783 9.28V7.804C27.4783 6.808 26.6703 6 25.6743 6H21.9263C20.9303 6 20.1223 6.808 20.1223 7.804V9.276C20.1223 9.476 20.2863 9.64 20.4863 9.64H21.8543V12.132L21.6583 12.16C19.3223 12.516 17.1063 13.48 15.2503 14.948L15.0903 15.076L12.9903 12.948C12.6903 12.648 12.2983 12.5 11.9023 12.5C11.5063 12.5 11.1143 12.648 10.8143 12.948C10.5223 13.24 10.3623 13.624 10.3623 14.036C10.3623 14.448 10.5223 14.832 10.8143 15.124L12.9383 17.248L12.8183 17.408C10.5903 20.332 9.63426 23.952 10.1263 27.596C10.6183 31.24 12.5023 34.476 15.4263 36.704C18.3503 38.932 21.9663 39.892 25.6143 39.396C29.2583 38.904 32.4943 37.02 34.7223 34.096C38.4183 29.244 38.4623 22.488 34.8583 17.592ZM35.0423 13.496C35.1903 13.344 35.3943 13.256 35.6063 13.256C35.8303 13.244 36.0223 13.336 36.1783 13.488C36.3383 13.648 36.4263 13.852 36.4263 14.068C36.4263 14.284 36.3423 14.488 36.1903 14.64L34.1263 16.704L34.0343 16.6L33.9663 16.52C33.9503 16.5 33.9343 16.484 33.9143 16.464C33.8463 16.388 33.7783 16.316 33.7103 16.244C33.5343 16.06 33.3583 15.88 33.1823 15.704L33.0183 15.544L35.0423 13.496ZM20.8583 8.912V7.804C20.8583 7.212 21.3383 6.732 21.9303 6.732H25.6783C25.6823 6.732 25.6903 6.732 25.6943 6.732C25.9703 6.732 26.2383 6.84 26.4383 7.036C26.6423 7.236 26.7583 7.504 26.7623 7.792V8.916H20.8583V8.912ZM24.9303 9.644V12.028L24.6823 12.008C24.0703 11.952 23.4503 11.952 22.8423 12.008L22.5943 12.028V9.644H24.9303ZM11.3343 14.608C11.0383 14.292 11.0423 13.804 11.3343 13.496L11.3383 13.492C11.4863 13.34 11.6863 13.26 11.8943 13.256C12.1103 13.26 12.3063 13.344 12.4543 13.496L14.5063 15.552L14.3343 15.712C14.0743 15.956 13.8223 16.216 13.5863 16.488L13.4223 16.672L13.2223 16.524L11.3343 14.608ZM32.0063 35.888C29.6863 37.772 26.7663 38.808 23.7783 38.808C23.7703 38.808 23.7663 38.808 23.7623 38.808C16.5703 38.808 10.7263 32.956 10.7263 25.764C10.7263 22.744 11.7863 19.8 13.7063 17.472C14.1943 16.884 14.7383 16.344 15.3223 15.856C17.2903 14.168 19.6983 13.12 22.2783 12.824C23.2703 12.712 24.2743 12.712 25.2663 12.824C27.8143 13.112 30.1983 14.136 32.1623 15.788C32.2023 15.828 32.2143 15.844 32.2303 15.856C32.8143 16.344 33.3583 16.884 33.8463 17.472L34.0303 17.692L34.2543 17.98C36.2583 20.624 37.1063 23.788 36.7623 27.108C36.3983 30.572 34.7143 33.692 32.0063 35.888Z" fill="black" fill-opacity="0.87"/>
<path d="M20.8584 8.91199V7.80399C20.8584 7.21199 21.3384 6.73199 21.9304 6.73199H25.6784C25.6824 6.73199 25.6904 6.73199 25.6944 6.73199C25.9704 6.73199 26.2384 6.83999 26.4384 7.03599C26.6424 7.23599 26.7584 7.50399 26.7624 7.79199V8.91599H20.8584V8.91199Z" fill="#CC1543"/>
</svg>
