<svg width="48" height="48" viewBox="0 0 48 48" fill="none" xmlns="http://www.w3.org/2000/svg">
<path d="M26.0985 25.0258C27.5403 23.8251 29.3315 23.1608 31.1423 23.1608C32.5399 23.1608 33.9325 23.5545 35.1627 24.2975C37.6133 25.7738 39.1338 28.3966 39.1338 31.1523C39.1338 35.4826 35.4727 39.1438 31.1423 39.1438C29.051 39.1438 26.9842 38.2531 25.4637 36.6932L25.4391 36.6686C23.9628 35.148 23.1509 33.1895 23.1509 31.1523C23.1509 28.8149 24.2236 26.5808 26.0985 25.0258Z" fill="#D6B294"/>
<path d="M30.5125 25.8821C30.7463 25.8821 30.9357 25.6926 30.9357 25.4589C30.9357 25.2252 30.7463 25.0357 30.5125 25.0357C30.2788 25.0357 30.0894 25.2252 30.0894 25.4589C30.0894 25.6926 30.2788 25.8821 30.5125 25.8821Z" fill="black" fill-opacity="0.87"/>
<path d="M30.5125 28.4114C30.7463 28.4114 30.9357 28.2219 30.9357 27.9882C30.9357 27.7545 30.7463 27.565 30.5125 27.565C30.2788 27.565 30.0894 27.7545 30.0894 27.9882C30.0894 28.2219 30.2788 28.4114 30.5125 28.4114Z" fill="black" fill-opacity="0.87"/>
<path d="M27.9784 26.2954C27.7422 26.2954 27.5552 26.4873 27.5552 26.7235C27.5552 26.9597 27.7471 27.1467 27.9784 27.1467C28.2146 27.1467 28.4016 26.9548 28.4016 26.7235C28.4016 26.4873 28.2146 26.2954 27.9784 26.2954Z" fill="black" fill-opacity="0.87"/>
<path d="M8.20116 28.623C8.54562 30.2862 9.34772 31.9101 10.5779 33.4503L10.6468 33.5389C10.9716 33.9424 11.4538 34.1737 11.9656 34.1737H15.8482C16.0942 34.1737 16.3747 34.095 16.6601 33.9424L16.8619 33.8342L16.9455 34.0507C17.3736 35.1431 18.0084 36.2208 18.8351 37.2492L18.904 37.3378C19.2288 37.7413 19.711 37.9726 20.2228 37.9726H24.0709C24.4104 37.9726 24.7401 37.8742 25.0157 37.6823L25.1486 37.5937L25.2716 37.702C26.9201 39.1831 29.0016 40 31.1323 40C33.4451 40 35.6497 39.065 37.3474 37.3723C39.0451 35.6746 39.9751 33.47 39.9751 31.1572C39.9751 28.2293 38.3955 25.3851 35.8563 23.7366L35.7973 23.6972L35.7727 23.6283C35.4824 22.718 35.0592 21.8027 34.5179 20.912L33.0761 18.0481C32.958 17.7873 32.8743 17.5117 32.83 17.2312C32.7464 16.7391 32.7808 16.2323 32.9186 15.755L33.1351 15.7599L32.9334 15.7058L33.888 12.3645C34.0061 11.7937 33.9913 11.2425 33.8585 10.6865C33.5534 9.45136 32.5594 8.45242 31.3341 8.13257C30.2269 7.84716 29.0705 8.07352 28.1847 8.75752C27.299 9.44644 26.7921 10.4798 26.7921 11.5968C26.7921 11.8429 26.8167 12.0889 26.8659 12.3301L27.8304 15.7205L27.9387 16.252C27.983 16.5817 27.9781 16.9015 27.9289 17.2263C27.8796 17.5068 27.8009 17.7774 27.6877 18.0333L26.2459 20.8923C25.9556 21.3746 25.6997 21.8568 25.4832 22.3341L25.306 22.7278L24.8582 21.8421C24.7401 21.5714 24.6565 21.3008 24.6122 21.0252C24.5335 20.5282 24.563 20.0213 24.7008 19.5489C24.7106 19.5145 24.7451 19.3816 24.9468 18.678C25.2322 17.6741 25.6653 16.1585 25.6653 16.1585C25.7834 15.5926 25.7735 15.0414 25.6357 14.4854C25.3306 13.2503 24.3415 12.2513 23.1113 11.9315C21.9992 11.6411 20.8527 11.8724 19.9669 12.5564C19.0812 13.2453 18.5743 14.2787 18.5743 15.3957C18.5743 15.6418 18.5989 15.8878 18.6481 16.129L19.6126 19.5194L19.7209 20.0509C19.7652 20.3806 19.7602 20.7053 19.7061 21.0252C19.6618 21.3008 19.5831 21.5714 19.465 21.8322L19.0123 22.7229L18.8351 22.3292C18.6186 21.8519 18.3627 21.3697 18.0822 20.9022L16.6404 18.0382C16.5223 17.7774 16.4387 17.5019 16.3944 17.2214C16.3107 16.7293 16.3452 16.2224 16.483 15.7451L17.4474 12.3547C17.5655 11.7838 17.5508 11.2327 17.4179 10.6766C17.1128 9.44644 16.1188 8.44258 14.8935 8.12273C13.7765 7.8324 12.6348 8.06368 11.7442 8.74767C10.8584 9.43659 10.3516 10.47 10.3516 11.587C10.3516 11.833 10.3762 12.0791 10.4254 12.3202L11.3899 15.7107L11.4981 16.2421C11.5424 16.5718 11.5375 16.8917 11.4883 17.2165C11.4391 17.492 11.3603 17.7627 11.2472 18.0235L9.76599 20.8825C8.19132 23.4807 7.66971 26.0789 8.20116 28.623ZM27.7025 12.148C27.6631 11.961 27.6434 11.7789 27.6434 11.5968C27.6434 10.7406 28.0322 9.95328 28.7063 9.43167C29.3854 8.91006 30.2613 8.73291 31.1225 8.95435C32.0378 9.19055 32.8054 9.96805 33.0318 10.8882C33.1351 11.3065 33.1499 11.7248 33.0662 12.1332L32.4413 14.3378H28.3225L27.7025 12.148ZM32.2001 15.1891L32.1116 15.504C32.0033 15.8829 31.9443 16.2717 31.9443 16.6604V16.8671H28.8294V16.6604C28.8294 16.4734 28.8146 16.2913 28.79 16.124L28.5735 15.1841H32.2001V15.1891ZM25.8719 23.6529C26.1377 22.8804 26.5116 22.0979 26.9791 21.3254L27.1563 21.4336L26.989 21.3106L28.4505 18.4122C28.5341 18.2252 28.603 18.0481 28.6522 17.866L28.6965 17.7184H32.0673L32.1116 17.866C32.1657 18.0481 32.2297 18.2203 32.3084 18.3925L33.7748 21.2958C34.0455 21.7486 34.2768 22.1767 34.4736 22.6048L34.6901 23.0674L34.2128 22.8853C31.5457 21.8568 28.5587 22.2406 26.1869 23.8891L25.6653 24.2484L25.8719 23.6529ZM26.0983 25.0259C27.5401 23.8252 29.3313 23.1608 31.1422 23.1608C32.5397 23.1608 33.9323 23.5545 35.1625 24.2976C37.6131 25.7738 39.1336 28.3966 39.1336 31.1523C39.1336 35.4827 35.4725 39.1438 31.1422 39.1438C29.0508 39.1438 26.984 38.2531 25.4635 36.6932L25.4389 36.6686C23.9626 35.148 23.1507 33.1895 23.1507 31.1523C23.1507 28.8149 24.2234 26.5808 26.0983 25.0259ZM19.4748 15.9469C19.4355 15.755 19.4207 15.5729 19.4207 15.3957C19.4207 14.5395 19.8094 13.7522 20.4836 13.2306C21.1578 12.709 22.0337 12.5318 22.8997 12.7532C23.815 12.9944 24.5827 13.7669 24.809 14.6871C24.9124 15.1054 24.9271 15.5237 24.8435 15.9321C24.7893 16.1142 24.5039 17.118 24.2579 17.9841L24.2136 18.1367H20.0949L19.4748 15.9469ZM23.9725 18.983L23.8839 19.298C23.7707 19.6769 23.7166 20.0656 23.7117 20.4593V20.666H20.5968V20.4593C20.5968 20.2821 20.582 20.1001 20.5574 19.9229L20.3409 18.983H23.9725ZM20.2228 22.2062C20.3015 22.0291 20.3704 21.8519 20.4246 21.66L20.4688 21.5124H23.8445L23.8888 21.66C23.943 21.8371 24.0069 22.0143 24.0857 22.1865L25.2962 24.5879L25.183 24.6912C23.3525 26.384 22.3043 28.7362 22.3043 31.1474C22.3043 33.1699 23.0424 35.1579 24.3809 36.7572L24.5974 37.013L24.2727 37.0918C24.2136 37.1065 24.1496 37.1115 24.0857 37.1115H20.2376C19.9817 37.1115 19.7455 36.9934 19.5782 36.7916L19.5093 36.708C18.5595 35.522 17.8854 34.282 17.5016 33.0222C16.7142 30.4437 17.1325 27.7815 18.7515 25.1144L20.2228 22.2062ZM11.2472 12.148C11.2078 11.961 11.1881 11.7789 11.1881 11.5968C11.1881 10.7406 11.5769 9.95328 12.251 9.43167C12.9252 8.91006 13.806 8.73291 14.6672 8.95435C15.5824 9.19055 16.3501 9.96805 16.5764 10.8882C16.6798 11.3065 16.6945 11.7248 16.6109 12.1332L15.9859 14.3378H11.8672L11.2472 12.148ZM15.7448 15.1891L15.6562 15.504C15.548 15.8829 15.4889 16.2717 15.4889 16.6604V16.8671H12.374V16.6604C12.374 16.4734 12.3593 16.2913 12.3347 16.124L12.1182 15.1841H15.7448V15.1891ZM10.4894 21.3254L11.9951 18.4171C12.0837 18.2252 12.1477 18.0481 12.2018 17.8709L12.2461 17.7233H15.6169L15.6612 17.8709C15.7153 18.053 15.7793 18.2252 15.858 18.3975L17.3195 21.3008C17.8116 22.1127 18.1856 22.905 18.4513 23.6874L18.4808 23.771L18.0183 24.6912C16.3649 27.4272 15.8777 30.1632 16.5617 32.8402L16.5961 32.9681L16.4928 33.0518C16.3206 33.1846 16.045 33.3224 15.858 33.3224H11.9755C11.7196 33.3224 11.4784 33.2043 11.321 33.0075L11.2521 32.9238C9.22469 30.3945 7.45319 26.3348 10.4894 21.3254Z" fill="black" fill-opacity="0.87"/>
<path d="M36.3881 32.6384C35.7237 34.902 33.4651 36.6145 31.1424 36.6145C30.9062 36.6145 30.7192 36.8064 30.7192 37.0377C30.7192 37.269 30.9112 37.4609 31.1424 37.4609C33.8292 37.4609 36.4373 35.4876 37.2049 32.8796C37.2394 32.7713 37.2246 32.6532 37.1705 32.5548C37.1163 32.4564 37.0278 32.3826 36.9195 32.3481C36.8801 32.3383 36.8408 32.3284 36.8014 32.3284C36.6144 32.3334 36.4422 32.4515 36.3881 32.6384Z" fill="black" fill-opacity="0.87"/>
<path d="M32.1999 15.1891L32.1113 15.504C32.0031 15.8829 31.944 16.2717 31.944 16.6604V16.8671H28.8291V16.6604C28.8291 16.4734 28.8144 16.2913 28.7898 16.124L28.5732 15.1841H32.1999V15.1891Z" fill="#CC1543"/>
<path d="M23.9724 18.983L23.8838 19.298C23.7707 19.6769 23.7165 20.0656 23.7116 20.4593V20.666H20.5967V20.4593C20.5967 20.2821 20.5819 20.1001 20.5573 19.9229L20.3408 18.983H23.9724Z" fill="#D6B294"/>
<path d="M15.7448 15.1891L15.6563 15.504C15.548 15.8829 15.4889 16.2717 15.4889 16.6604V16.8671H12.374V16.6604C12.374 16.4734 12.3593 16.2913 12.3347 16.124L12.1182 15.1841H15.7448V15.1891Z" fill="#CC1543"/>
</svg>
