<svg width="48" height="48" viewBox="0 0 48 48" fill="none" xmlns="http://www.w3.org/2000/svg">
<path d="M32.0239 21.2551L29.4645 20.1588C27.8876 19.4842 26.8714 17.941 26.8714 16.2249V6.97822C26.8714 6.43851 26.4329 6 25.8932 6H21.1961C20.6564 6 20.2178 6.43851 20.2178 6.97822V16.2291C20.2178 17.941 19.2017 19.4842 17.6247 20.163L15.0654 21.2593C13.2059 22.0562 12 23.8819 12 25.9058C12 26.2305 12.0295 26.5509 12.0928 26.8587L14.7618 40.7309C14.9009 41.4645 15.546 42 16.2966 42H30.7927C31.539 42 32.1841 41.4645 32.3275 40.7309L34.9965 26.8587C35.0555 26.5467 35.0892 26.2263 35.0892 25.9058C35.0892 23.8777 33.8833 22.052 32.0239 21.2551Z" fill="white"/>
<path d="M27.6513 12.8475H19.4334C18.7841 12.8475 18.2612 12.3204 18.2612 11.6753V9.32677C18.2612 8.67744 18.7883 8.1546 19.4334 8.1546H27.6513C28.3006 8.1546 28.8234 8.68166 28.8234 9.32677V11.6753C28.8276 12.3204 28.3006 12.8475 27.6513 12.8475Z" fill="#CC1543"/>
<path d="M28.2417 37.501H18.8474C17.8777 37.501 17.085 36.7126 17.085 35.7386V28.6971C17.085 27.7273 17.8734 26.9346 18.8474 26.9346H28.2417C29.2115 26.9346 30.0041 27.7231 30.0041 28.6971V35.7428C29.9999 36.7126 29.2115 37.501 28.2417 37.501Z" fill="#D6B294"/>
<path d="M32.7406 25.9016C32.7406 24.8897 32.1714 23.9578 31.2775 23.494L30.9697 24.215C31.5853 24.5566 31.9606 25.1932 31.9606 25.9016C31.9606 26.0197 31.9479 26.1419 31.9269 26.2642L31.3998 29.0133L32.1672 29.1609L32.6943 26.4118C32.7238 26.2474 32.7406 26.0745 32.7406 25.9016Z" fill="black" fill-opacity="0.87"/>
<path d="M25.8932 6H21.1961C20.6564 6 20.2178 6.43851 20.2178 6.97822V16.2291C20.2178 17.941 19.2017 19.4842 17.6247 20.163L15.0654 21.2593C13.2059 22.0562 12 23.8819 12 25.9058C12 26.2305 12.0295 26.5509 12.0928 26.8587L14.7618 40.7309C14.9009 41.4645 15.546 42 16.2966 42H30.7927C31.539 42 32.1841 41.4645 32.3275 40.7309L34.9965 26.8587C35.0555 26.5467 35.0892 26.2263 35.0892 25.9058C35.0892 23.8819 33.8876 22.0562 32.0239 21.2593L29.4645 20.163C27.8876 19.4884 26.8714 17.9452 26.8714 16.2291V6.97822C26.8714 6.43851 26.4287 6 25.8932 6ZM21.0021 6.78004H26.0914V14.2178H21.0021V6.78004ZM20.9895 16.364C20.9895 16.3345 20.9937 16.305 20.9979 16.2797C21.0021 16.2628 21.0021 16.246 21.0021 16.2291V15.0021H26.0914V16.2291C26.0914 16.2417 26.0956 16.2544 26.0956 16.267C26.0998 16.3092 26.104 16.3345 26.104 16.364L26.1082 16.5664H20.9852L20.9895 16.364ZM29.1314 20.863L31.7161 21.9719C33.293 22.6465 34.3092 24.1897 34.3092 25.9058C34.3092 26.1757 34.2839 26.4455 34.2333 26.7154L31.5643 40.5875C31.4926 40.9543 31.1679 41.2242 30.7927 41.2242H16.2966C15.9213 41.2242 15.5966 40.9585 15.5249 40.5875L12.8559 26.7154C12.8053 26.4498 12.78 26.1757 12.78 25.9058C12.78 24.194 13.7962 22.6507 15.3732 21.9719L17.9578 20.863L18.0295 21.0569C18.4006 22.0604 19.6781 24.3879 23.5446 24.3879C24.8306 24.3879 27.9466 24.0632 29.0597 21.0569L29.1314 20.863ZM28.3134 20.3992L28.4315 20.4793L28.3935 20.6184C28.1911 21.3183 27.2424 23.6079 23.5446 23.6079C19.8468 23.6079 18.8981 21.3183 18.6957 20.6184L18.6578 20.4793L18.7758 20.3992C19.792 19.7119 20.5214 18.6788 20.825 17.4898L20.863 17.3422H26.2221L26.26 17.4898C26.5678 18.6788 27.2973 19.7119 28.3134 20.3992Z" fill="black" fill-opacity="0.87"/>
<path d="M23.5448 18.915C22.6846 18.915 21.9805 19.6191 21.9805 20.4793C21.9805 21.3394 22.6846 22.0436 23.5448 22.0436C24.4049 22.0436 25.1091 21.3394 25.1091 20.4793C25.1091 19.6191 24.4049 18.915 23.5448 18.915ZM23.5448 21.2635C23.1105 21.2635 22.7605 20.9136 22.7605 20.4793C22.7605 20.045 23.1105 19.695 23.5448 19.695C23.9791 19.695 24.329 20.045 24.329 20.4793C24.329 20.9136 23.9791 21.2635 23.5448 21.2635Z" fill="black" fill-opacity="0.87"/>
</svg>
