<svg viewBox="0 0 343 123" fill="none" xmlns="http://www.w3.org/2000/svg">
  <g>
    <path d="M273.794 48.0569V51.8305L277.984 107.178H311.508L315.699 51.8305V48.0569H273.794Z" fill="white"/>
    <path d="M314.651 65.6667L312.936 88.3087H276.556L274.841 65.6667H314.651Z" fill="#7C7C7C"/>
    <path d="M276.587 34.22H312.905C313.646 34.22 314.357 34.485 314.881 34.9568C315.405 35.4286 315.699 36.0685 315.699 36.7357V45.541H273.794V36.7357C273.794 36.0685 274.088 35.4286 274.612 34.9568C275.136 34.485 275.846 34.22 276.587 34.22Z" fill="#7C7C7C"/>
    <path d="M273.794 44.2827H315.699C316.44 44.2827 317.15 44.5478 317.674 45.0196C318.198 45.4914 318.493 46.1313 318.493 46.7985V51.83H271V46.7985C271 46.1313 271.294 45.4914 271.818 45.0196C272.342 44.5478 273.053 44.2827 273.794 44.2827Z" fill="#B9B9B9"/>
    <path d="M277.18 92.1954L276.588 92.0828L277.18 92.1954Z" fill="#DADADA"/>
    <path d="M282.175 65.6667H276.587C274.273 65.6667 272.397 67.3563 272.397 69.4404C272.397 71.5246 274.273 73.2141 276.587 73.2141H282.175C284.489 73.2141 286.365 71.5246 286.365 69.4404C286.365 67.3563 284.489 65.6667 282.175 65.6667Z" fill="#DADADA"/>
    <path d="M282.175 73.2144H276.587C274.273 73.2144 272.397 74.9039 272.397 76.988C272.397 79.0722 274.273 80.7617 276.587 80.7617H282.175C284.489 80.7617 286.365 79.0722 286.365 76.988C286.365 74.9039 284.489 73.2144 282.175 73.2144Z" fill="#DADADA"/>
    <path d="M282.175 80.7617H276.587C274.273 80.7617 272.397 82.4512 272.397 84.5354C272.397 86.6195 274.273 88.309 276.587 88.309H282.175C284.489 88.309 286.365 86.6195 286.365 84.5354C286.365 82.4512 284.489 80.7617 282.175 80.7617Z" fill="#DADADA"/>
    <path d="M279.381 88.3088H276.587C274.273 88.3088 272.397 89.9984 272.397 92.0825C272.397 94.1666 274.273 95.8562 276.587 95.8562H279.381C281.695 95.8562 283.571 94.1666 283.571 92.0825C283.571 89.9984 281.695 88.3088 279.381 88.3088Z" fill="#DADADA"/>
    <path d="M282.175 74.4726H276.587C276.217 74.4726 275.862 74.34 275.6 74.1041C275.338 73.8682 275.19 73.5483 275.19 73.2147C275.19 72.8811 275.338 72.5611 275.6 72.3252C275.862 72.0893 276.217 71.9568 276.587 71.9568H282.175C282.545 71.9568 282.9 72.0893 283.162 72.3252C283.424 72.5611 283.571 72.8811 283.571 73.2147C283.571 73.5483 283.424 73.8682 283.162 74.1041C282.9 74.34 282.545 74.4726 282.175 74.4726Z" fill="#A9A9A9"/>
    <path d="M282.175 82.0199H276.587C276.217 82.0199 275.862 81.8874 275.6 81.6515C275.338 81.4156 275.19 81.0957 275.19 80.762C275.19 80.4284 275.338 80.1085 275.6 79.8726C275.862 79.6367 276.217 79.5042 276.587 79.5042H282.175C282.545 79.5042 282.9 79.6367 283.162 79.8726C283.424 80.1085 283.571 80.4284 283.571 80.762C283.571 81.0957 283.424 81.4156 283.162 81.6515C282.9 81.8874 282.545 82.0199 282.175 82.0199Z" fill="#A9A9A9"/>
    <path d="M280.778 89.567H276.587C276.217 89.567 275.862 89.4345 275.6 89.1986C275.338 88.9627 275.19 88.6428 275.19 88.3092C275.19 87.9755 275.338 87.6556 275.6 87.4197C275.862 87.1838 276.217 87.0513 276.587 87.0513H280.778C281.148 87.0513 281.504 87.1838 281.766 87.4197C282.027 87.6556 282.175 87.9755 282.175 88.3092C282.175 88.6428 282.027 88.9627 281.766 89.1986C281.504 89.4345 281.148 89.567 280.778 89.567Z" fill="#A9A9A9"/>
    <path d="M343.367 77.6172V99.0013C343.367 99.1681 343.293 99.3281 343.162 99.4461C343.031 99.564 342.853 99.6303 342.668 99.6303H332.655C332.528 99.6303 332.404 99.6613 332.295 99.7199L327.874 102.109C327.12 102.516 326.278 102.777 325.405 102.873C324.531 102.97 323.645 102.9 322.803 102.668L312.605 99.8611C312.454 99.8196 312.323 99.7332 312.233 99.6162C312.144 99.4991 312.101 99.3582 312.112 99.2164L312.987 87.6421L313.826 76.5787C313.836 76.4402 313.795 76.3025 313.71 76.187L308.923 69.7205C308.859 69.6344 308.772 69.5638 308.671 69.5151C308.569 69.4663 308.456 69.4408 308.341 69.441H301.032C299.736 69.441 298.492 68.9771 297.575 68.1515C296.658 67.3258 296.143 66.206 296.143 65.0384C296.143 63.8707 296.658 62.7509 297.575 61.9252C298.492 61.0996 299.736 60.6357 301.032 60.6357H309.985C310.068 60.6358 310.151 60.6494 310.229 60.6758L314.909 62.2568L315.076 62.3135L321.105 64.3486C321.223 64.3884 321.327 64.4561 321.406 64.5446L332.252 76.7524C332.317 76.826 332.4 76.8855 332.494 76.9263C332.589 76.9671 332.692 76.9883 332.797 76.9883H342.668C342.853 76.9883 343.031 77.0546 343.162 77.1725C343.293 77.2905 343.367 77.4504 343.367 77.6172Z" fill="#C2C2C2"/>
    <path d="M327.774 22.1814C329.898 20.2683 330.416 18.9329 331.015 17.3867C331.687 15.6528 332.449 13.6875 335.253 11.1622C338.057 8.63679 340.239 7.95097 342.165 7.34608C343.422 6.95085 344.555 6.5945 345.905 5.68046C343.038 3.32196 339.075 2.31262 334.677 2.83711C330.277 3.36147 325.937 5.37751 322.454 8.51371C318.971 11.6499 316.733 15.559 316.15 19.5209C315.725 22.4154 316.209 25.1005 317.523 27.3446C319.413 26.0541 321.004 25.5541 322.45 25.0997C324.167 24.5603 325.65 24.0944 327.774 22.1814Z" fill="#E8E8E8"/>
    <path d="M343.55 10.9221C341.834 11.4615 340.351 11.9274 338.227 13.8405C336.102 15.7535 335.585 17.0888 334.986 18.635C334.314 20.3689 333.552 22.3342 330.748 24.8597C327.944 27.385 325.761 28.0708 323.836 28.6759C322.578 29.0711 321.446 29.4276 320.095 30.3415C322.467 32.2924 325.588 33.3205 329.085 33.3205C329.816 33.3205 330.563 33.2757 331.323 33.1851C335.723 32.6607 340.064 30.6447 343.546 27.5085C347.029 24.3723 349.268 20.4632 349.85 16.5013C350.275 13.6067 349.791 10.9216 348.478 8.67749C346.587 9.96782 344.996 10.4678 343.55 10.9221Z" fill="#E8E8E8"/>
    <path d="M265.869 123.116C263.169 121.184 261.411 120.827 259.375 120.414C257.091 119.95 254.503 119.425 250.939 116.875C247.375 114.324 246.222 112.173 245.204 110.275C244.54 109.035 243.941 107.918 242.607 106.651C239.995 109.903 239.234 114.105 240.472 118.553C241.711 123.002 244.83 127.197 249.256 130.363C253.682 133.531 258.925 135.319 264.018 135.4C267.739 135.459 271.075 134.611 273.746 132.969C271.865 131.196 271.024 129.628 270.26 128.202C269.353 126.509 268.569 125.048 265.869 123.116Z" fill="#E8E8E8"/>
    <path d="M249.551 108.385C250.458 110.078 251.242 111.539 253.942 113.471C256.642 115.403 258.4 115.76 260.436 116.173C262.72 116.637 265.308 117.162 268.872 119.712C272.436 122.262 273.589 124.414 274.607 126.312C275.271 127.552 275.871 128.668 277.204 129.936C279.365 127.246 280.26 123.907 279.803 120.315C279.708 119.565 279.553 118.803 279.339 118.035C278.101 113.585 274.981 109.391 270.555 106.224C266.129 103.057 260.887 101.268 255.794 101.188C252.073 101.129 248.736 101.977 246.066 103.618C247.946 105.391 248.787 106.959 249.551 108.385Z" fill="#E8E8E8"/>
    <path d="M249.84 15.8455C245.258 13.0254 242.35 12.6106 238.984 12.1306C235.209 11.5921 230.929 10.9818 224.88 7.25933C218.831 3.53663 216.76 0.239168 214.933 -2.67032C213.739 -4.57068 212.663 -6.28175 210.373 -8.16924C206.378 -2.81583 205.493 3.87847 207.9 10.7926C210.308 17.7092 215.771 24.0644 223.283 28.6875C230.796 33.3109 239.525 35.6898 247.864 35.3864C253.957 35.1648 259.343 33.5444 263.571 30.7281C260.342 28.0897 258.832 25.6856 257.459 23.5006C255.83 20.906 254.423 18.6655 249.84 15.8455Z" fill="#C4C4C4"/>
    <path d="M221.882 -6.01992C223.511 -3.42562 224.918 -1.18508 229.501 1.63472C234.083 4.45452 236.991 4.86936 240.357 5.34946C244.132 5.88787 248.412 6.49822 254.461 10.2209C260.51 13.9436 262.582 17.2413 264.409 20.1509C265.603 22.0513 266.679 23.7621 268.969 25.6499C272.273 21.2213 273.451 15.8768 272.396 10.248C272.175 9.07193 271.858 7.88327 271.442 6.68843C269.035 -0.228174 263.571 -6.58341 256.059 -11.2065C248.547 -15.8299 239.817 -18.2088 231.478 -17.9054C225.385 -17.6838 219.999 -16.0634 215.771 -13.2471C219 -10.6088 220.51 -8.20477 221.882 -6.01992Z" fill="#C4C4C4"/>
    <path d="M29.3391 15.7117C26.1526 12.8422 25.3763 10.8391 24.4776 8.51977C23.4698 5.91891 22.3275 2.97098 18.1212 -0.817077C13.9147 -4.60513 10.6413 -5.63385 7.75315 -6.5412C5.86668 -7.13404 4.16797 -7.66856 2.1421 -9.03962C6.44322 -12.5774 12.3878 -14.0914 18.9847 -13.3046C25.584 -12.5181 32.0954 -9.49405 37.3194 -4.78975C42.5436 -0.0854435 45.9015 5.77823 46.7749 11.721C47.413 16.0627 46.6864 20.0903 44.7164 23.4565C41.8808 21.5208 39.4943 20.7708 37.3253 20.0892C34.7498 19.2801 32.5256 18.5812 29.3391 15.7117Z" fill="#E8E8E8"/>
    <path d="M5.67473 -1.17748C8.25002 -0.368406 10.4742 0.330472 13.6605 3.20001C16.8468 6.06955 17.6231 8.07246 18.5217 10.3918C19.5295 12.9926 20.6719 15.9405 24.8784 19.7288C29.0849 23.5168 32.3585 24.5456 35.2469 25.4531C37.1333 26.0459 38.8318 26.5807 40.8579 27.9515C37.2999 30.8779 32.6188 32.4201 27.3727 32.4201C26.2766 32.4201 25.1557 32.3529 24.0157 32.2169C17.4164 31.4304 10.905 28.4063 5.68104 23.702C0.456863 18.9977 -2.90102 13.1341 -3.77445 7.19124C-4.4126 2.84934 -3.68594 -1.17824 -1.71599 -4.54443C1.1194 -2.60894 3.50588 -1.85894 5.67473 -1.17748Z" fill="#E8E8E8"/>
    <path d="M73.8986 125.048C75.8147 122.467 77.3683 121.643 79.1671 120.69C81.1844 119.62 83.4708 118.409 86.0002 115.001C88.5296 111.592 88.8986 109.227 89.2239 107.139C89.4365 105.776 89.6285 104.548 90.4689 102.974C94.059 105.353 96.2077 109.145 96.5363 113.721C96.8654 118.299 95.3166 123.15 92.1754 127.383C89.0342 131.616 84.6484 134.76 79.8259 136.237C76.3027 137.316 72.8376 137.426 69.7383 136.596C70.9284 134.391 71.1974 132.666 71.4419 131.099C71.7319 129.237 71.9825 127.63 73.8986 125.048Z" fill="#E8E8E8"/>
    <path d="M84.4439 106.535C84.1539 108.396 83.9033 110.004 81.9872 112.585C80.071 115.167 78.5176 115.99 76.7188 116.944C74.7015 118.013 72.4151 119.225 69.8856 122.633C67.3562 126.041 66.9872 128.407 66.6618 130.495C66.4492 131.858 66.257 133.086 65.4168 134.66C62.4471 132.692 60.4634 129.758 59.6807 126.212C59.5171 125.472 59.4059 124.704 59.3491 123.913C59.02 119.336 60.5688 114.484 63.71 110.251C66.8512 106.019 71.2371 102.874 76.0596 101.398C79.5829 100.318 83.048 100.209 86.1473 101.038C84.9573 103.243 84.6883 104.968 84.4439 106.535Z" fill="#E8E8E8"/>
    <path d="M9.89697 62.5902C13.2907 66.5451 15.9147 67.747 18.9529 69.1384C22.36 70.6987 26.2217 72.4673 30.7017 77.6879C35.1818 82.9087 36.0232 86.6206 36.7652 89.8956C37.2501 92.0348 37.6877 93.9612 39.2206 96.3927C44.8536 92.4092 47.9868 86.2866 48.0641 79.041C48.142 71.793 45.1208 64.2305 39.5571 57.7469C33.9935 51.2631 26.5034 46.5764 18.4668 44.5498C12.5955 43.0692 6.91671 43.1152 1.93058 44.6206C4.09907 48.027 4.71252 50.7331 5.27006 53.1928C5.93165 56.1132 6.50323 58.6353 9.89697 62.5902Z" fill="#C4C4C4"/>
    <path d="M29.0075 91.1529C28.3458 88.2327 27.7742 85.7106 24.3805 81.7559C20.9867 77.8012 18.363 76.5994 15.3247 75.208C11.9177 73.6477 8.056 71.8791 3.57569 66.6582C-0.904355 61.4374 -1.74575 57.7253 -2.48795 54.45C-2.97285 52.3108 -3.41074 50.3846 -4.94332 47.9529C-9.60288 51.2483 -12.5526 56.0056 -13.4762 61.6531C-13.6692 62.833 -13.774 64.052 -13.7873 65.3041C-13.8653 72.5522 -10.844 80.1146 -5.28032 86.5982C0.283314 93.0821 7.77338 97.7687 15.81 99.7953C21.6816 101.276 27.3603 101.23 32.3465 99.7246C30.1782 96.3185 29.5648 93.6123 29.0075 91.1529Z" fill="#C4C4C4"/>
  </g>
</svg>
