<svg width="48" height="48" viewBox="0 0 48 48" fill="none" xmlns="http://www.w3.org/2000/svg">
<path d="M25.2461 41.548C25.2461 39.624 26.9145 38.064 28.9723 38.064C31.0301 38.064 32.7199 39.624 32.7199 41.548V41.712V42H33.7723C35.7146 42 37.3018 40.516 37.3018 38.7V9.3C37.3018 7.484 35.7146 6 33.7723 6H14.5294C12.5872 6 11 7.484 11 9.3V38.7C11 40.516 12.5872 42 14.5294 42H25.2461V41.548Z" fill="white" stroke="black" stroke-opacity="0.87" stroke-width="0.904889" stroke-miterlimit="10"/>
<path d="M31.2459 26.3861L30.559 33.5227C30.4856 34.2399 29.8678 34.8015 29.1464 34.8015H19.7288C19.0073 34.8015 18.3896 34.2442 18.3161 33.5271L17.6206 26.304H18.9123L18.9296 26.3472C19.88 28.5763 22.04 30.0192 24.4332 30.0192C26.9259 30.0192 29.034 28.6109 29.9369 26.3515L29.9542 26.304H31.2459V26.3861Z" fill="#CC1543"/>
<path d="M24.4375 31.488C27.5153 31.488 30.0103 28.993 30.0103 25.9152C30.0103 22.8374 27.5153 20.3424 24.4375 20.3424C21.3598 20.3424 18.8647 22.8374 18.8647 25.9152C18.8647 28.993 21.3598 31.488 24.4375 31.488Z" fill="#D6B294"/>
<path d="M34.8096 14.6443C34.8096 13.426 33.8203 12.4368 32.6021 12.4368H31.224L31.1549 12.0048C30.9993 11.0371 30.2131 10.2595 29.2454 10.1212L20.2166 8.82956C20.0654 8.80796 19.9142 8.80364 19.7587 8.81228L19.7371 8.8166C19.2662 8.85116 18.8083 9.04124 18.4497 9.35228C17.9659 9.77132 17.6894 10.3804 17.6894 11.0241V12.4411H16.2725C15.0542 12.4411 14.0649 13.4304 14.0649 14.6486V16.463C14.0649 16.6833 14.2377 16.8561 14.4581 16.8561H15.9096L15.9182 16.9252L17.5296 33.6134C17.6419 34.7496 18.588 35.6049 19.7285 35.6049H29.1461C30.2865 35.6049 31.2283 34.7496 31.3449 33.6134L32.9649 16.8604H34.4165C34.6368 16.8604 34.8096 16.6876 34.8096 16.463V14.6443ZM18.4843 11.0155C18.4843 10.6051 18.6614 10.212 18.9725 9.94412C19.2014 9.7454 19.4952 9.62444 19.7976 9.60284C19.9013 9.5942 20.0006 9.59852 20.1043 9.61148L29.1331 10.8988C29.604 10.968 30.0144 11.2617 30.2304 11.6851L30.6062 12.4281H18.4843V11.0155ZM17.2617 22.5888H18.6744L18.6571 22.6795C18.5664 23.1331 18.4713 23.5996 18.4713 24.0576C18.4713 24.5716 18.5318 25.0209 18.6528 25.427L18.683 25.522H17.5425L17.2617 22.5888ZM31.2456 26.386L30.5587 33.5227C30.4853 34.2398 29.8675 34.8014 29.1461 34.8014H19.7285C19.007 34.8014 18.3893 34.2441 18.3158 33.527L17.6203 26.304H18.912L18.9293 26.3472C19.8797 28.5763 22.0397 30.0192 24.4329 30.0192C26.9256 30.0192 29.0337 28.6108 29.9366 26.3515L29.9539 26.304H31.2456V26.386ZM19.2533 24.0576C19.2533 21.1977 21.5774 18.8736 24.4373 18.8736C27.2971 18.8736 29.6213 21.1977 29.6213 24.0576C29.6213 26.9174 27.2971 29.2416 24.4373 29.2416C21.5774 29.2416 19.2533 26.9174 19.2533 24.0576ZM31.3277 25.5264H30.1958L30.2131 25.4356C30.3038 24.982 30.3989 24.5155 30.3989 24.0576C30.3989 23.5435 30.3384 23.0942 30.2174 22.6838L30.1872 22.5888H31.6085L31.3277 25.5264ZM31.6862 21.8112H29.9625L29.9453 21.768C28.9949 19.5388 26.8349 18.096 24.4373 18.096C21.9489 18.096 19.8365 19.5043 18.9336 21.7636L18.9163 21.8112H17.1883L16.7088 16.8518H32.1657L31.6862 21.8112ZM34.019 16.0612H14.8555V14.64C14.8555 13.858 15.4905 13.223 16.2725 13.223H32.5977C33.3797 13.223 34.019 13.858 34.019 14.64V16.0612Z" fill="black" fill-opacity="0.87"/>
<path d="M31.6854 21.8112H29.9618L29.9445 21.768C28.9941 19.5388 26.8341 18.096 24.4365 18.096C21.9482 18.096 19.8357 19.5043 18.9328 21.7636L18.9155 21.8112H17.1875L16.708 16.8518H32.165L31.6854 21.8112Z" fill="#CC1543"/>
<path d="M26.2338 22.2475C25.845 21.8631 25.2921 21.7032 24.6658 21.8069C24.087 21.9019 23.5125 22.2087 23.0504 22.6752C22.5882 23.1418 22.2815 23.7163 22.1865 24.2952C22.0871 24.9173 22.247 25.4746 22.6357 25.8634C22.9467 26.1701 23.3614 26.3343 23.8365 26.3343C23.9531 26.3343 24.0784 26.3256 24.1993 26.304C24.7781 26.209 25.3526 25.8979 25.8148 25.4314C26.277 24.9648 26.5836 24.3903 26.6743 23.8114C26.7823 23.1936 26.6225 22.6363 26.2338 22.2475Z" fill="black" fill-opacity="0.87"/>
<path d="M23.5992 23.2238C23.1543 23.6688 22.9081 24.2434 22.934 24.7186L22.9599 24.684C23.1154 24.4982 23.2623 24.3254 23.4566 24.157C23.6942 23.9539 23.9836 23.8027 24.2946 23.7163C24.6704 23.604 24.9987 23.3578 25.3269 22.943C25.3485 22.9128 25.3744 22.8696 25.4004 22.8221C25.4349 22.7573 25.4652 22.7011 25.504 22.6493C25.3701 22.5802 25.2103 22.5456 25.0332 22.5456C24.9555 22.5456 24.8777 22.5542 24.7956 22.5672C24.3723 22.6363 23.949 22.8696 23.5992 23.2238Z" fill="white"/>
<path d="M25.9446 23.401C25.9402 23.4053 25.9402 23.4096 25.9359 23.414C25.4953 23.9669 25.0418 24.2952 24.5062 24.4551C24.2945 24.5112 24.1045 24.6106 23.9533 24.7402C23.8021 24.8698 23.6812 25.0124 23.543 25.1765C23.5084 25.2197 23.4868 25.2672 23.4609 25.3148C23.4307 25.3666 23.4047 25.4184 23.3745 25.466C23.5689 25.5653 23.8108 25.5956 24.0829 25.5524C24.5019 25.4832 24.9295 25.25 25.2794 24.8957C25.7199 24.4464 25.9705 23.8762 25.9446 23.401Z" fill="white"/>
</svg>
