<svg viewBox="0 0 30 24" fill="none" xmlns="http://www.w3.org/2000/svg">
  <rect rx="12" fill="#EEEEEE"/>
  <path fill-rule="evenodd" clip-rule="evenodd" d="M19 5C17.8954 5 17 5.89543 17 7L6 7C5.44772 7 5 7.44772 5 8C5 8.55228 5.44772 9 6 9H17C17 10.1046 17.8954 11 19 11H21C22.1046 11 23 10.1046 23 9H24C24.5523 9 25 8.55228 25 8C25 7.44772 24.5523 7 24 7H23C23 5.89543 22.1046 5 21 5H19ZM19 7H21V9H19V7ZM11 12C9.89543 12 9 12.8954 9 14H6C5.44772 14 5 14.4477 5 15C5 15.5523 5.44772 16 6 16H9C9 17.1046 9.89543 18 11 18H13C14.1046 18 15 17.1046 15 16H24C24.5523 16 25 15.5523 25 15C25 14.4477 24.5523 14 24 14H15C15 12.8954 14.1046 12 13 12H11ZM11 14H13V16H11V14Z" fill="black"/>
</svg>
