<svg width="144" height="188" viewBox="0 0 144 188" fill="none" xmlns="http://www.w3.org/2000/svg">
<path d="M102.98 127.82C102.56 127.65 99.9 124.99 99.65 124.74C99.5 124.59 97.16 124.47 95.22 124.4V121.3L92.58 117.07L89.15 114.52L85.7799 113.6L82.05 113.75L75.7099 118.77C75.7099 118.77 74.9399 124.79 74.93 124.78C74.92 124.77 46.1699 124.78 46.1699 124.78L43.25 127.39L39.2 138.81V147.12L45.7 188H95.23V146.25L96.5 145.86L102.32 142.7L105.23 138.46L105.81 132.39C105.81 132.39 103.4 127.98 102.98 127.82Z" fill="#E8CCB0"/>
<path d="M72 0C32.24 0 0 32.17 0 71.85C0 100.18 16.44 124.67 40.32 136.36L42.35 129.59L46.19 124.77H74.95L75.72 118.75L80.04 114.66L87.06 113.78L92.59 117.06L95.23 121.29L94.93 139.92C95.34 139.78 95.75 139.66 96.15 139.51V125.9H97.83C98.24 125.9 98.65 125.87 99.07 125.81C102.45 127.57 104.54 130.99 104.54 134.78C104.54 135.19 104.51 135.59 104.46 135.98C127.91 124.15 144 99.88 144 71.85C144 32.17 111.76 0 72 0Z" fill="#D6B294"/>
<path d="M74.94 123.51C74.94 118.01 79.41 113.56 84.93 113.56C90.45 113.56 94.99 118.01 94.99 123.51V123.98V124.8H97.82C103.02 124.8 107.27 120.57 107.27 115.39V31.39C107.27 26.21 103.02 21.98 97.82 21.98H46.18C40.98 21.98 36.73 26.21 36.73 31.39V115.35C36.73 120.53 40.98 124.76 46.18 124.76H74.94V123.51Z" fill="white"/>
<path d="M92.8401 59.0001L91.7001 72.4201H86.9101L86.7401 72.2301C84.2401 66.3201 78.5001 62.5001 72.0801 62.5001C65.4601 62.5001 59.8401 66.2301 57.4401 72.2301L57.4101 72.2801L57.2801 72.4101H52.4001L51.0701 58.8201H92.8601L92.8401 59.0001Z" fill="#CC1543"/>
<path d="M90.5101 84.5399L88.6901 103.56C88.5001 105.57 86.7601 107.15 84.7201 107.15H59.4601C57.4501 107.15 55.6701 105.57 55.4901 103.64L53.5801 84.1799H57.2801L57.4501 84.3699C59.9501 90.2799 65.6901 94.0999 72.1101 94.0999C78.7301 94.0999 84.3501 90.3699 86.7701 84.3699L86.8001 84.3199L86.9301 84.1899H90.5501L90.5101 84.5399Z" fill="#CC1543"/>
<path d="M72.0801 98.2099C80.3501 98.2099 87.0501 91.5299 87.0501 83.2999C87.0501 75.0699 80.3501 68.3899 72.0801 68.3899C63.8101 68.3899 57.1101 75.0699 57.1101 83.2999C57.1201 91.5399 63.8301 98.2099 72.0801 98.2099Z" fill="#D6B294"/>
<path d="M93.9799 47.19H90.3399L90.1799 46.14C89.7399 43.5 87.6099 41.41 84.9999 41.07L60.7899 37.62C60.3399 37.54 59.9999 37.54 59.5599 37.54H59.4599C58.1599 37.62 56.9099 38.15 55.9599 39.02C54.6199 40.19 53.8499 41.84 53.8499 43.57V47.27H50.0999C46.8099 47.27 44.1299 49.93 44.1299 53.22V58.04C44.1299 58.7 44.6099 59.17 45.2699 59.17H49.0699L53.3999 103.81C53.7499 106.89 56.3099 109.23 59.3699 109.23H84.6299C87.7099 109.23 90.3399 106.85 90.5999 103.81L94.9299 59.19H98.7299C99.3899 59.19 99.8699 58.71 99.8699 58.06V52.98C99.7899 49.72 97.1999 47.19 93.9799 47.19ZM87.6799 81.92C87.9499 80.64 88.1899 79.4 88.1899 78.22C88.1899 76.87 88.0199 75.66 87.6699 74.49L87.6299 74.37H91.2099L90.4399 82.1H87.6299L87.6799 81.92ZM72.0799 92.06C72.0699 92.06 72.0599 92.06 72.0499 92.06C68.3699 92.06 64.9099 90.63 62.2999 88.03C59.6799 85.43 58.2399 81.96 58.2399 78.28C58.2399 70.69 64.4499 64.5 72.0799 64.5C79.7099 64.5 85.9199 70.68 85.9199 78.28C85.9199 85.89 79.7099 92.06 72.0799 92.06ZM57.1599 84.41L57.2299 84.49C59.7799 90.47 65.6099 94.33 72.0999 94.33C78.8199 94.33 84.5299 90.54 86.9599 84.48L87.0099 84.43H90.2499L88.4199 103.54C88.2399 105.43 86.6099 106.9 84.6999 106.9H59.4499C57.5599 106.9 55.8899 105.42 55.7299 103.62L53.8399 84.42H57.1599V84.41ZM72.0799 62.25C65.3499 62.25 59.6499 66.04 57.2299 72.1L57.1799 72.15H52.6199L51.3399 59.06H92.5799L91.4699 72.16H87.0199L86.9499 72.08C84.3999 66.11 78.5699 62.25 72.0799 62.25ZM56.4799 74.43L56.4199 74.6C56.1499 75.88 55.9099 77.11 55.9099 78.3C55.9099 79.64 56.0799 80.88 56.4299 82.03L56.4699 82.16H53.6499L52.8899 74.43H56.4799ZM56.1699 47.12V43.5C56.1699 42.44 56.6299 41.43 57.4299 40.73C58.0399 40.21 58.8099 39.88 59.6099 39.8H60.3699L84.6199 43.25C85.8399 43.41 86.8899 44.15 87.4999 45.28L88.4599 47.14L56.1699 47.12ZM97.6899 53.14V56.84H46.4799V53.14C46.4799 51.13 48.1799 49.44 50.1999 49.44H93.9799C95.9899 49.43 97.6899 51.13 97.6899 53.14Z" fill="black" fill-opacity="0.87"/>
<path d="M77 73.4001C76.13 72.5301 75.01 72.1001 73.66 72.1001C73.38 72.1001 73.06 72.1301 72.69 72.1801C71.03 72.4601 69.48 73.3001 68.32 74.5301C67.07 75.7601 66.2 77.3401 65.94 78.8701C65.68 80.5501 66.13 82.1101 67.18 83.1601C68.05 84.0201 69.17 84.4801 70.44 84.4801C70.8 84.4801 71.05 84.4801 71.4 84.4001C72.93 84.1401 74.53 83.2801 75.79 82.0401C77.03 80.7801 77.89 79.2101 78.15 77.7001C78.49 75.9901 78.1 74.5001 77 73.4001Z" fill="black" fill-opacity="0.87"/>
<path d="M69.83 76.06C68.61 77.27 68.01 78.81 68.01 80.03L68.09 79.95C68.52 79.43 68.86 79 69.39 78.56C69.99 78.04 70.78 77.61 71.63 77.35C72.67 77 73.53 76.4 74.4 75.28C74.48 75.2 74.48 75.11 74.57 74.93C74.65 74.76 74.74 74.58 74.82 74.5C74.47 74.33 74.05 74.25 73.52 74.25C73.35 74.25 73.09 74.25 72.92 74.33C71.92 74.51 70.78 75.11 69.83 76.06Z" fill="white"/>
<path d="M76.1599 76.5801C76.0599 76.5801 76.0599 76.5801 76.1599 76.5801C74.9399 78.1401 73.7399 78.9801 72.2699 79.4301C71.6699 79.6001 71.2299 79.8601 70.7999 80.2001C70.3699 80.5501 70.0999 80.8901 69.6799 81.4101C69.5999 81.4901 69.5099 81.6601 69.4299 81.7601C69.3499 81.9301 69.2599 82.0101 69.1799 82.1901C69.6999 82.4401 70.2999 82.5401 71.0799 82.4401C72.1999 82.2701 73.3299 81.6701 74.2699 80.7201C75.5399 79.3301 76.1599 77.7801 76.1599 76.5801Z" fill="white"/>
<path d="M108.38 115.38V31.3901C108.38 25.5901 103.64 20.8701 97.8201 20.8701H46.1801C40.3601 20.8701 35.6201 25.5901 35.6201 31.3901V115.35C35.6201 120.15 38.8201 124.27 43.4401 125.5C40.4801 129.84 37.5001 137.42 37.5001 142.92L37.5101 143.2C37.4801 143.3 37.4801 143.4 37.5001 143.5L44.5401 187.78L44.5701 187.99H47.0401L40.0001 143.05L40.0301 142.86C40.0301 137.19 43.1601 129.67 46.0901 125.87C46.1201 125.87 46.1601 125.88 46.2001 125.88H73.8201V134.33C68.1301 135.29 64.0201 140.12 64.0201 145.9C64.0201 152.38 69.3101 157.64 75.8101 157.64H76.0601V123.54C76.0601 118.66 80.0501 114.69 84.9501 114.69C89.8901 114.69 93.9001 118.66 93.9001 123.54V188H96.1401V147.1C102.27 146.22 106.86 140.96 106.86 134.78C106.86 130.93 105.11 127.39 102.04 125C105.85 123.35 108.38 119.54 108.38 115.38ZM73.8001 136.62V155.13C69.4301 154.2 66.2801 150.36 66.2801 145.88C66.2901 141.4 69.4301 137.55 73.8001 136.62ZM96.1401 125.89H97.8201C98.2301 125.89 98.6401 125.86 99.0601 125.8C102.44 127.56 104.53 130.98 104.53 134.77C104.53 139.66 100.95 143.89 96.1501 144.74V125.89H96.1401ZM99.5301 123.52C98.9801 123.64 98.4001 123.7 97.8101 123.7H96.0801V123.51C96.0801 117.41 91.0701 112.46 84.9201 112.46C78.8001 112.46 73.8201 117.42 73.8201 123.51V123.67H46.1801C41.5801 123.67 37.8301 119.94 37.8301 115.36V31.3901C37.8301 26.8101 41.5801 23.0801 46.1801 23.0801H97.8201C102.42 23.0801 106.17 26.8101 106.17 31.3901V115.38C106.17 119.3 103.38 122.72 99.5301 123.52Z" fill="black" fill-opacity="0.87"/>
<path d="M73.8 136.62V155.13C69.43 154.2 66.28 150.36 66.28 145.88C66.29 141.4 69.43 137.55 73.8 136.62Z" fill="white"/>
</svg>
