<svg width="69" height="54" viewBox="0 0 69 54" fill="none" xmlns="http://www.w3.org/2000/svg">
<path d="M42.0547 52.9201C56.3408 52.9201 67.9225 41.315 67.9225 27.0001C67.9225 12.6852 56.3408 1.08008 42.0547 1.08008C27.7687 1.08008 16.187 12.6852 16.187 27.0001C16.187 41.315 27.7687 52.9201 42.0547 52.9201Z" fill="#D6B294"/>
<path d="M43.0345 46.1846C43.0345 44.0933 44.7296 42.3653 46.8461 42.3653C48.9331 42.3653 50.6577 44.0639 50.6577 46.1846V46.3417V46.6755H51.7355C53.7246 46.6755 55.3511 45.0457 55.3511 43.0526V10.9471C55.3511 8.95404 53.7246 7.32422 51.7355 7.32422H32.0897C30.1007 7.32422 28.4741 8.95404 28.4741 10.9471V43.0526C28.4741 45.0457 30.1007 46.6755 32.0897 46.6755H43.0345V46.1846Z" fill="white"/>
<path d="M51.7253 6.84326H32.0894C29.826 6.84326 27.9937 8.68908 27.9937 10.9473V43.0527C27.9937 45.3207 29.8357 47.1567 32.0894 47.1567H43.5143V46.1847C43.5143 44.3389 45.0036 42.8465 46.8457 42.8465C48.6878 42.8465 50.1772 44.3389 50.1772 46.1847V47.1567H51.7351C53.9986 47.1567 55.8309 45.3109 55.8309 43.0527V10.9473C55.8211 8.67926 53.9888 6.84326 51.7253 6.84326ZM51.7253 46.1847H51.1374C51.1374 43.8087 49.2072 41.8745 46.8457 41.8745C44.4843 41.8745 42.554 43.8087 42.554 46.1847H32.0992C30.3845 46.1847 28.9735 44.7709 28.9735 43.0527V10.9473C28.9735 9.22908 30.3845 7.81526 32.0992 7.81526H51.7351C53.4499 7.81526 54.8608 9.22908 54.8608 10.9473V43.0527C54.851 44.7905 53.4499 46.1847 51.7253 46.1847Z" fill="black"/>
<path d="M48.796 31.2512L48.1199 38.4577C48.0513 39.1646 47.4438 39.7635 46.6893 39.7635H37.1849C36.4794 39.7635 35.8131 39.2137 35.7543 38.4872L35.0488 31.1726H36.352L36.3814 31.2021C37.3319 33.4602 39.5071 34.9133 41.9567 34.9133C44.4651 34.9133 46.6109 33.4799 47.532 31.2021L47.5614 31.1726H48.8645L48.796 31.2512Z" fill="#CC1543"/>
<path d="M41.9173 36.4354C45.0234 36.4354 47.5513 33.9121 47.5513 30.7899C47.5513 27.6776 45.0332 25.1543 41.9173 25.1543C38.8014 25.1543 36.2832 27.6776 36.2832 30.7899C36.293 33.9121 38.8112 36.4354 41.9173 36.4354Z" fill="#D6B294"/>
<path d="M49.2563 26.6072H47.5416L47.5122 26.5777C46.5618 24.3195 44.3865 22.8665 41.9369 22.8665C39.4285 22.8665 37.2827 24.2999 36.3616 26.5777L36.3322 26.6072H34.5685L34.0786 21.5901H49.6776L49.2563 26.6072Z" fill="#CC1543"/>
<path d="M50.168 17.0541H48.8453L48.7865 16.7006C48.6199 15.6795 47.7968 14.8548 46.7778 14.7272L37.6653 13.4214C37.4987 13.3821 37.3518 13.3821 37.1852 13.3821H37.146C36.6267 13.4214 36.1661 13.6079 35.784 13.9515C35.2647 14.4032 34.9609 15.0512 34.9609 15.7188V17.0639H33.6186C32.3448 17.0639 31.3062 18.1046 31.3062 19.381V21.217C31.3062 21.5017 31.5119 21.7079 31.7961 21.7079H33.1776L34.8042 38.5657C34.9414 39.7635 35.931 40.6766 37.1166 40.6766H46.621C47.8066 40.6766 48.8257 39.7439 48.9334 38.5657L50.56 21.6981H51.9415C52.2257 21.6981 52.4315 21.4919 52.4315 21.2072V19.4399V19.3515C52.4413 18.085 51.4418 17.0541 50.168 17.0541ZM47.8458 30.2694C47.9438 29.8079 48.0418 29.317 48.0418 28.8555C48.0418 28.3352 47.9732 27.8835 47.8458 27.4417H49.0412L48.7669 30.2595L47.8458 30.2694ZM35.9702 27.4908C35.8722 27.9523 35.7742 28.4432 35.7742 28.9046C35.7742 29.425 35.8428 29.8766 35.9702 30.3184H35.0393L34.765 27.5006H35.9604V27.4908H35.9702ZM41.9178 34.0494C39.0763 34.0494 36.7736 31.7323 36.7736 28.8948C36.7736 26.0574 39.0861 23.7403 41.9178 23.7403C44.7495 23.7403 47.0619 26.0574 47.0619 28.8948C47.0619 31.7323 44.7691 34.0494 41.9178 34.0494ZM36.2837 31.2708C37.2538 33.5584 39.4682 35.0312 41.9276 35.0312C44.4752 35.0312 46.6308 33.5977 47.5715 31.2708H48.6983L48.0222 38.4381C47.9536 39.1155 47.3657 39.6555 46.6798 39.6555H37.1656C36.4993 39.6555 35.882 39.1254 35.8232 38.4675L35.1275 31.261L36.2837 31.2708ZM36.2837 26.509H34.6572L34.1869 21.6686H49.5899L49.1784 26.509H47.5813C46.6112 24.2214 44.3968 22.7486 41.9374 22.7486C39.3702 22.7486 37.2146 24.2017 36.2837 26.509ZM35.9996 17.0148V15.6992C35.9996 15.3261 36.1661 14.9432 36.4601 14.6977C36.6757 14.5112 36.9598 14.3835 37.2538 14.3541H37.5379L46.6602 15.6599C47.1109 15.7188 47.4833 15.9839 47.6988 16.3864L48.0124 17.005L35.9996 17.0148ZM51.5104 19.3614V20.7064H32.3448V19.3614C32.3448 18.6446 32.9621 18.0163 33.6872 18.0163H50.1582C50.8931 18.0163 51.5104 18.6348 51.5104 19.3614Z" fill="black"/>
<path d="M42.1331 26.5092C41.4962 26.6073 40.8985 26.9412 40.4576 27.4222C39.9775 27.9033 39.6443 28.5121 39.5463 29.1012C39.4483 29.759 39.6149 30.3775 40.0362 30.7801C40.3792 31.1237 40.8201 31.3004 41.31 31.3004C41.4374 31.3004 41.5354 31.3004 41.6824 31.2612C42.2703 31.163 42.8778 30.8292 43.3579 30.3481C43.838 29.867 44.1712 29.2582 44.2691 28.6692C44.3965 28.0015 44.2397 27.4026 43.8184 26.9902C43.3971 26.5779 42.819 26.4208 42.1331 26.5092Z" fill="black"/>
<path d="M41.0848 28.0407C40.6243 28.5022 40.4087 29.0815 40.4087 29.5429L40.4381 29.5036C40.5949 29.3073 40.732 29.1404 40.928 28.9833C41.1436 28.7869 41.4473 28.62 41.7707 28.5218C42.1626 28.3942 42.4761 28.1586 42.8093 27.7364C42.8387 27.7069 42.8387 27.6676 42.8779 27.6087C42.9073 27.54 42.9465 27.4811 42.9661 27.4516C42.8387 27.3829 42.6721 27.3633 42.4761 27.3633C42.4076 27.3633 42.3194 27.3633 42.2606 27.4026C41.8491 27.4615 41.4375 27.6775 41.0848 28.0407Z" fill="white"/>
<path d="M43.4657 28.2371C43.4168 28.2371 43.4168 28.2371 43.4657 28.2371C43.0052 28.8262 42.5545 29.1502 42.0058 29.3171C41.7902 29.3858 41.6139 29.4742 41.4571 29.6116C41.3003 29.7392 41.1925 29.8767 41.0357 30.0731C41.0064 30.1025 40.9672 30.1614 40.9476 30.2007C40.9182 30.2694 40.879 30.2891 40.8594 30.3578C41.0553 30.4462 41.2807 30.4854 41.5649 30.4462C41.9862 30.3774 42.4075 30.1516 42.7701 29.7982C43.2208 29.2876 43.4657 28.6985 43.4657 28.2371Z" fill="white"/>
<path d="M42.0543 0C42.0445 0 42.0445 0 42.0347 0C34.8623 0 28.1112 2.79818 23.0552 7.884L22.8592 8.08036L22.5751 8.06073H5.66309V9.13091H21.8304L21.0269 10.1225C13.1882 19.9015 13.1882 34.0887 21.0269 43.8775L21.8304 44.8691H5.66309V45.9491H22.7907L23.0552 46.1258C28.1308 51.2018 34.8623 54 42.0347 54C42.0445 54 42.0445 54 42.0543 54C56.9086 54 68.9998 41.8844 68.9998 27C68.9998 12.1156 56.8988 0 42.0543 0ZM42.0543 52.92C27.7878 52.92 16.1865 41.2953 16.1865 27C16.1865 12.7047 27.7878 1.08 42.0543 1.08C56.3207 1.08 67.922 12.7047 67.922 27C67.922 41.2953 56.3109 52.92 42.0543 52.92Z" fill="black"/>
<path d="M4.58595 1.62012H1.07812V52.3801H4.58595V1.62012Z" fill="#CC1543"/>
<path d="M5.66347 44.8691V9.13095V8.06077V7.19677V1.08004C5.66347 0.775675 5.4381 0.540039 5.13435 0.540039H0.538911C0.235161 0.540039 0 0.785494 0 1.08004V52.92C0 53.2244 0.235161 53.46 0.538911 53.46H5.12455C5.4283 53.46 5.66347 53.2244 5.66347 52.92V47.5102V45.9491V44.8691ZM4.58564 52.38H1.07782V1.62004H4.58564V52.38Z" fill="black"/>
</svg>
