<svg width="48" height="48" viewBox="0 0 48 48" fill="none" xmlns="http://www.w3.org/2000/svg">
<path d="M40.3294 31.4016H31.4542L31.4638 31.248L32.1742 20.2272H33.067C33.3214 20.2272 33.5278 20.0208 33.5278 19.7664V18.5568C33.5278 17.8512 33.0814 17.2176 32.4142 16.9824L32.3182 16.9488V15.8688L32.3518 15.8256C32.755 15.3696 32.9566 14.784 32.9182 14.1792C32.8798 13.5744 32.6062 13.0176 32.1502 12.6144C31.8814 12.3792 31.555 12.2064 31.2142 12.12L31.1038 12.0912V11.904C31.1038 10.3152 29.8126 9.02397 28.2238 9.02397C27.3022 9.02397 26.4334 9.46557 25.8958 10.2096L25.795 10.344L25.6798 10.2288C24.9118 9.46077 23.8462 9.02397 22.7614 9.02397C22.7518 9.02397 22.7422 9.02397 22.7326 9.02397H22.6078L22.5886 8.90397C22.267 7.00797 20.4526 5.72637 18.571 6.04797C17.4958 6.23037 16.555 6.91677 16.051 7.88637L15.9742 8.03997L15.8398 7.93437C15.1054 7.36317 14.1934 7.11837 13.267 7.23357C12.3454 7.35357 11.5246 7.82397 10.9534 8.55837C10.5886 9.02877 10.3486 9.58557 10.2622 10.176L10.2382 10.3248L10.0894 10.2912C9.33583 10.128 8.56783 10.2624 7.91983 10.68C7.27183 11.0928 6.82543 11.736 6.66223 12.4896C6.42223 13.5888 6.84463 14.736 7.74703 15.408L7.80463 15.4512V16.8768H7.66063C6.73903 16.8768 5.99023 17.6256 5.99023 18.5472V19.7568C5.99023 20.0112 6.19663 20.2176 6.45103 20.2176H7.22863L7.23823 20.352L8.40943 36.7248C8.42383 36.9648 8.62543 37.152 8.87023 37.152H15.667V40.32C15.667 41.2416 16.4158 41.9904 17.3374 41.9904H27.619C27.7966 41.9904 27.955 41.8944 28.0318 41.736L28.8286 40.1424L29.6254 41.736C29.7022 41.8944 29.8606 41.9904 30.0382 41.9904H40.3198C41.2414 41.9904 41.9902 41.2416 41.9902 40.32V33.072C41.9998 32.1504 41.2462 31.4016 40.3294 31.4016ZM7.76143 12.144C8.29423 11.2032 9.48463 10.8672 10.4302 11.3952C10.4494 11.4048 10.4734 11.4192 10.4878 11.4288C10.699 11.5536 10.9822 11.4816 11.1118 11.2608C11.1598 11.1744 11.1838 11.0736 11.1742 10.9776C11.1646 10.8816 11.1598 10.7856 11.1598 10.6944C11.1598 9.28317 12.307 8.13117 13.723 8.13117C14.5534 8.13117 15.3358 8.53437 15.8158 9.21117C15.9598 9.41757 16.2478 9.46557 16.459 9.32157C16.5598 9.24957 16.627 9.14397 16.6462 9.02397C16.8718 7.78557 17.9518 6.91677 19.1662 6.91677C19.315 6.91677 19.4686 6.93117 19.627 6.95997C20.8462 7.18077 21.7294 8.24157 21.7294 9.47997C21.7246 9.63357 21.7678 9.74877 21.8494 9.83997C21.931 9.93117 22.0462 9.98397 22.171 9.98877C22.2094 9.98397 22.2382 9.98877 22.267 9.98397C22.435 9.95517 22.6078 9.94077 22.7806 9.94077C22.7902 9.94077 22.7998 9.94077 22.8142 9.94077C23.9182 9.94077 24.955 10.5312 25.5166 11.4816C25.579 11.5872 25.6798 11.6592 25.7998 11.6928C25.9198 11.7216 26.0446 11.7024 26.1454 11.64C26.251 11.5776 26.323 11.4816 26.3566 11.3712C26.6494 10.3296 27.739 9.72957 28.771 10.0176C29.611 10.2528 30.2014 11.0304 30.2014 11.904C30.2014 12.072 30.1822 12.24 30.139 12.3936C30.0766 12.6384 30.2206 12.8928 30.4702 12.9552C30.5134 12.9648 30.571 12.9792 30.5998 12.9696H30.667C31.411 12.9696 32.0158 13.5744 32.0206 14.3232C32.0206 14.7072 31.8526 15.0768 31.5694 15.3312C31.4734 15.4176 31.4158 15.5424 31.4158 15.6768V16.8864H8.73583V15.2064C8.73583 15.0432 8.64943 14.8896 8.50543 14.808C7.56943 14.28 7.23343 13.0848 7.76143 12.144ZM6.92143 19.3056V18.5568C6.92143 18.144 7.25743 17.808 7.67023 17.808H31.8622C32.275 17.808 32.611 18.144 32.611 18.5568V19.3056H6.92143ZM31.2526 20.2272L31.243 20.3808L30.5326 31.4016H30.0478C29.8702 31.4016 29.7118 31.4976 29.635 31.656L28.8382 33.2496L28.0414 31.656C27.9646 31.4976 27.8062 31.4016 27.6286 31.4016H27.4846V20.2272H31.2526ZM26.563 20.2272V31.4016H22.6462V20.2272H26.563ZM21.7246 20.2272V31.4016H17.8078V20.2272H21.7246ZM12.0478 36.24H9.31183L9.30223 36.1056L8.16943 20.2272H12.0526V36.24H12.0478ZM15.6766 33.072V36.24H12.9694V20.2272H16.8862V31.4592L16.7902 31.4928C16.123 31.7328 15.6766 32.3664 15.6766 33.072ZM41.0782 40.3296C41.0782 40.7424 40.7422 41.0784 40.3294 41.0784H30.3358L30.2926 40.9968L29.251 38.9136C29.1358 38.6832 28.8574 38.5968 28.6318 38.7072C28.5454 38.7504 28.4734 38.8224 28.4254 38.9136L27.3454 41.0784H17.347C16.9342 41.0784 16.5982 40.7424 16.5982 40.3296V33.072C16.5982 32.6592 16.9342 32.3232 17.347 32.3232H27.3406L27.3838 32.4048L28.4254 34.488C28.4782 34.5984 28.5742 34.68 28.6894 34.7184C28.8094 34.7568 28.9342 34.7472 29.0446 34.6944C29.1358 34.6464 29.2078 34.5792 29.251 34.488L30.3358 32.3232H40.3294C40.7422 32.3232 41.0782 32.6592 41.0782 33.072V40.3296Z" fill="black" fill-opacity="0.87"/>
<path d="M25.8141 33.8207H18.5565C18.3021 33.8207 18.0957 34.0271 18.0957 34.2815V39.1199C18.0957 39.3743 18.3021 39.5807 18.5565 39.5807H25.8141C26.0685 39.5807 26.2749 39.3743 26.2749 39.1199V34.2815C26.2749 34.0271 26.0685 33.8207 25.8141 33.8207ZM25.3533 38.6591H19.0173V34.7423H25.3533V38.6591Z" fill="black" fill-opacity="0.87"/>
<path d="M39.1198 33.8207H31.8622C31.6078 33.8207 31.4014 34.0271 31.4014 34.2815V39.1199C31.4014 39.3743 31.6078 39.5807 31.8622 39.5807H39.1198C39.3742 39.5807 39.5806 39.3743 39.5806 39.1199V34.2815C39.5806 34.0271 39.3742 33.8207 39.1198 33.8207ZM38.659 38.6591H32.323V34.7423H38.659V38.6591Z" fill="black" fill-opacity="0.87"/>
<path d="M21.5809 14.784C22.8337 14.784 23.8561 13.7616 23.8561 12.5088C23.8561 12.2544 23.6497 12.048 23.3953 12.048C23.1409 12.048 22.9345 12.2544 22.9345 12.5088C22.9345 13.2528 22.3249 13.8624 21.5809 13.8624C20.8369 13.8624 20.2273 13.2576 20.2273 12.5088C20.2273 12.2544 20.0209 12.048 19.7665 12.048C19.5121 12.048 19.3057 12.2544 19.3057 12.5088C19.3057 13.7664 20.3281 14.784 21.5809 14.784Z" fill="black" fill-opacity="0.87"/>
<path d="M14.3231 14.4672C14.0687 14.4672 13.8623 14.6736 13.8623 14.928C13.8623 15.1824 14.0687 15.3888 14.3231 15.3888C15.5807 15.3888 16.5983 14.3664 16.5983 13.1136C16.5983 11.8608 15.5759 10.8384 14.3231 10.8384C14.0687 10.8384 13.8623 11.0448 13.8623 11.2992C13.8623 11.5536 14.0687 11.76 14.3231 11.76C15.0671 11.76 15.6767 12.3648 15.6767 13.1136C15.6767 13.8624 15.0719 14.4672 14.3231 14.4672Z" fill="black" fill-opacity="0.87"/>
<path d="M31.2524 20.2272L31.2428 20.3808L30.5324 31.4016H30.0476C29.87 31.4016 29.7116 31.4976 29.6348 31.656L28.838 33.2496L28.0412 31.656C27.9644 31.4976 27.806 31.4016 27.6284 31.4016H27.4844V20.2272H31.2524Z" fill="#CC1543"/>
<path d="M21.7244 20.2272H17.8076V31.4016H21.7244V20.2272Z" fill="#CC1543"/>
<path d="M12.0478 36.24H9.31183L9.30223 36.1056L8.16943 20.2272H12.0478V36.24Z" fill="#CC1543"/>
<path d="M40.3293 32.3232H30.3357L29.2509 34.488C29.2077 34.5792 29.1357 34.6464 29.0445 34.6944C28.9341 34.7472 28.8093 34.7568 28.6893 34.7184C28.5741 34.68 28.4781 34.5984 28.4253 34.488L27.3837 32.4048L27.3405 32.3232H17.3469C16.9341 32.3232 16.5981 32.6592 16.5981 33.072V40.3296C16.5981 40.7424 16.9341 41.0784 17.3469 41.0784H27.3405L28.4205 38.9136C28.4685 38.8224 28.5405 38.7504 28.6269 38.7072C28.8525 38.5968 29.1309 38.6832 29.2461 38.9136L30.2877 40.9968L30.3309 41.0784H40.3245C40.7373 41.0784 41.0733 40.7424 41.0733 40.3296V33.072C41.0781 32.6592 40.7421 32.3232 40.3293 32.3232ZM26.2749 39.12C26.2749 39.3744 26.0685 39.5808 25.8141 39.5808H18.5565C18.3021 39.5808 18.0957 39.3744 18.0957 39.12V34.2816C18.0957 34.0272 18.3021 33.8208 18.5565 33.8208H25.8141C26.0685 33.8208 26.2749 34.0272 26.2749 34.2816V39.12ZM39.5805 39.12C39.5805 39.3744 39.3741 39.5808 39.1197 39.5808H31.8621C31.6077 39.5808 31.4013 39.3744 31.4013 39.12V34.2816C31.4013 34.0272 31.6077 33.8208 31.8621 33.8208H39.1197C39.3741 33.8208 39.5805 34.0272 39.5805 34.2816V39.12Z" fill="#D6B294"/>
</svg>
