<svg width="145" height="117" viewBox="0 0 145 117" fill="none" xmlns="http://www.w3.org/2000/svg">
<g id="At Store" clip-path="url(#clip0)">
<path id="Vector" d="M73.361 117C112.926 117 145 114.491 145 111.395C145 108.299 112.926 105.79 73.361 105.79C33.7959 105.79 1.72205 108.299 1.72205 111.395C1.72205 114.491 33.7959 117 73.361 117Z" fill="#560000"/>
<path id="Vector_2" d="M134.214 100.982L134.886 105.913L130.186 106.361L130.857 100.309L134.214 100.982Z" fill="#FEB9B9"/>
<path id="Vector_3" d="M112.057 33.2869C112.057 33.2869 112.504 39.339 112.504 39.5632C112.504 39.7874 109.371 55.254 109.371 55.254C109.371 55.254 104.895 63.7719 109.371 63.5478C113.847 63.3236 112.504 55.4782 112.504 55.4782L117.204 42.4772L115.19 33.2869L112.057 33.2869Z" fill="#FEB9B9"/>
<path id="Vector_4" d="M119.443 100.982L118.771 105.913L123.471 106.361L122.8 100.309L119.443 100.982Z" fill="#FEB9B9"/>
<path id="Vector_5" d="M114.295 54.8058L113.176 56.3749C113.176 56.3749 112.504 63.0995 113.176 65.3411C113.847 67.5826 115.19 77.8937 115.19 78.5662C115.19 79.2387 115.414 79.687 115.19 79.9111C114.966 80.1353 114.295 80.1353 114.742 80.5836C115.19 81.0319 115.19 82.3768 115.19 82.3768V83.4976L118.1 100.085C118.1 100.085 116.309 102.102 117.652 102.102C118.995 102.102 123.919 102.102 123.695 99.8609L123.247 99.6367C123.247 99.6367 122.576 84.8425 122.8 84.1701C123.024 83.4976 122.8 82.1527 122.8 82.1527C122.8 82.1527 122.352 81.4802 122.8 81.256C123.247 81.0319 123.247 79.2387 123.247 79.2387L125.262 65.5652C125.262 65.5652 127.052 74.7556 128.171 75.6522C129.29 76.5488 129.067 78.7904 129.067 78.7904L129.962 98.5159C129.962 98.5159 129.067 100.757 129.962 101.206C130.857 101.654 134.662 103.223 134.886 100.982C135.11 98.7401 136.229 79.2387 136.229 78.342C136.229 77.4454 136.005 76.9971 136.229 76.3246C136.452 75.6522 136.005 75.6522 136.229 75.6522C136.452 75.6522 135.781 74.9797 135.781 74.5314V63.5478C135.781 63.5478 136.005 61.3063 136.229 60.858C136.452 60.4097 136.005 59.9614 136.229 59.2889C136.452 58.6165 135.781 56.3749 135.781 56.3749L125.709 53.6851L114.295 54.8058Z" fill="#B9735A"/>
<path id="Vector_6" d="M122.128 105.017C122.128 105.017 123.247 103.896 121.681 103.896C120.675 103.916 119.684 104.145 118.771 104.568L117.652 108.603C117.652 108.603 113.064 112.302 118.212 111.853C123.359 111.405 122.576 111.741 122.576 111.741C122.576 111.741 124.143 111.293 124.366 110.845C124.59 110.396 123.919 103.896 123.919 103.896C123.919 103.896 123.247 105.689 122.128 105.017Z" fill="#B9735A"/>
<path id="Vector_7" d="M131.752 105.016C131.752 105.016 130.633 103.896 132.2 103.896C133.206 103.916 134.197 104.145 135.11 104.568L136.229 108.603C136.229 108.603 140.817 112.301 135.669 111.853C130.521 111.405 130.633 111.741 130.633 111.741C130.633 111.741 129.067 111.293 128.843 110.844C128.619 110.396 129.962 103.896 129.962 103.896C129.962 103.896 130.633 105.689 131.752 105.016Z" fill="#B9735A"/>
<path id="Vector_8" d="M117.204 15.5789C120.418 15.5789 123.024 12.9696 123.024 9.75087C123.024 6.53214 120.418 3.92285 117.204 3.92285C113.991 3.92285 111.385 6.53214 111.385 9.75087C111.385 12.9696 113.991 15.5789 117.204 15.5789Z" fill="#FEB9B9"/>
<path id="Vector_9" d="M115.19 14.0096C115.19 14.0096 116.085 18.4927 116.085 19.1652C116.085 19.8376 119.89 21.855 119.89 21.855L124.143 16.4753C124.143 16.4753 121.457 12.6647 121.457 11.7681L115.19 14.0096Z" fill="#FEB9B9"/>
<path id="Vector_10" d="M118.547 19.8377C118.547 19.8377 116.597 19.3177 116.005 18.4569C116.005 18.4569 109.819 24.5449 109.819 25.6657L114.743 34.4077C114.743 34.4077 114.743 37.5459 115.19 37.77C115.638 37.9942 115.19 37.77 115.19 38.6666C115.19 39.5633 113.847 45.3913 114.295 46.2879C114.743 47.1845 115.19 46.512 114.743 47.857C114.295 49.2019 113.176 56.3748 113.176 56.3748C113.176 56.3748 117.204 55.0299 123.024 57.2715C128.843 59.513 135.781 56.3748 135.781 56.3748C135.781 56.3748 133.991 52.3401 134.438 50.9951C134.886 49.6502 133.319 47.1845 133.319 47.1845L132.2 26.5623C132.2 26.5623 133.767 17.372 132.648 16.9237L130.41 16.027L123.242 15.1448C123.242 15.1448 121.457 19.6135 118.547 19.8377Z" fill="#D0CDE1"/>
<path id="Vector_11" d="M112.057 24.0967L109.819 25.6658C109.819 25.6658 108.699 29.0281 109.819 30.5972C110.938 32.1662 111.385 34.4078 111.385 34.4078L115.862 33.9595L112.057 24.0967Z" fill="#D0CDE1"/>
<path id="Vector_12" d="M112.761 3.5915L111.752 3.18678C111.752 3.18678 113.863 0.859632 116.799 1.062L115.973 0.151362C115.973 0.151362 117.992 -0.658074 119.827 1.46671C120.792 2.58366 121.908 3.89658 122.604 5.37557H123.685L123.234 6.37051L124.813 7.36544L123.192 7.18673C123.346 8.04568 123.293 8.92889 123.039 9.76351L123.082 10.5499C123.082 10.5499 121.204 7.63871 121.204 7.23399V8.24579C121.204 8.24579 120.194 7.33517 120.194 6.72809L119.644 7.43636L119.368 6.32337L115.973 7.43636L116.524 6.52574L114.413 6.82929L115.239 5.7163C115.239 5.7163 112.853 7.03164 112.761 8.14464C112.67 9.25761 111.477 10.6741 111.477 10.6741L110.926 9.66234C110.926 9.66234 110.1 5.10921 112.761 3.5915Z" fill="#B9735A"/>
<path id="Vector_13" d="M114.111 48.7803H25.1716V111.352H114.111V48.7803Z" fill="#F2F2F2"/>
<path id="Vector_14" d="M54.9903 72.6543H32.6586V111.697H54.9903V72.6543Z" fill="#560000"/>
<path id="Vector_15" d="M42.8049 74.9966H36.7893V80.6128H42.8049V74.9966Z" fill="#F2F2F2"/>
<path id="Vector_16" d="M50.8595 74.9966H44.844V80.6128H50.8595V74.9966Z" fill="#F2F2F2"/>
<path id="Vector_17" d="M42.8049 82.655H36.7893V88.4755H42.8049V82.655Z" fill="#F2F2F2"/>
<path id="Vector_18" d="M50.8595 82.655H44.844V88.4755H50.8595V82.655Z" fill="#F2F2F2"/>
<path id="Vector_19" d="M52.1504 96.2263C52.9346 96.2263 53.5703 95.5896 53.5703 94.8042C53.5703 94.0188 52.9346 93.3821 52.1504 93.3821C51.3662 93.3821 50.7305 94.0188 50.7305 94.8042C50.7305 95.5896 51.3662 96.2263 52.1504 96.2263Z" fill="#D75050"/>
<path id="Vector_20" d="M106.624 68.948H62.4772V106.052H106.624V68.948Z" fill="#560000"/>
<path id="Vector_21" d="M123.405 60.5603H15.8774L23.0468 45.5482L24.6513 42.1869L26.7504 37.7913L28.3548 34.43L30.2149 30.5361H114.933L116.032 34.43L116.981 37.7913L118.221 42.1869L119.17 45.5482L123.405 60.5603Z" fill="#560000"/>
<path id="Vector_22" d="M65.5753 84.3325H64.0262V93.8993H65.5753V84.3325Z" fill="#D75050"/>
<path id="Vector_23" d="M65.5753 85.7546H64.0262V86.9182H65.5753V85.7546Z" fill="#F2F2F2"/>
<path id="Vector_24" d="M65.5753 91.3137H64.0262V92.4772H65.5753V91.3137Z" fill="#F2F2F2"/>
<path id="Vector_25" d="M70.0932 84.3325H66.3497V93.8993H70.0932V84.3325Z" fill="#D75050"/>
<path id="Vector_26" d="M70.0932 85.7546H66.3497V86.9182H70.0932V85.7546Z" fill="#F2F2F2"/>
<path id="Vector_27" d="M70.0932 91.3137H66.3497V92.4772H70.0932V91.3137Z" fill="#F2F2F2"/>
<path id="Vector_28" d="M72.5459 84.3325H70.9968V93.8993H72.5459V84.3325Z" fill="#D75050"/>
<path id="Vector_29" d="M72.5459 85.7546H70.9968V86.9182H72.5459V85.7546Z" fill="#F2F2F2"/>
<path id="Vector_30" d="M72.5459 91.3137H70.9968V92.4772H72.5459V91.3137Z" fill="#F2F2F2"/>
<path id="Vector_31" d="M74.8693 84.3325H73.3203V93.8993H74.8693V84.3325Z" fill="#D75050"/>
<path id="Vector_32" d="M74.8693 85.7546H73.3203V86.9182H74.8693V85.7546Z" fill="#F2F2F2"/>
<path id="Vector_33" d="M74.8693 91.3137H73.3203V92.4772H74.8693V91.3137Z" fill="#F2F2F2"/>
<path id="Vector_34" d="M76.3621 84.3664L74.9126 84.9136L78.2819 93.8655L79.7314 93.3183L76.3621 84.3664Z" fill="#D75050"/>
<path id="Vector_35" d="M76.8629 85.6972L75.4135 86.2444L75.8232 87.3331L77.2727 86.7859L76.8629 85.6972Z" fill="#F2F2F2"/>
<path id="Vector_36" d="M78.8208 90.8988L77.3713 91.446L77.7811 92.5348L79.2306 91.9876L78.8208 90.8988Z" fill="#F2F2F2"/>
<path id="Vector_37" d="M105.204 84.3325H101.461V93.8993H105.204V84.3325Z" fill="#D75050"/>
<path id="Vector_38" d="M105.204 85.7546H101.461V86.9182H105.204V85.7546Z" fill="#F2F2F2"/>
<path id="Vector_39" d="M105.204 91.3137H101.461V92.4772H105.204V91.3137Z" fill="#F2F2F2"/>
<path id="Vector_40" d="M100.557 84.3325H99.0083V93.8993H100.557V84.3325Z" fill="#D75050"/>
<path id="Vector_41" d="M100.557 85.7546H99.0083V86.9182H100.557V85.7546Z" fill="#F2F2F2"/>
<path id="Vector_42" d="M100.557 91.3137H99.0083V92.4772H100.557V91.3137Z" fill="#F2F2F2"/>
<path id="Vector_43" d="M98.2337 84.3325H96.6847V93.8993H98.2337V84.3325Z" fill="#D75050"/>
<path id="Vector_44" d="M98.2337 85.7546H96.6847V86.9182H98.2337V85.7546Z" fill="#F2F2F2"/>
<path id="Vector_45" d="M98.2337 91.3137H96.6847V92.4772H98.2337V91.3137Z" fill="#F2F2F2"/>
<path id="Vector_46" d="M95.1921 84.3664L91.8228 93.3184L93.2722 93.8656L96.6416 84.9137L95.1921 84.3664Z" fill="#D75050"/>
<path id="Vector_47" d="M94.6912 85.6969L94.2814 86.7856L95.7308 87.3329L96.1406 86.2441L94.6912 85.6969Z" fill="#F2F2F2"/>
<path id="Vector_48" d="M92.7334 90.8988L92.3236 91.9875L93.7731 92.5348L94.1828 91.446L92.7334 90.8988Z" fill="#F2F2F2"/>
<path id="Vector_49" d="M106.624 93.8992H62.4772V94.8041H106.624V93.8992Z" fill="#F2F2F2"/>
<path id="Vector_50" d="M89.8432 84.3325H81.7108V93.8993H89.8432V84.3325Z" fill="#D75050"/>
<path id="Vector_51" d="M87.8424 86.4009H83.7117V88.2108H87.8424V86.4009Z" fill="#F2F2F2"/>
<path id="Vector_52" d="M84.938 68.948H84.1635V77.222H84.938V68.948Z" fill="#F2F2F2"/>
<path id="Vector_53" d="M84.5507 78.5148C85.2636 78.5148 85.8416 77.936 85.8416 77.222C85.8416 76.508 85.2636 75.9292 84.5507 75.9292C83.8378 75.9292 83.2599 76.508 83.2599 77.222C83.2599 77.936 83.8378 78.5148 84.5507 78.5148Z" fill="#F2F2F2"/>
<path id="Vector_54" d="M116.981 37.7912H26.7504L28.3548 34.4299H116.032L116.981 37.7912Z" fill="#D75050"/>
<path id="Vector_55" d="M119.17 45.5481H23.0469L24.6513 42.1868H118.221L119.17 45.5481Z" fill="#D75050"/>
<path id="Vector_56" d="M128.619 26.114C128.619 26.114 127.323 29.4518 127.594 32.7543C127.643 33.3456 127.842 33.9145 128.171 34.4077L112.293 41.9575C112.293 41.9575 105.118 42.7014 106.909 45.8396C108.699 48.9778 115.19 44.2705 115.19 44.2705C115.19 44.2705 132.2 41.8048 133.543 39.3391C134.886 36.8734 135.781 26.5623 135.781 26.5623L128.619 26.114Z" fill="#FEB9B9"/>
<path id="Vector_57" d="M129.29 16.9236H132.648C132.648 16.9236 135.11 17.3719 135.781 21.855C136.453 26.3381 137.124 27.4589 136.453 27.4589C135.781 27.4589 127.724 27.2347 127.724 27.0105C127.724 26.7864 129.29 16.9236 129.29 16.9236Z" fill="#D0CDE1"/>
</g>
<defs>
<clipPath id="clip0">
<rect width="145" height="117" fill="white"/>
</clipPath>
</defs>
</svg>
