<svg width="86" height="126" viewBox="0 0 86 126" fill="none" xmlns="http://www.w3.org/2000/svg">
  <path d="M70.1202 124.01H73.4602C79.6302 124.01 84.6902 118.95 84.6902 112.78V13.2202C84.6902 7.05021 79.6302 1.99023 73.4602 1.99023H12.4502C6.28021 1.99023 1.22021 7.05021 1.22021 13.2202V112.78C1.22021 118.95 6.28021 124.01 12.4502 124.01H46.4502H70.1202Z" fill="white" stroke="black" stroke-opacity="0.87" stroke-width="2" stroke-miterlimit="10"/>
  <path d="M64.4599 76.1801L62.3399 98.5201C62.1299 100.85 60.1199 102.68 57.7599 102.68H28.2199C25.8999 102.68 23.8499 100.86 23.6399 98.6201L21.3999 75.8201H25.6399L25.7999 76.0001C28.7299 82.9601 35.4699 87.4601 42.9899 87.4601C50.7599 87.4601 57.3499 83.0701 60.1699 76.0001L60.1999 75.9601L60.3399 75.8201H64.4999L64.4599 76.1801Z" fill="#CC1543"/>
  <path d="M67.2002 46.2101L65.8702 61.9101H60.3402L60.1702 61.7301C57.2502 54.7701 50.5002 50.2701 42.9802 50.2701C35.2102 50.2701 28.6202 54.6601 25.7902 61.7301L25.7602 61.7701L25.6202 61.9101H19.9902L20.0002 61.7901L18.4702 46.0701H67.2102L67.2002 46.2101Z" fill="#CC1543"/>
  <path d="M42.9902 92.2402C52.6602 92.2402 60.4902 84.4002 60.4902 74.7402C60.4902 65.0702 52.6502 57.2402 42.9902 57.2402C33.3302 57.2402 25.4902 65.0802 25.4902 74.7402C25.4902 84.4002 33.3302 92.2402 42.9902 92.2402Z" fill="#D6B294"/>
  <path d="M75.2498 39.2002C75.1798 35.5302 72.2798 32.5702 68.5998 32.5702H64.1398L63.9198 31.1502C63.4198 28.1502 61.0098 25.7802 58.0598 25.3902L29.7298 21.3402C29.2298 21.2402 28.8298 21.2402 28.3298 21.2402H28.2298C26.7398 21.3402 25.3698 21.9202 24.2698 22.9302C22.7498 24.2402 21.8798 26.1302 21.8798 28.1002V32.6802H17.2998C13.5798 32.6802 10.5498 35.7102 10.5498 39.4302V45.1002C10.5498 45.7402 10.9998 46.1902 11.6398 46.1902H16.3198V46.5202L21.3798 98.8202C21.7798 102.33 24.6898 104.98 28.1398 104.98H57.6798C61.1698 104.98 64.1398 102.27 64.4398 98.8202L69.5098 46.2002H74.1798C74.8198 46.2002 75.2698 45.7502 75.2698 45.1102V39.2002H75.2498ZM24.1498 27.9902C24.1498 26.6902 24.7198 25.4402 25.7098 24.5602C26.4698 23.9102 27.3998 23.5202 28.4098 23.4202H29.3298L57.6798 27.4702C59.1798 27.6702 60.4698 28.5802 61.2098 29.9602L62.5198 32.4702H24.1498V27.9902ZM21.2298 73.6402L21.2198 73.5302L20.2998 64.0902H25.0598L24.8998 64.5602C24.5998 65.9702 24.2998 67.4802 24.2998 68.8702C24.2998 70.4502 24.4998 71.8702 24.8998 73.1802L25.0598 73.6402H21.2298ZM64.4598 76.1802L62.3398 98.5202C62.1298 100.85 60.1198 102.68 57.7598 102.68H28.2198C25.8998 102.68 23.8498 100.86 23.6398 98.6202L21.3998 75.8202H25.6398L25.7998 76.0002C28.7298 82.9602 35.4698 87.4602 42.9898 87.4602C50.7598 87.4602 57.3498 83.0702 60.1698 76.0002L60.1998 75.9602L60.3398 75.8202H64.4998L64.4598 76.1802ZM26.5798 68.8602C26.5798 59.8102 33.9398 52.4502 42.9998 52.4502C52.0498 52.4502 59.4098 59.8102 59.4098 68.8602C59.4098 77.9102 52.0498 85.2702 42.9998 85.2702C33.9398 85.2802 26.5798 77.9102 26.5798 68.8602ZM65.5798 64.1202L64.6598 73.5402H60.8298L60.9898 73.0702C61.2898 71.6602 61.5898 70.1502 61.5898 68.7602C61.5898 67.1802 61.3898 65.7602 60.9898 64.4502L60.8298 63.9802H65.5898L65.5798 64.1202ZM67.1998 46.2102L65.8698 61.9102H60.3398L60.1698 61.7302C57.2498 54.7702 50.4998 50.2702 42.9798 50.2702C35.2098 50.2702 28.6198 54.6602 25.7898 61.7302L25.7598 61.7702L25.6198 61.9102H19.9898L19.9998 61.7902L18.4698 46.0702H67.2098L67.1998 46.2102ZM73.1698 43.9002H12.8198V39.3202C12.8198 36.8402 14.9198 34.7402 17.3998 34.7402H68.5998C71.0798 34.7402 73.1798 36.8402 73.1798 39.3202V43.9002H73.1698Z" fill="black" fill-opacity="0.87"/>
  <path d="M36.1598 69.6102C35.8698 71.4702 36.3598 73.2002 37.5098 74.3502C38.4498 75.2902 39.6898 75.7902 41.0798 75.7902C41.4698 75.7902 41.7598 75.7901 42.1298 75.7001C43.8698 75.4101 45.6698 74.4402 47.0698 73.0302C48.4698 71.6302 49.4498 69.8302 49.7298 68.1102C50.1098 66.2002 49.6798 64.5702 48.4798 63.3702C47.5398 62.4302 46.2898 61.9402 44.8198 61.9402C44.4698 61.9402 44.1098 61.9701 43.7298 62.0201C41.8698 62.3301 40.1298 63.2702 38.8198 64.6702C37.4198 66.1002 36.4498 67.8902 36.1598 69.6102Z" fill="black" fill-opacity="0.87"/>
  <path d="M40.37 66.2301C38.95 67.6501 38.25 69.4701 38.25 70.8901L38.35 70.7901C38.86 70.1801 39.26 69.6801 39.87 69.1701C40.58 68.5601 41.49 68.0601 42.5 67.7501C43.71 67.3401 44.73 66.6401 45.74 65.3201C45.84 65.2201 45.84 65.1201 45.94 64.9101C46.04 64.7101 46.14 64.5101 46.24 64.4001C45.84 64.2001 45.33 64.1001 44.72 64.1001C44.52 64.1001 44.21 64.1001 44.01 64.2001C42.8 64.4101 41.48 65.1201 40.37 66.2301Z" fill="white"/>
  <path d="M47.7501 66.8401C47.6501 66.8401 47.6501 66.8401 47.7501 66.8401C46.3301 68.6601 44.9201 69.6701 43.2001 70.1801C42.4901 70.3801 41.9901 70.6901 41.4801 71.0901C40.9701 71.5001 40.6701 71.9001 40.1601 72.5101C40.0601 72.6101 39.9601 72.8101 39.8601 72.9201C39.7601 73.1201 39.6601 73.2201 39.5601 73.4301C40.1701 73.7301 40.8801 73.8301 41.7901 73.7301C43.1101 73.5301 44.4201 72.8201 45.5301 71.7101C47.0401 70.0801 47.7501 68.2601 47.7501 66.8401Z" fill="white"/>
</svg>
