<svg width="105" height="116" viewBox="0 0 105 116" fill="none" xmlns="http://www.w3.org/2000/svg">
<path d="M79.4327 1.88013H79.3227L79.2228 1.91012C79.1028 1.95011 79.0028 1.98011 78.9428 1.98011H37.2767C31.3973 1.98011 26.6178 6.76928 26.6178 12.6683V65.0792C26.6178 65.3792 26.4778 65.6791 26.2378 65.8491H75.8831V67.4188H78.9328V18.0873H78.0529V17.9973H35.9869C35.6369 17.9973 35.2969 17.7774 35.1669 17.4574C35.027 17.0975 35.087 16.7776 35.3769 16.4876C36.9968 14.8579 37.8967 12.7083 37.8967 10.4287C37.8967 9.64879 37.7667 9.0089 37.6367 8.37901C37.5667 8.14905 37.5967 7.89909 37.7267 7.70912C37.8267 7.54915 37.9867 7.44917 38.1767 7.41917L38.2666 7.39918C38.5366 7.31919 38.7666 7.42917 38.8866 7.49916C39.0766 7.61914 39.1966 7.79911 39.2366 8.02907C39.4365 8.74894 39.5565 9.61879 39.5565 10.4187C39.5565 12.1184 39.1366 13.7981 38.3466 15.2678L37.8567 16.1877H85.3922L85.5821 15.9877C86.892 14.5579 87.6119 12.5783 87.6119 10.4187C87.6119 5.84944 84.0223 2.09009 79.4327 1.88013Z" fill="white"/>
<path d="M103.2 114.241H1.77979V86.8652L2.75969 87.1852C3.11966 87.3052 3.44963 87.3551 3.7696 87.3551H101.33C101.62 87.3551 101.93 87.3152 102.26 87.2252L103.2 86.9852V114.241Z" fill="#CC1543" fill-opacity="0.75"/>
<path d="M102.89 85.1054C102.6 85.5853 101.99 85.8953 101.34 85.8953H3.64972C3.12977 85.8953 2.63982 85.6653 2.18986 85.2054L2.04988 85.0054C1.85989 84.6555 1.58992 84.1256 1.7599 83.4357L7.81933 49.2116C8.00931 48.2717 8.89922 47.5419 9.83914 47.5419H25.0577V65.0189C25.0577 65.4188 25.4276 65.7887 25.8276 65.7887C25.8376 65.7887 25.8376 65.7887 25.8376 65.7887H78.9026C78.9126 65.7887 78.9126 65.7887 78.9226 65.7887C78.9326 65.7887 78.9325 65.7887 78.9426 65.7887H78.9625C79.3525 65.7687 79.6925 65.4188 79.6925 65.0289V47.4319H95.151C96.1609 47.4319 96.9708 48.1018 97.1708 49.0916L103.24 83.5057C103.39 84.1156 103.15 84.7754 102.89 85.1054Z" fill="#CC1543"/>
<path d="M89.7513 58.3099C89.7113 58.05 89.5813 57.8 89.3813 57.64C89.2413 57.53 89.0113 57.4101 88.6814 57.4501C88.4114 57.49 88.1714 57.62 88.0114 57.81C87.8514 58.01 87.7814 58.2599 87.8214 58.5099L89.5313 72.0675H15.8083L17.5181 58.5099C17.5581 58.2499 17.4881 58 17.3182 57.8C17.1582 57.61 16.9282 57.4801 16.6582 57.4401C16.4182 57.4001 16.1783 57.4601 15.9783 57.61C15.7683 57.77 15.6283 58.02 15.5783 58.3099L13.7085 72.9574C13.7185 73.1973 13.7885 73.4373 13.9485 73.6873L13.9885 73.7273C14.2884 74.0072 14.5384 74.0072 14.6284 74.0072H90.4812C90.7312 74.0072 90.9411 73.9072 91.3011 73.7173L91.4211 73.6573L91.4611 73.5873C91.5711 73.3673 91.6211 73.1474 91.6211 72.8374L89.7513 58.3099Z" fill="black"/>
<path d="M104.99 83.9155V83.8955C104.99 83.8855 104.98 83.8555 104.98 83.8055C104.98 83.5356 104.96 83.3256 104.93 83.1357L98.8606 48.7216C98.4306 46.8819 96.9408 45.6421 95.1509 45.6421H79.9424V23.9659C79.9424 23.436 79.4624 22.946 78.9225 22.946C78.3925 22.946 77.9026 23.436 77.9026 23.9659V65.0288C77.9026 65.5587 78.3825 66.0486 78.9225 66.0486C79.4524 66.0486 79.9424 65.5587 79.9424 65.0288V47.6818H95.1509C96.0409 47.6818 96.7508 48.2617 96.9208 49.1315L103 83.5556C103.12 84.0455 102.94 84.6354 102.68 84.9753C102.43 85.3853 101.91 85.6452 101.34 85.6452H3.65965C3.20969 85.6452 2.78973 85.4453 2.39977 85.0653L2.27978 84.8954C2.0898 84.5454 1.85982 84.1055 2.00981 83.4856L8.06923 49.2615C8.22922 48.4317 9.00914 47.7918 9.84906 47.7918H24.8176V65.0188C24.8176 65.5487 25.2976 66.0386 25.8375 66.0386C26.4175 66.0386 26.7375 65.5087 26.7375 65.0188V12.6178C26.7375 6.79883 31.467 2.05964 37.2764 2.05964H78.9425C79.0225 2.05964 79.1225 2.02965 79.2624 1.98966L79.3424 1.95966H79.4324C83.952 2.15963 87.4917 5.86899 87.4917 10.3882C87.4917 12.5178 86.7817 14.4675 85.4919 15.8773L85.3419 16.0372H38.0664L38.4663 15.2974C39.2663 13.8076 39.6862 12.1079 39.6862 10.3882C39.6862 9.57835 39.5662 8.6885 39.3563 7.96863C39.3063 7.69867 39.1663 7.48871 38.9463 7.34873C38.8463 7.27875 38.5663 7.13877 38.2364 7.22875L38.1564 7.24875C37.9264 7.27875 37.7364 7.39872 37.6164 7.58869C37.4764 7.80865 37.4364 8.08861 37.5164 8.34856C37.6464 8.96845 37.7764 9.60834 37.7764 10.3782C37.7764 12.6278 36.8965 14.7475 35.2966 16.3472C34.9767 16.6671 34.8967 17.0371 35.0567 17.447C35.2066 17.8169 35.5866 18.0669 35.9966 18.0669H85.7118C85.9718 18.0669 86.2818 17.9769 86.4118 17.8569C88.3716 15.7773 89.4115 13.2277 89.4115 10.4982C89.4115 4.70919 84.7119 0 78.9425 0H37.2664C30.3971 0.0199966 24.8076 5.61903 24.8076 12.5078V45.7621H9.83906C8.00924 45.7621 6.44939 47.0619 6.12942 48.8616L0.0599943 83.2456C0.00999905 83.5256 -0.00999905 83.7955 0.00999905 84.0355L0 114.98C0 115.51 0.479954 116 1.0199 116H103.98C104.51 116 105 115.51 105 114.98L104.99 83.9155ZM102.96 113.96H2.02981V87.175L2.67974 87.3849C3.06971 87.5049 3.41967 87.5749 3.75964 87.5749H101.32C101.64 87.5749 101.96 87.5349 102.31 87.4349L102.94 87.2749V113.96H102.96Z" fill="black"/>
<path d="M70.8731 22.946H40.536C40.0061 22.946 39.5161 23.436 39.5161 23.966C39.5161 24.496 39.9961 24.986 40.536 24.986H70.8831C71.4131 24.986 71.903 24.496 71.903 23.966C71.903 23.436 71.4131 22.946 70.8731 22.946Z" fill="black"/>
<path d="M51.265 56.8704H33.0668C32.5368 56.8704 32.0469 57.3604 32.0469 57.8904C32.0469 58.4204 32.5268 58.9104 33.0668 58.9104H51.275C51.765 58.9104 52.2949 58.5904 52.2949 57.8904C52.2849 57.3604 51.805 56.8704 51.265 56.8704Z" fill="black"/>
<path d="M65.824 50.5312C63.594 49.8213 62.554 48.8915 62.554 47.5917C62.554 46.7818 62.894 46.002 63.484 45.4621C64.044 44.9422 64.784 44.6922 65.574 44.7622C67.164 44.7622 68.454 46.092 68.454 47.7117C68.454 48.2416 68.934 48.7315 69.474 48.7315C70.004 48.7315 70.494 48.2416 70.494 47.7117C70.494 45.592 68.974 43.6224 66.894 43.0325L66.534 42.9325V41.5127C66.534 40.9828 66.054 40.4929 65.514 40.4929C64.984 40.4929 64.494 40.9828 64.494 41.5127V42.9825L64.154 43.0925C62.154 43.7624 60.764 45.662 60.764 47.7117C60.764 49.9413 62.254 51.511 65.324 52.5009C67.674 53.2207 68.584 54.0406 68.584 55.4303C68.584 57.0601 67.264 58.3898 65.634 58.3898C64.004 58.3898 62.684 57.0601 62.684 55.4303C62.684 54.9004 62.204 54.4105 61.664 54.4105C61.134 54.4105 60.644 54.9004 60.644 55.4303C60.644 57.67 62.254 59.6696 64.474 60.1795L64.494 60.1895V63.8289C64.494 64.3588 64.974 64.8487 65.514 64.8487C66.044 64.8487 66.424 64.4988 66.534 63.8889V60.1895L66.564 60.1795C68.784 59.6696 70.394 57.62 70.394 55.3104C70.374 52.2909 67.784 51.1311 65.824 50.5312Z" fill="black"/>
<path d="M49.6063 96.6146C48.757 95.8068 47.4351 95.8068 46.5858 96.6146C46.1932 97.0306 45.9849 97.5744 45.9929 98.1423C46.0089 98.7182 46.2413 99.246 46.6579 99.6459C47.0745 100.038 47.6033 100.238 48.1321 100.238C48.6609 100.238 49.1897 100.038 49.6063 99.6459C50.4476 98.8141 50.4476 97.4465 49.6063 96.6146ZM48.749 98.7741C48.5808 98.9501 48.3404 99.0461 48.1001 99.0461C47.8517 99.0461 47.6193 98.9501 47.4511 98.7741C47.2828 98.5982 47.1787 98.3662 47.1787 98.1263C47.1787 97.8864 47.2748 97.6464 47.4511 97.4784C47.6354 97.3025 47.8677 97.2065 48.1001 97.2065C48.3324 97.2065 48.5648 97.2945 48.749 97.4784C49.1016 97.8304 49.1176 98.4062 48.749 98.7741Z" fill="white"/>
<path d="M59.4992 94.495C57.6326 92.6238 54.6364 92.5038 52.6176 94.1912C52.922 94.519 53.1704 94.8789 53.3787 95.2627C54.8928 93.9353 57.152 93.9992 58.586 95.4387C60.0761 96.926 60.0761 99.3491 58.586 100.836L55.774 103.651L51.9927 107.434L49.0205 104.459L51.7203 101.756C53.7071 99.7649 53.7071 96.5182 51.7203 94.519C49.7335 92.5278 46.489 92.5278 44.4862 94.519C42.4994 96.5102 42.4994 99.7569 44.4862 101.756L46.1205 103.387C46.3929 103.619 46.8094 103.587 47.0418 103.315C47.2501 103.068 47.2501 102.716 47.0257 102.452L45.4075 100.828C44.6865 100.101 44.2859 99.1412 44.2859 98.1336C44.2859 97.11 44.6785 96.1584 45.4075 95.4387C46.1285 94.7109 47.0818 94.3191 48.0993 94.3191C49.1167 94.3191 50.078 94.7109 50.791 95.4387C52.2811 96.926 52.2811 99.3491 50.791 100.836L47.6346 103.995C47.4744 104.155 47.4103 104.379 47.4664 104.587C47.4824 104.627 47.4824 104.651 47.4904 104.675L47.5064 104.699C47.5465 104.787 47.5945 104.859 47.6506 104.923L51.5201 108.793L51.5441 108.817C51.6643 108.937 51.8165 109.001 51.9847 109.001H52.0087C52.0087 109.001 52.0087 109.001 52.0248 109.001H52.0408C52.209 109.001 52.3612 108.929 52.4974 108.793L56.7995 104.491L59.5393 101.748C61.486 99.7329 61.486 96.4862 59.4992 94.495Z" fill="white"/>
<path d="M51.265 45.7622H33.0668C32.5368 45.7622 32.0469 46.2522 32.0469 46.7822C32.0469 47.3122 32.5268 47.8022 33.0668 47.8022H51.275C51.805 47.8022 52.2949 47.3122 52.2949 46.7822C52.2949 46.2522 51.805 45.7622 51.265 45.7622Z" fill="black"/>
</svg>
