<svg width="48" height="48" viewBox="0 0 48 48" fill="none" xmlns="http://www.w3.org/2000/svg">
<path d="M39.9909 16.4717C39.9544 16.3117 39.6892 15.7265 37.8879 14.9081L37.4261 14.6978L37.577 14.2086C37.9062 13.1662 37.6364 12.1055 36.8683 11.3603C36.0911 10.6151 34.9984 10.3728 34.0063 10.7294L33.5172 10.9031L33.2931 10.4322C32.4199 8.6172 31.9993 8.30174 31.8256 8.27888C31.565 8.22859 30.9798 8.86866 30.55 9.33499L30.2483 9.65502L29.8597 9.44928C29.1556 9.07896 27.9258 9.52243 27.1897 9.7876L26.7188 9.96133L26.4856 9.51786C25.9827 8.56234 25.0638 8 24.0214 8C24.0031 8 23.9848 8 23.9665 8C22.9013 8.02286 21.9595 8.63092 21.5023 9.58644L21.2783 10.0528L20.7891 9.87904C19.3443 9.36699 18.5031 9.21155 18.2242 9.40814L17.8539 9.66873L17.5156 9.37613C17.4242 9.29841 17.2916 9.16126 17.1361 8.99667C16.9441 8.80008 16.5509 8.38404 16.4046 8.31546C16.24 8.26974 15.6457 8.23774 14.6582 10.3637L14.4479 10.8208L13.9404 10.7065C12.8843 10.3865 11.8145 10.6471 11.083 11.4152C10.3469 12.1833 10.1046 13.2805 10.4612 14.2818L10.6349 14.7709L10.1686 14.995C8.28499 15.8956 8.02896 16.3254 8.00153 16.4717C7.96953 16.6774 8.445 17.1346 8.86104 17.5415L9.23594 17.9073C9.90343 18.5656 10.4429 19.1097 10.891 19.5668C11.6407 20.3258 12.1391 20.8332 12.6054 21.2127L12.8294 21.3956L12.8157 21.6836C12.6237 26.0178 14.585 29.7758 18.1968 31.984L19.6004 32.8436L17.9636 33.0493C15.2068 33.3922 12.2991 34.3386 11.2018 34.8643C11.0601 34.9512 11.051 35.1341 11.0647 35.2346C11.083 35.3764 11.1744 35.5455 11.3756 35.605C11.5402 35.6461 11.6316 35.6095 11.9105 35.4815C12.0751 35.4038 12.2488 35.3261 12.4637 35.2621C13.2272 34.9695 14.3016 34.5946 14.6033 34.5031C15.9017 34.11 17.8631 33.8677 18.814 33.7854L20.3273 33.6528L19.2849 34.7546C18.1557 35.9524 17.5522 37.644 17.639 39.3996C17.6345 39.4591 17.639 39.5002 17.639 39.5459V40.5563H30.2391V39.962C30.2528 39.7151 30.2437 39.4362 30.2346 39.3036C30.3123 37.4154 29.5579 35.5958 28.2138 34.3889L27.2308 33.5019L28.5475 33.383C33.5354 32.935 35.6248 32.0618 36.146 31.8057C36.3792 31.6457 36.3471 31.4354 36.2603 31.2891C36.2374 31.2525 36.05 30.9508 35.7117 31.1062L35.6888 31.0605C34.5733 31.76 31.2358 32.2401 31.1946 32.2446L29.311 32.3818L30.7969 31.2114C33.6543 28.962 35.2088 25.524 35.0579 21.7796L35.0442 21.4825L35.2773 21.2996C35.826 20.8744 36.3243 20.3623 37.0878 19.5851C37.5495 19.1188 38.0982 18.5565 38.8068 17.8615L39.4515 17.2169C39.6892 16.9837 39.8126 16.8557 39.8995 16.7597C40.0092 16.6454 40.0092 16.5448 39.9909 16.4717ZM33.6635 14.0943C33.8143 13.4771 33.8463 12.8325 33.764 12.1741L33.7137 11.7718L34.0749 11.5889C34.6921 11.278 35.6568 11.3055 36.3197 11.9592C36.9278 12.5673 37.0695 13.4908 36.6672 14.2498L36.5026 14.5698L36.146 14.5606C35.5745 14.5606 34.9756 14.6246 34.3721 14.7892L33.4303 15.0453L33.6635 14.0943ZM22.1561 10.1259C22.4304 9.33956 23.171 8.80922 24.0031 8.80922C24.8626 8.80922 25.6124 9.36242 25.8684 10.1854L25.9736 10.5282L25.713 10.7751C25.3015 11.1683 24.9312 11.6438 24.6203 12.1878L24.1311 13.0382L23.6236 12.2016C23.2944 11.6621 22.8647 11.182 22.3389 10.7706L22.0098 10.5145L22.1561 10.1259ZM19.6232 10.3499C22.3069 11.1272 23.5139 12.6496 23.6373 15.4384C23.7333 15.6396 23.8934 15.6716 24.0122 15.6625C24.1814 15.6533 24.3688 15.5436 24.41 15.3333C24.5106 13.7651 26.0101 10.542 28.479 10.2402L29.1282 10.1625V15.3013C28.9727 17.4455 27.9623 19.0731 26.2707 19.8777C25.585 20.2069 24.826 20.3669 24.0671 20.3669C23.0019 20.3669 21.932 20.0469 21.0359 19.4297C19.4724 18.337 18.686 16.4854 18.8826 14.3458L18.878 10.2539L19.6232 10.3499ZM11.691 11.9638C12.2945 11.3695 13.2363 11.2232 13.9815 11.6164L14.3016 11.7809L14.2924 12.1421C14.2787 12.7136 14.3564 13.3125 14.521 13.916L14.777 14.8624L13.8261 14.6246C13.2135 14.4738 12.5688 14.4372 11.9105 14.5195L11.499 14.5698L11.3207 14.1995C10.955 13.4451 11.1058 12.549 11.691 11.9638ZM12.6283 20.1429L9.00734 16.522L9.67941 16.1517C12.1162 14.8029 14.0501 15.0315 16.1258 16.9152C16.3452 16.9929 16.4732 16.8923 16.5509 16.7917C16.6332 16.6911 16.7247 16.4671 16.5692 16.2659C15.5314 15.1001 14.3199 11.7306 15.8697 9.80589L16.2721 9.30298L18.0551 11.086L18.0597 11.3192C18.0688 11.9455 18.0597 12.5399 18.0505 13.1068C18.0139 15.7265 17.9819 17.6192 19.7695 19.4251L20.1856 19.8457L19.7512 20.2526C18.7591 21.1853 17.5019 21.6516 16.2446 21.6516C14.9371 21.6562 13.6341 21.1487 12.6283 20.1429ZM13.9815 25.108C13.7758 24.3307 13.6615 23.5307 13.6432 22.7306L13.6204 21.9122L14.3976 22.1682C14.9965 22.3648 15.6183 22.4608 16.2492 22.4608C16.2538 22.4608 16.2583 22.4608 16.2675 22.4608C17.8814 22.4608 19.4404 21.7933 20.5422 20.6275L20.8531 20.2983L21.2462 20.5178C22.8464 21.4093 25.1689 21.4093 26.7691 20.5132L27.1623 20.2938L27.4731 20.6229C28.2046 21.4047 29.2333 22.0036 30.2848 22.2688L32.9457 22.9409L30.2391 23.4026C29.1419 23.5855 27.9989 23.6815 26.8377 23.6815C21.3834 23.6815 16.5372 24.9616 14.7085 25.5103L14.137 25.684L13.9815 25.108ZM29.4162 38.9333V39.139V39.7151H18.4574L18.462 39.1299C18.5123 35.3581 21.2965 33.6162 23.8659 33.5933C23.8842 33.5933 23.8979 33.5933 23.9162 33.5933C26.5771 33.5979 29.311 35.4221 29.4162 38.9333ZM34.1161 24.1067C33.284 28.6923 29.9785 31.9612 25.4889 32.6378C24.9586 32.7155 24.4283 32.7567 23.9071 32.7567C20.0713 32.7567 16.5784 30.6399 14.7313 27.0784L14.4113 26.4567L15.0834 26.2601C19.9981 24.8154 23.7333 24.6325 26.7371 24.4907C29.3156 24.3627 31.3547 24.2667 33.3343 23.4712L34.3035 23.0826L34.1161 24.1067ZM35.3825 20.1429C34.395 21.1304 33.0783 21.6288 31.7616 21.6288C30.4952 21.6288 29.2287 21.1716 28.2504 20.248L27.8252 19.8457L28.2366 19.4251C30.0517 17.5735 30.006 15.5847 29.9511 13.2805C29.9328 12.6359 29.9191 11.9775 29.9465 11.31L29.9557 11.0814L31.7661 9.27098L32.1365 9.94305C33.4852 12.3799 33.2566 14.3138 31.3775 16.3894C31.3044 16.5997 31.4004 16.7368 31.501 16.8146C31.6015 16.8923 31.8256 16.9883 32.0267 16.8283C33.1926 15.7905 36.5666 14.5835 38.4868 16.1288L38.9897 16.5311L35.3825 20.1429Z" fill="black" fill-opacity="0.87"/>
<path d="M33.6633 14.0943C33.8142 13.4771 33.8462 12.8325 33.7639 12.1741L33.7136 11.7718L34.0748 11.5889C34.692 11.278 35.6567 11.3054 36.3196 11.9592C36.9277 12.5673 37.0694 13.4908 36.6671 14.2497L36.5025 14.5698L36.1459 14.5606C35.5744 14.5606 34.9755 14.6246 34.372 14.7892L33.4302 15.0452L33.6633 14.0943Z" fill="#CC1543"/>
<path d="M19.6325 10.3499C22.3162 11.1271 23.5231 12.6496 23.6466 15.4384C23.7426 15.6396 23.9026 15.6716 24.0215 15.6624C24.1906 15.6533 24.3781 15.5436 24.4192 15.3333C24.5244 13.756 26.0239 10.5374 28.4928 10.2356L29.142 10.1579V15.2967C28.9865 17.4409 27.9761 19.0685 26.2845 19.8731C25.5988 20.2023 24.8398 20.3623 24.0809 20.3623C23.0157 20.3623 21.9458 20.0423 21.0497 19.4251C19.4862 18.3324 18.6998 16.4808 18.8964 14.3412L18.8918 10.2493L19.6325 10.3499Z" fill="#CC1543"/>
<path d="M11.6914 11.9638C12.2949 11.3695 13.2367 11.2232 13.9819 11.6163L14.3019 11.7809L14.2928 12.1421C14.2791 12.7136 14.3568 13.3125 14.5214 13.916L14.7774 14.8624L13.8264 14.6246C13.2138 14.4738 12.5692 14.4372 11.9108 14.5195L11.4994 14.5698L11.3211 14.1995C10.9553 13.4451 11.1062 12.549 11.6914 11.9638Z" fill="#CC1543"/>
<path d="M34.1159 24.1067C33.2838 28.6923 29.9784 31.9612 25.4888 32.6379C24.9584 32.7156 24.4281 32.7567 23.9069 32.7567C20.0711 32.7567 16.5782 30.6399 14.7312 27.0785L14.4111 26.4567L15.0832 26.2601C19.998 24.8154 23.7332 24.6325 26.7369 24.4908C29.3154 24.3628 31.3545 24.2668 33.3341 23.4712L34.3034 23.0826L34.1159 24.1067Z" fill="#D6B294"/>
</svg>
