<svg width="111" height="100" viewBox="0 0 111 100" fill="none" xmlns="http://www.w3.org/2000/svg">
<path d="M52.7593 98.5681C52.7593 98.5532 52.7667 98.5384 52.7667 98.5235V97.3261L49.5659 64.9977H19.0999L15.9575 97.3261V98.5235C15.9575 98.5384 15.9575 98.5532 15.9648 98.5681H52.7593Z" fill="#CC1543"/>
<path d="M35.4728 55.0947H37.3661L41.4817 66.0949H48.4628L50.0783 82.2155H57.6807L47.5344 55.0874C47.5344 51.3411 44.5007 48.3108 40.7653 48.3108H35.6775L33.9815 44.9261H27.2197L29.0619 50.4588C29.9829 53.2215 32.5634 55.0947 35.4728 55.0947Z" fill="#E8CCB0"/>
<path d="M103.397 38.1277V21.1754C103.397 9.93652 94.3037 0.838379 83.0828 0.838379C71.8618 0.838379 62.7681 9.95098 62.7681 21.1754V38.1205C59.0254 38.1205 55.999 41.158 55.999 44.8971V48.2818C55.999 52.0281 59.0327 55.0584 62.7681 55.0584H103.397C107.14 55.0584 110.167 52.0208 110.167 48.2818V44.8971C110.167 41.1653 107.14 38.1277 103.397 38.1277Z" fill="#C1AA91"/>
<path d="M101.701 51.6953H67.0732C64.4343 51.6953 62.0512 53.2213 60.9328 55.6152L50.918 75.4243L59.383 82.2081L67.8481 72.0396V99.1677H108.477V58.4791C108.47 54.7184 105.444 51.6953 101.701 51.6953Z" fill="#EAEAEA"/>
<path d="M98.3169 78.816H108.471V99.1531H98.3169V78.816Z" fill="#E8CCB0"/>
<path d="M69.5372 34.7363C65.7944 34.7363 62.7681 31.6988 62.7681 27.9597C62.7681 24.2134 65.8017 21.1831 69.5372 21.1831H71.2331V34.7435H69.5372V34.7363Z" fill="#E8CCB0"/>
<path d="M96.6212 21.1755C100.364 21.1755 103.39 24.2131 103.39 27.9521C103.39 31.6984 100.357 34.7287 96.6212 34.7287H94.9253V21.1755H96.6212Z" fill="#E8CCB0"/>
<path d="M78.0039 41.52H88.1576V51.6885C88.1576 53.5544 86.6371 55.0732 84.773 55.0732H81.3885C79.5171 55.0732 78.0039 53.5544 78.0039 51.6885V41.52Z" fill="#E8CCB0"/>
<path d="M89.8522 14.3995L69.5376 21.1761V31.3446C69.5376 38.8228 75.6049 44.9051 83.0758 44.9051C90.5467 44.9051 96.6214 38.8372 96.6214 31.3446V21.1761L89.8522 14.3995Z" fill="#E8CCB0"/>
<path d="M76.3211 29.6512C77.2495 29.6512 78.0171 28.8845 78.0171 27.9515C78.0171 27.0185 77.2568 26.2518 76.3211 26.2518C75.3853 26.2518 74.6251 27.0185 74.6251 27.9515C74.6177 28.8845 75.3707 29.6512 76.3211 29.6512Z" fill="black" fill-opacity="0.87"/>
<path d="M89.8513 29.6512C90.7798 29.6512 91.5474 28.8845 91.5474 27.9515C91.5474 27.0185 90.7871 26.2518 89.8513 26.2518C88.9229 26.2518 88.1553 27.0185 88.1553 27.9515C88.1553 28.8845 88.9156 29.6512 89.8513 29.6512Z" fill="black" fill-opacity="0.87"/>
<path d="M31.1651 80.7693C32.1228 79.8074 32.1228 78.2451 31.1651 77.2832C30.1855 76.3646 28.6576 76.3646 27.6853 77.2977C27.2394 77.775 26.9835 78.397 27.0201 79.0624C27.0347 79.7206 27.3125 80.3354 27.7803 80.791C28.2555 81.2322 28.8696 81.4565 29.4764 81.4565C30.0905 81.4492 30.6973 81.225 31.1651 80.7693ZM29.4325 79.9737C29.1767 79.9737 28.9427 79.8797 28.76 79.6844C28.5772 79.5036 28.4822 79.2577 28.4822 79.0046C28.4822 78.7514 28.5772 78.4983 28.76 78.3102C28.9427 78.1294 29.1913 78.0209 29.4325 78.0209C29.6811 78.0209 29.9223 78.1149 30.1051 78.3102C30.4852 78.6863 30.4852 79.2939 30.1124 79.67C29.9296 79.858 29.6957 79.9737 29.4325 79.9737Z" fill="white"/>
<path d="M42.5624 74.8313C40.406 72.6688 36.9702 72.5387 34.6456 74.4697C34.9965 74.853 35.2743 75.2652 35.5155 75.6991C37.2553 74.1659 39.8504 74.231 41.5025 75.8872C43.2057 77.594 43.2057 80.3784 41.5025 82.0924L38.2714 85.318L33.9146 89.6718L30.4935 86.2437L33.6003 83.1339C35.8883 80.8413 35.8883 77.095 33.6003 74.8023C31.3123 72.5097 27.5695 72.5097 25.2741 74.8023C22.9861 77.095 22.9861 80.8413 25.2741 83.1339L27.1601 85.0143C27.4745 85.2746 27.9569 85.2457 28.2128 84.9347C28.4467 84.6454 28.4467 84.2332 28.2055 83.9439L26.3195 82.078C25.4934 81.2535 25.0329 80.1397 25.0329 78.9681C25.0329 77.7893 25.5008 76.6827 26.3195 75.8727C27.1455 75.0555 28.2493 74.5854 29.4189 74.5854C30.5959 74.5854 31.6924 75.0482 32.5184 75.8727C34.229 77.5795 34.229 80.3639 32.5184 82.078L28.878 85.7158C28.7026 85.8966 28.6221 86.1497 28.6733 86.3956C28.6806 86.4318 28.6879 86.4752 28.7026 86.4969L28.7099 86.5258C28.7464 86.6198 28.8049 86.7066 28.8853 86.7789L33.3371 91.2412L33.3518 91.2701C33.4906 91.4075 33.6661 91.4871 33.8708 91.4943H33.9H33.9073H33.9219C34.112 91.4871 34.2874 91.4148 34.441 91.2629L39.3752 86.3088L42.5332 83.1483C44.8505 80.8774 44.8505 77.1311 42.5624 74.8313Z" fill="white"/>
<path d="M111 48.2968V44.9121C110.992 41.3105 108.427 38.1717 104.91 37.4412L104.238 37.3111V21.176C104.238 9.50315 94.7494 0 83.0899 0C71.4157 0 61.9346 9.50315 61.9346 21.176V37.2966L61.2474 37.434C57.7313 38.1572 55.1727 41.3033 55.1581 44.9049V48.2896C55.1727 51.1608 56.7736 53.7571 59.3102 55.0662L60.0632 55.4567L55.5456 64.3885H51.9125L48.3598 54.9071L48.3525 54.7697C48.1843 50.6618 44.8509 47.4434 40.75 47.4362H36.1885L34.7265 44.4999C34.5876 44.2106 34.2952 44.037 33.9736 44.037H27.2191C26.7512 44.037 26.3857 44.4131 26.3857 44.8687C26.3857 44.9628 26.4004 45.0495 26.4296 45.1363L27.6942 48.9549L27.2629 49.331C27.146 49.4323 27.0363 49.5408 26.9121 49.6637C25.4939 51.0812 24.6752 53.0412 24.6825 55.0445V64.3813H18.7467C18.3081 64.3813 17.9499 64.714 17.9134 65.1334L14.5215 99.0598C14.4923 99.2913 14.5654 99.501 14.7043 99.6673C14.8432 99.8409 15.0478 99.9566 15.2744 99.9711C15.2818 99.9711 15.3037 99.9711 15.311 99.9711C15.3256 99.9711 15.3475 99.9711 15.3549 99.9711H61.0647C61.5325 99.9711 61.898 99.595 61.898 99.1394C61.898 99.1104 61.898 99.0815 61.8907 99.0598L60.2532 82.4619L67.0077 74.3401V99.1394C67.015 99.5878 67.3952 99.9711 67.8484 99.9711H92.2932C92.7611 99.9711 93.1412 99.595 93.1412 99.1321C93.1412 98.662 92.7611 98.2932 92.2932 98.2932H68.6817V65.2564C68.6817 64.7935 68.3016 64.4174 67.8484 64.4174C67.3952 64.4174 67.0077 64.7935 67.0077 65.2564V71.7292L60.012 80.1258L58.5208 65.1696C58.5061 64.9382 58.3599 64.7067 58.1699 64.5621L57.5631 64.1354L61.6933 55.9702C62.6656 53.8801 64.7782 52.5277 67.0808 52.5132H77.2126L77.4173 53.0845C78.0167 54.7769 79.6176 55.9051 81.4012 55.9051H84.7858C86.5694 55.9051 88.1703 54.7769 88.7698 53.0845L88.9745 52.5132H101.731C105.005 52.5204 107.659 55.1891 107.659 58.4581V77.9634H99.1793V65.2564C99.1793 64.7935 98.7992 64.4174 98.3459 64.4174C97.8927 64.4174 97.5126 64.7935 97.5126 65.2564L97.5272 97.4977V100H108.485C108.953 100 109.318 99.6167 109.318 99.1683V58.4726C109.318 57.2214 109.011 55.9702 108.412 54.8998L108.083 54.3213L108.565 53.8729C110.108 52.4336 110.985 50.4014 111 48.2968ZM43.0673 49.5986C45.2676 50.5388 46.6931 52.6795 46.6931 55.0662C46.6931 55.1602 46.7077 55.2542 46.7516 55.3627L50.1361 64.3958H43.2939V55.0879C43.2939 53.5836 42.8553 52.1371 42.0293 50.886L40.443 48.4993L43.0673 49.5986ZM33.4619 45.7511L34.9239 48.6874C35.0628 48.9766 35.3552 49.1502 35.6768 49.1502C37.2631 49.1502 38.747 49.765 39.8728 50.8932C40.9985 52.0142 41.6126 53.504 41.6126 55.0951V64.0341L38.1549 54.7914C38.0307 54.4587 37.7163 54.2562 37.3654 54.2562H35.4721C32.9209 54.2562 30.6548 52.6145 29.8507 50.1917L28.3668 45.7583H33.4619V45.7511ZM26.3565 55.0879C26.3565 53.9307 26.6781 52.8025 27.3068 51.8623L28.0963 50.6473L28.7834 51.9202C30.1066 54.3936 32.6724 55.9196 35.4721 55.9196H36.788L39.9605 64.4174H26.3565V55.0879ZM16.2905 98.3149L19.507 66.0881H48.4621L51.6785 98.3149H16.2905ZM60.1509 98.3149H53.3745L50.158 66.0881H56.9345L60.1509 98.3149ZM107.637 98.3149H99.1574V79.6485H107.637V98.3149ZM63.6012 21.176C63.6159 10.4361 72.3587 1.67788 83.0899 1.67064C93.8137 1.68511 102.564 10.4361 102.571 21.176V22.9045L101.197 21.863C100.057 21.0024 98.7114 20.4889 97.3006 20.3732L96.9936 20.3443L90.4657 13.8136C90.2464 13.5894 89.9248 13.5098 89.6031 13.6038L69.3981 20.3515L69.2665 20.3587C67.6949 20.4093 66.2109 20.9373 64.9682 21.8775L63.6012 22.9189V21.176ZM102.22 29.9414C101.606 31.6772 100.254 33.0151 98.5214 33.5937L97.2641 34.0132L97.3883 32.7041C97.4322 32.263 97.4614 31.8073 97.4614 31.3589V21.9498L98.6018 22.3476C101.679 23.4396 103.302 26.8388 102.22 29.9414ZM63.9083 26.0505C64.4931 24.3147 65.8308 22.9623 67.556 22.3548L68.6964 21.957V31.3517C68.6964 31.8001 68.7256 32.2557 68.7695 32.6969L68.8937 34.0059L67.6364 33.5792C66.1378 33.073 64.9244 32.0098 64.2153 30.5851C63.5062 29.1676 63.3966 27.5548 63.9083 26.0505ZM77.1687 50.8353H67.0735C64.8659 50.8426 62.7679 51.8044 61.3205 53.4751L60.8965 53.9524L60.319 53.6848C58.2137 52.7374 56.8467 50.6184 56.8248 48.2968V44.9049C56.8321 41.6359 59.5003 38.96 62.7533 38.96C63.2284 38.9672 63.5939 38.5984 63.5939 38.1283V33.0079L64.9682 34.0493C66.0793 34.8883 67.3952 35.4018 68.7768 35.5319L69.3396 35.5826L69.5224 36.096C70.7797 39.6543 73.3236 42.54 76.6936 44.2323L77.176 44.4637V50.8353H77.1687ZM87.3224 51.7032C87.3224 53.1062 86.182 54.2489 84.7785 54.2562H81.3866C79.9831 54.2562 78.8427 53.1135 78.8354 51.7032V45.1508L79.8807 45.3967C81.9714 45.874 84.1791 45.874 86.2624 45.3967L87.3151 45.1508V51.7032H87.3224ZM83.0899 44.0732C76.0795 44.066 70.3777 38.3525 70.3704 31.3445V21.7835L89.6104 15.354L95.7728 21.5231V31.3445C95.7728 38.367 90.0783 44.0732 83.0899 44.0732ZM107.608 52.477L107.067 53.0267L106.467 52.5421C105.122 51.4573 103.434 50.8498 101.694 50.8498H88.9964V44.4782L89.4789 44.2468C92.8561 42.5617 95.4 39.676 96.65 36.1105L96.8255 35.597L97.3664 35.5464C98.7553 35.409 100.071 34.8955 101.175 34.0566L102.549 33.0151V38.1355C102.542 38.3525 102.63 38.555 102.769 38.7069C102.929 38.8732 103.149 38.9672 103.368 38.9672C106.628 38.9745 109.296 41.6432 109.296 44.9121V48.2968C109.34 49.8734 108.726 51.356 107.608 52.477Z" fill="black" fill-opacity="0.87"/>
<path d="M85.1292 40.7968C84.6467 40.7968 84.252 40.4062 84.252 39.9289C84.252 39.4515 84.6467 39.0609 85.1292 39.0609C87.0665 39.0609 88.6383 37.5059 88.6383 35.5892C88.6383 35.1119 89.033 34.7213 89.5155 34.7213C89.998 34.7213 90.3928 35.1119 90.3928 35.5892C90.3928 38.4606 88.0388 40.7968 85.1292 40.7968Z" fill="black" fill-opacity="0.87"/>
<path d="M60.1574 98.3146H53.3663L50.1499 66.0878H56.9409L60.1574 98.3146Z" fill="white"/>
<path opacity="0.75" d="M60.1574 98.3146H53.3663L50.1499 66.0878H56.9409L60.1574 98.3146Z" fill="#CC1543" fill-opacity="0.75"/>
<path d="M32.1296 37.9386C30.072 36.5075 27.5802 35.952 25.1167 36.3851C22.6532 36.8182 20.5011 38.1834 19.057 40.2359C16.5935 43.7478 16.82 48.4554 19.6139 51.7037C19.8876 52.0332 19.8687 52.5416 19.5478 52.8335L19.5384 52.8429L12.1762 63.3126C11.9214 63.6798 11.4117 63.774 11.0436 63.5103L6.72064 60.4881L5.77677 61.8344L10.0997 64.8567C10.4678 65.1109 10.5528 65.6194 10.2979 65.9865L8.38185 68.6981C8.24027 68.877 8.0515 68.9994 7.83441 69.0277C7.62676 69.0653 7.40967 69.0182 7.23033 68.8864L2.90741 65.8642L1.9541 67.2294L6.27702 70.2516C6.64513 70.5059 6.73008 71.0143 6.47523 71.3815L3.75689 75.2605C3.42654 75.7313 3.2944 76.315 3.38878 76.8705C3.46429 77.3131 3.70026 77.6897 4.01174 77.9156C4.37041 78.1698 4.8329 78.2358 5.33315 78.1322C5.84284 78.0192 6.30534 77.7085 6.60738 77.2754L22.3606 54.8578C22.4361 54.66 22.5871 54.4906 22.7853 54.4058C22.9835 54.3211 23.21 54.3117 23.4082 54.387C27.4197 55.9028 31.9408 54.5094 34.4138 50.9975C37.3964 46.7513 36.377 40.9044 32.1296 37.9386ZM29.6944 47.2973C28.6184 48.8226 26.5041 49.1898 24.9656 48.1259C23.4366 47.0525 23.059 44.9435 24.1445 43.4088C24.6636 42.6745 25.4376 42.1755 26.3437 42.0154C26.5419 41.9777 26.7401 41.9683 26.9383 41.9683C27.6368 41.9683 28.3069 42.1849 28.8733 42.5897C29.6189 43.0981 30.1097 43.889 30.2607 44.7835C30.4118 45.6591 30.2135 46.5535 29.6944 47.2973Z" fill="#C7C8CA"/>
<path d="M31.865 44.4911C31.6384 43.173 30.9022 42.0243 29.8073 41.2617C28.7124 40.4991 27.3816 40.1884 26.0507 40.4237C24.7199 40.6591 23.5778 41.3747 22.8038 42.4763C21.2181 44.7359 21.7561 47.8618 24.0214 49.4529C24.8992 50.0649 25.9091 50.3568 26.8908 50.3568C28.4765 50.3568 30.0339 49.6224 31.0155 48.2384C31.7895 47.1274 32.0915 45.8093 31.865 44.4911ZM29.6941 47.2969C28.6181 48.8221 26.5038 49.1893 24.9653 48.1254C23.4362 47.0521 23.0587 44.9431 24.1441 43.4084C24.6632 42.674 25.4372 42.175 26.3433 42.0149C26.5415 41.9773 26.7398 41.9678 26.938 41.9678C27.6364 41.9678 28.3066 42.1844 28.8729 42.5892C29.6186 43.0977 30.1094 43.8885 30.2604 44.783C30.4114 45.6586 30.2132 46.5531 29.6941 47.2969Z" fill="black" fill-opacity="0.87"/>
<path d="M33.0632 36.6106C30.6564 34.9253 27.7304 34.2757 24.8232 34.7841C21.935 35.2925 19.396 36.8931 17.7065 39.294C14.9315 43.2201 15.0636 48.4644 17.9424 52.2305L11.2882 61.7022L6.9558 58.6893C6.77647 58.5575 6.55938 58.5198 6.35172 58.5481C6.14407 58.5858 5.94586 58.7082 5.82316 58.8776L3.93542 61.561C3.68057 61.9282 3.76552 62.4366 4.13363 62.6908L8.45655 65.7131L7.48437 67.0971L3.16145 64.0748C2.79334 63.8206 2.28365 63.9054 2.0288 64.2726L0.141066 66.9559C0.0183626 67.1348 -0.0193922 67.3513 0.00892389 67.5679C0.0466787 67.7844 0.169382 67.9727 0.339278 68.0857L4.6622 71.108L2.40635 74.3186C1.83059 75.1377 1.60406 76.164 1.77396 77.1526C1.93442 78.0282 2.38747 78.772 3.0765 79.2427C3.60507 79.6194 4.21858 79.8077 4.88873 79.8077C5.15301 79.8077 5.43617 79.77 5.70989 79.7135C6.60657 79.497 7.40886 78.9509 7.93742 78.1977L23.4735 56.1096C28.023 57.5218 32.9877 55.8459 35.7627 51.9104C39.2456 46.958 38.0468 40.0848 33.0632 36.6106ZM34.4318 50.9783C31.9683 54.4901 27.4472 55.8836 23.4263 54.3677C23.2187 54.2924 23.0016 54.3018 22.8034 54.3866C22.6052 54.4713 22.4541 54.6408 22.3786 54.8385L6.60657 77.2656C6.29509 77.6987 5.84203 77.9999 5.33235 78.1318C4.84153 78.2353 4.37904 78.1694 4.01093 77.9152C3.68057 77.6798 3.45405 77.3126 3.38798 76.8701C3.28415 76.3146 3.42573 75.7309 3.75608 75.2601L6.47443 71.381C6.72927 71.0139 6.64432 70.5054 6.27621 70.2512L1.95329 67.2383L2.89716 65.8826L7.22008 68.9048C7.39942 69.0272 7.61651 69.0743 7.82416 69.0461C8.05069 69.0084 8.23946 68.8766 8.36217 68.6977L10.2688 65.9861C10.5236 65.6189 10.4387 65.1105 10.0706 64.8563L5.74765 61.8246L6.69152 60.4782L11.0144 63.5005C11.3825 63.7641 11.8922 63.67 12.1471 63.3028L19.5093 52.8331L19.5187 52.8236C19.8491 52.5318 19.8774 52.0233 19.5848 51.6938C16.7909 48.4456 16.5644 43.7285 19.0279 40.2261C20.472 38.183 22.624 36.8084 25.0875 36.3753C27.5605 35.9422 30.0523 36.4977 32.1005 37.9288C36.3762 40.904 37.3956 46.7508 34.4318 50.9783Z" fill="black" fill-opacity="0.87"/>
</svg>
