<svg width="48" height="48" viewBox="0 0 48 48" fill="none" xmlns="http://www.w3.org/2000/svg">
<path d="M26.3608 10.1095C26.4568 10.2415 26.5947 10.3255 26.7507 10.3495C29.0903 10.7155 31.262 11.5495 33.0257 12.7555C34.7414 13.9255 36.0012 15.3955 36.6731 17.0095C36.793 17.3035 37.129 17.4595 37.4529 17.3275C37.5969 17.2675 37.7109 17.1475 37.7709 17.0035C37.8309 16.8535 37.8309 16.6915 37.7649 16.5415C37.003 14.7175 35.5933 13.0615 33.6916 11.7595C31.7779 10.4515 29.4383 9.55152 26.9307 9.16152C26.9007 9.15552 26.8707 9.15552 26.8407 9.15552C26.5528 9.15552 26.2948 9.37152 26.2528 9.66552C26.2288 9.82152 26.2648 9.97752 26.3608 10.1095Z" fill="black" fill-opacity="0.87"/>
<path d="M13.0908 15.7798C13.1808 15.9958 13.4087 16.1518 13.6427 16.1518C13.6487 16.1518 13.6607 16.1518 13.6667 16.1518C13.9067 16.1398 14.1286 15.9658 14.2066 15.7318C14.2786 15.4979 14.1946 15.2159 14.0026 15.072C13.7987 14.916 13.4987 14.916 13.2948 15.06C13.0788 15.2159 12.9888 15.5279 13.0908 15.7798Z" fill="black" fill-opacity="0.87"/>
<path d="M16.7023 12.402C16.4863 12.564 16.4024 12.8699 16.4983 13.1219C16.5943 13.3498 16.8343 13.5058 17.0862 13.4938C17.3262 13.4758 17.5422 13.3078 17.6142 13.0739C17.6861 12.8399 17.6022 12.564 17.4102 12.414C17.2122 12.252 16.9003 12.252 16.7023 12.402Z" fill="black" fill-opacity="0.87"/>
<path d="M20.368 15.06C20.152 15.2159 20.0621 15.5279 20.164 15.7798C20.254 15.9958 20.488 16.1518 20.7219 16.1518C20.7279 16.1518 20.7399 16.1518 20.7459 16.1518C20.9799 16.1398 21.2079 15.9658 21.2798 15.7318C21.3518 15.4979 21.2678 15.2159 21.0759 15.072C20.8659 14.916 20.566 14.916 20.368 15.06Z" fill="black" fill-opacity="0.87"/>
<path d="M12.3829 42H35.6111C38.2746 42 40.4463 39.81 40.4463 37.11V34.8L40.4883 34.764C41.1481 34.23 41.5141 33.474 41.5141 32.634C41.5141 32.106 41.3701 31.602 41.0942 31.176L41.0462 31.104L41.1061 31.038C41.682 30.396 42 29.562 42 28.692V28.548C42 27.066 41.0702 25.734 39.6844 25.242L39.6064 25.218V23.268L39.6784 23.238C39.9003 23.154 40.1043 23.046 40.2963 22.92C41.0702 22.398 41.5141 21.564 41.5141 20.646C41.5141 20.07 41.3401 19.524 41.0162 19.068L40.9802 19.014L41.0042 18.954C41.1721 18.558 41.2141 18.12 41.1361 17.694C40.5362 14.448 38.4726 11.478 35.3291 9.324C32.1796 7.182 28.1543 6 23.997 6C19.8337 6 15.8144 7.182 12.6769 9.33C9.53341 11.478 7.46976 14.454 6.86986 17.7C6.76787 18.234 6.86985 18.786 7.14581 19.248L7.1818 19.302L7.15181 19.356C6.93584 19.752 6.83386 20.184 6.83386 20.646C6.83386 21.57 7.27779 22.398 8.05166 22.926C8.13564 22.98 8.22563 23.034 8.33961 23.094L8.3996 23.124V25.218L8.32161 25.242C6.92985 25.74 6 27.066 6 28.548V28.692C6 29.658 6.40193 30.594 7.10382 31.254L7.16381 31.314L7.12181 31.392C6.92385 31.77 6.82186 32.202 6.82186 32.634C6.82186 33.318 7.06182 33.948 7.51175 34.452L7.54174 34.482V37.104C7.54774 39.81 9.71938 42 12.3829 42ZM39.2525 37.11C39.2525 39.144 37.6147 40.794 35.6051 40.794H12.3829C10.3733 40.794 8.73554 39.144 8.73554 37.11V35.262L8.87952 35.304C9.44343 35.466 10.0433 35.448 10.6192 35.262C10.6252 35.256 10.6432 35.25 10.6672 35.25C10.7092 35.232 10.7572 35.214 10.8112 35.196C11.0812 35.088 11.3691 35.034 11.6931 35.034C12.5449 35.034 12.9528 35.328 13.4268 35.664C13.9547 36.042 14.6206 36.516 15.8504 36.516C17.0802 36.516 17.74 36.042 18.274 35.664C18.7479 35.322 19.1558 35.034 20.0077 35.034C20.8595 35.034 21.2675 35.328 21.7414 35.664C22.2753 36.042 22.9352 36.516 24.165 36.516C25.3948 36.516 26.0547 36.042 26.5886 35.664C27.0625 35.328 27.4704 35.034 28.3223 35.034C29.1741 35.034 29.5821 35.328 30.056 35.664C30.5899 36.048 31.2498 36.516 32.4796 36.516C33.7094 36.516 34.3693 36.042 34.9032 35.664C35.3771 35.328 35.785 35.034 36.6369 35.034C36.8709 35.034 37.0928 35.064 37.2908 35.118C37.3928 35.148 37.4888 35.184 37.5847 35.22C37.6747 35.256 37.7707 35.292 37.8607 35.316C38.2626 35.43 38.6945 35.454 39.1205 35.388L39.2525 35.364V37.11ZM39.1445 34.14C38.7665 34.254 38.3526 34.23 37.9747 34.074C37.5607 33.906 37.1228 33.822 36.6369 33.822C35.4071 33.822 34.7472 34.296 34.2133 34.674C33.7394 35.01 33.3254 35.304 32.4796 35.304C31.6277 35.304 31.2198 35.01 30.7459 34.674C30.218 34.296 29.5521 33.822 28.3223 33.822C27.0925 33.822 26.4326 34.296 25.9047 34.674C25.4248 35.016 25.0108 35.31 24.165 35.31C23.3131 35.31 22.9052 35.016 22.4313 34.68C21.9033 34.302 21.2375 33.828 20.0077 33.828C18.7779 33.828 18.118 34.302 17.5841 34.68C17.1101 35.022 16.7022 35.31 15.8504 35.31C15.0045 35.31 14.5966 35.022 14.1226 34.686C13.5767 34.302 12.9168 33.828 11.6931 33.828C11.2071 33.828 10.7692 33.912 10.3553 34.08C9.85136 34.284 9.28145 34.254 8.82553 33.99C8.3936 33.744 8.09965 33.336 8.02766 32.868C8.00367 32.724 8.00367 32.574 8.02166 32.436C8.08765 32.052 8.14164 32.022 8.17164 32.004L8.21963 31.98L8.27362 31.998C8.65156 32.136 9.04749 32.208 9.45542 32.208H22.5332L22.5692 32.238L23.883 33.564C24.111 33.798 24.4949 33.792 24.7229 33.564L26.0787 32.202H38.5206C38.9045 32.202 39.2885 32.136 39.6604 32.004C39.7384 31.98 39.8104 31.95 39.8824 31.914C39.9184 31.89 39.9603 31.866 40.0143 31.866C40.0143 31.866 40.0203 31.866 40.0263 31.866C40.1283 31.872 40.1643 31.968 40.1823 32.01C40.2663 32.208 40.3143 32.406 40.3143 32.61C40.3323 33.306 39.8524 33.936 39.1445 34.14ZM9.5814 25.044V23.424H9.69538C9.73738 23.424 9.78537 23.424 9.82736 23.418C10.1453 23.4 10.4753 23.328 10.8592 23.178C11.1831 23.052 11.5671 23.01 11.993 23.046C12.6469 23.106 13.0128 23.364 13.4328 23.664C13.9607 24.042 14.6266 24.516 15.8564 24.516C17.0862 24.516 17.746 24.042 18.28 23.664C18.7599 23.322 19.1678 23.034 20.0137 23.034C20.8655 23.034 21.2675 23.322 21.7414 23.664C22.2813 24.048 22.9412 24.522 24.171 24.522C25.4008 24.522 26.0607 24.048 26.5946 23.67C27.0685 23.328 27.4764 23.04 28.3283 23.04C29.1801 23.04 29.5881 23.334 30.062 23.67C30.5959 24.054 31.2558 24.522 32.4856 24.522C33.7154 24.522 34.3753 24.048 34.9092 23.67C35.3831 23.334 35.791 23.04 36.6429 23.04C36.9548 23.04 37.2548 23.094 37.5247 23.202C37.7887 23.31 38.0527 23.376 38.3106 23.406L38.4126 23.418V25.044H9.5814ZM17.6081 27.21L15.9283 28.902L15.8504 28.824L13.3008 26.25H16.6542L17.6081 27.21ZM30.3259 26.25L30.134 26.442L25.4428 31.134V31.2H25.3768L24.3089 32.28L23.2051 31.17L18.3339 26.25H30.3259ZM40.8062 28.548V28.692C40.8062 29.436 40.4463 30.138 39.8404 30.576C39.4624 30.846 38.9945 30.996 38.5326 30.996H27.2845L32.0237 26.25H38.5266C39.7804 26.25 40.8062 27.282 40.8062 28.548ZM13.3428 10.326C16.2883 8.31 20.0737 7.206 23.997 7.206C27.9203 7.206 31.7057 8.316 34.6512 10.326C37.5367 12.3 39.4204 14.994 39.9603 17.916C40.0143 18.204 39.9363 18.504 39.7444 18.732C39.5524 18.966 39.2765 19.098 38.9885 19.098H9.0115C8.71755 19.098 8.44159 18.966 8.25562 18.732C8.06366 18.498 7.98567 18.204 8.03966 17.916C8.57957 14.994 10.4633 12.3 13.3428 10.326ZM8.01566 20.646C8.01566 20.508 8.03366 20.37 8.06966 20.232L8.10565 20.112L8.21963 20.154C8.46559 20.25 8.74154 20.304 9.0115 20.304H38.9885C39.3664 20.304 39.7324 20.208 40.0563 20.022L40.1643 19.956L40.2123 20.076C40.2843 20.256 40.3203 20.442 40.3203 20.64C40.3203 21.156 40.0683 21.618 39.6304 21.918C39.1985 22.218 38.6286 22.296 38.1126 22.128C38.0287 22.104 37.9507 22.074 37.8667 22.044C37.7167 21.99 37.5727 21.936 37.4168 21.906C37.1708 21.852 36.9128 21.828 36.6429 21.828C35.4131 21.828 34.7532 22.302 34.2193 22.68C33.7454 23.016 33.3314 23.31 32.4856 23.31C31.6337 23.31 31.2258 23.016 30.7519 22.68C30.224 22.302 29.5581 21.828 28.3283 21.828C27.0985 21.828 26.4386 22.302 25.9107 22.68C25.4308 23.022 25.0168 23.316 24.171 23.316C23.3191 23.316 22.9112 23.022 22.4373 22.686C21.9093 22.308 21.2435 21.834 20.0137 21.834C18.7839 21.834 18.124 22.308 17.5901 22.686C17.1161 23.028 16.7082 23.316 15.8564 23.316C15.0045 23.316 14.5966 23.022 14.1226 22.686C13.5887 22.302 12.9288 21.834 11.699 21.834C11.2131 21.834 10.7752 21.918 10.3613 22.086C9.82136 22.314 9.18547 22.248 8.70555 21.924C8.26762 21.624 8.01566 21.162 8.01566 20.646ZM7.1878 28.698V28.554C7.1878 27.288 8.20763 26.256 9.46742 26.256H11.6211L11.6571 26.286L15.5144 30.186C15.7424 30.414 16.1383 30.408 16.3543 30.186L18.4539 28.068L18.5319 28.146L21.3574 31.002H9.46742C9.07149 31.002 8.68155 30.894 8.33961 30.702C7.63173 30.282 7.1878 29.52 7.1878 28.698Z" fill="black" fill-opacity="0.87"/>
<path d="M21.9693 13.1159C22.0593 13.3319 22.2873 13.4878 22.5212 13.4878C22.5272 13.4878 22.5392 13.4878 22.5452 13.4878C22.7792 13.4758 23.0071 13.3019 23.0791 13.0679C23.1511 12.834 23.0671 12.558 22.8752 12.408C22.6832 12.258 22.3772 12.252 22.1673 12.396C21.9633 12.552 21.8673 12.8699 21.9693 13.1159Z" fill="black" fill-opacity="0.87"/>
<path d="M25.1667 16.2719C25.2567 16.4878 25.4847 16.6438 25.7186 16.6438C25.7246 16.6438 25.7366 16.6438 25.7426 16.6438C25.9826 16.6318 26.2045 16.4578 26.2825 16.2299C26.3545 15.9959 26.2705 15.714 26.0786 15.57C25.8746 15.414 25.5806 15.408 25.3707 15.558C25.1487 15.708 25.0587 16.0139 25.1667 16.2719Z" fill="black" fill-opacity="0.87"/>
<path d="M23.6431 8.6936C23.3971 8.6936 23.1752 8.85558 23.0912 9.08354C22.9952 9.3355 23.0912 9.64145 23.3192 9.79742C23.5351 9.9414 23.8291 9.9234 24.027 9.76143C24.219 9.59945 24.297 9.3175 24.207 9.08354C24.117 8.85558 23.8891 8.6936 23.6431 8.6936Z" fill="black" fill-opacity="0.87"/>
<path d="M39.1444 34.1396C38.7665 34.2536 38.3526 34.2296 37.9746 34.0737C37.5607 33.9057 37.1228 33.8217 36.6368 33.8217C35.4071 33.8217 34.7472 34.2956 34.2132 34.6736C33.7393 35.0095 33.3254 35.3035 32.4795 35.3035C31.6277 35.3035 31.2197 35.0095 30.7458 34.6736C30.2179 34.2956 29.552 33.8217 28.3222 33.8217C27.0924 33.8217 26.4325 34.2956 25.9046 34.6736C25.4247 35.0155 25.0108 35.3095 24.1649 35.3095C23.3131 35.3095 22.9051 35.0155 22.4312 34.6796C21.9033 34.3016 21.2374 33.8277 20.0076 33.8277C18.7778 33.8277 18.1179 34.3016 17.584 34.6796C17.1101 35.0215 16.7022 35.3095 15.8503 35.3095C15.0045 35.3095 14.5965 35.0215 14.1226 34.6856C13.5767 34.3016 12.9168 33.8277 11.693 33.8277C11.2071 33.8277 10.7692 33.9117 10.3552 34.0797C9.85131 34.2836 9.28141 34.2536 8.82548 33.9897C8.39355 33.7437 8.0996 33.3358 8.02762 32.8679C8.00362 32.7239 8.00362 32.5739 8.02162 32.4359C8.08761 32.052 8.1416 32.022 8.17159 32.004L8.21958 31.98L8.27358 31.998C8.65151 32.136 9.04745 32.208 9.45538 32.208H22.5332L22.5692 32.238L23.883 33.5637C24.1109 33.7977 24.4949 33.7917 24.7228 33.5637L26.0786 32.202H38.5205C38.9045 32.202 39.2884 32.136 39.6603 32.004C39.7383 31.98 39.8103 31.95 39.8823 31.914C39.9183 31.89 39.9603 31.866 40.0143 31.866C40.0143 31.866 40.0203 31.866 40.0263 31.866C40.1283 31.872 40.1643 31.968 40.1823 32.01C40.2662 32.208 40.3142 32.4059 40.3142 32.6099C40.3322 33.3058 39.8523 33.9357 39.1444 34.1396Z" fill="#CC1543"/>
<path d="M9.58154 25.0437V23.424H9.69552C9.73752 23.424 9.78551 23.424 9.8275 23.418C10.1454 23.4 10.4754 23.328 10.8593 23.178C11.1833 23.052 11.5672 23.01 11.9931 23.046C12.647 23.106 13.013 23.364 13.4329 23.6639C13.9608 24.0419 14.6267 24.5158 15.8565 24.5158C17.0863 24.5158 17.7462 24.0419 18.2801 23.6639C18.76 23.322 19.1679 23.034 20.0138 23.034C20.8657 23.034 21.2676 23.322 21.7415 23.6639C22.2814 24.0478 22.9413 24.5218 24.1711 24.5218C25.4009 24.5218 26.0608 24.0479 26.5947 23.6699C27.0686 23.328 27.4766 23.04 28.3284 23.04C29.1803 23.04 29.5882 23.334 30.0621 23.6699C30.596 24.0539 31.2559 24.5218 32.4857 24.5218C33.7155 24.5218 34.3754 24.0479 34.9093 23.6699C35.3832 23.334 35.7912 23.04 36.643 23.04C36.955 23.04 37.2549 23.094 37.5249 23.202C37.7888 23.31 38.0528 23.376 38.3108 23.406L38.4127 23.418V25.0437H9.58154Z" fill="#CC1543"/>
<path d="M40.8064 28.5476V28.6915C40.8064 29.4354 40.4465 30.1373 39.8406 30.5752C39.4626 30.8452 38.9947 30.9952 38.5328 30.9952H27.2847L32.0239 26.2499H38.5268C39.7806 26.2499 40.8064 27.2818 40.8064 28.5476Z" fill="#D6B294"/>
<path d="M7.1875 28.6982V28.5542C7.1875 27.2884 8.20733 26.2566 9.46712 26.2566H11.6208L11.6568 26.2866L15.5141 30.1859C15.7421 30.4139 16.138 30.4079 16.354 30.1859L18.4536 28.0683L18.5316 28.1463L21.3571 31.0018H9.46712C9.07119 31.0018 8.68125 30.8938 8.33931 30.7018C7.63143 30.2819 7.1875 29.52 7.1875 28.6982Z" fill="#D6B294"/>
</svg>
