<svg width="88" height="120" viewBox="0 0 88 120" fill="none" xmlns="http://www.w3.org/2000/svg">
<g clip-path="url(#clip0)">
<path d="M33.6191 49.6685L34.3938 50.4222C33.6819 50.485 34.7603 50.3908 26.5309 51.1026C25.0337 51.2387 23.6412 51.8039 22.479 52.7565L18.2073 56.2945V15.1675H76.7134V54.6301C76.0747 54.5987 73.4991 54.8709 72.1066 55.8235C70.421 56.9749 69.4577 59.037 69.8346 61.1619C70.4733 64.5534 72.8605 66.1654 75.4465 66.0398L74.6404 66.1863C71.7088 66.6992 69.7718 69.4731 70.3058 72.3726C70.9026 75.7432 73.3002 77.3761 75.8968 77.261C71.7716 77.9937 69.9917 81.7202 71.0282 84.829H27.3371C27.4208 80.2757 26.7717 75.2198 24.9813 71.0851C24.416 69.7872 24.6254 68.2694 25.5362 67.1807L29.2112 62.753C29.8708 61.9574 30.834 61.455 31.8706 61.3713C36.8543 60.9944 39.2519 58.7648 40.3722 56.3468" fill="white"/>
<path d="M76.5668 7.69374V15.4083H18.0712V7.69374C18.0712 3.92542 21.1389 0.868896 24.9395 0.868896H69.6985C73.4886 0.879364 76.5668 3.93589 76.5668 7.69374Z" fill="#BDBDBD"/>
<path d="M76.5668 88.6916V92.8054C76.5668 96.5737 73.4886 99.6198 69.6985 99.6198H23.2852C24.9603 95.6316 27.1904 89.4348 27.1904 85.0803H70.8816C71.6564 87.4355 74.033 88.9743 76.5668 88.6916Z" fill="#BDBDBD"/>
<path d="M82.744 82.2016C82.1682 78.8415 79.7496 77.1981 77.1531 77.3133L77.9593 77.1667C80.6082 76.6957 82.8906 74.3405 82.2101 70.4779C81.7284 67.8192 79.3413 65.9769 76.6924 66.1025L77.5195 65.9455C80.0742 65.4849 82.4927 63.1716 81.7599 59.2567C81.2992 56.7026 79.0795 54.9232 76.5668 54.8813C75.9281 54.8499 73.3525 55.122 71.96 56.0746C70.2743 57.226 69.3111 59.2881 69.688 61.413C70.3267 64.8045 72.7138 66.4165 75.2999 66.2909L74.4937 66.4375C71.5621 66.9504 69.6252 69.7243 70.1592 72.6238C70.735 75.9839 73.1536 77.6273 75.7501 77.5121C71.6249 78.2449 69.8451 81.9713 70.8816 85.0802C71.6668 87.4563 74.0435 88.9846 76.5668 88.702C76.8076 88.6706 78.1477 88.4298 78.4095 88.3879C81.3306 87.8646 83.2885 85.0802 82.744 82.2016Z" fill="#D6B294"/>
<path d="M43.8587 93.2032H50.7584C51.24 93.2032 51.6483 92.8054 51.6483 92.3343C51.6483 91.8528 51.24 91.4551 50.7584 91.4551H43.8587C43.3771 91.4551 42.9688 91.8424 42.9688 92.3343C42.9688 92.8159 43.3771 93.2032 43.8587 93.2032Z" fill="black" fill-opacity="0.87"/>
<path d="M56.098 7.25391H55.5431C55.0406 7.25391 54.6532 7.63074 54.6532 8.12271C54.6532 8.61469 55.0406 8.99152 55.5431 8.99152H56.098C56.5797 8.99152 56.988 8.60422 56.988 8.12271C56.988 7.64121 56.5901 7.25391 56.098 7.25391Z" fill="black" fill-opacity="0.87"/>
<path d="M49.5124 7.25391H38.519C38.0164 7.25391 37.629 7.63074 37.629 8.12271C37.629 8.61469 38.0164 8.99152 38.519 8.99152H49.5124C50.015 8.99152 50.4024 8.61469 50.4024 8.12271C50.4024 7.65167 49.9941 7.25391 49.5124 7.25391Z" fill="black" fill-opacity="0.87"/>
<path d="M60.1394 57.6761L58.8621 71.2107C58.7365 72.561 57.5848 73.6601 56.1923 73.6601H38.4876C37.1579 73.6601 35.9434 72.6133 35.8177 71.2735L34.488 57.5505H36.9171L36.9799 57.6133C38.7388 61.8422 42.8012 64.5952 47.3452 64.5952C52.0148 64.5952 56.0143 61.905 57.7104 57.6133L57.7732 57.5505H60.2023L60.1394 57.6761Z" fill="#CC1543"/>
<path d="M47.3451 67.4109C53.135 67.4109 57.836 62.6691 57.836 56.8178C57.836 50.9664 53.135 46.2246 47.3451 46.2246C41.5553 46.2246 36.8542 50.9664 36.8542 56.8178C36.8542 62.6691 41.5553 67.4109 47.3451 67.4109Z" fill="#D6B294"/>
<path d="M66.8088 35.3802C66.8088 33.0564 64.9242 31.2142 62.6837 31.2142H60.0766L59.951 30.4186C59.6474 28.5763 58.192 27.1109 56.3703 26.8701L39.3985 24.4207C39.0948 24.3579 38.854 24.3579 38.5504 24.3579H38.4876C37.5767 24.4207 36.7286 24.7871 36.0586 25.3942C35.1477 26.1897 34.6032 27.3516 34.6032 28.5763V31.2665H31.9334C29.63 31.2665 27.8082 33.1611 27.8082 35.4326V38.8659C27.8082 39.2951 28.1119 39.5987 28.5307 39.5987H31.2633V39.7243L34.2996 71.3886C34.5404 73.5345 36.2994 75.1883 38.4248 75.1883H56.1295C58.2549 75.1883 60.0662 73.5345 60.2546 71.3886L63.2909 39.5987H66.0236C66.4528 39.5987 66.746 39.2951 66.746 38.8659V35.3802H66.8088ZM36.1214 28.5135C36.1214 27.718 36.4878 26.9853 37.0323 26.4933C37.4615 26.1269 38.006 25.8757 38.6132 25.8234C38.7912 25.8234 38.9797 25.8234 39.1577 25.8234L56.1295 28.2728C57.0403 28.3984 57.7628 28.9427 58.192 29.7382L58.9145 31.1514H36.1214V28.5135ZM33.818 50.443H36.4878L36.425 50.6315C36.247 51.4898 36.0586 52.4109 36.0586 53.2693C36.0586 54.2532 36.1842 55.1116 36.425 55.9071L36.4878 56.0955H34.3624L33.818 50.443ZM60.1395 57.6657L58.8621 71.2002C58.7365 72.5505 57.5848 73.6496 56.1923 73.6496H38.4876C37.1579 73.6496 35.9434 72.6029 35.8177 71.263L34.4881 57.54H36.9171L36.9799 57.6028C38.7389 61.8317 42.8012 64.5847 47.3452 64.5847C52.0148 64.5847 56.0143 61.8945 57.7104 57.6028L57.7732 57.54H60.2023L60.1395 57.6657ZM37.5767 53.2588C37.5767 47.8052 41.9427 43.3984 47.3347 43.3984C52.7267 43.3984 57.0927 47.8052 57.0927 53.2588C57.0927 58.7124 52.7267 63.1192 47.3347 63.1192C41.9427 63.1192 37.5767 58.7124 37.5767 53.2588ZM60.2546 56.0223H58.1292L58.192 55.8338C58.37 54.9755 58.5585 54.0543 58.5585 53.196C58.5585 52.2121 58.4329 51.3537 58.192 50.5582L58.1292 50.3698H60.7991L60.2546 56.0223ZM60.9875 48.9776H57.7732L57.7104 48.9148C55.9515 44.6859 51.8891 41.9329 47.3452 41.9329C42.6756 41.9329 38.676 44.6231 36.9799 48.9148L36.9171 48.9776H33.64L32.7291 39.5463H61.7728L60.9875 48.9776ZM65.3535 38.0704H29.3368V35.3802C29.3368 33.9148 30.5514 32.6901 32.0067 32.6901H62.6837C64.139 32.6901 65.3535 33.9148 65.3535 35.3802V38.0704Z" fill="black" fill-opacity="0.87"/>
<path d="M60.9876 48.9777H57.7733L57.7105 48.9148C55.9515 44.686 51.8892 41.933 47.3452 41.933C42.6756 41.933 38.6761 44.6232 36.9799 48.9148L36.9171 48.9777H33.64L32.7291 39.5464H61.7728L60.9876 48.9777Z" fill="#CC1543"/>
<path d="M50.7375 49.8255C50.0151 49.0927 48.9785 48.7892 47.764 48.9671C46.6751 49.1556 45.5863 49.6999 44.7277 50.621C43.8797 51.4794 43.2724 52.5784 43.0944 53.688C42.9164 54.8499 43.2201 55.9595 43.9425 56.6922C44.5497 57.3098 45.335 57.6133 46.1831 57.6133C46.4239 57.6133 46.6123 57.6133 46.8531 57.5505C47.942 57.3621 49.0309 56.755 49.8894 55.8967C50.7375 55.0383 51.3447 53.9392 51.5227 52.8297C51.774 51.605 51.4704 50.5687 50.7375 49.8255Z" fill="black" fill-opacity="0.87"/>
<path d="M45.7643 51.6679C44.9162 52.5262 44.4869 53.6253 44.4869 54.4837L44.5498 54.4208C44.8534 54.0545 45.0942 53.7509 45.4606 53.4369C45.8899 53.0705 46.4343 52.767 47.0416 52.5786C47.764 52.3378 48.3713 51.9086 48.9785 51.1131C49.0414 51.0503 49.0414 50.9875 49.1042 50.8723C49.167 50.7467 49.2298 50.6316 49.2822 50.5688C49.0414 50.4432 48.7377 50.3804 48.3713 50.3804C48.2456 50.3804 48.0677 50.3804 47.942 50.4432C47.2196 50.5688 46.4343 50.998 45.7643 51.6679Z" fill="white"/>
<path d="M50.193 52.0342C50.1302 52.0342 50.1302 52.0342 50.193 52.0342C49.345 53.1333 48.4969 53.7509 47.4604 54.0544C47.0311 54.18 46.7379 54.358 46.4343 54.6092C46.1307 54.85 45.9527 55.1012 45.6491 55.4675C45.5862 55.5303 45.5234 55.656 45.4711 55.7083C45.4083 55.8339 45.3454 55.8967 45.2931 56.0119C45.6595 56.2003 46.0783 56.2526 46.6228 56.2003C47.408 56.0747 48.2037 55.6455 48.8633 54.9756C49.7638 53.9916 50.193 52.8925 50.193 52.0342Z" fill="white"/>
<path d="M82.4928 53.8031L76.5878 54.8604V43.5031L80.5245 42.8017C83.5922 42.2574 86.5238 44.2777 87.0682 47.3132C87.5812 50.4221 85.4977 53.2693 82.4928 53.8031Z" fill="#E8CCB0"/>
<path d="M82.744 82.2016C82.1682 78.8415 79.7496 77.1981 77.1531 77.3133L77.9593 77.1667C80.6082 76.6957 82.8906 74.3405 82.2101 70.4779C81.7284 67.8192 79.3413 65.9769 76.6924 66.1025L77.5195 65.9455C80.0742 65.4849 82.4927 63.1716 81.7599 59.2567C81.2992 56.7026 79.0795 54.9232 76.5668 54.8813C75.9281 54.8499 73.3525 55.122 71.96 56.0746C70.2743 57.226 69.3111 59.2881 69.688 61.413C70.3267 64.8045 72.7138 66.4165 75.2999 66.2909L74.4937 66.4375C71.5621 66.9504 69.6252 69.7243 70.1592 72.6238C70.735 75.9839 73.1536 77.6273 75.7501 77.5121C71.6249 78.2449 69.8451 81.9713 70.8816 85.0802C71.6668 87.4563 74.0435 88.9846 76.5668 88.702C76.8076 88.6706 78.1477 88.4298 78.4095 88.3879C81.3306 87.8646 83.2885 85.0802 82.744 82.2016Z" fill="#E8CCB0"/>
<path d="M54 100.291C53.6639 101.179 53.1912 102.078 52.5821 102.924C51.0381 105.134 48.7064 107.111 45.965 108.136C43.5388 109.067 42.0053 111.467 42.0789 114.036L42.1839 120H1.38946L2.28223 108.665C2.67085 103.759 2.38727 98.8211 1.44198 93.989C-1.13131 80.7086 7.93296 56.1461 18.2261 47V56.7594L22.5219 53.1961C23.6773 52.2445 25.0847 51.6629 26.5866 51.5255C34.8422 50.8065 33.7603 50.9017 34.4745 50.8382L38.8229 50.4576C40.2408 50.3307 41.4277 51.4938 41.3751 52.9001C41.3226 54.0632 41.0916 55.4483 40.4719 56.8017C39.3585 59.2336 36.9638 61.4858 31.9433 61.877C30.9035 61.9616 29.9477 62.4691 29.2755 63.2727L25.5888 67.7454C24.6856 68.8556 24.465 70.3676 25.0322 71.6893C26.8177 75.8659 27.4689 80.9729 27.3954 85.5724C27.3954 89.9499 25.1477 96.2306 23.4777 100.249L54 100.291Z" fill="#E8CCB0"/>
<path d="M78.7755 32.2814L77.1736 30.6798V28.4188C77.1736 27.414 76.7757 26.4614 76.0637 25.7496C75.3518 25.0378 74.399 24.6401 73.3939 24.6401H71.1324L69.5305 23.0385C68.8185 22.3267 67.8762 21.929 66.8607 21.929C65.8451 21.929 64.9028 22.3267 64.1803 23.0385L62.5784 24.6401H60.3169C58.2334 24.6401 56.5373 26.3358 56.5373 28.4293V30.7008L54.9354 32.3023C54.2234 33.0141 53.8256 33.9562 53.8256 34.9715C53.8256 35.9869 54.2234 36.929 54.9354 37.6512L56.5373 39.2528V41.5137C56.5373 42.5186 56.9351 43.4712 57.6471 44.183C58.3591 44.8948 59.3118 45.2925 60.3169 45.2925H62.5889L64.1908 46.8941C64.9028 47.6059 65.8555 48.0036 66.8607 48.0036C67.8658 48.0036 68.8185 47.6059 69.541 46.8836L71.1429 45.2821H73.4044C75.4879 45.2821 77.184 43.5863 77.184 41.4928V39.2318L78.7859 37.6303C79.4979 36.9185 79.8957 35.9659 79.8957 34.9611C79.8957 33.9562 79.5084 33.0036 78.7755 32.2814Z" fill="white"/>
<path d="M65.521 34.3963C65.521 34.8568 65.165 35.1604 64.5577 35.1604H64.0866V33.6845C64.1703 33.6635 64.3379 33.6426 64.631 33.6426C65.1964 33.6635 65.521 33.9043 65.521 34.3963ZM79.8962 34.9615C79.8962 35.9664 79.4984 36.9189 78.7864 37.6307L77.1845 39.2323V41.4933C77.1845 43.5763 75.4884 45.2825 73.4048 45.2825H71.1433L69.5414 46.8841C68.819 47.6063 67.8662 48.0041 66.8611 48.0041C65.856 48.0041 64.9032 47.6063 64.1913 46.8945L62.5894 45.293H60.3174C59.3123 45.293 58.3595 44.8952 57.6371 44.1834C56.9251 43.4716 56.5273 42.5191 56.5273 41.5037V39.2427L54.9254 37.6412C54.2134 36.9189 53.8156 35.9769 53.8156 34.9615C53.8156 33.9462 54.2134 33.0041 54.9254 32.2923L56.5273 30.6908V28.4193C56.5273 26.3363 58.2234 24.63 60.3174 24.63H62.5789L64.1808 23.0285C64.9032 22.3167 65.8455 21.9189 66.8611 21.9189C67.8767 21.9189 68.819 22.3167 69.5414 23.0285L71.1433 24.63H73.4048C74.41 24.63 75.3627 25.0278 76.0851 25.7396C76.7971 26.4514 77.195 27.4039 77.195 28.4088V30.6698L78.7969 32.2714C79.5088 33.0041 79.8962 33.9566 79.8962 34.9615ZM62.0031 32.8052H58.7574V38.1227H59.9719V35.9873H61.8774V35.0139H59.9614V33.7891H62.0031V32.8052ZM66.9239 38.1227C66.8192 37.9238 66.6517 37.2225 66.4842 36.6259C66.3481 36.1339 66.1492 35.7885 65.7722 35.6314V35.6105C66.2224 35.443 66.7145 34.9825 66.7145 34.3021C66.7145 33.8101 66.5365 33.4437 66.2224 33.1925C65.8455 32.8889 65.2906 32.7738 64.4949 32.7738C63.8562 32.7738 63.2804 32.8261 62.893 32.8785V38.1227H64.0866V36.0292H64.4426C64.9346 36.0397 65.1545 36.2176 65.3011 36.8771C65.4581 37.5365 65.5838 37.9657 65.6675 38.1122L66.9239 38.1227ZM70.9758 37.1388H68.7876V35.8722H70.7455V34.8987H68.7876V33.7891H70.8606V32.8052H67.5731V38.1227H70.9758V37.1388ZM75.1847 37.1388H72.9965V35.8722H74.9544V34.8987H72.9965V33.7891H75.08V32.8052H71.8029V38.1227H75.1952V37.1388H75.1847Z" fill="black" fill-opacity="0.87"/>
<path d="M87.9057 47.1668C87.288 43.6497 83.8748 41.3154 80.336 41.933L77.4567 42.4459V7.69365C77.4567 3.45429 73.9702 0 69.6985 0H24.9499C20.6677 0 17.1916 3.44382 17.1916 7.69365V46.5073L17.0869 46.6015C11.0667 52.1912 6.93107 61.0154 4.84755 66.2805C4.83708 66.3015 4.81614 66.3119 4.80567 66.3329C2.63839 71.5038 1.382 76.1096 0.963198 79.2079C-0.408366 86.0433 -0.0733274 89.9058 0.49205 93.7892L0.67004 94.9407C1.04696 97.4634 1.43435 100.07 1.43435 103.681C1.43435 105.105 1.382 106.507 1.2773 107.826L0.387351 119.037C0.355941 119.278 0.4397 119.508 0.61769 119.696C0.774739 119.885 1.02602 119.979 1.26683 119.979C1.72751 119.99 2.10442 119.655 2.1463 119.194L3.03625 107.973C3.16189 106.518 3.21424 105.063 3.21424 103.671C3.21424 100.154 2.8792 96.626 2.19865 93.1926C1.15166 87.8646 2.21959 81.3643 3.298 76.8528C3.90526 73.0949 4.94178 70.7188 6.14583 67.746C6.1563 67.7251 6.17724 67.7041 6.18771 67.6832C8.96225 60.4292 12.7419 53.8346 16.5948 49.5848L17.1916 48.9358V56.127L13.9459 58.8067C13.7575 58.9532 13.6528 59.1731 13.6214 59.4033C13.59 59.6336 13.6737 59.8639 13.8203 60.0209C14.1344 60.3978 14.6998 60.4501 15.0767 60.1465L17.9559 57.7704C18.804 57.0691 19.5369 56.4724 22.9292 53.6776C23.9448 52.8507 25.1697 52.3482 26.4994 52.2331C28.7923 52.0342 38.2048 51.2177 38.6865 51.1654C39.1053 51.1235 39.5136 51.2701 39.8172 51.5527C40.1104 51.8353 40.2884 52.2435 40.2674 52.6622C40.2046 53.9498 39.9429 55.1117 39.4717 56.1375L39.4403 56.2212C38.6132 57.9379 36.8961 60.2931 31.6821 60.7327C30.4152 60.8269 29.2216 61.4445 28.4154 62.418L24.7405 66.8667C23.6202 68.217 23.3584 70.0593 24.0495 71.6609C25.599 75.2722 26.4366 80.15 26.3319 85.0489C26.29 89.9163 23.3166 97.7565 21.3377 101.839C21.233 102.059 21.233 102.299 21.2959 102.509C21.3796 102.729 21.5262 102.906 21.7461 103.001C22.1963 103.221 22.7198 103.032 22.9396 102.592C22.992 102.498 23.327 101.797 23.8086 100.677L23.8924 100.478H52.4021L52.088 100.991C51.9414 101.232 51.7948 101.483 51.6169 101.724C50.0987 103.901 47.8477 105.67 45.4605 106.581C42.7593 107.617 41.0108 110.192 41.0108 113.144C41.0108 113.248 41.0422 114.735 41.0631 116.211C41.0945 117.645 41.1155 119.079 41.1155 119.173C41.126 119.634 41.5238 120.021 42.0054 120.021C42.2462 120.021 42.4766 119.927 42.6441 119.749C42.8012 119.571 42.9058 119.351 42.8849 119.131C42.8849 119.047 42.7802 113.186 42.7802 113.186C42.7802 110.914 44.0785 108.967 46.0887 108.224C48.8318 107.188 51.3132 105.241 53.0722 102.749C53.5433 102.069 53.9517 101.389 54.2658 100.708L54.36 100.52H69.7508C74.033 100.52 77.5091 97.0761 77.5091 92.8262V89.4662L77.7918 89.4243C77.9697 89.3929 78.1791 89.3615 78.4304 89.2987C80.2103 88.9742 81.7285 88.0426 82.6917 86.6609C83.6131 85.3315 83.9795 83.6567 83.6863 82.0656C83.3304 80.0768 82.3357 78.4438 80.849 77.4389L80.4616 77.1668L80.8385 76.8842C82.7859 75.4396 83.6235 73.0426 83.1524 70.321C82.8383 68.6462 81.8436 67.1493 80.4092 66.2282L79.98 65.9456L80.3674 65.6629C82.3357 64.208 83.1733 61.8109 82.6812 59.0998C82.4404 57.7495 81.7494 56.5352 80.6919 55.5827L80.1789 55.1221L82.6917 54.672C86.1782 54.044 88.513 50.6734 87.9057 47.1668ZM18.9506 7.69365C18.9506 4.42777 21.6309 1.74808 24.9185 1.74808H69.6985C72.9965 1.74808 75.6873 4.40684 75.6873 7.69365V14.5499H18.9506V7.69365ZM25.6514 70.9595C25.2221 69.9756 25.3896 68.7927 26.0806 67.9553L29.7556 63.5066C30.2686 62.8995 31.012 62.5227 31.7972 62.4494C36.5925 62.1144 39.011 60.0314 40.2151 58.3461L41.3668 56.127C41.7332 55.1221 41.9636 53.9812 42.0159 52.7355C42.0578 51.8144 41.6913 50.9246 41.0317 50.2756C40.3512 49.6371 39.4403 49.3126 38.5294 49.3964L31.7449 49.9826C30.6455 50.0768 28.9913 50.2233 26.3424 50.4536C24.6672 50.5897 23.0967 51.2387 21.7984 52.3063L18.9611 54.6406V16.2875H75.6978V54.044L75.4046 54.0754C74.745 54.1382 74.0226 54.2952 73.3734 54.4836C69.7613 55.5408 68.3583 58.8381 68.8504 61.5492C69.175 63.5066 70.201 65.1814 71.6773 66.1758L72.0647 66.448L71.6878 66.7306C69.8136 68.1333 68.9342 70.4152 69.3111 72.8541C69.6357 74.8116 70.7141 76.5178 72.2846 77.4913L72.6929 77.753L72.316 78.0461C70.557 79.4278 69.5833 81.6364 69.7508 83.8451L69.7822 84.2114H28.0699V83.8765C28.0385 80.4641 27.5883 75.471 25.6514 70.9595ZM69.6985 98.7299H24.5939L24.7824 98.2694C26.6984 93.4124 27.7977 89.3824 28.028 86.2526L28.0595 85.9386H70.2848L70.379 86.127C71.3213 88.0426 73.2478 89.3615 75.3941 89.5604L75.7082 89.5918L75.7187 92.7948C75.6768 96.0607 72.986 98.7195 69.6985 98.7299ZM81.8855 82.3378C82.1054 83.5311 81.8436 84.7034 81.1735 85.6664C80.4825 86.6504 79.3727 87.3308 78.0744 87.5611C77.174 87.7285 76.6401 87.8228 76.483 87.8332C76.305 87.8437 76.148 87.8541 75.97 87.8541C73.8865 87.8541 72.0542 86.4201 71.604 84.3371C71.3213 83.0495 71.5726 81.6783 72.316 80.5687C73.0907 79.4173 74.2529 78.6636 75.614 78.4229C75.8757 78.381 75.8757 78.381 76.1794 78.3287L77.2054 78.1821C79.1005 78.1403 81.3306 79.1766 81.8855 82.3378ZM81.3306 70.6141C81.9064 74.0056 79.98 75.9107 77.7918 76.3084L77.4044 76.3817C76.9856 76.4655 76.9856 76.4655 76.2527 76.5597L75.6873 76.6434C75.6349 76.6434 75.5826 76.6434 75.5302 76.6434C73.1745 76.6434 71.4679 75.0628 71.0177 72.4773C70.7978 71.3154 71.0596 70.1431 71.7296 69.1696C72.4207 68.1856 73.4467 67.5157 74.6298 67.3168L74.9858 67.254C75.436 67.1703 75.436 67.1703 76.0642 67.097L76.7238 67.0028C78.9853 66.9086 80.9537 68.4578 81.3306 70.6141ZM80.8804 59.4243C81.1631 60.9107 80.9327 62.2505 80.1998 63.3077C79.5507 64.2498 78.5351 64.8883 77.3311 65.0872C76.5354 65.2338 75.4884 65.4117 75.0067 65.4117C74.9963 65.4117 74.9753 65.4117 74.9649 65.4117C72.6091 65.328 71.091 63.8939 70.5465 61.2456C70.1696 59.1207 71.3527 57.0586 73.3839 56.3154C74.0016 56.0956 74.8183 55.9072 75.5826 55.813C78.5665 55.4361 80.5035 57.3412 80.8804 59.4243ZM77.4672 53.8241V44.2568L80.671 43.6916C83.2466 43.231 85.728 44.9372 86.1887 47.4913C86.4085 48.716 86.1258 49.9826 85.3929 51.0188C84.66 52.0551 83.5816 52.746 82.3357 52.9658L77.4672 53.8241Z" fill="black" fill-opacity="0.87"/>
</g>
<defs>
<clipPath id="clip0">
<rect width="88" height="120" fill="white"/>
</clipPath>
</defs>
</svg>
