<svg width="45" height="104" viewBox="0 0 45 104" fill="none" xmlns="http://www.w3.org/2000/svg">
<path d="M24.3315 63.8994C24.3315 60.4701 27.1182 57.6893 30.5547 57.6893C33.9913 57.6893 36.8173 60.4701 36.8173 63.8994V64.1942V64.7051H38.5799C41.8195 64.7051 44.4683 62.0619 44.4683 58.8291V6.40656C44.4683 3.17375 41.8195 0.530518 38.5799 0.530518H6.42014C3.18053 0.530518 0.531738 3.17375 0.531738 6.40656V58.8094C0.531738 62.0422 3.18053 64.6855 6.42014 64.6855H24.3315V63.8994Z" fill="white"/>
<path d="M35.4777 23.6416L34.7687 32.0135H31.7852L31.6768 31.8956C30.121 28.2108 26.5466 25.823 22.5488 25.823C18.423 25.823 14.9274 28.1518 13.4307 31.8956L13.411 31.925L13.3322 32.0036H10.2895L9.4624 23.5237H35.4876L35.4777 23.6416Z" fill="#CC1543"/>
<path d="M34.0305 39.5798L32.8981 51.4498C32.78 52.7075 31.6968 53.6901 30.4266 53.6901H14.6913C13.4408 53.6901 12.3281 52.7075 12.2198 51.4989L11.0283 39.3538H13.3325L13.4408 39.4717C14.9966 43.1565 18.571 45.5442 22.5688 45.5442C26.6946 45.5442 30.1902 43.2154 31.6968 39.4717L31.7165 39.4422L31.7953 39.3636H34.0502L34.0305 39.5798Z" fill="#CC1543"/>
<path d="M22.5491 48.1088C27.699 48.1088 31.874 43.9425 31.874 38.8034C31.874 33.6643 27.699 29.498 22.5491 29.498C17.3992 29.498 13.2241 33.6643 13.2241 38.8034C13.234 43.9425 17.409 48.1088 22.5491 48.1088Z" fill="#D6B294"/>
<path d="M11.0676 51.5872C11.2744 53.4345 12.8105 54.8299 14.6322 54.8299H30.3674C32.2087 54.8299 33.7744 53.4051 33.9319 51.5872L36.6398 23.5925H39.1507C39.4757 23.5925 39.7022 23.3665 39.7022 23.0423V19.8782C39.6529 17.9621 38.1267 16.4194 36.1869 16.4194H33.7842L33.6661 15.6333C33.4002 14.0513 32.13 12.8034 30.5742 12.5971L15.4888 10.4451C15.223 10.396 15.0162 10.396 14.7503 10.396H14.7011C13.933 10.4451 13.1847 10.7596 12.6136 11.2803C11.816 11.978 11.3532 12.9704 11.3532 14.0022V16.4686H8.86191C6.89255 16.4686 5.29736 18.0604 5.29736 20.0256V23.0324C5.29736 23.3567 5.52384 23.5827 5.84879 23.5827H8.36957V23.789L11.0676 51.5872ZM10.4276 33.1141H13.0468L12.9483 33.4088C12.7908 34.1556 12.6332 34.9516 12.6332 35.6885C12.6332 36.5237 12.7416 37.2804 12.9483 37.9682L13.0468 38.2531H10.9297L10.4276 33.1141ZM34.0206 39.5797L32.8882 51.4497C32.77 52.7074 31.6869 53.69 30.4166 53.69H14.6814C13.4308 53.69 12.3182 52.7074 12.2098 51.4988L11.0184 39.3438H13.3225L13.4308 39.4618C14.9866 43.1466 18.561 45.5343 22.5588 45.5343C26.6847 45.5343 30.1803 43.2055 31.6869 39.4618L31.7066 39.4323L31.7853 39.3537H34.0402L34.0206 39.5797ZM13.7755 35.6787C13.7755 30.854 17.7142 26.9236 22.549 26.9236C27.3838 26.9236 31.3225 30.854 31.3225 35.6787C31.3225 40.5033 27.3838 44.4338 22.549 44.4338C17.7142 44.4436 13.7755 40.5132 13.7755 35.6787ZM34.119 38.204H32.0118L32.1103 37.9092C32.2678 37.1624 32.4254 36.3665 32.4254 35.6296C32.4254 34.7845 32.3171 34.0377 32.1103 33.3499L32.0118 33.0649H34.6311L34.119 38.204ZM35.4779 23.6417L34.7689 32.0135H31.7853L31.677 31.8956C30.1212 28.2108 26.5468 25.8231 22.549 25.8231C18.4232 25.8231 14.9276 28.1519 13.4308 31.8956L13.4111 31.9251L13.3324 32.0037H10.2897L9.46257 23.5237H35.4877L35.4779 23.6417ZM12.4855 13.9629C12.4855 13.2652 12.7908 12.5872 13.3225 12.1156C13.7262 11.7717 14.2284 11.5555 14.7799 11.4965H15.2722L30.3772 13.6485C31.1847 13.7565 31.8838 14.2478 32.2875 14.9946L33.0063 16.3801H12.4855V13.9629ZM6.44944 22.4429V19.9765C6.44944 18.6401 7.58183 17.5101 8.921 17.5101H36.1869C37.526 17.5101 38.6584 18.6401 38.6584 19.9765V22.4429H6.44944Z" fill="black"/>
<path d="M18.876 36.0716C18.7184 37.0739 18.9843 37.9975 19.6046 38.6166C20.1167 39.1276 20.7764 39.3929 21.5248 39.3929C21.7414 39.3929 21.8891 39.3929 22.0959 39.3437C23.0313 39.1865 23.9865 38.6657 24.7447 37.9189C25.493 37.1623 26.0149 36.2092 26.1725 35.2855C26.3792 34.2636 26.1429 33.3793 25.5029 32.7406C24.9908 32.2296 24.3213 31.9741 23.5335 31.9741C23.3464 31.9741 23.1495 31.9938 22.9526 32.0233C21.958 32.1903 21.0226 32.6914 20.3136 33.448C19.5554 34.1948 19.0335 35.148 18.876 36.0716Z" fill="black"/>
<path d="M21.1509 34.2833C20.3927 35.0399 20.0186 36.0028 20.0186 36.7595L20.0678 36.7103C20.3337 36.3861 20.5503 36.1208 20.8752 35.8456C21.2494 35.5214 21.7417 35.2561 22.2735 35.089C22.9234 34.8728 23.4551 34.4994 23.9967 33.8018C24.0459 33.7527 24.0459 33.6937 24.105 33.5856C24.1542 33.4775 24.2133 33.3694 24.2625 33.3203C24.0459 33.2122 23.78 33.1631 23.4551 33.1631C23.3468 33.1631 23.1892 33.1631 23.0809 33.2122C22.4507 33.3203 21.7417 33.6937 21.1509 34.2833Z" fill="white"/>
<path d="M25.0896 34.6077C25.0305 34.6077 25.0305 34.6077 25.0896 34.6077C24.3314 35.5805 23.583 36.1111 22.6673 36.3862C22.2931 36.4943 22.0174 36.6515 21.7515 36.8677C21.4857 37.0839 21.3183 37.3 21.0524 37.6243C21.0032 37.6734 20.9441 37.7815 20.8949 37.8405C20.8456 37.9486 20.7865 37.9977 20.7373 38.1058C21.0622 38.263 21.4364 38.322 21.9189 38.263C22.618 38.1549 23.3172 37.7815 23.908 37.1919C24.7056 36.3272 25.0896 35.3643 25.0896 34.6077Z" fill="white"/>
<path d="M45 58.8292V6.40665C45 2.86924 42.1247 0 38.5799 0H6.42013C2.87527 0 0 2.86924 0 6.40665V58.8095C0 61.8458 2.12691 64.3908 4.97265 65.0491C3.14114 67.6531 1.17177 72.4581 1.17177 76.0151L1.18162 76.192V76.2215C1.16193 76.2706 1.16193 76.3099 1.17177 76.3492V76.359L5.55361 104H6.77462L2.41247 76.0937L2.43217 75.9758C2.43217 72.4777 4.32276 67.7218 6.29212 65.2064C6.34136 65.2064 6.38074 65.2162 6.42998 65.2162H23.7899V70.7778C20.3337 71.2986 17.6849 74.2661 17.6849 77.8624C17.6849 81.8224 20.9048 85.0355 24.8731 85.0355V83.935V71.7997V70.6992V65V63.9191C24.8731 60.7846 27.4234 58.2396 30.5646 58.2396C33.7254 58.2396 36.2954 60.7846 36.2954 63.9191V65.2457V104H37.3786V83.3454V78.4913C41.14 78.0197 44.0547 74.8262 44.0547 70.935C44.0547 68.3999 42.8042 66.1791 40.8939 64.7937C43.2866 63.87 45 61.5412 45 58.8292ZM23.7801 83.8269C20.9442 83.3159 18.7877 80.8398 18.7877 77.8624C18.7877 74.8851 20.9442 72.4089 23.7801 71.898V83.8269ZM42.9125 70.935C42.9125 74.1875 40.5098 76.8798 37.3786 77.3417V77.2925V65.4815V65.2358H38.5799C38.8457 65.2358 39.1116 65.2162 39.3775 65.1769C41.4748 66.2479 42.9125 68.4195 42.9125 70.935ZM39.6827 64.0567C39.3282 64.1353 38.954 64.1746 38.5799 64.1746H37.3786H37.349V63.8995C37.349 60.1852 34.2965 57.1587 30.5547 57.1587C26.8326 57.1587 23.7998 60.1852 23.7998 63.8995V64.155H6.42013C3.46608 64.155 1.06346 61.7574 1.06346 58.8095V6.40665C1.06346 3.45881 3.46608 1.06122 6.42013 1.06122H38.5799C41.5339 1.06122 43.9365 3.45881 43.9365 6.40665V58.8292C43.9365 61.4036 42.105 63.5556 39.6827 64.0567Z" fill="black"/>
</svg>
