<svg width="80" height="109" viewBox="0 0 80 109" fill="none" xmlns="http://www.w3.org/2000/svg">
<path d="M79.9058 42.8282C79.3458 39.6391 76.2458 37.5097 73.0258 38.0795L70.4058 38.5494V6.98808C70.4058 3.13914 67.2358 0 63.3558 0H22.6758C18.7858 0 15.6258 3.12914 15.6258 6.98808V42.2384L15.5258 42.3284C10.0558 47.397 6.29577 55.4048 4.40577 60.1834C4.39577 60.2034 4.37577 60.2134 4.36577 60.2334C2.39577 64.9321 1.25577 69.111 0.875774 71.9202C-0.374226 78.1285 -0.0642261 81.6375 0.445774 85.1566L0.605774 86.2063C0.945774 88.4957 1.29577 90.865 1.29577 94.1441C1.29577 95.4337 1.24577 96.7134 1.15577 97.9131L0.345774 108.09C0.315774 108.31 0.395774 108.52 0.555774 108.69C0.695774 108.86 0.925774 108.95 1.14577 108.95C1.56577 108.96 1.90577 108.65 1.94577 108.24L2.75577 98.053C2.86577 96.7334 2.91577 95.4137 2.91577 94.1441C2.91577 90.955 2.61577 87.7458 1.99577 84.6267C1.04577 79.788 2.01577 73.8897 2.99577 69.7908C3.54577 66.3817 4.48577 64.2223 5.58577 61.5231C5.59577 61.5031 5.61577 61.4831 5.62577 61.4631C8.14577 54.8749 11.5858 48.8865 15.0858 45.0276L15.6258 44.4378V50.966L12.6758 53.3953C12.5058 53.5253 12.4058 53.7252 12.3758 53.9352C12.3458 54.1451 12.4258 54.355 12.5558 54.495C12.8458 54.8349 13.3558 54.8849 13.6958 54.605L16.3158 52.4456C17.0858 51.8057 17.7558 51.2659 20.8358 48.7266C21.7558 47.9768 22.8758 47.5169 24.0858 47.417C26.1658 47.237 34.7258 46.4972 35.1658 46.4472C35.5458 46.4072 35.9158 46.5472 36.1958 46.7971C36.4658 47.0571 36.6258 47.4269 36.6058 47.8068C36.5458 48.9765 36.3058 50.0262 35.8858 50.966L35.8558 51.046C35.1058 52.6055 33.5458 54.7449 28.8058 55.1448C27.6558 55.2348 26.5658 55.7946 25.8358 56.6744L22.4958 60.7133C21.4758 61.943 21.2358 63.6125 21.8658 65.0621C23.2758 68.3412 24.0358 72.77 23.9358 77.2188C23.8958 81.6475 21.1958 88.7756 19.3958 92.4745C19.2958 92.6745 19.2958 92.8944 19.3558 93.0844C19.4358 93.2843 19.5658 93.4443 19.7658 93.5343C20.1758 93.7342 20.6558 93.5643 20.8558 93.1644C20.9058 93.0744 21.2058 92.4446 21.6458 91.4248L21.7258 91.2449H47.6458L47.3558 91.7148C47.2258 91.9347 47.0858 92.1646 46.9258 92.3846C45.5458 94.364 43.4958 95.9636 41.3258 96.7934C38.8658 97.7331 37.2758 100.072 37.2758 102.752C37.2758 102.842 37.3058 104.191 37.3258 105.541C37.3558 106.841 37.3758 108.15 37.3758 108.23C37.3858 108.65 37.7458 109 38.1858 109C38.4058 109 38.6158 108.91 38.7658 108.75C38.9058 108.59 39.0058 108.39 38.9858 108.19C38.9858 108.11 38.8858 102.792 38.8858 102.792C38.8858 100.732 40.0658 98.9628 41.8958 98.283C44.3858 97.3432 46.6458 95.5737 48.2458 93.3143C48.6758 92.6945 49.0458 92.0747 49.3358 91.4648L49.4258 91.2949H63.4158C67.3058 91.2949 70.4658 88.1657 70.4658 84.3068V81.2576L70.7258 81.2176C70.8858 81.1877 71.0758 81.1577 71.3058 81.1077C72.9258 80.8178 74.3058 79.968 75.1758 78.7083C76.0158 77.4987 76.3458 75.9791 76.0758 74.5395C75.7558 72.73 74.8458 71.2504 73.4958 70.3406L73.1458 70.0907L73.4858 69.8308C75.2558 68.5211 76.0158 66.3417 75.5858 63.8724C75.2958 62.3528 74.3958 60.9932 73.0958 60.1534L72.7058 59.8935L73.0558 59.6336C74.8458 58.314 75.6058 56.1345 75.1558 53.6752C74.9358 52.4456 74.3058 51.3459 73.3458 50.4861L72.8758 50.0662L75.1558 49.6563C78.3358 49.0765 80.4658 46.0173 79.9058 42.8282ZM17.2258 6.98808C17.2258 4.01889 19.6658 1.58956 22.6558 1.58956H63.3658C66.3658 1.58956 68.8058 4.0089 68.8058 6.98808V13.2164H17.2258V6.98808ZM23.3158 64.4323C22.9258 63.5425 23.0758 62.4628 23.7058 61.703L27.0458 57.6641C27.5158 57.1143 28.1858 56.7744 28.9058 56.7044C33.2658 56.4045 35.4658 54.505 36.5558 52.9754L37.6058 50.956C37.9358 50.0462 38.1458 49.0065 38.1958 47.8768C38.2358 47.0371 37.9058 46.2373 37.3058 45.6474C36.6858 45.0676 35.8558 44.7777 35.0358 44.8477L28.8658 45.3775C27.8658 45.4675 26.3658 45.5975 23.9558 45.8074C22.4358 45.9274 21.0058 46.5172 19.8258 47.4869L17.2458 49.6063V14.7859H68.8258V49.0765L68.5558 49.1065C67.9558 49.1665 67.2958 49.3064 66.7058 49.4764C63.4258 50.4361 62.1458 53.4353 62.5958 55.8946C62.8958 57.6741 63.8258 59.1937 65.1658 60.0935L65.5158 60.3434L65.1758 60.6033C63.4758 61.873 62.6758 63.9524 63.0158 66.1618C63.3158 67.9413 64.2958 69.4909 65.7158 70.3706L66.0858 70.6106L65.7458 70.8805C64.1458 72.1401 63.2658 74.1396 63.4158 76.149L63.4458 76.479H25.5158V76.179C25.4858 73.0699 25.0758 68.5311 23.3158 64.4323ZM63.3558 89.6553H22.3558L22.5258 89.2354C24.2658 84.8267 25.2658 81.1677 25.4758 78.3184L25.5058 78.0285H63.8958L63.9858 78.1985C64.8458 79.938 66.5958 81.1377 68.5458 81.3176L68.8358 81.3476L68.8458 84.2568C68.7958 87.236 66.3458 89.6453 63.3558 89.6553ZM74.4358 74.7694C74.6358 75.8491 74.3958 76.9188 73.7858 77.7886C73.1558 78.6783 72.1458 79.2982 70.9658 79.5081C70.1458 79.6581 69.6658 79.7481 69.5158 79.758C69.3558 79.768 69.2158 79.778 69.0458 79.778C67.1558 79.778 65.4858 78.4784 65.0758 76.5889C64.8158 75.4192 65.0458 74.1696 65.7258 73.1699C66.4258 72.1202 67.4858 71.4403 68.7258 71.2204C68.9658 71.1804 68.9658 71.1804 69.2358 71.1304L70.1658 71.0005C71.9058 70.9605 73.9358 71.9002 74.4358 74.7694ZM73.9358 64.1224C74.4558 67.2015 72.7058 68.931 70.7158 69.2909L70.3658 69.3609C69.9858 69.4409 69.9858 69.4409 69.3158 69.5209L68.8058 69.6008C68.7558 69.6008 68.7058 69.6008 68.6658 69.6008C66.5258 69.6008 64.9758 68.1612 64.5658 65.8219C64.3658 64.7622 64.6058 63.7025 65.2158 62.8227C65.8458 61.933 66.7758 61.3231 67.8558 61.1432L68.1758 61.0832C68.5858 61.0032 68.5858 61.0032 69.1558 60.9432L69.7558 60.8533C71.7958 60.7633 73.5858 62.1629 73.9358 64.1224ZM73.5258 53.9651C73.7858 55.3148 73.5758 56.5344 72.9058 57.4942C72.3158 58.3539 71.3958 58.9338 70.2958 59.1137C69.5758 59.2437 68.6158 59.4036 68.1858 59.4036C68.1758 59.4036 68.1558 59.4036 68.1458 59.4036C66.0058 59.3237 64.6258 58.024 64.1258 55.6247C63.7858 53.6952 64.8558 51.8257 66.7058 51.1459C67.2658 50.946 68.0058 50.776 68.7058 50.6861C71.4158 50.3361 73.1758 52.0657 73.5258 53.9651ZM70.4158 48.8765V40.1889L73.3258 39.6791C75.6658 39.2592 77.9258 40.8088 78.3458 43.1281C78.5458 44.2378 78.2858 45.3875 77.6258 46.3273C76.9558 47.267 75.9758 47.8968 74.8458 48.0968L70.4158 48.8765Z" fill="black" fill-opacity="0.87"/>
</svg>
