<svg width="48" height="48" viewBox="0 0 48 48" fill="none" xmlns="http://www.w3.org/2000/svg">
<path d="M41.0573 7.82999C41.0573 7.82999 41.0528 7.83914 41.039 7.85286C40.6136 8.39727 32.1775 19.0568 20.7494 31.7887L20.6854 31.8573L20.6122 31.8024C20.5801 31.7795 20.5435 31.7521 20.4978 31.7201C20.1913 31.5096 19.6194 31.1162 19.5188 30.2286C19.4913 30.0136 19.3083 29.8489 19.0933 29.8489C18.9698 29.8489 18.8554 29.8992 18.7731 29.9907C18.6953 30.0777 18.6587 30.192 18.6633 30.3064L18.6678 30.3293C18.7639 31.1665 19.2168 31.903 19.9076 32.3514C19.9488 32.3788 19.9854 32.4017 20.0266 32.4337L20.1181 32.4978L19.7475 32.9232C19.505 33.2023 19.2763 33.4631 19.0247 33.7376C18.9469 33.8245 18.9057 33.9434 18.9149 34.0578C18.924 34.1768 18.9789 34.282 19.0704 34.3598C19.9671 35.0917 20.4841 36.1714 20.4841 37.3243C20.4841 39.4242 18.7731 41.1306 16.6732 41.1352C14.5687 41.1306 12.8623 39.4242 12.8623 37.3243C12.8623 36.3132 13.2374 35.4074 13.9694 34.6343C13.9969 34.6068 14.0198 34.5839 14.0243 34.5748L15.6072 32.9873C16.4536 32.1409 16.9248 31.0064 16.9248 29.7986C16.9248 28.9248 16.6778 28.083 16.202 27.3602L16.1562 27.287L16.5405 26.9347C16.8242 26.6694 17.0987 26.4178 17.4006 26.1478L17.4189 26.1295C28.7783 16.0007 39.8907 7.098 40.1698 6.93788L40.8286 6.55817L40.028 7.35877C35.2198 12.1716 19.5142 27.868 19.3678 28.0281C19.2946 28.115 19.2534 28.2248 19.2626 28.3392C19.2717 28.4536 19.322 28.5588 19.4044 28.632C19.4913 28.7098 19.6057 28.7509 19.7155 28.7372C19.8299 28.7327 19.9351 28.6823 20.0129 28.5954C20.0678 28.5359 32.9278 15.6759 40.5907 8.01298L41.4233 7.18035L41.0573 7.82999Z" fill="white"/>
<path d="M41.556 6.44376L41.6292 6.37057L41.556 6.44376C41.2724 6.16012 40.8835 6 40.4901 6C40.147 6 39.813 6.11895 39.5477 6.32939C35.7139 9.38999 31.8527 12.565 28.0647 15.7628C27.1497 16.536 26.2302 17.3183 25.3152 18.1006L25.242 18.1601L25.1779 18.096L14.706 7.62409C13.7133 6.62676 12.0938 6.62676 11.101 7.62409L6.12811 12.597C5.95884 12.7663 5.95884 13.0362 6.12811 13.2054C6.21046 13.2878 6.31568 13.3335 6.43005 13.3335C6.54443 13.3335 6.65422 13.2878 6.732 13.21L10.2775 9.66449L11.1788 10.5657L11.1056 10.6389L7.63325 14.1113C7.5509 14.1936 7.50515 14.2988 7.50515 14.4132C7.50515 14.5276 7.5509 14.6374 7.63325 14.7152C7.79337 14.8799 8.07701 14.8799 8.24171 14.7152L11.7827 11.1696L12.6839 12.0709L12.6107 12.1441L9.13839 15.6164C9.05604 15.6988 9.01029 15.804 9.01029 15.9184C9.01029 16.0327 9.05604 16.1425 9.13839 16.2203C9.29851 16.385 9.58215 16.385 9.74685 16.2203L13.2878 12.6748L14.1891 13.576L14.1159 13.6492L10.6435 17.1216C10.5612 17.2039 10.5154 17.3091 10.5154 17.4235C10.5154 17.5379 10.5612 17.6477 10.6435 17.7254C10.8036 17.8901 11.0873 17.8856 11.252 17.7254L14.7975 14.1845L15.6988 15.0857L15.6256 15.1589L12.1532 18.6313C12.0709 18.7136 12.0251 18.8188 12.0251 18.9332C12.0251 19.0476 12.0709 19.1528 12.1532 19.2352C12.3134 19.3998 12.6016 19.3953 12.7617 19.2352L16.3072 15.6942L17.2085 16.5954L17.1353 16.6686L13.663 20.141C13.4937 20.3102 13.4937 20.5802 13.663 20.7494C13.8231 20.9141 14.1067 20.9141 14.2714 20.7494L17.8169 17.2085L18.7182 18.1097L18.645 18.1829L15.1727 21.6553C15.0034 21.8245 15.0034 22.0945 15.1727 22.2637C15.3328 22.4284 15.6164 22.4238 15.7811 22.2637L19.3267 18.7182L20.2279 19.6194L20.1547 19.6926L16.6824 23.165C16.5131 23.3297 16.5131 23.6042 16.6824 23.7734C16.8471 23.9336 17.1261 23.9336 17.2908 23.7734L20.8364 20.2279L21.7697 21.1612L21.6873 21.2344C20.0586 22.6526 18.4346 24.08 16.8699 25.4753L16.8379 25.5073C16.5772 25.7406 16.3027 25.9923 16.019 26.253C15.7903 26.4635 15.5615 26.6739 15.3328 26.8798C15.1864 26.985 15.1498 27.1131 15.1406 27.2046C15.1315 27.3236 15.1681 27.4242 15.2138 27.4882L15.2687 27.5523C15.7811 28.1836 16.0602 28.9842 16.0602 29.8123C16.0602 30.7913 15.6805 31.7109 14.9988 32.3971C14.9668 32.4291 13.4296 33.9663 13.4022 33.9937C12.2996 35.1237 10.6984 35.4531 9.22988 34.8538C7.7705 34.2591 6.86009 32.9095 6.86009 31.3312C6.86009 29.2313 8.5711 27.5248 10.671 27.5248C11.8284 27.5248 12.9127 28.0418 13.6355 28.9385C13.7133 29.03 13.8185 29.0895 13.9374 29.094C14.0564 29.0986 14.1708 29.062 14.2577 28.9842C14.3675 28.8836 14.4178 28.7601 14.4132 28.632C14.4041 28.4993 14.34 28.3849 14.2348 28.3072C13.329 27.2595 12.0389 26.6648 10.6755 26.6648C9.42203 26.6648 8.25086 27.1497 7.36791 28.0327C6.48495 28.9156 6.00001 30.0868 6.00001 31.3312C5.99544 33.2435 7.13916 34.9407 8.90964 35.659C9.92527 36.0707 11.0553 36.1119 12.0938 35.7779L12.2813 35.7185L12.2264 35.8923C11.7644 37.3288 12.0068 38.8523 12.8989 40.0738C13.7865 41.2953 15.1635 41.9952 16.6687 41.9952C17.9222 41.9952 19.0979 41.5103 19.9809 40.6227C20.8593 39.7398 21.3442 38.5686 21.3442 37.3243C21.3442 36.0982 20.873 34.9362 20.0129 34.0578L19.9488 33.9892L20.0129 33.9205C20.0266 33.9068 21.0971 32.6899 21.0971 32.6899C22.9957 30.5763 24.9035 28.4215 26.7654 26.2896L26.8386 26.2073L27.7856 27.1543L24.2447 30.6998C24.1623 30.7822 24.1166 30.8874 24.1166 31.0018C24.1166 31.1161 24.1623 31.2259 24.2401 31.3037C24.4048 31.4684 24.6884 31.4684 24.8486 31.3037L28.3941 27.7627L29.2953 28.664L29.2221 28.7372L25.7498 32.2095C25.6675 32.2919 25.6217 32.3971 25.6217 32.5115C25.6217 32.6258 25.6675 32.7356 25.7498 32.8134C25.9099 32.9781 26.1936 32.9781 26.3583 32.8134L29.8992 29.2679L30.8005 30.1691L30.7273 30.2423L27.2549 33.7147C27.1726 33.797 27.1268 33.9022 27.1268 34.0166C27.1268 34.131 27.1726 34.2408 27.2549 34.3186C27.4151 34.4833 27.7033 34.4833 27.8634 34.3186L31.4089 30.7776L32.3102 31.6788L32.237 31.752L28.7647 35.2244C28.5954 35.3937 28.5954 35.6636 28.7647 35.8328C28.9248 35.993 29.2084 35.9975 29.3731 35.8328L32.9187 32.2919L33.8199 33.1931L33.7467 33.2663L30.2744 36.7387C30.1051 36.9079 30.1051 37.1779 30.2744 37.3471C30.4391 37.5073 30.7181 37.5073 30.8828 37.3471L34.4284 33.8062L35.3296 34.7074L35.2564 34.7806L31.7795 38.2438C31.6102 38.4131 31.6102 38.683 31.7795 38.8523C31.9396 39.017 32.2233 39.017 32.388 38.8523L35.9289 35.3113L36.8302 36.2126L36.757 36.2858L33.2846 39.7581C33.2023 39.8404 33.1565 39.9457 33.1565 40.06C33.1565 40.1744 33.2023 40.2842 33.2801 40.362C33.4448 40.5267 33.7238 40.5267 33.8885 40.362L37.4295 36.821L38.3307 37.7223L38.2575 37.7955L34.7852 41.2678C34.7029 41.3502 34.6571 41.4554 34.6571 41.5698C34.6571 41.6841 34.7029 41.7939 34.7806 41.8717C34.9453 42.0364 35.229 42.0364 35.3891 41.8717L40.3757 36.8988C40.8561 36.4184 41.1214 35.7779 41.1214 35.0963C41.1214 34.4146 40.8561 33.7741 40.3757 33.2938L29.8306 22.7441L29.8901 22.6709C33.9617 17.9222 37.9236 13.1368 41.6704 8.44757C42.1508 7.84825 42.1005 6.9836 41.556 6.44376ZM10.886 9.05145L11.7049 8.23255C12.3637 7.57376 13.4388 7.57376 14.0976 8.23255L24.5878 18.7228L24.5054 18.796C23.8329 19.3724 23.165 19.9534 22.4925 20.5344L22.4193 20.5939L22.3507 20.5298L10.886 9.05145ZM39.7673 33.8977C40.0875 34.2179 40.2613 34.6434 40.2613 35.0917C40.2613 35.5446 40.0875 35.9701 39.7673 36.2903L38.9438 37.1092L38.8706 37.036C38.5183 36.6838 28.2111 26.3766 27.4608 25.6263L27.3968 25.5576L27.4562 25.4844C28.0372 24.8165 28.6183 24.144 29.1947 23.4761L29.2679 23.3937L29.3457 23.4715L39.7673 33.8977ZM41.0574 7.82996C41.0574 7.82996 41.0528 7.83911 41.0391 7.85283C40.6136 8.39724 32.1775 19.0567 20.7495 31.7886L20.6854 31.8573L20.6122 31.8024C20.5802 31.7795 20.5436 31.752 20.4978 31.72C20.1913 31.5096 19.6195 31.1161 19.5188 30.2286C19.4914 30.0136 19.3084 29.8489 19.0933 29.8489C18.9698 29.8489 18.8554 29.8992 18.7731 29.9907C18.6953 30.0776 18.6587 30.192 18.6633 30.3064L18.6679 30.3293C18.764 31.1665 19.2169 31.903 19.9077 32.3514C19.9488 32.3788 19.9854 32.4017 20.0266 32.4337L20.1181 32.4978L19.7476 32.9232C19.5051 33.2023 19.2763 33.4631 19.0247 33.7375C18.9469 33.8245 18.9058 33.9434 18.9149 34.0578C18.9241 34.1767 18.979 34.282 19.0705 34.3597C19.9671 35.0917 20.4841 36.1714 20.4841 37.3243C20.4841 39.4241 18.7731 41.1306 16.6732 41.1351C14.5688 41.1306 12.8623 39.4241 12.8623 37.3243C12.8623 36.3132 13.2375 35.4074 13.9695 34.6342C13.9969 34.6068 14.0198 34.5839 14.0244 34.5748L15.6073 32.9873C16.4536 32.1409 16.9248 31.0063 16.9248 29.7986C16.9248 28.9248 16.6778 28.083 16.202 27.3602L16.1563 27.287L16.5406 26.9347C16.8242 26.6693 17.0987 26.4177 17.4006 26.1478L17.4189 26.1295C28.7784 16.0007 39.8908 7.09797 40.1698 6.93785L40.8286 6.55814L40.028 7.35874C35.2198 12.1715 19.5142 27.868 19.3678 28.0281C19.2946 28.115 19.2535 28.2248 19.2626 28.3392C19.2718 28.4536 19.3221 28.5588 19.4044 28.632C19.4914 28.7097 19.6057 28.7509 19.7155 28.7372C19.8299 28.7326 19.9351 28.6823 20.0129 28.5954C20.0678 28.5359 32.9278 15.6759 40.5907 8.01295L41.4234 7.18032L41.0574 7.82996Z" fill="black" fill-opacity="0.87"/>
<path d="M12.4782 29.5195C11.9841 29.0254 11.3527 28.7692 10.6985 28.7692C10.3691 28.7692 10.0306 28.8333 9.70578 28.9705C8.73133 29.3731 8.12744 30.2744 8.12744 31.322C8.12744 32.0037 8.39278 32.6442 8.87315 33.1245C9.35351 33.6049 9.994 33.8702 10.6757 33.8702C11.3573 33.8702 11.9978 33.6049 12.4782 33.1245C12.9585 32.6442 13.2239 32.0037 13.2239 31.322C13.2284 30.6404 12.9585 29.9999 12.4782 29.5195ZM11.8697 32.5161C11.5495 32.8363 11.124 33.0101 10.6757 33.0101C10.2227 33.0101 9.79728 32.8363 9.48161 32.5161C8.9921 32.0265 8.85027 31.3174 9.12019 30.6724C9.38554 30.0273 9.98485 29.6293 10.6802 29.6293C11.3756 29.6293 11.9749 30.0273 12.2403 30.6724C12.501 31.3174 12.3638 32.0265 11.8697 32.5161Z" fill="black" fill-opacity="0.87"/>
<path d="M14.8709 39.1314C15.3558 39.6163 15.9872 39.8816 16.6505 39.8816C16.9891 39.8816 17.323 39.813 17.6433 39.6803C18.6177 39.2778 19.2216 38.3765 19.2216 37.3289C19.2216 35.9244 18.0779 34.7806 16.6734 34.7806C15.6258 34.7806 14.7245 35.3845 14.3219 36.3498C13.9193 37.3243 14.1298 38.3902 14.8709 39.1314ZM15.1179 36.6792C15.3284 36.176 15.8453 35.6361 16.6734 35.6361C17.6067 35.6361 18.3661 36.3956 18.3661 37.3289C18.3661 38.1569 17.8263 38.6784 17.3185 38.8889C17.1263 38.9712 16.8976 39.0216 16.6551 39.0216C16.2662 39.0216 15.8408 38.8889 15.4794 38.5275C14.8892 37.9373 14.9075 37.1825 15.1179 36.6792Z" fill="black" fill-opacity="0.87"/>
<path d="M10.8862 9.05146L11.7051 8.23255C12.3639 7.57377 13.439 7.57377 14.0978 8.23255L24.588 18.7228L24.5057 18.796C23.8332 19.3724 23.1652 19.9534 22.4927 20.5344L22.4195 20.5939L22.3509 20.5299L10.8862 9.05146Z" fill="#CC1543"/>
<path d="M39.7675 33.8977C40.0877 34.2179 40.2616 34.6434 40.2616 35.0917C40.2616 35.5446 40.0877 35.9701 39.7675 36.2903L38.944 37.1093L38.8708 37.0361C38.5185 36.6838 28.2113 26.3766 27.461 25.6263L27.397 25.5577L27.4564 25.4845C28.0375 24.8165 28.6185 24.144 29.1949 23.4761L29.2681 23.3937L29.3459 23.4715L39.7675 33.8977Z" fill="#CC1543"/>
</svg>
