<svg width="48" height="48" viewBox="0 0 48 48" fill="none" xmlns="http://www.w3.org/2000/svg">
<path d="M11.699 20.5506L11.6862 20.5548L9.65787 21.0725C7.43429 21.6369 6 23.4277 6 25.6258V29.4025C6 30.6161 6.86567 31.6642 8.05808 31.8934L8.14295 31.9104L8.15144 31.9952C8.38907 34.083 10.1501 35.6573 12.2549 35.6573C14.3299 35.6573 16.0952 34.1042 16.3541 32.0419L16.3626 31.9401H30.3278L30.3405 32.0419C30.5994 34.1042 32.3604 35.6573 34.4355 35.6573C36.5105 35.6573 38.2758 34.1042 38.5347 32.0419L38.5474 31.9401H39.4598C40.8601 31.9401 41.9973 30.8028 41.9973 29.4025V28.3586C41.9973 27.896 41.8064 27.4462 41.4796 27.1195C41.3141 26.954 41.2208 26.7164 41.2208 26.4575L41.2335 23.8096L41.8743 22.422C42.0695 21.9976 42.0355 21.5139 41.7852 21.1192C41.5306 20.7246 41.1062 20.4912 40.6394 20.4912H38.3564L38.3225 20.4445L33.3916 13.8671C32.5174 12.7002 31.1213 12 29.6616 12H19.3627C17.712 12 16.1674 12.8869 15.3356 14.3127L11.699 20.5506ZM6.86991 25.0784C7.06087 23.7544 7.94351 22.6087 9.1826 22.091L9.34385 22.0231V23.4998C9.34385 24.4419 8.58003 25.2057 7.63798 25.2057H6.85294L6.86991 25.0784ZM12.2506 34.8256C10.4302 34.8256 8.94921 33.3447 8.94921 31.5242C8.94921 29.7038 10.4302 28.2228 12.2506 28.2228C14.0711 28.2228 15.552 29.7038 15.552 31.5242C15.552 33.3447 14.0711 34.8256 12.2506 34.8256ZM34.4397 34.8256C32.6193 34.8256 31.1383 33.3447 31.1383 31.5242C31.1383 29.7038 32.6193 28.2228 34.4397 28.2228C36.2602 28.2228 37.7411 29.7038 37.7411 31.5242C37.7411 33.3447 36.2602 34.8256 34.4397 34.8256ZM19.3627 12.8317H29.6616C30.8625 12.8317 32.0082 13.4046 32.7254 14.3636L37.8218 21.1574C37.9024 21.2635 38.0255 21.3229 38.157 21.3229H40.6437C40.8219 21.3229 40.9874 21.412 41.085 21.5648C41.1826 21.7175 41.1953 21.9043 41.1189 22.0698L40.8686 22.6129H38.6832C38.454 22.6129 38.2673 22.7996 38.2673 23.0288V25.1505C38.2673 25.3797 38.454 25.5664 38.6832 25.5664H40.3891V26.4533C40.3891 26.9285 40.5758 27.3868 40.8983 27.7051C41.0723 27.8748 41.1699 28.1125 41.1699 28.3543V29.3982C41.1699 30.3403 40.4018 31.1041 39.464 31.1041H38.5517L38.5389 31.0023C38.2801 28.9399 36.519 27.3868 34.4397 27.3868C32.3604 27.3868 30.5994 28.9399 30.3448 31.0023L30.332 31.1041H16.3626L16.3498 31.0023C16.091 28.9399 14.3299 27.3868 12.2506 27.3868C10.2095 27.3868 8.45273 28.9102 8.16417 30.9259L8.14295 31.0617L8.0114 31.0192C7.30274 30.7901 6.82748 30.1366 6.82748 29.394V26.0332H7.63374C9.03408 26.0332 10.1713 24.8959 10.1713 23.4956V21.7897L10.1968 21.7854L12.0682 21.3102C12.1785 21.2805 12.2676 21.2126 12.327 21.115L16.0528 14.7286C16.736 13.5616 18.0048 12.8317 19.3627 12.8317ZM40.3933 23.4489V24.7431H39.0991V23.4489H40.3933Z" fill="black" fill-opacity="0.87"/>
<path d="M38.1909 26.5254C37.1004 25.7022 35.8019 25.2693 34.4397 25.2693C33.1582 25.2693 31.9276 25.6555 30.8752 26.3854C29.8483 27.0983 29.0675 28.0913 28.6177 29.2455C28.5752 29.3516 28.5795 29.4619 28.6219 29.5637C28.6644 29.6656 28.7492 29.742 28.8511 29.7844C28.9572 29.8268 29.0675 29.8226 29.1693 29.7759C29.2712 29.7292 29.3518 29.6486 29.39 29.5468C30.2005 27.4802 32.2289 26.0968 34.4397 26.0968C35.6236 26.0968 36.7482 26.4745 37.6945 27.1832C37.7836 27.251 37.8939 27.2808 38.0042 27.2638C38.1146 27.2468 38.2079 27.1916 38.2758 27.1025C38.4116 26.9243 38.3734 26.6612 38.1909 26.5254Z" fill="black" fill-opacity="0.87"/>
<path d="M23.3559 14.5376C23.3559 14.3085 23.1692 14.1218 22.9401 14.1218H19.3628C18.4632 14.1218 17.623 14.6055 17.1689 15.3821L13.4856 21.6964C13.4304 21.794 13.4135 21.9043 13.4432 22.0104C13.4729 22.1165 13.5408 22.2098 13.6384 22.265C13.8251 22.3753 14.0924 22.3074 14.207 22.1165L14.6653 21.3272H22.52V29.4025C22.52 29.6316 22.7067 29.8184 22.9358 29.8184C23.165 29.8184 23.3517 29.6316 23.3517 29.4025V14.5376H23.3559ZM22.5242 20.4955H15.1533L15.183 20.4488L17.8903 15.8064C18.1959 15.2845 18.7602 14.9577 19.3628 14.9577H22.5242V20.4955Z" fill="black" fill-opacity="0.87"/>
<path d="M27.1836 21.3271H32.3182C33.4257 21.3271 34.3254 20.4275 34.3254 19.32C34.3254 18.8871 34.1811 18.4586 33.9222 18.1148L31.6944 15.1402C31.2191 14.5036 30.4596 14.126 29.6618 14.126H25.0619C24.8327 14.126 24.646 14.3127 24.646 14.5418V21.9085C24.646 22.1376 24.8327 22.3244 25.0619 22.3244C25.291 22.3244 25.4777 22.1376 25.4777 21.9085V14.9535H29.6618C30.1965 14.9535 30.7057 15.2081 31.0282 15.6367L33.256 18.6113C33.4088 18.815 33.4936 19.0654 33.4936 19.3157C33.4936 19.965 32.9632 20.4912 32.3182 20.4912H27.1836C26.9544 20.4912 26.7677 20.6779 26.7677 20.907C26.7677 21.1362 26.9544 21.3271 27.1836 21.3271Z" fill="black" fill-opacity="0.87"/>
<path d="M20.8184 22.6172H18.6966C18.4675 22.6172 18.2808 22.8039 18.2808 23.033C18.2808 23.2622 18.4675 23.4489 18.6966 23.4489H20.8184C21.0475 23.4489 21.2342 23.2622 21.2342 23.033C21.23 22.8039 21.0475 22.6172 20.8184 22.6172Z" fill="black" fill-opacity="0.87"/>
<path d="M29.3096 22.6172H27.1878C26.9587 22.6172 26.772 22.8039 26.772 23.033C26.772 23.2622 26.9587 23.4489 27.1878 23.4489H29.3096C29.5387 23.4489 29.7254 23.2622 29.7254 23.033C29.7254 22.8039 29.5387 22.6172 29.3096 22.6172Z" fill="black" fill-opacity="0.87"/>
<path d="M34.355 35.8907C31.9489 35.8907 29.9927 33.9345 29.9927 31.5242C29.9927 29.1139 31.9489 27.1577 34.355 27.1577C36.761 27.1577 38.7215 29.1139 38.7215 31.5242C38.7215 33.9345 36.761 35.8907 34.355 35.8907ZM34.355 28.0615C32.4454 28.0615 30.8923 29.6146 30.8923 31.5242C30.8923 33.4337 32.4454 34.9869 34.355 34.9869C36.2645 34.9869 37.8176 33.4337 37.8176 31.5242C37.8176 29.6146 36.2645 28.0615 34.355 28.0615Z" fill="black" fill-opacity="0.87"/>
<path d="M12.2505 35.8907C9.84442 35.8907 7.88818 33.9345 7.88818 31.5242C7.88818 29.1139 9.84442 27.1577 12.2505 27.1577C14.6565 27.1577 16.617 29.1181 16.617 31.5242C16.617 33.9302 14.6565 35.8907 12.2505 35.8907ZM12.2505 28.0615C10.3409 28.0615 8.7878 29.6146 8.7878 31.5242C8.7878 33.4337 10.3409 34.9869 12.2505 34.9869C14.16 34.9869 15.7131 33.4337 15.7131 31.5242C15.7131 29.6146 14.16 28.0615 12.2505 28.0615Z" fill="black" fill-opacity="0.87"/>
<path d="M34.3548 35.0675C32.4028 35.0675 30.8115 33.4762 30.8115 31.5242C30.8115 29.5722 32.4028 27.9809 34.3548 27.9809C36.3111 27.9809 37.8981 29.5722 37.8981 31.5242C37.8981 33.4804 36.3111 35.0675 34.3548 35.0675Z" fill="#CC1543"/>
<path d="M34.3551 29.1266C33.0311 29.1266 31.9575 30.2045 31.9575 31.5285C31.9575 32.8524 33.0354 33.9303 34.3551 33.9303C35.679 33.9303 36.7569 32.8524 36.7569 31.5285C36.7569 30.2045 35.679 29.1266 34.3551 29.1266ZM34.3551 33.0858C33.4937 33.0858 32.7935 32.3856 32.7935 31.5242C32.7935 30.6628 33.4937 29.9626 34.3551 29.9626C35.2165 29.9626 35.9167 30.6628 35.9167 31.5242C35.9167 32.3856 35.2165 33.0858 34.3551 33.0858Z" fill="black" fill-opacity="0.87"/>
<path d="M34.3551 33.0858C35.2175 33.0858 35.9166 32.3867 35.9166 31.5242C35.9166 30.6618 35.2175 29.9626 34.3551 29.9626C33.4926 29.9626 32.7935 30.6618 32.7935 31.5242C32.7935 32.3867 33.4926 33.0858 34.3551 33.0858Z" fill="white"/>
<path d="M12.2508 35.0675C10.2988 35.0675 8.70752 33.4762 8.70752 31.5242C8.70752 29.5722 10.2988 27.9809 12.2508 27.9809C14.2071 27.9809 15.7941 29.5722 15.7941 31.5242C15.7984 33.4804 14.2071 35.0675 12.2508 35.0675Z" fill="#CC1543"/>
<path d="M12.2506 29.1266C10.9266 29.1266 9.85303 30.2045 9.85303 31.5285C9.85303 32.8524 10.9309 33.9303 12.2506 33.9303C13.5745 33.9303 14.6524 32.8524 14.6524 31.5285C14.6524 30.2045 13.5745 29.1266 12.2506 29.1266ZM12.2506 33.0858C11.3892 33.0858 10.689 32.3856 10.689 31.5242C10.689 30.6628 11.3892 29.9626 12.2506 29.9626C13.112 29.9626 13.8122 30.6628 13.8122 31.5242C13.8122 32.3856 13.112 33.0858 12.2506 33.0858Z" fill="black" fill-opacity="0.87"/>
<path d="M12.2506 33.0858C13.113 33.0858 13.8122 32.3867 13.8122 31.5242C13.8122 30.6618 13.113 29.9626 12.2506 29.9626C11.3881 29.9626 10.689 30.6618 10.689 31.5242C10.689 32.3867 11.3881 33.0858 12.2506 33.0858Z" fill="white"/>
<path d="M40.3934 23.4489H39.0991V24.7432H40.3934V23.4489Z" fill="#D6B294"/>
</svg>
