<svg width="76" height="96" viewBox="0 0 76 96" fill="none" xmlns="http://www.w3.org/2000/svg">
<g clip-path="url(#clip0)">
<path d="M71.2593 58.0361H60.0078V89.0694H71.2493V58.0361H71.2593Z" fill="white"/>
<path d="M72.9596 90.7595V56.3559H58.3477V57.796L57.0075 56.6959C54.0671 54.3157 49.7966 51.3654 46.1961 50.9053C45.316 50.7953 44.0058 50.7053 42.5056 50.6753L40.8354 50.6253L43.7758 47.0249L44.3158 47.2049C46.7462 47.995 49.2665 48.395 51.7868 48.395C65.1486 48.395 76.02 37.5439 76.02 24.1925C76.01 17.7519 73.4897 11.6812 68.9091 7.10074C64.3185 2.52026 58.2477 0 51.7768 0C38.4051 0 27.5336 10.8511 27.5336 24.1825C27.5336 29.7331 29.4739 35.1637 33.0043 39.4841C33.2544 39.7941 33.5244 40.0742 33.7744 40.3442L34.5045 41.1443L26.6135 51.3153L26.2735 51.3553C20.4727 52.0654 18.5124 53.0955 17.8624 53.6356C17.3223 54.0856 16.6022 54.6257 15.8321 55.2058L15.482 55.4658C11.1415 58.6961 7.80103 61.3664 7.591 63.8667C7.53099 64.5167 7.70101 65.1168 8.09106 65.6568L8.58113 66.3469L7.87104 66.817C5.89078 68.1371 4.61061 69.4972 4.13054 70.7274C3.92052 71.2674 3.59047 71.9775 3.27043 72.6576C1.5202 76.428 0.0500065 79.9783 1.29017 81.8485C1.48019 82.1385 1.70022 82.3886 1.99026 82.6286L2.58034 83.1487L0 86.359L8.15107 92.5496L10.5814 89.5793L11.2215 90.1994C11.8616 90.8095 13.5518 92.2396 15.5821 92.2396C15.6521 92.2396 15.7221 92.2296 15.8021 92.2196L16.3522 92.1496L16.6222 92.6297C17.3023 93.8398 18.8625 95.87 21.7629 95.87C22.1829 95.87 22.653 95.81 23.163 95.7L23.3131 95.66L23.4631 95.68C23.9832 95.76 25.8434 96 28.0737 96C31.3741 96 33.9345 95.4599 35.4647 94.4098C36.9549 93.3997 39.1451 91.4195 40.9254 89.4793L41.1154 89.2693L41.3854 89.2193C43.1957 88.9093 47.7063 87.8792 50.6067 84.9789L50.8467 84.7388H58.3577V90.7395H72.9796V90.7595H72.9596ZM60.0379 58.036H71.2794V89.0693H60.0379V58.036ZM34.3045 38.414C30.9741 34.3436 29.2138 29.4131 29.2138 24.1825C29.2138 11.7812 39.3352 1.69018 51.7768 1.69018C64.2085 1.69018 74.3098 11.7812 74.3098 24.1825C74.3098 36.5938 64.1984 46.7049 51.7768 46.7049C48.0363 46.7049 44.4859 45.8148 41.1954 44.0646C38.5551 42.6844 36.2348 40.7742 34.3045 38.414ZM35.7147 42.3444L36.3648 42.8845C37.645 43.9246 38.9951 44.8247 40.3953 45.5547C40.6353 45.6748 40.8954 45.8048 41.1454 45.9248L42.1155 46.3648L38.6251 50.6153H38.235C35.8247 50.6353 33.2344 50.7353 30.754 50.9153L28.9138 51.0453L35.7147 42.3444ZM4.80063 73.3276C5.17068 72.5376 5.49072 71.8475 5.70075 71.2874C6.29083 69.7273 9.05119 67.9871 9.8913 67.507L10.2513 67.287L10.6414 67.447C11.3615 67.7571 12.1516 67.9871 12.9917 68.1371L14.3419 68.3771L4.34057 80.8984C4.27056 80.9684 4.10054 81.1285 3.95052 81.2385L3.25043 81.7285L2.78037 81.0284C2.75036 80.9984 2.71036 80.9484 2.68035 80.8784C2.2903 80.1283 2.2903 78.7282 4.80063 73.3276ZM7.87104 90.2194L2.39031 86.049L16.5322 68.3271L16.8722 68.2871C19.2325 68.0171 21.0928 67.127 21.9929 65.8269C23.9331 63.0066 26.0634 62.0165 27.3136 62.0165C27.7236 62.0165 28.3337 62.0665 29.1838 62.1765L30.654 62.3665L7.87104 90.2194ZM17.0522 90.0894C16.5922 90.3694 16.0921 90.5094 15.562 90.5094C14.4619 90.5094 13.2717 89.8994 12.1816 88.7393L11.6915 88.2092L18.3624 80.0583L18.6225 80.0083C20.5827 79.4883 22.863 79.1182 24.3032 79.0782L25.7134 79.0382L25.0533 80.2784C23.7331 82.7586 19.7126 88.4792 17.0522 90.0894ZM23.093 94.0098C22.653 94.1198 22.2229 94.1798 21.8129 94.1798C20.3927 94.1798 19.1825 93.5097 18.3324 92.2496L17.9024 91.6095L18.5124 91.1395C21.0628 89.2093 24.5032 84.6488 26.2335 81.5385L26.3535 81.3085L26.5835 81.1985C28.5037 80.2284 31.3341 81.3285 32.8543 82.0686L33.7444 82.4986L33.1544 83.2887C32.8643 83.7087 25.6434 93.3597 23.093 94.0098ZM41.8455 85.6489C40.6654 87.4391 37.2949 91.1095 34.4845 93.0297C32.9443 94.0898 30.124 94.3198 27.9837 94.3198C27.9337 94.3198 27.8937 94.3198 27.8437 94.3198L25.8434 94.3098L27.2736 92.9097C29.6339 90.5994 32.1442 87.4491 33.8445 85.2089L33.9245 85.1189C36.0347 83.0987 39.9153 83.7987 41.4755 84.4388L42.3856 84.8288L41.8455 85.6489ZM50.0466 83.0686L49.7966 83.3587C48.6964 84.6488 47.0362 85.7189 44.8759 86.539L43.0657 87.2291L43.8258 85.4489C43.9958 85.0589 44.0058 84.8388 44.0058 84.7788C44.0058 84.0387 43.3557 83.3987 42.0655 82.8786C40.8354 82.3686 38.7751 81.9185 36.6748 82.1686L36.3748 82.2086L35.4347 81.5685C35.0346 81.2985 31.3841 78.9282 28.0037 79.1082L27.3936 79.1382L27.1836 78.5682C27.1036 78.3382 26.9735 78.1381 26.8035 77.9981C26.4235 77.6481 25.3433 77.138 22.2629 77.5281L20.2127 77.7881L32.0342 63.3566L32.5743 64.5867C33.5044 66.7069 35.6947 70.1973 40.1253 70.6874L40.1653 69.0072C34.6246 68.2771 33.4244 61.8264 33.4144 61.7564L33.3144 61.2064L32.7543 61.0964C32.3643 61.0164 28.9638 60.3463 27.3136 60.3463C25.1433 60.3463 22.503 62.1265 20.6127 64.8868C19.9326 65.8569 18.3224 66.5169 16.2821 66.6669C13.5018 66.887 10.8014 66.1269 9.53125 64.7868C9.33123 64.5867 9.24122 64.3667 9.24122 64.0867C9.39124 62.3865 12.1216 60.0463 16.4722 56.8159L16.8922 56.4959C17.6523 55.9258 18.3824 55.3858 18.9225 54.9257C21.8229 52.5155 39.7152 51.7654 45.966 52.5655C50.7467 53.1855 57.3375 59.1662 58.0876 59.8462L58.3277 60.0963V83.0787L50.0466 83.0686Z" fill="black" fill-opacity="0.87"/>
<path d="M35.7145 42.3444L36.3646 42.8844C37.6447 43.9244 38.9949 44.8244 40.3951 45.5544C40.6351 45.6744 40.8952 45.8044 41.1452 45.9244L42.1153 46.3644L38.6249 50.6144H38.2348C35.8245 50.6344 33.2341 50.7344 30.7538 50.9144L28.9136 51.0444L35.7145 42.3444Z" fill="#C7C8CA"/>
<path d="M7.87086 90.2194L2.39014 86.049L16.532 68.3271L16.872 68.2871C19.2324 68.0171 21.0926 67.127 21.9927 65.8269C23.933 63.0066 26.0633 62.0165 27.3134 62.0165C27.7235 62.0165 28.3336 62.0665 29.1837 62.1765L30.6539 62.3665L7.87086 90.2194Z" fill="#C7C8CA"/>
<path d="M71.2891 58.0361H60.0376V89.0694H71.2791V58.0361H71.2891Z" fill="#CC1543" fill-opacity="0.75"/>
<path d="M4.80038 73.3276C5.17043 72.5375 5.49047 71.8475 5.7005 71.2874C6.29058 69.7272 9.05094 67.9871 9.89105 67.507L10.2511 67.287L10.6412 67.447C11.3612 67.757 12.1513 67.9871 12.9915 68.1371L14.3416 68.3771L4.34032 80.8984C4.27031 80.9684 4.10029 81.1284 3.95027 81.2384L3.25018 81.7285L2.78012 81.0284C2.75011 80.9984 2.71011 80.9484 2.6801 80.8784C2.29005 80.1283 2.29005 78.7282 4.80038 73.3276Z" fill="#E8CCB0"/>
<path d="M17.0521 90.0894C16.5921 90.3694 16.092 90.5094 15.5619 90.5094C14.4618 90.5094 13.2716 89.8993 12.1815 88.7392L11.6914 88.2092L18.3623 80.0583L18.6223 80.0083C20.5826 79.4883 22.8629 79.1182 24.3031 79.0782L25.7133 79.0382L25.0532 80.2783C23.733 82.7586 19.7125 88.4792 17.0521 90.0894Z" fill="#E8CCB0"/>
<path d="M23.093 94.0098C22.653 94.1198 22.2229 94.1798 21.8129 94.1798C20.3927 94.1798 19.1825 93.5097 18.3324 92.2496L17.9023 91.6095L18.5124 91.1395C21.0628 89.2093 24.5032 84.6488 26.2334 81.5385L26.3535 81.3085L26.5835 81.1985C28.5037 80.2284 31.3341 81.3285 32.8543 82.0685L33.7444 82.4986L33.1544 83.2887C32.8643 83.7087 25.6434 93.3597 23.093 94.0098Z" fill="#E8CCB0"/>
<path d="M41.8454 85.649C40.6652 87.4391 37.2948 91.1095 34.4844 93.0297C32.9442 94.0898 30.1238 94.3199 27.9835 94.3199C27.9335 94.3199 27.8935 94.3199 27.8435 94.3199L25.8433 94.3099L27.2735 92.9097C29.6338 90.5995 32.1441 87.4491 33.8443 85.2089L33.9243 85.1189C36.0346 83.0987 39.9151 83.7988 41.4753 84.4388L42.3854 84.8289L41.8454 85.649Z" fill="#E8CCB0"/>
<path d="M50.0466 83.0687L49.7966 83.3587C48.6964 84.6489 47.0362 85.719 44.8759 86.5391L43.0657 87.2291L43.8258 85.449C43.9958 85.0589 44.0058 84.8389 44.0058 84.7789C44.0058 84.0388 43.3557 83.3987 42.0655 82.8787C40.8354 82.3686 38.7751 81.9186 36.6748 82.1686L36.3748 82.2086L35.4347 81.5686C35.0346 81.2985 31.3841 78.9283 28.0037 79.1083L27.3936 79.1383L27.1836 78.5682C27.1036 78.3382 26.9735 78.1382 26.8035 77.9982C26.4235 77.6481 25.3433 77.1381 22.2629 77.5281L20.2127 77.7882L32.0342 63.3567L32.5743 64.5868C33.5044 66.707 35.6947 70.1974 40.1253 70.6874L40.1653 69.0072C34.6246 68.2772 33.4244 61.8265 33.4144 61.7565L33.3144 61.2064L32.7543 61.0964C32.3643 61.0164 28.9638 60.3463 27.3136 60.3463C25.1433 60.3463 22.503 62.1265 20.6127 64.8868C19.9326 65.8569 18.3224 66.517 16.2821 66.667C13.5018 66.887 10.7914 66.1269 9.53125 64.7868C9.33122 64.5868 9.24121 64.3668 9.24121 64.0867C9.39123 62.3866 12.1216 60.0463 16.4722 56.816L16.8922 56.4959C17.6523 55.9259 18.3824 55.3858 18.9225 54.9258C21.8229 52.5155 39.7152 51.7655 45.966 52.5655C50.7467 53.1856 57.3376 59.1662 58.0877 59.8463L58.3277 60.0963V83.0787L50.0466 83.0687Z" fill="#E8CCB0"/>
<path d="M51.7767 5.26001C41.3153 5.26001 32.8042 13.7509 32.8042 24.192C32.8042 34.6331 41.3153 43.124 51.7767 43.124C62.2381 43.124 70.7492 34.6331 70.7492 24.192C70.7492 13.7509 62.2381 5.26001 51.7767 5.26001ZM51.7767 41.4338C42.2454 41.4338 34.5044 33.693 34.5044 24.192C34.5044 14.691 42.2454 6.95019 51.7767 6.95019C61.308 6.95019 69.049 14.691 69.049 24.192C69.059 33.693 61.298 41.4338 51.7767 41.4338Z" fill="black" fill-opacity="0.87"/>
<path d="M51.7767 41.4335C61.3159 41.4335 69.0489 33.7141 69.0489 24.1917C69.0489 14.6694 61.3159 6.94995 51.7767 6.94995C42.2375 6.94995 34.5044 14.6694 34.5044 24.1917C34.5044 33.7141 42.2375 41.4335 51.7767 41.4335Z" fill="white"/>
<path d="M51.7767 41.4335C61.3159 41.4335 69.0489 33.7141 69.0489 24.1917C69.0489 14.6694 61.3159 6.94995 51.7767 6.94995C42.2375 6.94995 34.5044 14.6694 34.5044 24.1917C34.5044 33.7141 42.2375 41.4335 51.7767 41.4335Z" fill="#CC1543"/>
<path d="M51.7768 1.68005C39.3352 1.68005 29.2139 11.7711 29.2139 24.1724C29.2139 29.4129 30.9741 34.3335 34.3045 38.4039C36.2348 40.7741 38.5451 42.6643 41.1954 44.0445C44.4859 45.7947 48.0463 46.6847 51.7768 46.6847C64.2085 46.6847 74.3098 36.5837 74.3098 24.1624C74.3198 11.7711 64.2085 1.68005 51.7768 1.68005ZM51.7768 43.1244C41.3155 43.1244 32.8043 34.6335 32.8043 24.1924C32.8043 13.7513 41.3155 5.26043 51.7768 5.26043C62.2382 5.26043 70.7493 13.7513 70.7493 24.1924C70.7493 34.6335 62.2382 43.1244 51.7768 43.1244Z" fill="#C7C8CA"/>
<path d="M48.1559 23.6619C49.2459 22.5819 49.2459 20.8219 48.1559 19.7419C47.0459 18.7119 45.3059 18.7119 44.2059 19.7619C43.6959 20.3019 43.4159 21.0019 43.4559 21.7519C43.4759 22.4919 43.7859 23.1719 44.3259 23.6919C44.8659 24.1919 45.5659 24.4419 46.2559 24.4419C46.9359 24.4319 47.6259 24.1719 48.1559 23.6619ZM46.1859 22.7719C45.8959 22.7719 45.6259 22.6719 45.4259 22.4519C45.2159 22.2419 45.1059 21.9719 45.1059 21.6919C45.1059 21.4119 45.2159 21.1219 45.4259 20.9119C45.6359 20.7019 45.9159 20.5919 46.1859 20.5919C46.4759 20.5919 46.7459 20.6919 46.9459 20.9119C47.3759 21.3419 47.3759 22.0119 46.9559 22.4419C46.7459 22.6419 46.4859 22.7719 46.1859 22.7719Z" fill="white"/>
<path d="M61.0978 17.0018C58.6475 14.5716 54.747 14.4215 52.1066 16.5918C52.5067 17.0218 52.8167 17.4819 53.0867 17.9719C55.067 16.2417 58.0074 16.3217 59.8876 18.1819C61.8279 20.0921 61.8279 23.2225 59.8876 25.1527L56.2172 28.773L51.2765 33.6636L47.396 29.8132L50.9165 26.3228C53.5068 23.7425 53.5068 19.5421 50.9165 16.9618C48.3261 14.3815 44.0656 14.3815 41.4652 16.9618C38.8749 19.5421 38.8749 23.7425 41.4652 26.3228L43.6055 28.433C43.9655 28.723 44.5056 28.693 44.8057 28.343C45.0657 28.023 45.0657 27.5529 44.7957 27.2329L42.6554 25.1327C41.7153 24.2026 41.1952 22.9624 41.1952 21.6423C41.1952 20.3222 41.7253 19.072 42.6554 18.1719C43.5955 17.2618 44.8457 16.7218 46.1658 16.7218C47.496 16.7218 48.7462 17.2418 49.6763 18.1719C51.6166 20.0821 51.6166 23.2125 49.6763 25.1427L45.5358 29.2331C45.3357 29.4431 45.2457 29.7231 45.3057 29.9932C45.3157 30.0332 45.3257 30.0832 45.3357 30.1032L45.3457 30.1332C45.3857 30.2332 45.4557 30.3432 45.5458 30.4132L50.6064 35.4237L50.6264 35.4537C50.7864 35.6138 50.9865 35.6938 51.2165 35.7038H51.2465H51.2565H51.2765C51.4865 35.6938 51.6866 35.6138 51.8666 35.4437L57.4673 29.8832L61.0578 26.3328C63.6981 23.7925 63.6981 19.5821 61.0978 17.0018Z" fill="white"/>
</g>
<defs>
<clipPath id="clip0">
<rect width="76" height="96" fill="white"/>
</clipPath>
</defs>
</svg>
