<svg width="35" height="46" viewBox="0 0 35 46" fill="none" xmlns="http://www.w3.org/2000/svg">
<path d="M31.4288 6.09723H28.9869L28.8648 5.2971C28.5901 3.69683 27.298 2.43079 25.7209 2.2181L10.3677 0.0506415C10.1032 0 9.88953 0 9.61483 0H9.56395C8.7907 0.0506415 8.02762 0.364619 7.44767 0.89129C6.63372 1.60027 6.1657 2.60297 6.1657 3.64618V6.14787H3.62209C1.62791 6.14787 0 7.75827 0 9.75354V12.8022C0 13.1263 0.234012 13.3592 0.559593 13.3592H3.12355V13.5719L5.87064 41.7286C6.0843 43.6023 7.64099 45.0101 9.49273 45.0101H25.5073C27.3794 45.0101 28.9767 43.5719 29.1294 41.7286L31.8866 13.3795H34.4404C34.766 13.3795 35 13.1465 35 12.8224V9.60162C34.9593 7.66712 33.4026 6.09723 31.4288 6.09723Z" fill="white"/>
<path d="M30.7065 13.4199L29.9841 21.8973H26.9521L26.8402 21.7757C25.253 18.0485 21.6207 15.6278 17.551 15.6278C13.3489 15.6278 9.79807 17.9877 8.27191 21.7757L8.25156 21.8061L8.17017 21.8871H5.07714L4.23267 13.2983H30.7167L30.7065 13.4199Z" fill="#CC1543"/>
<path d="M29.231 29.5544L28.0813 41.5766C27.9592 42.8528 26.8604 43.8454 25.5682 43.8454H9.55367C8.28187 43.8454 7.15251 42.8528 7.04059 41.6273L5.82983 29.3315H8.16995L8.28187 29.4531C9.86908 33.1803 13.5013 35.601 17.5711 35.601C21.7731 35.601 25.324 33.2411 26.8604 29.4531L26.8807 29.4227L26.9621 29.3417H29.2513L29.231 29.5544Z" fill="#CC1543"/>
<path d="M17.5509 38.1938C22.7907 38.1938 27.0335 33.9703 27.0335 28.7644C27.0335 23.5585 22.7907 19.335 17.5509 19.335C12.3111 19.335 8.06836 23.5585 8.06836 28.7644C8.07853 33.9805 12.3213 38.1938 17.5509 38.1938Z" fill="#D6B294"/>
<path d="M5.87064 41.7184C6.0843 43.5922 7.64099 45 9.49273 45H25.5073C27.3794 45 28.9767 43.5618 29.1294 41.7184L31.8866 13.3693H34.4404C34.766 13.3693 35 13.1364 35 12.8123V9.60162C34.9491 7.65699 33.3924 6.09723 31.4186 6.09723H28.9767L28.8547 5.2971C28.5799 3.69683 27.2878 2.43079 25.7108 2.2181L10.3677 0.0506415C10.1032 0 9.88953 0 9.61483 0H9.56395C8.7907 0.0506415 8.02762 0.364619 7.44767 0.89129C6.63372 1.60027 6.1657 2.60297 6.1657 3.64618V6.14787H3.62209C1.62791 6.14787 0 7.75827 0 9.75354V12.8022C0 13.1263 0.234012 13.3592 0.559593 13.3592H3.12355V13.5719L5.87064 41.7184ZM5.21948 23.0115H7.88517L7.78343 23.3052C7.62064 24.0648 7.45785 24.865 7.45785 25.6145C7.45785 26.4652 7.56977 27.2248 7.78343 27.9237L7.88517 28.2073H5.7282L5.21948 23.0115ZM29.2209 29.5544L28.0712 41.5766C27.9491 42.8528 26.8503 43.8454 25.5581 43.8454H9.5436C8.2718 43.8454 7.14244 42.8528 7.03052 41.6273L5.81977 29.3214H8.15988L8.2718 29.4429C9.85901 33.1702 13.4913 35.5908 17.561 35.5908C21.7631 35.5908 25.314 33.2309 26.8503 29.4429L26.8706 29.4126L26.952 29.3315H29.2413L29.2209 29.5544ZM8.62791 25.6043C8.62791 20.7225 12.6366 16.7319 17.5509 16.7319C22.4651 16.7319 26.4738 20.7124 26.4738 25.6043C26.4738 30.4963 22.4651 34.4767 17.5509 34.4767C12.6366 34.4868 8.62791 30.5064 8.62791 25.6043ZM29.3227 28.1668H27.1759L27.2776 27.8731C27.4404 27.1134 27.6032 26.3133 27.6032 25.5638C27.6032 24.7029 27.4913 23.9534 27.2776 23.2546L27.1759 22.971H29.8416L29.3227 28.1668ZM30.7064 13.42L29.984 21.8974H26.952L26.8401 21.7758C25.2529 18.0486 21.6206 15.628 17.5509 15.628C13.3488 15.628 9.79797 17.9878 8.2718 21.7758L8.25145 21.8062L8.17006 21.8872H5.07703L4.23256 13.2984H30.7166L30.7064 13.42ZM7.31541 3.6158C7.31541 2.90682 7.63081 2.2181 8.17006 1.74207C8.57703 1.3977 9.09593 1.17488 9.65552 1.11411H10.1541L25.5276 3.29169C26.3517 3.40311 27.064 3.89939 27.4709 4.65901L28.2035 6.06685H7.31541V3.6158ZM1.17006 12.2046V9.7029C1.17006 8.34571 2.31977 7.20122 3.68314 7.20122H31.4288C32.7922 7.20122 33.9419 8.34571 33.9419 9.7029V12.2046H1.17006Z" fill="black"/>
<path d="M13.817 26.0095C13.6542 27.0224 13.9289 27.9643 14.5597 28.5923C15.0786 29.1088 15.7501 29.3823 16.5132 29.3823C16.737 29.3823 16.8795 29.3823 17.0931 29.3316C18.0495 29.1696 19.0161 28.6429 19.7893 27.8934C20.5524 27.1237 21.0815 26.1615 21.2443 25.2297C21.458 24.1966 21.2138 23.2952 20.5626 22.6571C20.0437 22.1405 19.362 21.8772 18.5582 21.8772C18.3649 21.8772 18.1716 21.8975 17.9681 21.9278C16.9609 22.1 16.0045 22.6064 15.2821 23.3661C14.5088 24.1054 13.9798 25.0676 13.817 26.0095Z" fill="black"/>
<path d="M16.1265 24.1965C15.3533 24.9662 14.9768 25.9386 14.9768 26.7083L15.0277 26.6577C15.3024 26.3336 15.5161 26.0601 15.8518 25.7866C16.2283 25.4625 16.737 25.1891 17.2762 25.0169C17.9376 24.7941 18.4768 24.4193 19.0262 23.7103C19.0771 23.6597 19.0771 23.5989 19.1381 23.4875C19.189 23.3761 19.2501 23.2647 19.3009 23.2141C19.0771 23.1026 18.8126 23.052 18.4768 23.052C18.3649 23.052 18.2021 23.052 18.1004 23.1026C17.4492 23.2141 16.7268 23.5989 16.1265 24.1965Z" fill="white"/>
<path d="M20.1353 24.5205C20.0742 24.5205 20.0742 24.5205 20.1353 24.5205C19.362 25.503 18.5989 26.0398 17.6731 26.3233C17.2966 26.4348 17.0117 26.5968 16.737 26.8095C16.4623 27.0323 16.2995 27.245 16.0248 27.5793C15.9739 27.6299 15.9129 27.7413 15.862 27.8021C15.8111 27.9135 15.7501 27.9641 15.6992 28.0755C16.0248 28.2376 16.4114 28.2984 16.8998 28.2376C17.612 28.1262 18.3242 27.7514 18.9245 27.1539C19.7486 26.2626 20.1353 25.2903 20.1353 24.5205Z" fill="white"/>
</svg>
