<svg width="37" height="32" viewBox="0 0 37 32" fill="none" xmlns="http://www.w3.org/2000/svg">
<path d="M13.6063 13.3095L13.6128 13.3032C15.3208 11.6335 15.3208 8.91583 13.6063 7.24195C11.8659 5.62268 9.1369 5.62268 7.3836 7.25245C6.57587 8.08414 6.14724 9.17205 6.17739 10.3167C6.20755 11.4613 6.69434 12.5261 7.54729 13.3137C8.39594 14.0992 9.48584 14.4919 10.5736 14.4919C11.6656 14.4919 12.7555 14.0992 13.6063 13.3095ZM10.5003 11.9149C10.0437 11.9149 9.61292 11.7427 9.28983 11.4277C8.96458 11.1127 8.78365 10.6926 8.78365 10.2453C8.7815 9.79792 8.96028 9.37787 9.28983 9.05234C9.62369 8.72891 10.0609 8.56719 10.5003 8.56719C10.9397 8.56719 11.377 8.72891 11.7108 9.05234C12.3829 9.70341 12.385 10.7661 11.7173 11.4214C11.3942 11.7385 10.9634 11.9149 10.5046 11.9149C10.5046 11.9149 10.5025 11.9149 10.5003 11.9149Z" fill="white"/>
<path d="M33.9277 2.99596C30.0808 -0.755029 23.9291 -0.998654 19.7806 2.3743C20.4031 3.03167 20.9201 3.74994 21.3336 4.51022C24.4396 1.84294 29.0899 1.96476 32.0387 4.84206C35.0865 7.81807 35.0865 12.6612 32.0387 15.6372L26.2705 21.2616L26.2726 21.2637L18.4991 28.8497L12.3927 22.8955L17.9369 17.4896C22.0337 13.4929 22.0337 6.99268 17.9369 2.99596C13.8379 -0.998655 7.17152 -0.998655 3.07259 2.99596C-1.0242 6.99268 -1.0242 13.4929 3.07259 17.4896L6.43272 20.7512C6.99274 21.2196 7.8414 21.1566 8.32172 20.6084C8.75466 20.117 8.75466 19.4008 8.30449 18.8904L4.96159 15.6351C3.48399 14.1922 2.6698 12.2726 2.6698 10.2333C2.67195 8.19401 3.48614 6.27651 4.96805 4.83366C6.4478 3.39291 8.41219 2.59902 10.5037 2.59902C10.5058 2.59902 10.5058 2.59902 10.508 2.59902C12.5994 2.59902 14.566 3.39501 16.0457 4.83996C19.0935 7.81597 19.0935 12.6591 16.0457 15.6351L9.55162 21.9673C9.23499 22.2781 9.09929 22.7212 9.18976 23.1476C9.20268 23.2127 9.22422 23.2757 9.24145 23.324L9.25868 23.3744C9.32546 23.5424 9.42669 23.6936 9.55808 23.8217L17.5082 31.5716L17.5492 31.6178C17.7904 31.853 18.1113 31.9874 18.4517 32H18.4991C18.5055 32 18.512 32 18.5163 32H18.5357C18.8803 31.9916 19.2012 31.8551 19.464 31.5947L28.2887 22.9817L33.9255 17.4896C38.0245 13.4929 38.0245 6.99058 33.9277 2.99596Z" fill="white"/>
</svg>
