<svg width="103" height="156" viewBox="0 0 103 156" fill="none" xmlns="http://www.w3.org/2000/svg">
<g clip-path="url(#clip0)">
<path d="M48.8665 142.296H92.8712V103.117L17.4668 101.103L18.031 109.716C18.031 109.716 10.7936 126.196 48.8504 130.605V142.296H48.8665Z" fill="#D6B294"/>
<path d="M47.6575 142.295H50.0754V129.527L49.0115 129.4C29.5237 127.147 22.512 121.739 20.0619 117.615C17.7247 113.681 19.0948 110.334 19.1592 110.175L19.2721 109.922L18.7724 102.324L91.6783 104.275V142.295H94.0962V101.959L16.1934 99.8811L16.822 109.541C16.4351 110.619 15.4035 114.458 17.9342 118.772C21.7866 125.355 31.7965 129.701 47.6736 131.668V142.295H47.6575Z" fill="black"/>
<path d="M99.2865 143.485H39.7754V154.81H99.2865V143.485Z" fill="#CC1543" fill-opacity="0.75"/>
<path d="M100.495 156H38.5664V142.296H100.495V156ZM40.9842 153.621H98.0775V144.675H40.9842V153.621Z" fill="black"/>
<path d="M85.2631 89.1904C81.5558 89.1904 78.1385 90.4118 75.3822 92.4579V101.023H69.386C68.9669 102.451 68.7412 103.942 68.7412 105.512L92.8874 119.994C98.1905 117.282 101.801 111.809 101.801 105.512C101.785 96.4868 94.3864 89.1904 85.2631 89.1904Z" fill="#D6B294"/>
<path d="M68.1281 101.007C67.7413 102.435 67.5156 103.942 67.5156 105.496H69.9335C69.9335 103.942 70.1752 102.435 70.6266 101.007H68.1281Z" fill="black"/>
<path d="M85.2627 88.0009C81.6037 88.0009 78.2026 89.0953 75.3818 90.9829V93.9807C78.0576 91.7442 81.507 90.396 85.2627 90.396C93.7091 90.396 100.576 97.1689 100.576 105.512C100.576 111.175 97.4164 116.314 92.3067 118.931L93.4189 121.041C99.3184 118.011 102.994 112.063 102.994 105.512C102.994 95.8365 95.0469 88.0009 85.2627 88.0009Z" fill="black"/>
<path d="M75.3655 80.2603V86.1133V93.0925V94.4883V101.007H24.3975V94.4883V93.0925V86.1133V75.0736V14.6562H75.3655V80.2603Z" fill="#CC1543"/>
<path d="M77.768 2.56946H22.0126C19.7882 2.56946 17.9668 4.44114 17.9668 6.74109V54.5007V57.7682V93.0923V94.4881V114.347C17.9668 116.647 19.7882 118.519 22.0126 118.519H77.768C79.9925 118.519 81.8139 116.647 81.8139 114.347V94.4881V93.0923V57.7682V54.5007V6.74109C81.8139 4.44114 80.0086 2.56946 77.768 2.56946ZM77.9937 80.2602V86.1131V93.0923V94.4881V102.292C77.9937 103.006 77.4134 103.577 76.6881 103.577H23.0926C22.3673 103.577 21.787 103.006 21.787 102.292V94.4881V93.0923V86.1131V75.0734V13.3713C21.787 12.6575 22.3673 12.0865 23.0926 12.0865H76.672C77.3973 12.0865 77.9776 12.6575 77.9776 13.3713V80.2602H77.9937Z" fill="#D9D9D9"/>
<path d="M37.0351 9.72328H57.4095C58.1348 9.72328 58.7151 9.15226 58.7151 8.43849C58.7151 7.72471 58.1348 7.15369 57.4095 7.15369H37.0351C36.3098 7.15369 35.7295 7.72471 35.7295 8.43849C35.7295 9.1364 36.3098 9.72328 37.0351 9.72328Z" fill="black"/>
<path d="M63.9863 9.72328C64.7074 9.72328 65.2919 9.14806 65.2919 8.43849C65.2919 7.72891 64.7074 7.15369 63.9863 7.15369C63.2652 7.15369 62.6807 7.72891 62.6807 8.43849C62.6807 9.14806 63.2652 9.72328 63.9863 9.72328Z" fill="black"/>
<path d="M77.768 0H22.0126C18.3375 0 15.3555 3.02959 15.3555 6.74123V54.5009V57.7684V93.0924V94.4883V114.347C15.3555 118.059 18.3375 121.088 22.0126 121.088H77.768C81.4431 121.088 84.4251 118.059 84.4251 114.347V94.4883V93.0924V57.7684V54.5009V6.74123C84.4251 3.02959 81.4431 0 77.768 0ZM81.8139 94.4883V114.347C81.8139 116.647 79.9924 118.519 77.768 118.519H22.0126C19.7882 118.519 17.9667 116.647 17.9667 114.347V94.4883V93.0924V57.7684V54.5009V6.74123C17.9667 4.44128 19.7882 2.5696 22.0126 2.5696H77.768C79.9924 2.5696 81.8139 4.44128 81.8139 6.74123V54.5009V57.7684V93.0924V94.4883Z" fill="black"/>
<path d="M76.6892 12.0865H23.0937C22.3684 12.0865 21.7881 12.6576 21.7881 13.3713V75.0734V86.1132V93.0923V94.4882V102.292C21.7881 103.006 22.3684 103.577 23.0937 103.577H76.6731C77.3984 103.577 77.9787 103.006 77.9787 102.292V94.4882V93.0923V86.1132V80.2602V13.3713C77.9948 12.6576 77.4145 12.0865 76.6892 12.0865ZM75.3835 94.4882V101.007H24.3994V94.4882V93.0923V86.1132V75.0734V14.6561H75.3674V80.2602V86.1132V93.0923V94.4882H75.3835Z" fill="black"/>
<path d="M57.1195 105.956H42.6447C40.0496 105.956 37.9541 108.034 37.9541 110.572C37.9541 113.126 40.0657 115.188 42.6447 115.188H57.1195C59.7147 115.188 61.8101 113.11 61.8101 110.572C61.8101 108.034 59.7147 105.956 57.1195 105.956ZM57.1195 112.634H42.6447C41.5003 112.634 40.5654 111.714 40.5654 110.588C40.5654 109.462 41.5003 108.542 42.6447 108.542H57.1195C58.264 108.542 59.1989 109.462 59.1989 110.588C59.1989 111.714 58.2801 112.634 57.1195 112.634Z" fill="black"/>
<path d="M69.8539 53.9139V84.3843L66.2432 88.0959L61.7299 83.9719C61.2302 83.5119 60.4565 83.5119 59.9407 83.9719L55.3791 88.1594L50.8174 83.9719C50.5595 83.7339 50.2532 83.6229 49.9309 83.6229C49.6085 83.6229 49.2861 83.7339 49.0443 83.9719L44.4827 88.1435L39.921 83.9719C39.4213 83.5119 38.6476 83.5119 38.1318 83.9719L33.6185 88.1118L29.9111 84.3843V53.9298V50.8367V28.9158L32.6514 31.6599C33.151 32.1516 33.957 32.1834 34.4728 31.7075L39.0345 27.52L43.5961 31.7075C44.0958 32.1675 44.8695 32.1675 45.3853 31.7075L49.947 27.52L54.5086 31.7075C55.0083 32.1675 55.7982 32.1675 56.2978 31.7075L60.8595 27.52L65.4212 31.7075C65.937 32.1834 66.759 32.1675 67.2587 31.6599L69.87 28.9793V50.8209V53.9139H69.8539Z" fill="white"/>
<path d="M48.3346 39.0197C47.5931 38.3217 46.4164 38.3217 45.6749 39.0197C45.3364 39.3845 45.143 39.8445 45.1591 40.3362C45.1753 40.8438 45.3687 41.2879 45.7394 41.6368C46.1102 41.9699 46.5776 42.1444 47.0289 42.1444C47.4803 42.1444 47.9638 41.9699 48.3185 41.6368C49.076 40.9231 49.076 39.7493 48.3346 39.0197ZM47.577 40.8913C47.4319 41.0341 47.2224 41.1293 46.9967 41.1293C46.7872 41.1293 46.5776 41.05 46.4164 40.8913C46.2713 40.7486 46.1746 40.5424 46.1746 40.3203C46.1746 40.1141 46.2552 39.9079 46.4164 39.7493C46.5776 39.6065 46.7872 39.5114 46.9967 39.5114C47.2062 39.5114 47.3997 39.5907 47.577 39.7493C47.8994 40.0824 47.9155 40.5741 47.577 40.8913Z" fill="#CC1543" stroke="#CC1543" stroke-width="0.206612" stroke-miterlimit="10"/>
<path d="M57.0391 37.1955C55.395 35.5776 52.7676 35.4666 50.9945 36.9258C51.2686 37.2114 51.4781 37.5286 51.6715 37.8458C52.9933 36.6879 54.992 36.7514 56.2493 37.9886C57.555 39.2734 57.555 41.383 56.2493 42.6678L53.7831 45.1105L50.4626 48.3939L47.8514 45.8084L50.2208 43.4609C51.9778 41.7319 51.9778 38.9244 50.2208 37.1796C48.4639 35.4507 45.6108 35.4507 43.8539 37.1796C42.0969 38.9086 42.0969 41.7161 43.8539 43.4609L45.2884 44.8726C45.5302 45.0788 45.901 45.047 46.0944 44.8091C46.2717 44.6029 46.2717 44.2857 46.0783 44.0636L44.6598 42.6519C44.015 42.0175 43.6765 41.1926 43.6765 40.3203C43.6765 39.432 44.015 38.6072 44.6598 37.9886C45.3046 37.3541 46.1266 37.021 47.0293 37.021C47.9319 37.021 48.7701 37.3541 49.3988 37.9886C50.7044 39.2734 50.7044 41.383 49.3988 42.6678L46.6263 45.4119C46.4812 45.5546 46.4329 45.745 46.4812 45.9194C46.4974 45.9512 46.4974 45.967 46.4974 45.9987L46.5135 46.0146C46.5457 46.0939 46.5941 46.1574 46.6424 46.2049L50.0435 49.5676L50.0596 49.5835C50.1725 49.6945 50.3014 49.7421 50.4465 49.7421H50.4626C50.4626 49.7421 50.4626 49.7421 50.4787 49.7421H50.4949C50.6399 49.7421 50.7689 49.6787 50.8978 49.5676L54.6858 45.8401L57.0875 43.4609C58.78 41.7319 58.78 38.9086 57.0391 37.1955Z" fill="#CC1543" stroke="#CC1543" stroke-width="0.206612" stroke-miterlimit="10"/>
<path d="M36.8584 56.4993H57.2327C57.958 56.4993 58.5383 55.9283 58.5383 55.2145C58.5383 54.5007 57.958 53.9297 57.2327 53.9297H36.8584C36.133 53.9297 35.5527 54.5007 35.5527 55.2145C35.5527 55.9124 36.133 56.4993 36.8584 56.4993Z" fill="black"/>
<path d="M63.9859 53.9139H62.4385C61.7131 53.9139 61.1328 54.485 61.1328 55.1987C61.1328 55.9125 61.7131 56.4835 62.4385 56.4835H63.9859C64.7112 56.4835 65.2915 55.9125 65.2915 55.1987C65.2915 54.5008 64.6951 53.9139 63.9859 53.9139Z" fill="black"/>
<path d="M36.8584 63.875H57.2327C57.958 63.875 58.5383 63.304 58.5383 62.5902C58.5383 61.8764 57.958 61.3054 57.2327 61.3054H36.8584C36.133 61.3054 35.5527 61.8764 35.5527 62.5902C35.5527 63.304 36.133 63.875 36.8584 63.875Z" fill="black"/>
<path d="M63.9859 61.3054H62.4385C61.7131 61.3054 61.1328 61.8764 61.1328 62.5902C61.1328 63.304 61.7131 63.875 62.4385 63.875H63.9859C64.7112 63.875 65.2915 63.304 65.2915 62.5902C65.2915 61.8764 64.6951 61.3054 63.9859 61.3054Z" fill="black"/>
<path d="M63.9864 76.0568H58.3125C57.5871 76.0568 57.0068 76.6278 57.0068 77.3416C57.0068 78.0553 57.5871 78.6264 58.3125 78.6264H63.9864C64.7117 78.6264 65.292 78.0553 65.292 77.3416C65.292 76.6278 64.6956 76.0568 63.9864 76.0568Z" fill="black"/>
<path d="M63.9869 68.6812H35.7949C35.0695 68.6812 34.4893 69.2522 34.4893 69.966C34.4893 70.6797 35.0695 71.2507 35.7949 71.2507H63.9869C64.7123 71.2507 65.2925 70.6797 65.2925 69.966C65.2925 69.2522 64.6961 68.6812 63.9869 68.6812Z" fill="black"/>
<path d="M71.643 24.5696C71.1433 24.3793 70.5792 24.4903 70.2084 24.871L66.227 28.9475L61.7137 24.8075C61.2141 24.3476 60.4403 24.3476 59.9245 24.8075L55.3629 28.995L50.8012 24.8075C50.3015 24.3476 49.5278 24.3476 49.012 24.8075L44.4504 28.995L39.8887 24.8075C39.389 24.3476 38.6153 24.3476 38.0995 24.8075L33.5862 28.9475L29.5081 24.8393C29.1374 24.4586 28.5732 24.3476 28.0735 24.5538C27.5738 24.7441 27.2676 25.22 27.2676 25.7434V50.8049V53.8979V84.8759C27.2676 85.209 27.3965 85.5421 27.6383 85.78L32.6191 90.7764C33.1188 91.2682 33.9247 91.2999 34.4405 90.824L39.0022 86.6524L43.5638 90.824C44.0635 91.284 44.8372 91.284 45.353 90.824L49.9147 86.6365L54.4763 90.824C54.976 91.284 55.7659 91.284 56.2655 90.824L60.8272 86.6524L65.3889 90.824C65.6468 91.062 65.953 91.173 66.2754 91.173C66.6139 91.173 66.9685 91.0461 67.2264 90.7764L72.0943 85.78C72.32 85.5421 72.4651 85.2248 72.4651 84.8917V53.9138V50.8208V25.7592C72.4651 25.2358 72.1427 24.76 71.643 24.5696ZM69.8538 53.9138V84.3842L66.2432 88.0958L61.7299 83.9718C61.2302 83.5118 60.4565 83.5118 59.9407 83.9718L55.379 88.1593L50.8173 83.9718C50.5594 83.7338 50.2532 83.6228 49.9308 83.6228C49.6084 83.6228 49.286 83.7338 49.0443 83.9718L44.4826 88.1434L39.9209 83.9718C39.4213 83.5118 38.6475 83.5118 38.1317 83.9718L33.6184 88.1117L29.9111 84.3842V53.9297V50.8366V28.9157L32.6513 31.6598C33.151 32.1515 33.9569 32.1832 34.4727 31.7074L39.0344 27.5199L43.5961 31.7074C44.0957 32.1674 44.8695 32.1674 45.3853 31.7074L49.9469 27.5199L54.5086 31.7074C55.0083 32.1674 55.7981 32.1674 56.2978 31.7074L60.8594 27.5199L65.4211 31.7074C65.9369 32.1832 66.759 32.1674 67.2587 31.6598L69.8699 28.9792V50.8208V53.9138H69.8538Z" fill="black"/>
<path d="M101.318 101.563L91.1789 58.2918C90.244 54.2947 86.1981 51.8044 82.1523 52.7402C78.1064 53.6602 75.5757 57.6415 76.5106 61.6387L86.6495 104.909" fill="#D6B294"/>
<path d="M85.4895 105.163L75.3507 61.8924C74.2708 57.2608 77.2044 52.6292 81.895 51.5664C84.1678 51.043 86.505 51.4395 88.4715 52.645C90.4542 53.8664 91.8404 55.7698 92.3562 58.0063L102.495 101.277L100.142 101.816L90.0028 58.5456C89.616 56.9277 88.6166 55.5477 87.182 54.6595C85.7474 53.7871 84.0549 53.5016 82.4269 53.8823C79.042 54.6595 76.9143 58.0063 77.7041 61.3531L87.8429 104.624L85.4895 105.163Z" fill="black"/>
<path d="M38.7275 40.0666C37.6636 41.732 35.9711 42.9058 34.0207 43.3341C32.0704 43.7623 30.0394 43.4292 28.3469 42.3824L6.37677 28.1068C4.7004 27.0441 3.5076 25.3786 3.07239 23.4593C2.63718 21.5401 2.97568 19.5256 4.03953 17.8602C5.10338 16.1947 6.79586 15.0209 8.74625 14.5926C10.6966 14.1644 12.7276 14.4975 14.4201 15.5443L36.3902 29.8199C38.0827 30.8668 39.2755 32.5322 39.7107 34.4515C40.1298 36.3866 39.7913 38.4011 38.7275 40.0666Z" fill="#D6B294"/>
<path d="M32.3443 44.7141C30.7163 44.7141 29.1205 44.2699 27.7182 43.3975L5.71583 29.0903C3.76544 27.8689 2.39533 25.9655 1.87953 23.729C1.36372 21.4925 1.76669 19.1925 2.99173 17.2416C4.24901 15.2906 6.18328 13.9423 8.43993 13.4347C10.7288 12.9272 13.0661 13.3237 15.0326 14.5292L37.0188 28.8206C38.9692 30.042 40.3393 31.9454 40.8551 34.1819C41.3709 36.4184 40.9679 38.7342 39.7429 40.6693C38.5017 42.6044 36.5675 43.9527 34.2947 44.4603C33.6499 44.6347 32.9891 44.7141 32.3443 44.7141ZM10.4064 15.5919C9.93899 15.5919 9.45542 15.6395 8.98797 15.7506C7.34384 16.1154 5.9415 17.0988 5.03884 18.4946C4.1523 19.9063 3.86215 21.5718 4.23289 23.1897C4.60363 24.8076 5.603 26.1876 7.02147 27.0917L29.0077 41.399C30.41 42.2555 32.1025 42.541 33.7467 42.1762C35.3908 41.8114 36.7931 40.8279 37.6958 39.4321C38.5985 38.0204 38.8725 36.3549 38.5017 34.7212C38.131 33.1033 37.1316 31.7074 35.7132 30.8192L13.7269 16.5436C12.7276 15.925 11.5831 15.5919 10.4064 15.5919Z" fill="black"/>
<path d="M26.0912 105.1C25.0273 106.765 23.3348 107.939 21.3844 108.367C19.434 108.795 17.403 108.462 15.7106 107.415L6.555 100.849C4.87863 99.8018 3.68583 98.1363 3.2345 96.217C2.79929 94.2978 3.13779 92.2833 4.20164 90.6178C5.26549 88.9524 6.95797 87.7786 8.90837 87.3503C10.8588 86.9221 12.8897 87.2552 14.5822 88.302L23.7378 94.8846C25.4142 95.9315 26.607 97.597 27.0583 99.5163C27.4935 101.42 27.1389 103.434 26.0912 105.1Z" fill="#D6B294"/>
<path d="M19.707 109.747C18.079 109.747 16.4832 109.303 15.0809 108.431L5.86084 101.816C3.9588 100.627 2.58869 98.7232 2.07288 96.4867C1.55708 94.2502 1.96005 91.9502 3.18509 89.9992C4.44237 88.0483 6.37664 86.7 8.63329 86.1924C10.9061 85.6849 13.2433 86.0814 15.2098 87.2869L24.4298 93.9171C26.3319 95.1067 27.6859 97.0101 28.2017 99.2466C28.7175 101.483 28.3306 103.783 27.0895 105.734C25.8483 107.669 23.914 109.017 21.6413 109.525C21.0126 109.684 20.3518 109.747 19.707 109.747ZM10.5998 88.3496C10.1324 88.3496 9.64878 88.3972 9.16522 88.5082C7.52109 88.8731 6.11874 89.8565 5.21608 91.2523C4.32954 92.6481 4.0394 94.3295 4.41013 95.9474C4.78087 97.5653 5.78024 98.9452 7.19871 99.8335L16.4187 106.448C17.7727 107.289 19.4652 107.574 21.1093 107.193C22.7535 106.829 24.1558 105.845 25.0585 104.449C25.945 103.038 26.2352 101.372 25.8644 99.7542C25.4937 98.1363 24.5104 96.7563 23.0759 95.8681L13.8558 89.2379C12.9048 88.6669 11.7765 88.3496 10.5998 88.3496Z" fill="black"/>
<path d="M29.9911 83.6548C28.9273 85.3203 27.2348 86.4941 25.2844 86.9223C23.334 87.3506 21.303 87.0175 19.6105 85.9706L4.70051 76.4536C3.02414 75.4067 1.83134 73.7413 1.38001 71.822C0.944796 69.9027 1.28329 67.8883 2.34714 66.2228C3.41099 64.5573 5.10348 63.3836 7.05387 62.9553C9.00426 62.527 11.0352 62.8601 12.7277 63.907L27.6378 73.424C29.3141 74.4709 30.5069 76.1364 30.9583 78.0557C31.3935 79.9749 31.055 81.9894 29.9911 83.6548Z" fill="#D6B294"/>
<path d="M23.6079 88.3023C21.9799 88.3023 20.3842 87.8582 18.9818 86.9858L4.05568 77.4529C2.10528 76.2316 0.735175 74.3282 0.219369 72.0758C-0.296437 69.8234 0.106537 67.5393 1.33158 65.5884C2.58885 63.6374 4.52312 62.2891 6.79589 61.7815C9.06866 61.274 11.4059 61.6705 13.3724 62.876L28.2986 72.4089C30.2489 73.6302 31.6191 75.5495 32.1349 77.786C32.6507 80.0225 32.2477 82.3225 31.0227 84.2735C29.7815 86.2086 27.8472 87.5568 25.5745 88.0644C24.9136 88.2389 24.2527 88.3023 23.6079 88.3023ZM8.74629 63.9546C8.27884 63.9546 7.79527 64.0022 7.32782 64.1132C5.68369 64.478 4.28134 65.4615 3.37868 66.8573C2.49214 68.269 2.202 69.9345 2.57273 71.5524C2.94347 73.1703 3.94284 74.5502 5.36131 75.4543L20.2874 84.9714C21.7059 85.8438 23.3984 86.1293 25.0264 85.7645C26.6705 85.3996 28.0729 84.4162 28.9755 83.0204C29.8621 81.6087 30.1522 79.9432 29.7815 78.3253C29.4108 76.7074 28.4114 75.3274 26.9929 74.4233L12.0668 64.9063C11.0674 64.2877 9.90685 63.9546 8.74629 63.9546Z" fill="black"/>
<path d="M33.8914 62.2257C32.8276 63.8912 31.1351 65.0649 29.1847 65.4932C27.2343 65.9215 25.2033 65.5884 23.5108 64.5415L4.71613 52.4707C3.03976 51.4239 1.84696 49.7584 1.39563 47.8391C0.960421 45.9198 1.29892 43.9054 2.36277 42.2399C3.42662 40.5744 5.11911 39.4007 7.0695 38.9724C9.01989 38.5441 11.0509 38.8772 12.7434 39.9241L31.5542 52.0107C33.2305 53.0576 34.4233 54.7231 34.8747 56.6424C35.2938 58.5458 34.9553 60.5602 33.8914 62.2257Z" fill="#D6B294"/>
<path d="M27.5087 66.873C25.8807 66.873 24.2849 66.4289 22.8826 65.5565L4.05568 53.4699C2.10528 52.2485 0.735175 50.3451 0.219369 48.1086C-0.296437 45.8721 0.106537 43.5722 1.33158 41.6212C2.58885 39.6702 4.52312 38.322 6.77978 37.8144C9.05255 37.3068 11.3898 37.7033 13.3563 38.9088L32.1832 50.9955C34.1336 52.2168 35.5037 54.1202 36.0195 56.3567C36.5353 58.5932 36.1324 60.8932 34.9073 62.8442C33.6662 64.7793 31.7319 66.1275 29.4591 66.6351C28.8144 66.8096 28.1535 66.873 27.5087 66.873ZM8.74629 39.9716C8.27884 39.9716 7.79527 40.0192 7.32782 40.1302C5.68369 40.495 4.28134 41.4784 3.37868 42.8743C2.49214 44.286 2.202 45.9514 2.57273 47.5693C2.94347 49.1872 3.94284 50.5672 5.36131 51.4713L24.1882 63.5579C25.6067 64.4303 27.2992 64.7159 28.9272 64.3352C30.5713 63.9704 31.9737 62.9869 32.8763 61.5911C33.7629 60.1794 34.053 58.5139 33.6823 56.896C33.3115 55.2781 32.3122 53.8982 30.8937 52.994L12.0668 40.9074C11.0674 40.2888 9.90685 39.9716 8.74629 39.9716Z" fill="black"/>
<path d="M92.3069 118.915C92.1134 119.01 91.9039 119.09 91.6621 119.169V120.47H93.3868V118.931H92.3069V118.915Z" fill="black"/>
</g>
<defs>
<clipPath id="clip0">
<rect width="103" height="156" fill="white"/>
</clipPath>
</defs>
</svg>
