<svg width="96" height="100" viewBox="0 0 96 100" fill="none" xmlns="http://www.w3.org/2000/svg">
<g id="undraw_confirmed_81ex 1">
<path id="Vector" d="M79.3639 67.4456C79.3645 64.7723 78.3701 62.1949 76.5752 60.2179C74.7803 58.2409 72.3141 57.0064 69.6591 56.7562C67.0042 56.5059 64.3517 57.2578 62.2206 58.8647C60.0895 60.4716 58.6332 62.8179 58.1368 65.4445L25.2295 64.5496L25.5907 70.2173C25.5907 70.2173 20.8984 81.0715 45.56 83.9635V94.9341H74.0703V76.6939C75.6803 75.7488 77.0158 74.3981 77.9444 72.7758C78.873 71.1535 79.3623 69.316 79.3639 67.4456Z" fill="url(#paint0_linear)"/>
<path id="Vector_2" d="M26.7203 70.4529C26.7203 70.4529 22.2271 80.8471 45.8445 83.6202V94.1308H73.1483V66.2959L26.3696 65.0244L26.7203 70.4529Z" fill="#E8A7A7"/>
<path id="Vector_3" d="M40.3654 27.0772C39.6535 28.2034 38.5259 29.0015 37.2289 29.2969C35.932 29.5924 34.5711 29.3612 33.4435 28.654L18.7837 18.9695C17.6602 18.2558 16.8642 17.1254 16.5695 15.8252C16.2748 14.525 16.5053 13.1607 17.2108 12.0303C17.9226 10.9055 19.0493 10.1085 20.345 9.81316C21.6406 9.51776 23.0003 9.74793 24.1274 10.4535L38.7872 20.138C39.9115 20.8509 40.7087 21.9809 41.0044 23.2812C41.3001 24.5814 41.0704 25.9462 40.3654 27.0772Z" fill="url(#paint1_linear)"/>
<path id="Vector_4" d="M39.5535 26.5493C38.8917 27.5962 37.8436 28.338 36.6381 28.6126C35.4325 28.8873 34.1675 28.6725 33.1195 28.0152L19.488 19.0061C18.4437 18.3427 17.7038 17.2919 17.4298 16.0833C17.1559 14.8748 17.3701 13.6066 18.0258 12.5559C18.6876 11.5091 19.7357 10.7673 20.9413 10.4926C22.1468 10.218 23.4118 10.4328 24.4599 11.0901L38.0887 20.0939C39.1348 20.7569 39.8763 21.8085 40.1509 23.0184C40.4254 24.2282 40.2106 25.4979 39.5535 26.5493Z" fill="#E8A7A7"/>
<path id="Vector_5" d="M67.9645 78.0757C73.6274 78.0757 78.2181 73.4735 78.2181 67.7964C78.2181 62.1193 73.6274 57.5171 67.9645 57.5171C62.3016 57.5171 57.7109 62.1193 57.7109 67.7964C57.7109 73.4735 62.3016 78.0757 67.9645 78.0757Z" fill="#E8A7A7"/>
<path id="Vector_6" d="M66.119 0H26.8397C25.9477 0 25.2246 0.724918 25.2246 1.61915V75.3017C25.2246 76.1959 25.9477 76.9208 26.8397 76.9208H66.119C67.011 76.9208 67.7342 76.1959 67.7342 75.3017V1.61915C67.7342 0.724918 67.011 0 66.119 0Z" fill="url(#paint2_linear)"/>
<path id="Vector_7" d="M65.3598 1.04004H27.5967C26.6035 1.04004 25.7983 1.84721 25.7983 2.84291V74.0802C25.7983 75.0759 26.6035 75.8831 27.5967 75.8831H65.3598C66.3531 75.8831 67.1582 75.0759 67.1582 74.0802V2.84291C67.1582 1.84721 66.3531 1.04004 65.3598 1.04004Z" fill="white"/>
<path id="Vector_8" d="M56.869 2.91748C56.7493 3.71119 56.3503 4.43577 55.744 4.96015C55.1378 5.48453 54.3643 5.77409 53.5636 5.77644H39.2795C38.479 5.77377 37.7059 5.48407 37.0999 4.95972C36.4939 4.43537 36.0951 3.71097 35.9755 2.91748H28.4075C28.2012 2.91731 27.9969 2.9579 27.8062 3.03693C27.6155 3.11596 27.4423 3.23189 27.2963 3.37809C27.1504 3.52429 27.0346 3.69788 26.9556 3.88896C26.8766 4.08004 26.8359 4.28485 26.8359 4.49169V72.4299C26.8358 72.6367 26.8763 72.8416 26.9551 73.0327C27.0339 73.2239 27.1496 73.3976 27.2954 73.5439C27.4412 73.6902 27.6144 73.8063 27.805 73.8855C27.9956 73.9647 28.1999 74.0054 28.4062 74.0054H64.5503C64.7566 74.0056 64.9609 73.965 65.1516 73.886C65.3423 73.807 65.5155 73.691 65.6615 73.5448C65.8074 73.3986 65.9232 73.225 66.0022 73.034C66.0812 72.8429 66.1219 72.6381 66.1219 72.4312V4.49301C66.1221 4.28617 66.0816 4.08133 66.0027 3.89018C65.9239 3.69904 65.8083 3.52534 65.6624 3.37902C65.5166 3.23271 65.3434 3.11663 65.1528 3.03744C64.9622 2.95824 64.7579 2.91748 64.5516 2.91748H56.869Z" fill="#C4C4C4"/>
<path id="Vector_9" d="M50.8823 3.81104H42.1924C42.0468 3.81104 41.9287 3.92939 41.9287 4.07539V4.12429C41.9287 4.27029 42.0468 4.38864 42.1924 4.38864H50.8823C51.0279 4.38864 51.146 4.27029 51.146 4.12429V4.07539C51.146 3.92939 51.0279 3.81104 50.8823 3.81104Z" fill="#DBDBDB"/>
<path id="Vector_10" d="M53.1032 4.38889C53.294 4.38889 53.4487 4.23384 53.4487 4.04259C53.4487 3.85133 53.294 3.69629 53.1032 3.69629C52.9125 3.69629 52.7578 3.85133 52.7578 4.04259C52.7578 4.23384 52.9125 4.38889 53.1032 4.38889Z" fill="#DBDBDB"/>
<path id="Vector_11" d="M74.5931 69.6118C71.6174 70.3017 69.5751 68.3561 68.8868 65.3742L62.0493 39.9212C61.7225 38.4832 61.9765 36.974 62.7559 35.7231C63.5353 34.4723 64.7767 33.5814 66.2091 33.245C67.6434 32.9174 69.1489 33.172 70.3966 33.9533C71.6443 34.7347 72.533 35.9792 72.8686 37.4151L78.4483 63.5251C79.1365 66.5083 77.5675 68.9218 74.5931 69.6118Z" fill="url(#paint3_linear)"/>
<path id="Vector_12" d="M72.1009 38.0375C71.5208 35.5204 69.0151 33.9513 66.5042 34.5329C63.9934 35.1145 62.4283 37.6265 63.0084 40.1436L69.2958 67.4236C69.8759 69.9407 72.3816 71.5097 74.8924 70.9282C77.4033 70.3466 78.9684 67.8346 78.3883 65.3175L72.1009 38.0375Z" fill="#E8A7A7"/>
<path id="Vector_13" d="M78.1741 90.6934H39.1479V99.8135H78.1741V90.6934Z" fill="url(#paint4_linear)"/>
<path id="Vector_14" d="M77.1208 91.7505H40.2041V98.888H77.1208V91.7505Z" fill="#93573D"/>
<path id="Vector_15" d="M34.6755 54.3831C33.9722 55.496 32.8582 56.2845 31.5768 56.5765C30.2954 56.8685 28.9507 56.6402 27.8367 55.9415L18.005 49.564C16.8949 48.859 16.1083 47.7421 15.8171 46.4575C15.5258 45.1729 15.7536 43.8249 16.4505 42.7081C17.1538 41.5952 18.2679 40.8066 19.5493 40.5146C20.8307 40.2227 22.1753 40.451 23.2894 41.1497L33.1211 47.5272C34.2311 48.2322 35.0177 49.3491 35.309 50.6337C35.6003 51.9183 35.3725 53.2663 34.6755 54.3831Z" fill="url(#paint5_linear)"/>
<path id="Vector_16" d="M32.207 67.8803C31.4975 69.0033 30.3733 69.7992 29.0803 70.0939C27.7872 70.3886 26.4304 70.1583 25.3062 69.4532L19.2163 65.0015C18.096 64.2902 17.3022 63.1632 17.0082 61.867C16.7142 60.5707 16.944 59.2104 17.6473 58.0834C18.3569 56.9604 19.481 56.1646 20.774 55.8698C22.0671 55.5751 23.4239 55.8055 24.5481 56.5106L30.638 60.9636C31.7579 61.6749 32.5515 62.8016 32.8455 64.0975C33.1395 65.3935 32.9099 66.7534 32.207 67.8803Z" fill="url(#paint6_linear)"/>
<g id="Group" opacity="0.5">
<path id="Vector_17" opacity="0.5" d="M46.4783 50.3504C53.0273 50.3504 58.3364 45.028 58.3364 38.4626C58.3364 31.8971 53.0273 26.5747 46.4783 26.5747C39.9292 26.5747 34.6201 31.8971 34.6201 38.4626C34.6201 45.028 39.9292 50.3504 46.4783 50.3504Z" fill="url(#paint7_linear)"/>
</g>
<path id="Vector_18" d="M46.4781 49.6503C52.642 49.6503 57.6388 44.6409 57.6388 38.4616C57.6388 32.2823 52.642 27.2729 46.4781 27.2729C40.3142 27.2729 35.3174 32.2823 35.3174 38.4616C35.3174 44.6409 40.3142 49.6503 46.4781 49.6503Z" fill="#53A35D"/>
<path id="Vector_19" d="M41.6335 36.9672L45.8182 40.8135L51.7473 32.0728L53.841 33.8214L45.8182 44.3109L39.8892 37.6677L41.6335 36.9672Z" fill="white"/>
<path id="Vector_20" d="M31.7152 67.5495C31.0534 68.5964 30.0053 69.3382 28.7998 69.6128C27.5942 69.8875 26.3292 69.6727 25.2811 69.0153L19.6013 64.8703C18.557 64.2069 17.8171 63.1562 17.5431 61.9476C17.2691 60.739 17.4834 59.4709 18.1391 58.4202C18.8009 57.3733 19.849 56.6315 21.0545 56.3569C22.2601 56.0822 23.5251 56.297 24.5731 56.9543L30.2517 61.1073C31.294 61.7704 32.0327 62.8196 32.3068 64.0263C32.5809 65.2329 32.3683 66.4993 31.7152 67.5495Z" fill="#E8A7A7"/>
<path id="Vector_21" d="M34.1342 54.0317C33.4724 55.0786 32.4243 55.8204 31.2188 56.095C30.0132 56.3697 28.7482 56.1549 27.7001 55.4976L18.4499 49.4968C17.4056 48.8334 16.6657 47.7826 16.3917 46.5741C16.1178 45.3655 16.332 44.0974 16.9877 43.0466C17.6495 41.9998 18.6976 41.258 19.9032 40.9833C21.1087 40.7087 22.3737 40.9235 23.4218 41.5808L32.672 47.5816C33.7163 48.245 34.4562 49.2958 34.7302 50.5043C35.0041 51.7129 34.7899 52.981 34.1342 54.0317Z" fill="#E8A7A7"/>
<path id="Vector_22" d="M37.2179 40.9465C36.5111 42.0643 35.3919 42.8562 34.1046 43.1494C32.8173 43.4427 31.4666 43.2133 30.3474 42.5115L17.8881 34.3787C16.7731 33.6702 15.9831 32.5481 15.6906 31.2576C15.3981 29.9671 15.6269 28.613 16.327 27.491C17.0338 26.3733 18.153 25.5813 19.4403 25.2881C20.7276 24.9949 22.0783 25.2242 23.1975 25.9261L35.6568 34.0588C36.7718 34.7674 37.5618 35.8894 37.8543 37.1799C38.1467 38.4704 37.918 39.8245 37.2179 40.9465Z" fill="url(#paint8_linear)"/>
<path id="Vector_23" d="M36.555 40.5237C35.8933 41.5706 34.8451 42.3124 33.6396 42.587C32.4341 42.8617 31.1691 42.6469 30.121 41.9896L18.4514 34.3723C17.4071 33.7089 16.6672 32.6581 16.3932 31.4495C16.1192 30.241 16.3335 28.9728 16.9892 27.9221C17.651 26.8753 18.6991 26.1335 19.9046 25.8588C21.1102 25.5842 22.3752 25.799 23.4232 26.4563L35.0916 34.0736C36.136 34.7368 36.8762 35.7874 37.1504 36.996C37.4247 38.2046 37.2106 39.4729 36.555 40.5237Z" fill="#E8A7A7"/>
</g>
<defs>
<linearGradient id="paint0_linear" x1="52.2987" y1="94.9407" x2="52.2987" y2="56.7103" gradientUnits="userSpaceOnUse">
<stop stop-color="#808080" stop-opacity="0.25"/>
<stop offset="0.54" stop-color="#808080" stop-opacity="0.12"/>
<stop offset="1" stop-color="#808080" stop-opacity="0.1"/>
</linearGradient>
<linearGradient id="paint1_linear" x1="11306.3" y1="5828.12" x2="11306.3" y2="2880.92" gradientUnits="userSpaceOnUse">
<stop stop-color="#808080" stop-opacity="0.25"/>
<stop offset="0.54" stop-color="#808080" stop-opacity="0.12"/>
<stop offset="1" stop-color="#808080" stop-opacity="0.1"/>
</linearGradient>
<linearGradient id="paint2_linear" x1="25139" y1="50310.5" x2="25139" y2="5545.67" gradientUnits="userSpaceOnUse">
<stop stop-color="#808080" stop-opacity="0.25"/>
<stop offset="0.54" stop-color="#808080" stop-opacity="0.12"/>
<stop offset="1" stop-color="#808080" stop-opacity="0.1"/>
</linearGradient>
<linearGradient id="paint3_linear" x1="12951.3" y1="22017.2" x2="12951.3" y2="11856.8" gradientUnits="userSpaceOnUse">
<stop stop-color="#808080" stop-opacity="0.25"/>
<stop offset="0.54" stop-color="#808080" stop-opacity="0.12"/>
<stop offset="1" stop-color="#808080" stop-opacity="0.1"/>
</linearGradient>
<linearGradient id="paint4_linear" x1="26699.2" y1="7626.77" x2="26699.2" y2="6997.48" gradientUnits="userSpaceOnUse">
<stop stop-color="#808080" stop-opacity="0.25"/>
<stop offset="0.54" stop-color="#808080" stop-opacity="0.12"/>
<stop offset="1" stop-color="#808080" stop-opacity="0.1"/>
</linearGradient>
<linearGradient id="paint5_linear" x1="8560.27" y1="8214.76" x2="8560.27" y2="6202.12" gradientUnits="userSpaceOnUse">
<stop stop-color="#808080" stop-opacity="0.25"/>
<stop offset="0.54" stop-color="#808080" stop-opacity="0.12"/>
<stop offset="1" stop-color="#808080" stop-opacity="0.1"/>
</linearGradient>
<linearGradient id="paint6_linear" x1="6903.3" y1="8790.8" x2="6903.3" y2="7205.41" gradientUnits="userSpaceOnUse">
<stop stop-color="#808080" stop-opacity="0.25"/>
<stop offset="0.54" stop-color="#808080" stop-opacity="0.12"/>
<stop offset="1" stop-color="#808080" stop-opacity="0.1"/>
</linearGradient>
<linearGradient id="paint7_linear" x1="8395.09" y1="9083.45" x2="8395.09" y2="4806.44" gradientUnits="userSpaceOnUse">
<stop stop-color="#808080" stop-opacity="0.25"/>
<stop offset="0.54" stop-color="#808080" stop-opacity="0.12"/>
<stop offset="1" stop-color="#808080" stop-opacity="0.1"/>
</linearGradient>
<linearGradient id="paint8_linear" x1="9922.82" y1="7262.98" x2="9922.82" y2="4781.31" gradientUnits="userSpaceOnUse">
<stop stop-color="#808080" stop-opacity="0.25"/>
<stop offset="0.54" stop-color="#808080" stop-opacity="0.12"/>
<stop offset="1" stop-color="#808080" stop-opacity="0.1"/>
</linearGradient>
</defs>
</svg>
