<svg width="48" height="48" viewBox="0 0 48 48" fill="none" xmlns="http://www.w3.org/2000/svg">
<path d="M20.236 33.1821H27.2179C27.8623 33.1821 28.3831 32.6613 28.3831 32.0169C28.3831 31.3726 27.8623 30.8518 27.2179 30.8518H23.4357C22.6324 30.8518 21.9792 30.1986 21.9792 29.3954C21.9792 28.5921 22.6324 27.939 23.4357 27.939H31.0311C31.5739 27.939 32.1035 28.1287 32.5228 28.4774L35.365 30.8474V37.8294H20.9112C20.0991 37.8294 19.3091 37.5469 18.6824 37.0261L11.6166 31.1784C10.8972 30.6664 10.6898 29.6911 11.1444 28.932C11.1664 28.8923 11.1929 28.8525 11.2194 28.8172C11.7622 28.0581 12.817 27.8816 13.5762 28.4244L20.236 33.1821Z" fill="#D6B294"/>
<path d="M41.1686 24.4523C41.1686 26.381 39.6063 27.9433 37.6776 27.9433H10.906C8.97738 27.9433 7.41504 26.381 7.41504 24.4523H41.1686Z" fill="white"/>
<path d="M9.74072 23.8698C9.74072 15.8331 16.2549 9.31891 24.2917 9.31891C32.3284 9.31891 38.8426 15.8331 38.8426 23.8698V24.4524H9.74072V23.8698Z" fill="white"/>
<path d="M34.7428 16.7863C34.4647 16.3803 34.1646 15.9919 33.8469 15.6212L33.2334 16.1685C33.5291 16.5083 33.8027 16.8658 34.0587 17.2409L34.7428 16.7863Z" fill="black" fill-opacity="0.87"/>
<path d="M32.2447 15.1489L32.8096 14.5531C30.519 12.4524 27.5709 11.2828 24.4639 11.2431V12.064C27.359 12.0993 30.113 13.1894 32.2447 15.1489Z" fill="black" fill-opacity="0.87"/>
<path d="M40.3521 32.1008H38.8825H38.1013H37.8939H36.4242H35.7754V32.2905C35.4268 32.5068 35.1929 32.8908 35.1929 33.3321V34.6252V39.48V40.7731C35.1929 41.4527 35.7445 42 36.4198 42H37.8895H38.8781H40.3477C41.0274 42 41.5746 41.4483 41.5746 40.7731V39.48V34.6252V33.3321C41.579 32.6524 41.0274 32.1008 40.3521 32.1008Z" fill="#CC1543"/>
<path d="M38.4723 37.8691C39.1157 37.8691 39.6374 37.3474 39.6374 36.704C39.6374 36.0605 39.1157 35.5388 38.4723 35.5388C37.8288 35.5388 37.3071 36.0605 37.3071 36.704C37.3071 37.3474 37.8288 37.8691 38.4723 37.8691Z" fill="white"/>
<path d="M38.472 38.0368C37.735 38.0368 37.1348 37.4365 37.1348 36.6995C37.1348 35.9625 37.735 35.3622 38.472 35.3622C39.2091 35.3622 39.8093 35.9625 39.8093 36.6995C39.8093 37.4365 39.2091 38.0368 38.472 38.0368ZM38.472 35.7109C37.9248 35.7109 37.479 36.1567 37.479 36.7039C37.479 37.2512 37.9248 37.6969 38.472 37.6969C39.0193 37.6969 39.465 37.2512 39.465 36.7039C39.465 36.1567 39.0193 35.7109 38.472 35.7109Z" fill="#D6B294"/>
<path d="M38.4716 35.1284C37.6021 35.1284 36.896 35.8345 36.896 36.7039C36.896 37.5734 37.6021 38.2795 38.4716 38.2795C39.341 38.2795 40.0472 37.5734 40.0472 36.7039C40.0472 35.8345 39.341 35.1284 38.4716 35.1284ZM38.4716 37.4542C38.0567 37.4542 37.7169 37.1144 37.7169 36.6995C37.7169 36.2847 38.0567 35.9448 38.4716 35.9448C38.8864 35.9448 39.2263 36.2847 39.2263 36.6995C39.2263 37.1144 38.8864 37.4542 38.4716 37.4542Z" fill="black" fill-opacity="0.87"/>
<path d="M35.3693 40.5789H41.5833V39.758H35.7797V30.6841H41.5833V29.8632H35.3693C35.2854 29.8676 35.2015 29.8941 35.1353 29.947L35.025 30.0309L33.0125 28.3538H37.6819C39.8312 28.3494 41.5833 26.6017 41.5833 24.4524C41.5833 24.2273 41.3979 24.0419 41.1729 24.0419H39.253V23.8698C39.2442 15.8065 32.9242 9.24384 24.8654 8.92166L24.7021 8.91725V6.82089H25.4789C25.6951 6.80765 25.8628 6.6267 25.8628 6.41044C25.8628 6.18536 25.6775 6 25.4524 6H23.1265C22.9014 6 22.7161 6.18536 22.7161 6.41044C22.7161 6.63111 22.8882 6.80765 23.1045 6.82089H23.8768V8.91725L23.7135 8.92166C15.6547 9.23943 9.3391 15.8065 9.32586 23.8698V24.0419H7.41045C7.18536 24.0419 7 24.2273 7 24.4524C7.00441 26.5443 8.64619 28.2567 10.7381 28.345L11.0427 28.3582L10.875 28.6098C10.8617 28.6318 10.8441 28.6495 10.8308 28.6716C10.8176 28.6848 10.8043 28.7025 10.7955 28.7157C10.2306 29.669 10.4822 30.8694 11.3781 31.5094L18.4218 37.3527C19.1192 37.9309 20.0063 38.2486 20.911 38.253H34.9544V40.1684C34.9588 40.3935 35.1398 40.5789 35.3693 40.5789ZM10.1512 23.8698C10.16 16.0846 16.502 9.74255 24.2917 9.73373C32.0813 9.74255 38.4233 16.0846 38.4321 23.8742V24.0463H10.1512V23.8698ZM10.9058 27.5329C9.44943 27.5329 8.17837 26.4958 7.88709 25.0702L7.84737 24.8628H40.7403L40.7006 25.0702C40.4093 26.4958 39.1383 27.5329 37.6819 27.5329H10.9058ZM23.4355 31.2666H27.2177C27.6326 31.2666 27.9724 31.6065 27.9724 32.0213C27.9724 32.4362 27.6326 32.776 27.2177 32.776H20.3681L14.185 28.3538H21.8775L21.7584 28.601C21.6392 28.8481 21.573 29.1261 21.573 29.3998C21.573 30.4281 22.4071 31.2666 23.4355 31.2666ZM20.911 37.4277C20.196 37.4277 19.4943 37.1762 18.9426 36.7216L11.8812 30.8606C11.3295 30.4899 11.1574 29.7308 11.4972 29.1438C11.5149 29.1129 11.537 29.082 11.5546 29.0555C11.7532 28.7775 12.0489 28.5965 12.3843 28.5392C12.7197 28.4862 13.0596 28.5612 13.3376 28.7598L19.9974 33.5175C20.068 33.566 20.1519 33.5969 20.2357 33.5969H27.2177C28.0872 33.5969 28.7933 32.8908 28.7933 32.0213C28.7933 31.1519 28.0872 30.4458 27.2177 30.4458H23.4355C22.8617 30.4458 22.3939 29.9779 22.3939 29.4042C22.3939 28.8305 22.8617 28.3582 23.4355 28.3582H31.0309C31.4811 28.3582 31.9136 28.5171 32.2578 28.804L34.9544 31.0504V37.4321H20.911V37.4277Z" fill="black" fill-opacity="0.87"/>
</svg>
