<svg width="93" height="93" viewBox="0 0 93 93" fill="none" xmlns="http://www.w3.org/2000/svg">
<path d="M50.5907 48.4828C53.3831 46.1575 56.8596 44.868 60.3713 44.868C63.0791 44.868 65.7799 45.629 68.1704 47.0735C72.9232 49.9344 75.8708 55.0148 75.8708 60.356C75.8708 68.7483 68.7698 75.8441 60.3713 75.8441C56.3166 75.8441 52.3113 74.1177 49.3567 71.0948L49.3073 71.0455C46.4443 68.1001 44.8718 64.302 44.8718 60.356C44.8718 55.8252 46.9521 51.4987 50.5907 48.4828Z" fill="#D6B294"/>
<path d="M59.1517 50.1468C59.603 50.1468 59.9697 49.7802 59.9697 49.3289C59.9697 48.8775 59.603 48.5109 59.1517 48.5109C58.7004 48.5109 58.3337 48.8775 58.3337 49.3289C58.3337 49.7731 58.7004 50.1468 59.1517 50.1468Z" fill="black" fill-opacity="0.87"/>
<path d="M59.1517 55.0442C59.603 55.0442 59.9697 54.6775 59.9697 54.2262C59.9697 53.7749 59.603 53.4082 59.1517 53.4082C58.7004 53.4082 58.3337 53.7749 58.3337 54.2262C58.3337 54.6775 58.7004 55.0442 59.1517 55.0442Z" fill="black" fill-opacity="0.87"/>
<path d="M54.2364 50.9421C53.7781 50.9421 53.4185 51.3158 53.4185 51.7742C53.4185 52.2325 53.7922 52.5922 54.2364 52.5922C54.6948 52.5922 55.0544 52.2184 55.0544 51.7742C55.0544 51.3158 54.6948 50.9421 54.2364 50.9421Z" fill="black" fill-opacity="0.87"/>
<path d="M63.848 30.4227L65.6956 23.9471C65.9212 22.8408 65.893 21.7697 65.6392 20.6987C65.0468 18.3029 63.1217 16.3722 60.7453 15.7521C58.6016 15.2024 56.3592 15.6393 54.6386 16.9641C52.918 18.2958 51.9379 20.3041 51.9379 22.4673C51.9379 22.9465 51.9872 23.4186 52.0789 23.8907L53.9476 30.458L54.1591 31.4868C54.2437 32.128 54.2367 32.7481 54.138 33.3752C54.0392 33.9178 53.8912 34.4463 53.6726 34.9395L50.8801 40.478C50.316 41.4152 49.8224 42.3453 49.3993 43.2754L49.0537 44.0365L48.1864 42.3171C47.9608 41.7957 47.7986 41.2672 47.7069 40.7317C47.5518 39.7663 47.6082 38.7869 47.8761 37.8708C47.8973 37.8074 47.9607 37.5467 48.3556 36.1797C48.9057 34.2349 49.7519 31.2965 49.7519 31.2965C49.9775 30.1973 49.9634 29.1333 49.6954 28.0551C49.1031 25.6594 47.1851 23.7286 44.8016 23.1085C42.6438 22.5448 40.4226 22.9958 38.702 24.3205C36.9814 25.6523 36.0012 27.6605 36.0012 29.8238C36.0012 30.303 36.0506 30.7751 36.1422 31.2472L38.0109 37.8145L38.2225 38.8432C38.3071 39.4845 38.3 40.1116 38.1943 40.7317C38.1096 41.2672 37.9545 41.7886 37.7288 42.296L36.8474 44.0224L36.5019 43.2614C36.0788 42.3383 35.5852 41.4011 35.0422 40.4991L32.2427 34.9466C32.017 34.4392 31.8548 33.9037 31.7632 33.3611C31.601 32.4098 31.6644 31.4233 31.9324 30.5003L33.8011 23.933C34.0267 22.8267 33.9985 21.7556 33.7447 20.6846C33.1523 18.3029 31.2272 16.3581 28.8509 15.738C26.686 15.1743 24.4718 15.6252 22.7441 16.95C21.0377 18.2747 20.0575 20.2759 20.0575 22.4391C20.0575 22.9183 20.1068 23.3904 20.1985 23.8625L22.0672 30.4298L22.2787 31.4586C22.3634 32.0998 22.3563 32.7199 22.2576 33.347C22.1589 33.8825 22.0108 34.404 21.7922 34.9113L18.9222 40.4498C15.8688 45.488 14.8604 50.5192 15.89 55.4517C16.5599 58.6719 18.1112 61.8217 20.5017 64.8093L20.6357 64.9785C21.2633 65.7606 22.2012 66.2116 23.1955 66.2116H30.7266C31.2061 66.2116 31.7491 66.0566 32.2991 65.7606L32.6869 65.5492L32.8491 65.972C33.6812 68.0859 34.9082 70.1787 36.516 72.1729L36.6499 72.342C37.2775 73.1241 38.2154 73.5751 39.2097 73.5751H46.6703C47.3261 73.5751 47.9678 73.3849 48.5037 73.0114L48.7646 72.8423L49.0044 73.0537C52.1847 75.9145 56.2182 77.5 60.3504 77.5C64.8353 77.5 69.1086 75.689 72.4017 72.4054C75.6948 69.1147 77.5 64.8446 77.5 60.363C77.5 54.6907 74.4396 49.1804 69.5105 45.9813L69.3977 45.9038L69.3483 45.7699C68.7842 44.0083 67.9662 42.2326 66.9155 40.5062L64.1231 34.9536C63.8974 34.4463 63.7352 33.9178 63.6436 33.3682C63.4814 32.4169 63.5448 31.4304 63.8128 30.5073L63.848 30.4227ZM53.7008 23.5313C53.6232 23.172 53.5879 22.8126 53.5879 22.4603C53.5879 20.8044 54.3425 19.2753 55.647 18.2676C56.9657 17.26 58.6651 16.9147 60.3293 17.3446C62.1063 17.8026 63.5942 19.3105 64.0314 21.0933C64.2288 21.9036 64.257 22.7139 64.0949 23.5031L62.882 27.7733H54.9066L53.7008 23.5313ZM62.4236 29.4222L62.2544 30.0352C62.0428 30.768 61.93 31.522 61.93 32.276V32.6776H55.8868V32.276C55.8868 31.9166 55.8586 31.5643 55.8092 31.2331L55.3861 29.4151H62.4166V29.4222H62.4236ZM50.1538 45.8263C50.6686 44.3324 51.3949 42.8104 52.2975 41.3165L52.643 41.5279L52.3187 41.2883L55.1534 35.6723C55.3156 35.313 55.4496 34.9677 55.5412 34.6154L55.6259 34.3265H62.1627L62.2473 34.6154C62.3531 34.9677 62.473 35.2989 62.6281 35.6371L65.4699 41.2602C65.9917 42.1339 66.4431 42.9654 66.8238 43.7969L67.2469 44.6918L66.3232 44.3395C61.1543 42.3453 55.3579 43.0922 50.7602 46.2843L49.7519 46.9819L50.1538 45.8263ZM50.591 48.4828C53.3834 46.1574 56.8599 44.8679 60.3716 44.8679C63.0794 44.8679 65.7802 45.629 68.1707 47.0735C72.9235 49.9343 75.8711 55.0148 75.8711 60.356C75.8711 68.7483 68.7701 75.8441 60.3716 75.8441C56.3169 75.8441 52.3116 74.1177 49.357 71.0948L49.3076 71.0454C46.4447 68.1 44.8721 64.302 44.8721 60.356C44.8721 55.8251 46.9524 51.4986 50.591 48.4828ZM37.75 30.8878C37.6724 30.5144 37.6442 30.162 37.6442 29.8168C37.6442 28.1608 38.3988 26.6318 39.7033 25.6241C41.0079 24.6165 42.7073 24.2712 44.3856 24.701C46.1626 25.1661 47.6505 26.667 48.0877 28.4497C48.2851 29.2601 48.3133 30.0704 48.1511 30.8596C48.0454 31.2119 47.4953 33.1568 47.0158 34.8338L46.9312 35.1298H38.9488L37.75 30.8878ZM46.4658 36.7716L46.2966 37.3846C46.078 38.1175 45.9722 38.8714 45.9651 39.6324V40.0341H39.9219V39.6324C39.9219 39.2872 39.8937 38.9348 39.8443 38.5966L39.4212 36.7786H46.4658V36.7716ZM39.1956 43.0218C39.3507 42.6765 39.4847 42.3383 39.5834 41.9648L39.668 41.6759H46.2119L46.2966 41.9648C46.4023 42.3101 46.5222 42.6483 46.6774 42.9865L49.0255 47.6372L48.8069 47.8345C45.26 51.1181 43.2221 55.6701 43.2221 60.3419C43.2221 64.2597 44.6535 68.1141 47.2485 71.2146L47.6716 71.7078L47.0511 71.8628C46.9383 71.891 46.8113 71.9051 46.6915 71.9051H39.2238C38.7302 71.9051 38.2718 71.6796 37.9474 71.285L37.8135 71.123C35.973 68.8258 34.6614 66.423 33.921 63.9779C32.3908 58.9819 33.2088 53.824 36.3467 48.6519L39.1956 43.0218ZM21.7922 23.5313C21.7146 23.172 21.6794 22.8126 21.6794 22.4603C21.6794 20.8044 22.4339 19.2753 23.7384 18.2676C25.043 17.26 26.7565 16.9147 28.4207 17.3446C30.1977 17.8026 31.6856 19.3105 32.1228 21.0933C32.3203 21.9036 32.3485 22.7139 32.1863 23.5031L30.9734 27.7733H22.991L21.7922 23.5313ZM30.515 29.4222L30.3458 30.0352C30.1342 30.768 30.0214 31.522 30.0214 32.276V32.6776H23.9782V32.276C23.9782 31.9166 23.95 31.5643 23.9006 31.2331L23.4775 29.4151H30.508V29.4222H30.515ZM20.3254 41.3095L23.2448 35.6723C23.4141 35.2989 23.541 34.9536 23.6468 34.6154L23.7314 34.3265H30.2682L30.3528 34.6154C30.4586 34.9677 30.5785 35.2989 30.7336 35.6371L33.5684 41.2602C34.5204 42.8315 35.2467 44.3676 35.7614 45.8826L35.8179 46.0447L34.9223 47.8274C31.7138 53.1264 30.7689 58.4323 32.0946 63.6185L32.1581 63.8651L31.9606 64.0272C31.6292 64.2879 31.0933 64.5486 30.7266 64.5486H23.2025C22.7089 64.5486 22.2364 64.3231 21.9332 63.9356L21.7992 63.7735C17.8715 58.8833 14.4373 51.0195 20.3254 41.3095Z" fill="black" fill-opacity="0.87"/>
<path d="M70.5469 63.238C69.2565 67.6209 64.8774 70.9397 60.3715 70.9397C59.9131 70.9397 59.5535 71.3132 59.5535 71.7571C59.5535 72.2081 59.9272 72.5745 60.3715 72.5745C65.5826 72.5745 70.6386 68.7483 72.1265 63.696C72.19 63.4846 72.1618 63.2591 72.056 63.0689C71.9502 62.8786 71.781 62.7377 71.5694 62.6672C71.4919 62.6461 71.4143 62.632 71.3438 62.632C70.9841 62.6461 70.6527 62.8716 70.5469 63.238Z" fill="black" fill-opacity="0.87"/>
<path d="M62.424 29.4223L62.2547 30.0354C62.0432 30.7682 61.9304 31.5222 61.9304 32.2761V32.6778H55.8871V32.2761C55.8871 31.9168 55.8589 31.5645 55.8096 31.2333L55.3865 29.4153H62.4169V29.4223H62.424Z" fill="#CC1543"/>
<path d="M46.465 36.7715L46.2957 37.3846C46.0771 38.1174 45.9714 38.8714 45.9643 39.6324V40.034H39.9211V39.6324C39.9211 39.2871 39.8929 38.9348 39.8435 38.5895L39.4204 36.7715H46.465Z" fill="#D6B294"/>
<path d="M30.5146 29.4223L30.3453 30.0354C30.1338 30.7682 30.021 31.5222 30.021 32.2761V32.6778H23.9777V32.2761C23.9777 31.9168 23.9495 31.5645 23.9001 31.2333L23.4771 29.4153H30.5075V29.4223H30.5146Z" fill="#CC1543"/>
<path d="M46.9386 35.1368L47.0232 34.8409C47.5027 33.1638 48.0528 31.219 48.1585 30.8667C48.3207 30.0775 48.2925 29.2672 48.0951 28.4568C47.6579 26.6741 46.17 25.1732 44.393 24.7081C42.7147 24.2783 41.0152 24.6235 39.7107 25.6312C38.4061 26.6388 37.6516 28.1679 37.6516 29.8238C37.6516 30.1691 37.6798 30.5214 37.7574 30.8949L38.9632 35.1368H46.9386Z" fill="white"/>
<path d="M30.9803 27.7746L32.1932 23.5044C32.3554 22.7152 32.3272 21.9049 32.1297 21.0946C31.6925 19.3118 30.2046 17.8039 28.4276 17.3458C26.7564 16.916 25.0499 17.2613 23.7454 18.2689C22.4408 19.2766 21.6863 20.8056 21.6863 22.4616C21.6863 22.8139 21.7215 23.1662 21.7991 23.5326L23.0049 27.7746H30.9803Z" fill="white"/>
<path d="M52.2969 41.3096C51.3872 42.8034 50.6679 44.3254 50.1532 45.8193L49.7512 46.9749L50.7596 46.2773C55.3573 43.0853 61.1537 42.3383 66.3225 44.3325L67.2463 44.6848L66.8232 43.7899C66.4424 42.9584 65.9911 42.134 65.4693 41.2532L62.6275 35.6301C62.4723 35.299 62.3525 34.9607 62.2467 34.6084L62.1621 34.3195H55.6252L55.5406 34.6084C55.4419 34.9607 55.315 35.306 55.1528 35.6654L52.318 41.2814" fill="white"/>
<path d="M62.8892 27.7746L64.1021 23.5044C64.2643 22.7152 64.2361 21.9049 64.0387 21.0946C63.6015 19.3118 62.1136 17.8039 60.3366 17.3458C58.6653 16.916 56.9659 17.2613 55.6543 18.2689C54.3497 19.2766 53.5952 20.8056 53.5952 22.4616C53.5952 22.8139 53.6305 23.1662 53.708 23.5326L54.9139 27.7746H62.8892Z" fill="white"/>
<path d="M43.2362 60.3489C43.2362 55.6771 45.2671 51.118 48.8211 47.8414L49.0397 47.6441L46.6915 42.9935C46.5364 42.6623 46.4165 42.317 46.3107 41.9718L46.2261 41.6828H39.6822L39.5976 41.9718C39.4918 42.3452 39.3578 42.6834 39.2098 43.0287L36.3538 48.6659C33.2159 53.8309 32.4049 58.9959 33.9281 63.9919C34.6756 66.4299 35.9801 68.8328 37.8206 71.137L37.9546 71.299C38.2789 71.6866 38.7373 71.9191 39.2309 71.9191H46.6915C46.8185 71.9191 46.9383 71.9121 47.0512 71.8839L47.6788 71.7288L47.2557 71.2356C44.6677 68.114 43.2362 64.2667 43.2362 60.3489Z" fill="white"/>
<path d="M35.8175 46.0517L35.7611 45.8896C35.2463 44.3746 34.52 42.8385 33.5681 41.2671L30.7333 35.6441C30.5782 35.3129 30.4583 34.9747 30.3525 34.6223L30.2679 34.3334H23.731L23.6464 34.6223C23.5406 34.9676 23.4208 35.3058 23.2445 35.6793L20.3251 41.3165C14.437 51.0264 17.8711 58.8903 21.8059 63.7946L21.9399 63.9567C22.2432 64.3372 22.7156 64.5697 23.2092 64.5697H30.7404C31.1 64.5697 31.6359 64.3019 31.9744 64.0483L32.1718 63.8862L32.1084 63.6396C30.7686 58.4393 31.7135 53.1333 34.922 47.8344L35.8175 46.0517Z" fill="white"/>
</svg>
