<svg width="93" height="93" viewBox="0 0 93 93" fill="none" xmlns="http://www.w3.org/2000/svg">
<g clip-path="url(#clip0)">
<path d="M77.7512 60.4478H60.5622L60.5783 60.1431L61.9572 38.7852H63.6889C64.186 38.7852 64.5869 38.3843 64.5869 37.8873V35.5462C64.5869 34.1833 63.721 32.9487 62.4222 32.4997L62.2298 32.4355V30.3511L62.2939 30.2709C63.0796 29.389 63.4645 28.2505 63.3843 27.08C63.3041 25.9095 62.775 24.8352 61.8931 24.0495C61.38 23.6005 60.7386 23.2638 60.0812 23.0874L59.8727 23.0393V22.6705C59.8727 19.5919 57.3714 17.0905 54.2927 17.0905C52.5129 17.0905 50.8293 17.9404 49.7871 19.3835L49.5946 19.64L49.3702 19.4155C47.8789 17.9243 45.8105 17.0745 43.71 17.0745C43.694 17.0745 43.6779 17.0745 43.6619 17.0745H43.4214L43.3893 16.834C42.7639 13.1621 39.2524 10.6768 35.6126 11.3021C33.5281 11.6549 31.7002 12.9857 30.7221 14.8618L30.5777 15.1664L30.3052 14.974C28.8781 13.8676 27.1143 13.3866 25.3184 13.6111C23.5386 13.8516 21.9512 14.7655 20.8448 16.1766C20.1393 17.0905 19.6743 18.1649 19.4979 19.3193L19.4498 19.608L19.1612 19.5438C17.7021 19.2231 16.2108 19.4957 14.9602 20.2974C13.7095 21.0992 12.8436 22.3499 12.5229 23.809C12.0579 25.9416 12.8757 28.1543 14.6234 29.4692L14.7357 29.5493V32.3073H14.4631C12.6672 32.2912 11.2241 33.7504 11.2241 35.5302V37.8712C11.2241 38.3683 11.625 38.7692 12.1221 38.7692H13.6293L13.6453 39.0257L15.9222 70.7419C15.9543 71.2069 16.3391 71.5757 16.8202 71.5757H29.9845V77.7169C29.9845 79.4968 31.4276 80.9559 33.2234 80.9559H53.1383C53.475 80.9559 53.7957 80.7635 53.94 80.4588L55.4793 77.3642L57.0186 80.4588C57.1629 80.7635 57.4676 80.9559 57.8203 80.9559H77.7352C79.515 80.9559 80.9741 79.5128 80.9741 77.7169V63.6707C80.9902 61.8909 79.531 60.4478 77.7512 60.4478Z" fill="white"/>
</g>
<path d="M77.7563 60.4426H60.5606L60.5792 60.145L61.9556 38.7922H63.6854C64.1783 38.7922 64.5782 38.3923 64.5782 37.8994V35.5558C64.5782 34.1887 63.7133 32.9611 62.4206 32.5054L62.2346 32.4403V30.3478L62.2997 30.2641C63.0809 29.3806 63.4715 28.246 63.3971 27.0742C63.3227 25.9024 62.7926 24.8236 61.9091 24.0424C61.3883 23.5867 60.7559 23.2519 60.0956 23.0845L59.8817 23.0287V22.666C59.8817 19.5877 57.38 17.086 54.3017 17.086C52.5161 17.086 50.8328 17.9416 49.7912 19.3831L49.5959 19.6435L49.3727 19.4203C47.8847 17.9323 45.8201 17.086 43.7183 17.086C43.6997 17.086 43.6811 17.086 43.6625 17.086H43.4207L43.3835 16.8535C42.7604 13.18 39.245 10.6969 35.5994 11.32C33.5162 11.6734 31.6934 13.0033 30.7169 14.8819L30.5681 15.1795L30.3077 14.9749C28.8848 13.8682 27.1178 13.3939 25.3229 13.6171C23.5373 13.8496 21.947 14.761 20.8403 16.1839C20.1335 17.0953 19.6685 18.1741 19.5011 19.318L19.4546 19.6063L19.1663 19.5412C17.7062 19.225 16.2182 19.4854 14.9627 20.2945C13.7072 21.0943 12.8423 22.3405 12.5261 23.8006C12.0611 25.9303 12.8795 28.153 14.6279 29.455L14.7395 29.5387V32.3008H14.4605C12.6749 32.3008 11.2241 33.7516 11.2241 35.5372V37.8808C11.2241 38.3737 11.624 38.7736 12.1169 38.7736H13.6235L13.6421 39.034L15.9113 70.7563C15.9392 71.2213 16.3298 71.584 16.8041 71.584H29.9729V77.722C29.9729 79.5076 31.4237 80.9584 33.2093 80.9584H53.1299C53.474 80.9584 53.7809 80.7724 53.9297 80.4655L55.4735 77.3779L57.0173 80.4655C57.1661 80.7724 57.473 80.9584 57.8171 80.9584H77.7377C79.5233 80.9584 80.9741 79.5076 80.9741 77.722V63.679C80.9927 61.8934 79.5326 60.4426 77.7563 60.4426ZM14.6558 23.131C15.6881 21.3082 17.9945 20.6572 19.8266 21.6802C19.8638 21.6988 19.9103 21.7267 19.9382 21.7453C20.3474 21.9871 20.8961 21.8476 21.1472 21.4198C21.2402 21.2524 21.2867 21.0571 21.2681 20.8711C21.2495 20.6851 21.2402 20.4991 21.2402 20.3224C21.2402 17.5882 23.4629 15.3562 26.2064 15.3562C27.8153 15.3562 29.3312 16.1374 30.2612 17.4487C30.5402 17.8486 31.0982 17.9416 31.5074 17.6626C31.7027 17.5231 31.8329 17.3185 31.8701 17.086C32.3072 14.6866 34.3997 13.0033 36.7526 13.0033C37.0409 13.0033 37.3385 13.0312 37.6454 13.087C40.0076 13.5148 41.7188 15.5701 41.7188 17.9695C41.7095 18.2671 41.7932 18.4903 41.9513 18.667C42.1094 18.8437 42.3326 18.946 42.5744 18.9553C42.6488 18.946 42.7046 18.9553 42.7604 18.946C43.0859 18.8902 43.4207 18.8623 43.7555 18.8623C43.7741 18.8623 43.7927 18.8623 43.8206 18.8623C45.9596 18.8623 47.9684 20.0062 49.0565 21.8476C49.1774 22.0522 49.3727 22.1917 49.6052 22.2568C49.8377 22.3126 50.0795 22.2754 50.2748 22.1545C50.4794 22.0336 50.6189 21.8476 50.684 21.6337C51.2513 19.6156 53.3624 18.4531 55.3619 19.0111C56.9894 19.4668 58.1333 20.9734 58.1333 22.666C58.1333 22.9915 58.0961 23.317 58.0124 23.6146C57.8915 24.0889 58.1705 24.5818 58.6541 24.7027C58.7378 24.7213 58.8494 24.7492 58.9052 24.7306H59.0354C60.4769 24.7306 61.6487 25.9024 61.658 27.3532C61.658 28.0972 61.3325 28.8133 60.7838 29.3062C60.5978 29.4736 60.4862 29.7154 60.4862 29.9758V32.3194H16.5437V29.0644C16.5437 28.7482 16.3763 28.4506 16.0973 28.2925C14.2838 27.2695 13.6328 24.9538 14.6558 23.131ZM13.0283 37.0066V35.5558C13.0283 34.756 13.6793 34.105 14.4791 34.105H61.3511C62.1509 34.105 62.8019 34.756 62.8019 35.5558V37.0066H13.0283ZM60.17 38.7922L60.1514 39.0898L58.775 60.4426H57.8357C57.4916 60.4426 57.1847 60.6286 57.0359 60.9355L55.4921 64.0231L53.9483 60.9355C53.7995 60.6286 53.4926 60.4426 53.1485 60.4426H52.8695V38.7922H60.17ZM51.0839 38.7922V60.4426H43.4951V38.7922H51.0839ZM41.7095 38.7922V60.4426H34.1207V38.7922H41.7095ZM22.9607 69.817H17.6597L17.6411 69.5566L15.4463 38.7922H22.97V69.817H22.9607ZM29.9915 63.679V69.817H24.7463V38.7922H32.3351V60.5542L32.1491 60.6193C30.8564 61.0843 29.9915 62.3119 29.9915 63.679ZM79.2071 77.7406C79.2071 78.5404 78.5561 79.1914 77.7563 79.1914H58.3937L58.31 79.0333L56.2919 74.9971C56.0687 74.5507 55.5293 74.3833 55.0922 74.5972C54.9248 74.6809 54.7853 74.8204 54.6923 74.9971L52.5998 79.1914H33.2279C32.4281 79.1914 31.7771 78.5404 31.7771 77.7406V63.679C31.7771 62.8792 32.4281 62.2282 33.2279 62.2282H52.5905L52.6742 62.3863L54.6923 66.4225C54.7946 66.6364 54.9806 66.7945 55.2038 66.8689C55.4363 66.9433 55.6781 66.9247 55.892 66.8224C56.0687 66.7294 56.2082 66.5992 56.2919 66.4225L58.3937 62.2282H77.7563C78.5561 62.2282 79.2071 62.8792 79.2071 63.679V77.7406Z" fill="black" fill-opacity="0.87"/>
<path d="M49.6329 65.1298H35.5713C35.0784 65.1298 34.6785 65.5297 34.6785 66.0226V75.397C34.6785 75.8899 35.0784 76.2898 35.5713 76.2898H49.6329C50.1258 76.2898 50.5257 75.8899 50.5257 75.397V66.0226C50.5257 65.5297 50.1258 65.1298 49.6329 65.1298ZM48.7401 74.5042H36.4641V66.9154H48.7401V74.5042Z" fill="black" fill-opacity="0.87"/>
<path d="M75.4127 65.1298H61.3511C60.8582 65.1298 60.4583 65.5297 60.4583 66.0226V75.397C60.4583 75.8899 60.8582 76.2898 61.3511 76.2898H75.4127C75.9056 76.2898 76.3055 75.8899 76.3055 75.397V66.0226C76.3055 65.5297 75.9056 65.1298 75.4127 65.1298ZM74.5199 74.5042H62.2439V66.9154H74.5199V74.5042Z" fill="black" fill-opacity="0.87"/>
<path d="M41.4299 28.2459C43.8572 28.2459 45.8381 26.265 45.8381 23.8377C45.8381 23.3448 45.4382 22.9449 44.9453 22.9449C44.4524 22.9449 44.0525 23.3448 44.0525 23.8377C44.0525 25.2792 42.8714 26.4603 41.4299 26.4603C39.9884 26.4603 38.8073 25.2885 38.8073 23.8377C38.8073 23.3448 38.4074 22.9449 37.9145 22.9449C37.4216 22.9449 37.0217 23.3448 37.0217 23.8377C37.0217 26.2743 39.0026 28.2459 41.4299 28.2459Z" fill="black" fill-opacity="0.87"/>
<path d="M27.3689 27.6322C26.876 27.6322 26.4761 28.0321 26.4761 28.525C26.4761 29.0179 26.876 29.4178 27.3689 29.4178C29.8055 29.4178 31.7771 27.4369 31.7771 25.0096C31.7771 22.5823 29.7962 20.6014 27.3689 20.6014C26.876 20.6014 26.4761 21.0013 26.4761 21.4942C26.4761 21.9871 26.876 22.387 27.3689 22.387C28.8104 22.387 29.9915 23.5588 29.9915 25.0096C29.9915 26.4604 28.8197 27.6322 27.3689 27.6322Z" fill="black" fill-opacity="0.87"/>
<path d="M60.1692 38.7923L60.1506 39.0899L58.7742 60.4427H57.8349C57.4908 60.4427 57.1839 60.6287 57.0351 60.9356L55.4913 64.0232L53.9475 60.9356C53.7987 60.6287 53.4918 60.4427 53.1477 60.4427H52.8687V38.7923H60.1692Z" fill="#CC1543"/>
<path d="M41.7092 38.7923H34.1204V60.4427H41.7092V38.7923Z" fill="#CC1543"/>
<path d="M22.9607 69.8171H17.6597L17.6411 69.5567L15.4463 38.7923H22.9607V69.8171Z" fill="#CC1543"/>
<path d="M77.7556 62.2281H58.393L56.2912 66.4224C56.2075 66.5991 56.068 66.7293 55.8913 66.8223C55.6774 66.9246 55.4356 66.9432 55.2031 66.8688C54.9799 66.7944 54.7939 66.6363 54.6916 66.4224L52.6735 62.3862L52.5898 62.2281H33.2272C32.4274 62.2281 31.7764 62.8791 31.7764 63.6789V77.7405C31.7764 78.5403 32.4274 79.1913 33.2272 79.1913H52.5898L54.6823 74.997C54.7753 74.8203 54.9148 74.6808 55.0822 74.5971C55.5193 74.3832 56.0587 74.5506 56.2819 74.997L58.3 79.0332L58.3837 79.1913H77.7463C78.5461 79.1913 79.1971 78.5403 79.1971 77.7405V63.6789C79.2064 62.8791 78.5554 62.2281 77.7556 62.2281ZM50.5252 75.3969C50.5252 75.8898 50.1253 76.2897 49.6324 76.2897H35.5708C35.0779 76.2897 34.678 75.8898 34.678 75.3969V66.0225C34.678 65.5296 35.0779 65.1297 35.5708 65.1297H49.6324C50.1253 65.1297 50.5252 65.5296 50.5252 66.0225V75.3969ZM76.3048 75.3969C76.3048 75.8898 75.9049 76.2897 75.412 76.2897H61.3504C60.8575 76.2897 60.4576 75.8898 60.4576 75.3969V66.0225C60.4576 65.5296 60.8575 65.1297 61.3504 65.1297H75.412C75.9049 65.1297 76.3048 65.5296 76.3048 66.0225V75.3969Z" fill="#D6B294"/>
<defs>
<clipPath id="clip0">
<rect width="69.75" height="69.734" fill="white" transform="translate(11.2241 11.2242)"/>
</clipPath>
</defs>
</svg>
