<svg width="93" height="93" viewBox="0 0 93 93" fill="none" xmlns="http://www.w3.org/2000/svg">
<path d="M75.6165 56.1767V55.9449C75.6165 53.578 74.1269 51.4429 71.909 50.6484L71.7766 50.6153V47.5036L71.8924 47.4539C72.24 47.3215 72.571 47.1394 72.8855 46.9408C74.1269 46.1132 74.8386 44.7725 74.8386 43.2994C74.8386 42.3725 74.5572 41.5118 74.0441 40.767L73.9945 40.6843L74.0276 40.5849C74.2924 39.956 74.3586 39.2443 74.2428 38.5656C73.2828 33.3684 69.9724 28.618 64.9572 25.1753C59.8924 21.7491 53.4538 19.8622 46.8 19.8622C40.1297 19.8622 33.7076 21.7491 28.6924 25.1918C23.6607 28.6346 20.3503 33.3849 19.3903 38.5822C19.2248 39.4429 19.3903 40.3201 19.8372 41.0649L19.8869 41.1477L19.8372 41.2305C19.4897 41.8594 19.3241 42.5546 19.3241 43.2994C19.3241 44.7725 20.0359 46.0967 21.2772 46.9408C21.4097 47.0236 21.5586 47.1063 21.7407 47.2056L21.84 47.2553V50.5987L21.7076 50.6484C19.4897 51.4429 18 53.5615 18 55.9449V56.1767C18 57.716 18.6455 59.2222 19.771 60.2815L19.8703 60.3808L19.8041 60.5132C19.4897 61.1256 19.3241 61.8043 19.3241 62.4994C19.3241 63.5918 19.7048 64.6015 20.4331 65.4125L20.4828 65.4622V69.6498C20.4828 73.9532 23.9586 77.4622 28.2124 77.4622H65.3876C69.6579 77.4622 73.1172 73.9532 73.1172 69.6332V65.9422L73.1834 65.8925C74.2428 65.0318 74.8221 63.8236 74.8221 62.4829C74.8221 61.6387 74.5903 60.8277 74.1434 60.1491L74.0607 60.0332L74.16 59.9339C75.1034 58.8912 75.6165 57.567 75.6165 56.1767Z" fill="white"/>
<path d="M50.5828 26.4382C50.7364 26.6494 50.9572 26.7838 51.2068 26.8222C54.9508 27.4078 58.426 28.7422 61.2484 30.6718C63.994 32.5438 66.01 34.8958 67.0852 37.4782C67.2772 37.9486 67.8148 38.1982 68.3332 37.987C68.5636 37.891 68.746 37.699 68.842 37.4686C68.938 37.2286 68.938 36.9694 68.8324 36.7294C67.6132 33.811 65.3572 31.1614 62.314 29.0782C59.2516 26.9854 55.5076 25.5454 51.4948 24.9214C51.4468 24.9118 51.3988 24.9118 51.3508 24.9118C50.89 24.9118 50.4772 25.2574 50.41 25.7278C50.3716 25.9774 50.4292 26.227 50.5828 26.4382Z" fill="black"/>
<path d="M29.346 35.5104C29.49 35.856 29.8548 36.1056 30.2292 36.1056C30.2388 36.1056 30.258 36.1056 30.2676 36.1056C30.6516 36.0864 31.0068 35.808 31.1316 35.4336C31.2468 35.0592 31.1124 34.608 30.8052 34.3776C30.4788 34.128 29.9988 34.128 29.6724 34.3584C29.3268 34.608 29.1828 35.1072 29.346 35.5104Z" fill="black"/>
<path d="M35.1264 30.1051C34.7808 30.3643 34.6464 30.8539 34.8 31.2571C34.9536 31.6219 35.3376 31.8715 35.7408 31.8523C36.1248 31.8235 36.4704 31.5547 36.5856 31.1803C36.7008 30.8059 36.5664 30.3643 36.2592 30.1243C35.9424 29.8651 35.4432 29.8651 35.1264 30.1051Z" fill="black"/>
<path d="M40.9924 34.3584C40.6468 34.608 40.5028 35.1072 40.666 35.5104C40.81 35.856 41.1844 36.1056 41.5588 36.1056C41.5684 36.1056 41.5876 36.1056 41.5972 36.1056C41.9716 36.0864 42.3364 35.808 42.4516 35.4336C42.5668 35.0592 42.4324 34.608 42.1252 34.3776C41.7892 34.128 41.3092 34.128 40.9924 34.3584Z" fill="black"/>
<path d="M28.2144 77.4622H65.3856C69.648 77.4622 73.1232 73.9582 73.1232 69.6382V65.9422L73.1904 65.8846C74.2464 65.0302 74.832 63.8206 74.832 62.4766C74.832 61.6318 74.6016 60.8254 74.16 60.1438L74.0832 60.0286L74.1792 59.923C75.1008 58.8958 75.6096 57.5614 75.6096 56.1694V55.939C75.6096 53.5678 74.1216 51.4366 71.904 50.6494L71.7792 50.611V47.491L71.8944 47.443C72.2496 47.3086 72.576 47.1358 72.8832 46.9342C74.1216 46.099 74.832 44.7646 74.832 43.2958C74.832 42.3742 74.5536 41.5006 74.0352 40.771L73.9776 40.6846L74.016 40.5886C74.2848 39.955 74.352 39.2542 74.2272 38.5726C73.2672 33.379 69.9648 28.627 64.9344 25.1806C59.8944 21.7534 53.4528 19.8622 46.8 19.8622C40.1376 19.8622 33.7056 21.7534 28.6848 25.1902C23.6544 28.627 20.352 33.3886 19.392 38.5822C19.2288 39.4366 19.392 40.3198 19.8336 41.059L19.8912 41.1454L19.8432 41.2318C19.4976 41.8654 19.3344 42.5566 19.3344 43.2958C19.3344 44.7742 20.0448 46.099 21.2832 46.9438C21.4176 47.0302 21.5616 47.1166 21.744 47.2126L21.84 47.2606V50.611L21.7152 50.6494C19.488 51.4462 18 53.5678 18 55.939V56.1694C18 57.715 18.6432 59.2126 19.7664 60.2686L19.8624 60.3646L19.7952 60.4894C19.4784 61.0942 19.3152 61.7854 19.3152 62.4766C19.3152 63.571 19.6992 64.579 20.4192 65.3854L20.4672 65.4334V69.6286C20.4768 73.9582 23.952 77.4622 28.2144 77.4622ZM71.2128 69.6382C71.2128 72.8926 68.592 75.5326 65.376 75.5326H28.2144C24.9984 75.5326 22.3776 72.8926 22.3776 69.6382V66.6814L22.608 66.7486C23.5104 67.0078 24.4704 66.979 25.392 66.6814C25.4016 66.6718 25.4304 66.6622 25.4688 66.6622C25.536 66.6334 25.6128 66.6046 25.6992 66.5758C26.1312 66.403 26.592 66.3166 27.1104 66.3166C28.4736 66.3166 29.1264 66.787 29.8848 67.3246C30.7296 67.9294 31.7952 68.6878 33.7632 68.6878C35.7312 68.6878 36.7872 67.9294 37.6416 67.3246C38.4 66.7774 39.0528 66.3166 40.416 66.3166C41.7792 66.3166 42.432 66.787 43.1904 67.3246C44.0448 67.9294 45.1008 68.6878 47.0688 68.6878C49.0368 68.6878 50.0928 67.9294 50.9472 67.3246C51.7056 66.787 52.3584 66.3166 53.7216 66.3166C55.0848 66.3166 55.7376 66.787 56.496 67.3246C57.3504 67.939 58.4064 68.6878 60.3744 68.6878C62.3424 68.6878 63.3984 67.9294 64.2528 67.3246C65.0112 66.787 65.664 66.3166 67.0272 66.3166C67.4016 66.3166 67.7568 66.3646 68.0736 66.451C68.2368 66.499 68.3904 66.5566 68.544 66.6142C68.688 66.6718 68.8416 66.7294 68.9856 66.7678C69.6288 66.9502 70.32 66.9886 71.0016 66.883L71.2128 66.8446V69.6382ZM71.04 64.8862C70.4352 65.0686 69.7728 65.0302 69.168 64.7806C68.5056 64.5118 67.8048 64.3774 67.0272 64.3774C65.0592 64.3774 64.0032 65.1358 63.1488 65.7406C62.3904 66.2782 61.728 66.7486 60.3744 66.7486C59.0112 66.7486 58.3584 66.2782 57.6 65.7406C56.7552 65.1358 55.6896 64.3774 53.7216 64.3774C51.7536 64.3774 50.6976 65.1358 49.8528 65.7406C49.0848 66.2878 48.4224 66.7582 47.0688 66.7582C45.7056 66.7582 45.0528 66.2878 44.2944 65.7502C43.4496 65.1454 42.384 64.387 40.416 64.387C38.448 64.387 37.392 65.1454 36.5376 65.7502C35.7792 66.2974 35.1264 66.7582 33.7632 66.7582C32.4096 66.7582 31.7568 66.2974 30.9984 65.7598C30.1248 65.1454 29.0688 64.387 27.1104 64.387C26.3328 64.387 25.632 64.5214 24.9696 64.7902C24.1632 65.1166 23.2512 65.0686 22.5216 64.6462C21.8304 64.2526 21.36 63.5998 21.2448 62.851C21.2064 62.6206 21.2064 62.3806 21.2352 62.1598C21.3408 61.5454 21.4272 61.4974 21.4752 61.4686L21.552 61.4302L21.6384 61.459C22.2432 61.6798 22.8768 61.795 23.5296 61.795H44.4576L44.5152 61.843L46.6176 63.9646C46.9824 64.339 47.5968 64.3294 47.9616 63.9646L50.1312 61.7854H70.0416C70.656 61.7854 71.2704 61.6798 71.8656 61.4686C71.9904 61.4302 72.1056 61.3822 72.2208 61.3246C72.2784 61.2862 72.3456 61.2478 72.432 61.2478C72.432 61.2478 72.4416 61.2478 72.4512 61.2478C72.6144 61.2574 72.672 61.411 72.7008 61.4782C72.8352 61.795 72.912 62.1118 72.912 62.4382C72.9408 63.5518 72.1728 64.5598 71.04 64.8862ZM23.7312 50.3326V47.7406H23.9136C23.9808 47.7406 24.0576 47.7406 24.1248 47.731C24.6336 47.7022 25.1616 47.587 25.776 47.347C26.2944 47.1454 26.9088 47.0782 27.5904 47.1358C28.6368 47.2318 29.2224 47.6446 29.8944 48.1246C30.7392 48.7294 31.8048 49.4878 33.7728 49.4878C35.7408 49.4878 36.7968 48.7294 37.6512 48.1246C38.4192 47.5774 39.072 47.1166 40.4256 47.1166C41.7888 47.1166 42.432 47.5774 43.1904 48.1246C44.0544 48.739 45.1104 49.4974 47.0784 49.4974C49.0464 49.4974 50.1024 48.739 50.9568 48.1342C51.7152 47.587 52.368 47.1262 53.7312 47.1262C55.0944 47.1262 55.7472 47.5966 56.5056 48.1342C57.36 48.7486 58.416 49.4974 60.384 49.4974C62.352 49.4974 63.408 48.739 64.2624 48.1342C65.0208 47.5966 65.6736 47.1262 67.0368 47.1262C67.536 47.1262 68.016 47.2126 68.448 47.3854C68.8704 47.5582 69.2928 47.6638 69.7056 47.7118L69.8688 47.731V50.3326H23.7312ZM36.576 53.7982L33.888 56.5054L33.7632 56.3806L29.6832 52.2622H35.0496L36.576 53.7982ZM56.928 52.2622L56.6208 52.5694L49.1136 60.0766V60.1822H49.008L47.2992 61.9102L45.5328 60.1342L37.7376 52.2622H56.928ZM73.6992 55.939V56.1694C73.6992 57.3598 73.1232 58.483 72.1536 59.1838C71.5488 59.6158 70.8 59.8558 70.0608 59.8558H52.0608L59.6448 52.2622H70.0512C72.0576 52.2622 73.6992 53.9134 73.6992 55.939ZM29.7504 26.7838C34.464 23.5582 40.5216 21.7918 46.8 21.7918C53.0784 21.7918 59.136 23.5678 63.8496 26.7838C68.4672 29.9422 71.4816 34.2526 72.3456 38.9278C72.432 39.3886 72.3072 39.8686 72 40.2334C71.6928 40.6078 71.2512 40.819 70.7904 40.819H22.8192C22.3488 40.819 21.9072 40.6078 21.6096 40.2334C21.3024 39.859 21.1776 39.3886 21.264 38.9278C22.128 34.2526 25.1424 29.9422 29.7504 26.7838ZM21.2256 43.2958C21.2256 43.075 21.2544 42.8542 21.312 42.6334L21.3696 42.4414L21.552 42.5086C21.9456 42.6622 22.3872 42.7486 22.8192 42.7486H70.7904C71.3952 42.7486 71.9808 42.595 72.4992 42.2974L72.672 42.1918L72.7488 42.3838C72.864 42.6718 72.9216 42.9694 72.9216 43.2862C72.9216 44.1118 72.5184 44.851 71.8176 45.331C71.1264 45.811 70.2144 45.9358 69.3888 45.667C69.2544 45.6286 69.1296 45.5806 68.9952 45.5326C68.7552 45.4462 68.5248 45.3598 68.2752 45.3118C67.8816 45.2254 67.4688 45.187 67.0368 45.187C65.0688 45.187 64.0128 45.9454 63.1584 46.5502C62.4 47.0878 61.7376 47.5582 60.384 47.5582C59.0208 47.5582 58.368 47.0878 57.6096 46.5502C56.7648 45.9454 55.6992 45.187 53.7312 45.187C51.7632 45.187 50.7072 45.9454 49.8624 46.5502C49.0944 47.0974 48.432 47.5678 47.0784 47.5678C45.7152 47.5678 45.0624 47.0974 44.304 46.5598C43.4592 45.955 42.3936 45.1966 40.4256 45.1966C38.4576 45.1966 37.4016 45.955 36.5472 46.5598C35.7888 47.107 35.136 47.5678 33.7728 47.5678C32.4096 47.5678 31.7568 47.0974 30.9984 46.5598C30.144 45.9454 29.088 45.1966 27.12 45.1966C26.3424 45.1966 25.6416 45.331 24.9792 45.5998C24.1152 45.9646 23.0976 45.859 22.3296 45.3406C21.6288 44.8606 21.2256 44.1214 21.2256 43.2958ZM19.9008 56.179V55.9486C19.9008 53.923 21.5328 52.2718 23.5488 52.2718H26.9952L27.0528 52.3198L33.2256 58.5598C33.5904 58.9246 34.224 58.915 34.5696 58.5598L37.9296 55.171L38.0544 55.2958L42.576 59.8654H23.5488C22.9152 59.8654 22.2912 59.6926 21.744 59.3854C20.6112 58.7134 19.9008 57.4942 19.9008 56.179Z" fill="black"/>
<path d="M43.556 31.2478C43.7 31.5934 44.0648 31.843 44.4392 31.843C44.4488 31.843 44.468 31.843 44.4776 31.843C44.852 31.8238 45.2168 31.5454 45.332 31.171C45.4472 30.7966 45.3128 30.355 45.0056 30.115C44.6984 29.875 44.2088 29.8654 43.8728 30.0958C43.5464 30.3454 43.3928 30.8542 43.556 31.2478Z" fill="black"/>
<path d="M48.6726 36.2976C48.8166 36.6432 49.1814 36.8928 49.5558 36.8928C49.5654 36.8928 49.5846 36.8928 49.5942 36.8928C49.9782 36.8736 50.3334 36.5952 50.4582 36.2304C50.5734 35.856 50.439 35.4048 50.1318 35.1744C49.8054 34.9248 49.335 34.9152 48.999 35.1552C48.6438 35.3952 48.4998 35.8848 48.6726 36.2976Z" fill="black"/>
<path d="M46.2344 24.1726C45.8408 24.1726 45.4856 24.4318 45.3512 24.7966C45.1976 25.1998 45.3512 25.6894 45.716 25.939C46.0616 26.1694 46.532 26.1406 46.8488 25.8814C47.156 25.6222 47.2808 25.171 47.1368 24.7966C46.9928 24.4318 46.628 24.1726 46.2344 24.1726Z" fill="black"/>
<path d="M71.0394 64.886C70.4346 65.0684 69.7722 65.03 69.1674 64.7804C68.505 64.5116 67.8042 64.3772 67.0266 64.3772C65.0586 64.3772 64.0026 65.1356 63.1482 65.7404C62.3898 66.278 61.7274 66.7484 60.3738 66.7484C59.0106 66.7484 58.3578 66.278 57.5994 65.7404C56.7546 65.1356 55.689 64.3772 53.721 64.3772C51.753 64.3772 50.697 65.1356 49.8522 65.7404C49.0842 66.2876 48.4218 66.758 47.0682 66.758C45.705 66.758 45.0522 66.2876 44.2938 65.75C43.449 65.1452 42.3834 64.3868 40.4154 64.3868C38.4474 64.3868 37.3914 65.1452 36.537 65.75C35.7786 66.2972 35.1258 66.758 33.7626 66.758C32.409 66.758 31.7562 66.2972 30.9978 65.7596C30.1242 65.1452 29.0682 64.3868 27.1098 64.3868C26.3322 64.3868 25.6314 64.5212 24.969 64.79C24.1626 65.1164 23.2506 65.0684 22.521 64.646C21.8298 64.2524 21.3594 63.5996 21.2442 62.8508C21.2058 62.6204 21.2058 62.3804 21.2346 62.1596C21.3402 61.5452 21.4266 61.4972 21.4746 61.4684L21.5514 61.43L21.6378 61.4588C22.2426 61.6796 22.8762 61.7948 23.529 61.7948H44.457L44.5146 61.8428L46.617 63.9644C46.9818 64.3388 47.5962 64.3292 47.961 63.9644L50.1306 61.7852H70.041C70.6554 61.7852 71.2698 61.6796 71.865 61.4684C71.9898 61.43 72.105 61.382 72.2202 61.3244C72.2778 61.286 72.345 61.2476 72.4314 61.2476C72.4314 61.2476 72.441 61.2476 72.4506 61.2476C72.6138 61.2572 72.6714 61.4108 72.7002 61.478C72.8346 61.7948 72.9114 62.1116 72.9114 62.438C72.9402 63.5516 72.1722 64.5596 71.0394 64.886Z" fill="#CC1543"/>
<path d="M23.7312 50.3331V47.7411H23.9136C23.9808 47.7411 24.0576 47.7411 24.1248 47.7315C24.6336 47.7027 25.1616 47.5875 25.776 47.3475C26.2944 47.1459 26.9088 47.0787 27.5904 47.1363C28.6368 47.2323 29.2224 47.6451 29.8944 48.1251C30.7392 48.7299 31.8048 49.4883 33.7728 49.4883C35.7408 49.4883 36.7968 48.7299 37.6512 48.1251C38.4192 47.5779 39.072 47.1171 40.4256 47.1171C41.7888 47.1171 42.432 47.5779 43.1904 48.1251C44.0544 48.7395 45.1104 49.4979 47.0784 49.4979C49.0464 49.4979 50.1024 48.7395 50.9568 48.1347C51.7152 47.5875 52.368 47.1267 53.7312 47.1267C55.0944 47.1267 55.7472 47.5971 56.5056 48.1347C57.36 48.7491 58.416 49.4979 60.384 49.4979C62.352 49.4979 63.408 48.7395 64.2624 48.1347C65.0208 47.5971 65.6736 47.1267 67.0368 47.1267C67.536 47.1267 68.016 47.2131 68.448 47.3859C68.8704 47.5587 69.2928 47.6643 69.7056 47.7123L69.8688 47.7315V50.3331H23.7312Z" fill="#CC1543"/>
<path d="M73.6977 55.939V56.1694C73.6977 57.3598 73.1217 58.483 72.1521 59.1838C71.5473 59.6158 70.7985 59.8558 70.0593 59.8558H52.0593L59.6433 52.2622H70.0497C72.0561 52.2622 73.6977 53.9134 73.6977 55.939Z" fill="#D6B294"/>
<path d="M19.8999 56.1816V55.9512C19.8999 53.9256 21.5319 52.2744 23.5479 52.2744H26.9943L27.0519 52.3224L33.2247 58.5624C33.5895 58.9272 34.2231 58.9176 34.5687 58.5624L37.9287 55.1736L38.0535 55.2984L42.5751 59.868H23.5479C22.9143 59.868 22.2903 59.6952 21.7431 59.388C20.6103 58.716 19.8999 57.4968 19.8999 56.1816Z" fill="#D6B294"/>
</svg>
