<svg width="64" height="88" viewBox="0 0 64 88" fill="none" xmlns="http://www.w3.org/2000/svg">
<path d="M59.3831 86.9204H2.8902C1.29274 86.9204 0 85.6236 0 84.0211V78H62.2733V84.0211C62.2733 85.6236 60.9805 86.9204 59.3831 86.9204Z" fill="white"/>
<path d="M60.242 35.0796H3.75837C2.16091 35.0796 0.868164 36.3764 0.868164 37.979V77.3474H4.53401H10.6376H63.1322V37.979C63.1322 36.3764 61.8395 35.0796 60.242 35.0796Z" fill="#CC1543"/>
<path d="M31.9953 0.870728C22.1705 0.870728 14.2017 8.86483 14.2017 18.7208V35.0796H20.1298V18.7116C20.1298 12.1533 25.4485 6.80841 31.9953 6.80841C38.5422 6.80841 43.8609 12.1533 43.8609 18.7116V35.0703H49.789V18.7116C49.789 8.85557 41.8294 0.870728 31.9953 0.870728Z" fill="#C7C8CA"/>
<path opacity="0.75" d="M59.3831 86.9204H2.8902C1.29274 86.9204 0 85.6236 0 84.0211V78H62.2733V84.0211C62.2733 85.6236 60.9805 86.9204 59.3831 86.9204Z" fill="#CC1543" fill-opacity="0.75"/>
<path d="M37.933 51.4383C37.933 48.1499 35.2736 45.4913 32.0048 45.4913C28.736 45.4913 26.0767 48.1591 26.0767 51.4383C26.0767 53.5595 27.194 55.4122 28.8561 56.4589L26.0767 67.797H37.9422L35.1628 56.4589C36.8157 55.4029 37.933 53.5595 37.933 51.4383Z" fill="white"/>
<path d="M3.75837 35.0796H8.2091C6.61164 35.0796 5.31889 36.3764 5.31889 37.979V84.2392C5.31889 85.8417 6.61164 87.1385 8.2091 87.1385H3.75837C2.16091 87.1385 0.868164 85.8417 0.868164 84.2392V37.979C0.868164 36.3764 2.16091 35.0796 3.75837 35.0796Z" fill="white"/>
<path d="M64 84.2299V37.9789C64 35.904 62.3194 34.2088 60.2418 34.2088H50.6571V18.7116C50.6571 8.39242 42.2912 0 31.9954 0C21.7088 0 13.343 8.39242 13.343 18.7116V34.2088H3.75819C1.68057 34.2088 0 35.8947 0 37.9789V84.2392C0 86.3141 1.68057 88 3.75819 88H60.251C62.3194 88 64 86.3141 64 84.2299ZM15.0697 18.7116C15.0697 9.34653 22.6599 1.73221 31.9954 1.73221C41.3308 1.73221 48.9211 9.34653 48.9211 18.7116V34.2088H44.7197V18.7116C44.7197 11.6716 39.0131 5.94695 31.9954 5.94695C24.9776 5.94695 19.2711 11.6716 19.2711 18.7116V34.2088H15.0697V18.7116ZM42.9929 18.7116V34.2088H21.0071V18.7116C21.0071 12.6257 25.938 7.67916 32.0046 7.67916C38.0713 7.67916 42.9929 12.6349 42.9929 18.7116ZM1.72673 37.9789C1.72673 36.8581 2.63165 35.9503 3.74895 35.9503H60.2418C61.3591 35.9503 62.264 36.8581 62.264 37.9789V77.3474H1.72673V37.9789ZM1.72673 84.2299V79.0703H62.264V84.2299C62.264 85.3507 61.3591 86.2585 60.2418 86.2585H3.75819C2.64089 86.2678 1.72673 85.3507 1.72673 84.2299Z" fill="black" fill-opacity="0.87"/>
<path d="M37.9328 68.6678C38.2006 68.6678 38.4499 68.5473 38.6161 68.3343C38.7823 68.1212 38.8377 67.8526 38.7731 67.5932L36.1414 56.848L36.4277 56.5979C37.9328 55.3103 38.8008 53.4299 38.8008 51.4383C38.8008 47.6774 35.7536 44.6206 32.0046 44.6206C28.2557 44.6206 25.2085 47.6774 25.2085 51.4383C25.2085 53.4206 26.0765 55.301 27.5816 56.5979L27.8679 56.848L25.2362 67.5932C25.1716 67.8526 25.227 68.1212 25.3932 68.3343C25.5594 68.5381 25.8087 68.6678 26.0765 68.6678H37.9328ZM29.6869 56.6627C29.7793 56.3014 29.6223 55.9217 29.3083 55.7179C27.8217 54.7823 26.9352 53.1705 26.9352 51.429C26.9352 48.6223 29.2068 46.3436 32.0046 46.3436C34.8025 46.3436 37.074 48.6223 37.074 51.429C37.074 53.1705 36.1876 54.773 34.7009 55.7179C34.387 55.9217 34.23 56.2922 34.3223 56.6627L36.8339 66.9263H27.1753L29.6869 56.6627Z" fill="black" fill-opacity="0.87"/>
</svg>
