<svg viewBox="0 0 32 32" fill="none" xmlns="http://www.w3.org/2000/svg">
  <mask id="mask0" mask-type="alpha" maskUnits="userSpaceOnUse">
    <path d="M16 32C24.8366 32 32 24.8366 32 16C32 7.16344 24.8366 0 16 0C7.16344 0 0 7.16344 0 16C0 24.8366 7.16344 32 16 32Z" fill="#DEE1C8"/>
  </mask>
  <g mask="url(#mask0)">
    <path d="M9.87744 8.6969V9.90206L11.0826 27.5778H20.7239L21.9291 9.90206V8.6969H9.87744Z" fill="#FEFEFE"/>
    <path d="M21.6278 14.321L21.1346 21.552H10.6718L10.1787 14.321H21.6278Z" fill="#93573D"/>
    <path d="M10.6809 4.27795H21.1256C21.3387 4.27795 21.5431 4.3626 21.6937 4.51328C21.8444 4.66395 21.9291 4.86831 21.9291 5.0814V7.89344H9.87744V5.0814C9.87744 4.86831 9.96209 4.66395 10.1128 4.51328C10.2634 4.3626 10.4678 4.27795 10.6809 4.27795Z" fill="#93573D"/>
    <path d="M9.87766 7.4917H21.9293C22.1424 7.4917 22.3467 7.57635 22.4974 7.72702C22.6481 7.8777 22.7327 8.08205 22.7327 8.29514V9.90202H9.07422V8.29514C9.07422 8.08205 9.15887 7.8777 9.30954 7.72702C9.46022 7.57635 9.66457 7.4917 9.87766 7.4917Z" fill="#794832"/>
    <path d="M10.8516 22.7929L10.6814 22.7572L10.8516 22.7929Z" fill="#FEB9B9"/>
    <path d="M12.2884 14.321H10.6815C10.0159 14.321 9.47632 14.8606 9.47632 15.5262C9.47632 16.1918 10.0159 16.7314 10.6815 16.7314H12.2884C12.954 16.7314 13.4935 16.1918 13.4935 15.5262C13.4935 14.8606 12.954 14.321 12.2884 14.321Z" fill="#FEB9B9"/>
    <path d="M12.2879 16.7313H10.681C10.0154 16.7313 9.47583 17.2709 9.47583 17.9365C9.47583 18.6021 10.0154 19.1416 10.681 19.1416H12.2879C12.9535 19.1416 13.493 18.6021 13.493 17.9365C13.493 17.2709 12.9535 16.7313 12.2879 16.7313Z" fill="#FEB9B9"/>
    <path d="M12.2879 19.1417H10.681C10.0154 19.1417 9.47583 19.6813 9.47583 20.3469C9.47583 21.0125 10.0154 21.552 10.681 21.552H12.2879C12.9535 21.552 13.493 21.0125 13.493 20.3469C13.493 19.6813 12.9535 19.1417 12.2879 19.1417Z" fill="#FEB9B9"/>
    <path d="M11.4844 21.552H10.681C10.0154 21.552 9.47583 22.0916 9.47583 22.7572C9.47583 23.4228 10.0154 23.9623 10.681 23.9623H11.4844C12.15 23.9623 12.6896 23.4228 12.6896 22.7572C12.6896 22.0916 12.15 21.552 11.4844 21.552Z" fill="#FEB9B9"/>
    <path d="M12.2879 17.1332H10.681C10.5745 17.1332 10.4723 17.0908 10.397 17.0155C10.3216 16.9402 10.2793 16.838 10.2793 16.7314C10.2793 16.6249 10.3216 16.5227 10.397 16.4474C10.4723 16.372 10.5745 16.3297 10.681 16.3297H12.2879C12.3944 16.3297 12.4966 16.372 12.572 16.4474C12.6473 16.5227 12.6896 16.6249 12.6896 16.7314C12.6896 16.838 12.6473 16.9402 12.572 17.0155C12.4966 17.0908 12.3944 17.1332 12.2879 17.1332Z" fill="#E8A7A7"/>
    <path d="M12.2879 19.5434H10.681C10.5745 19.5434 10.4723 19.5011 10.397 19.4258C10.3216 19.3504 10.2793 19.2483 10.2793 19.1417C10.2793 19.0352 10.3216 18.933 10.397 18.8577C10.4723 18.7823 10.5745 18.74 10.681 18.74H12.2879C12.3944 18.74 12.4966 18.7823 12.572 18.8577C12.6473 18.933 12.6896 19.0352 12.6896 19.1417C12.6896 19.2483 12.6473 19.3504 12.572 19.4258C12.4966 19.5011 12.3944 19.5434 12.2879 19.5434Z" fill="#E8A7A7"/>
    <path d="M11.8862 21.9537H10.681C10.5745 21.9537 10.4723 21.9114 10.397 21.836C10.3216 21.7607 10.2793 21.6585 10.2793 21.552C10.2793 21.4454 10.3216 21.3433 10.397 21.2679C10.4723 21.1926 10.5745 21.1503 10.681 21.1503H11.8862C11.9927 21.1503 12.0949 21.1926 12.1702 21.2679C12.2456 21.3433 12.2879 21.4454 12.2879 21.552C12.2879 21.6585 12.2456 21.7607 12.1702 21.836C12.0949 21.9114 11.9927 21.9537 11.8862 21.9537Z" fill="#E8A7A7"/>
    <path d="M32.8462 18.1373V24.9666C32.8462 25.0199 32.825 25.071 32.7874 25.1086C32.7497 25.1463 32.6986 25.1675 32.6453 25.1675H26.8056C26.7692 25.1675 26.7334 25.1774 26.7022 25.1961L25.4308 25.9589C25.2138 26.0892 24.9718 26.1724 24.7206 26.2031C24.4693 26.2339 24.2144 26.2116 23.9724 26.1376L21.0393 25.2412C20.9959 25.2279 20.9583 25.2003 20.9326 25.1629C20.9068 25.1256 20.8945 25.0806 20.8976 25.0353L21.1494 21.3389L21.3905 17.8057C21.3935 17.7615 21.3818 17.7175 21.3572 17.6806L19.9804 15.6154C19.962 15.5879 19.9372 15.5654 19.908 15.5498C19.8788 15.5342 19.8462 15.5261 19.8132 15.5262H17.7112C17.3383 15.5262 16.9807 15.378 16.717 15.1143C16.4533 14.8507 16.3052 14.493 16.3052 14.1201C16.3052 13.7472 16.4533 13.3896 16.717 13.1259C16.9807 12.8622 17.3383 12.7141 17.7112 12.7141H20.2859C20.3099 12.7141 20.3338 12.7185 20.3562 12.7269L21.702 13.2318L21.7502 13.2499L23.4841 13.8998C23.518 13.9126 23.5478 13.9342 23.5704 13.9625L26.6897 17.8612C26.7085 17.8847 26.7323 17.9036 26.7595 17.9167C26.7866 17.9297 26.8164 17.9365 26.8465 17.9365H32.6453C32.6986 17.9365 32.7497 17.9576 32.7874 17.9953C32.825 18.033 32.8462 18.0841 32.8462 18.1373Z" fill="#FEB9B9"/>
  </g>
</svg>
